G04 #@! TF.GenerationSoftware,KiCad,Pcbnew,(5.1.5-0-10_14)*
G04 #@! TF.CreationDate,2020-08-16T11:11:37-04:00*
G04 #@! TF.ProjectId,AYOMSM - VCA Control Board,41594f4d-534d-4202-9d20-56434120436f,rev?*
G04 #@! TF.SameCoordinates,Original*
G04 #@! TF.FileFunction,Copper,L2,Bot*
G04 #@! TF.FilePolarity,Positive*
%FSLAX46Y46*%
G04 Gerber Fmt 4.6, Leading zero omitted, Abs format (unit mm)*
G04 Created by KiCad (PCBNEW (5.1.5-0-10_14)) date 2020-08-16 11:11:37*
%MOMM*%
%LPD*%
G04 APERTURE LIST*
%ADD10R,1.700000X1.700000*%
%ADD11O,1.700000X1.700000*%
%ADD12C,1.440000*%
%ADD13R,1.800000X1.800000*%
%ADD14C,1.800000*%
%ADD15O,2.720000X3.240000*%
%ADD16C,0.100000*%
%ADD17C,2.600000*%
%ADD18O,2.000000X3.000000*%
%ADD19R,2.500000X1.000000*%
%ADD20C,1.000000*%
%ADD21C,0.400000*%
%ADD22C,0.254000*%
G04 APERTURE END LIST*
D10*
X79150000Y-90614500D03*
D11*
X81690000Y-90614500D03*
X84230000Y-90614500D03*
X86770000Y-90614500D03*
X89310000Y-90614500D03*
X91850000Y-90614500D03*
D10*
X92646500Y-127965000D03*
D11*
X92646500Y-130505000D03*
X92646500Y-133045000D03*
X92646500Y-135585000D03*
X92646500Y-138125000D03*
X92646500Y-140665000D03*
X92646500Y-143205000D03*
X92646500Y-145745000D03*
X92646500Y-148285000D03*
X92646500Y-150825000D03*
D12*
X88030000Y-77470000D03*
X85490000Y-77470000D03*
X82950000Y-77470000D03*
X88050000Y-71437500D03*
X85510000Y-71437500D03*
X82970000Y-71437500D03*
D13*
X83000000Y-67056000D03*
D14*
X85500000Y-67056000D03*
X88000000Y-67056000D03*
D15*
X90300000Y-59556000D03*
X80700000Y-59556000D03*
G04 #@! TA.AperFunction,ComponentPad*
D16*
G36*
X79263211Y-101192130D02*
G01*
X79326309Y-101201490D01*
X79388185Y-101216989D01*
X79448244Y-101238478D01*
X79505908Y-101265751D01*
X79560621Y-101298545D01*
X79611856Y-101336543D01*
X79659119Y-101379381D01*
X79701957Y-101426644D01*
X79739955Y-101477879D01*
X79772749Y-101532592D01*
X79800022Y-101590256D01*
X79821511Y-101650315D01*
X79837010Y-101712191D01*
X79846370Y-101775289D01*
X79849500Y-101839000D01*
X79849500Y-103139000D01*
X79846370Y-103202711D01*
X79837010Y-103265809D01*
X79821511Y-103327685D01*
X79800022Y-103387744D01*
X79772749Y-103445408D01*
X79739955Y-103500121D01*
X79701957Y-103551356D01*
X79659119Y-103598619D01*
X79611856Y-103641457D01*
X79560621Y-103679455D01*
X79505908Y-103712249D01*
X79448244Y-103739522D01*
X79388185Y-103761011D01*
X79326309Y-103776510D01*
X79263211Y-103785870D01*
X79199500Y-103789000D01*
X77899500Y-103789000D01*
X77835789Y-103785870D01*
X77772691Y-103776510D01*
X77710815Y-103761011D01*
X77650756Y-103739522D01*
X77593092Y-103712249D01*
X77538379Y-103679455D01*
X77487144Y-103641457D01*
X77439881Y-103598619D01*
X77397043Y-103551356D01*
X77359045Y-103500121D01*
X77326251Y-103445408D01*
X77298978Y-103387744D01*
X77277489Y-103327685D01*
X77261990Y-103265809D01*
X77252630Y-103202711D01*
X77249500Y-103139000D01*
X77249500Y-101839000D01*
X77252630Y-101775289D01*
X77261990Y-101712191D01*
X77277489Y-101650315D01*
X77298978Y-101590256D01*
X77326251Y-101532592D01*
X77359045Y-101477879D01*
X77397043Y-101426644D01*
X77439881Y-101379381D01*
X77487144Y-101336543D01*
X77538379Y-101298545D01*
X77593092Y-101265751D01*
X77650756Y-101238478D01*
X77710815Y-101216989D01*
X77772691Y-101201490D01*
X77835789Y-101192130D01*
X77899500Y-101189000D01*
X79199500Y-101189000D01*
X79263211Y-101192130D01*
G37*
G04 #@! TD.AperFunction*
D17*
X78549500Y-97409000D03*
D18*
X80822800Y-85189800D03*
X85522800Y-85189800D03*
X90222800Y-85189800D03*
D19*
X85471000Y-94902000D03*
X85471000Y-103202000D03*
X85471000Y-106302000D03*
X85471000Y-109761000D03*
X85471000Y-118061000D03*
X85471000Y-121161000D03*
X85471000Y-124874000D03*
X85471000Y-133174000D03*
X85471000Y-136274000D03*
X85471000Y-139860000D03*
X85471000Y-148160000D03*
X85471000Y-151260000D03*
D20*
X80352400Y-115794500D03*
X81677600Y-118958100D03*
D21*
X85471000Y-121161000D02*
X85471000Y-122161300D01*
X85471000Y-133174000D02*
X87221300Y-133174000D01*
X87221300Y-133174000D02*
X89013200Y-131382100D01*
X89013200Y-131382100D02*
X89013200Y-125703500D01*
X89013200Y-125703500D02*
X85471000Y-122161300D01*
X85471000Y-103202000D02*
X79262500Y-103202000D01*
X79262500Y-103202000D02*
X78549500Y-102489000D01*
X85471000Y-106302000D02*
X85471000Y-107302300D01*
X85471000Y-118061000D02*
X83720700Y-118061000D01*
X83720700Y-118061000D02*
X81956200Y-116296500D01*
X81956200Y-116296500D02*
X81956200Y-110817100D01*
X81956200Y-110817100D02*
X85471000Y-107302300D01*
X85471000Y-148160000D02*
X83720700Y-148160000D01*
X85471000Y-136274000D02*
X85471000Y-137274300D01*
X85471000Y-137274300D02*
X81979700Y-140765600D01*
X81979700Y-140765600D02*
X81979700Y-146419000D01*
X81979700Y-146419000D02*
X83720700Y-148160000D01*
X92211500Y-151260000D02*
X92646500Y-150825000D01*
X85471000Y-151260000D02*
X92211500Y-151260000D01*
X85471000Y-94902000D02*
X83437500Y-94902000D01*
X83437500Y-94902000D02*
X79150000Y-90614500D01*
X85471000Y-109761000D02*
X85471000Y-108760700D01*
X85471000Y-108760700D02*
X89022000Y-105209700D01*
X89022000Y-105209700D02*
X89022000Y-95992800D01*
X89022000Y-95992800D02*
X85962500Y-92933300D01*
X85962500Y-92933300D02*
X84008800Y-92933300D01*
X84008800Y-92933300D02*
X81690000Y-90614500D01*
X84230000Y-90614500D02*
X84230000Y-89264200D01*
X78549500Y-97409000D02*
X77799600Y-96659100D01*
X77799600Y-96659100D02*
X77799600Y-89533000D01*
X77799600Y-89533000D02*
X78082800Y-89249800D01*
X78082800Y-89249800D02*
X82865300Y-89249800D01*
X85500000Y-67056000D02*
X85500000Y-68378700D01*
X85500000Y-68378700D02*
X84220000Y-69658700D01*
X84220000Y-69658700D02*
X84220000Y-78492800D01*
X84220000Y-78492800D02*
X82865300Y-79847500D01*
X82865300Y-79847500D02*
X82865300Y-89249800D01*
X84215600Y-89249800D02*
X84230000Y-89264200D01*
X82865300Y-89249800D02*
X84215600Y-89249800D01*
X92646500Y-127965000D02*
X92646500Y-126614700D01*
X85522800Y-85189800D02*
X87023100Y-85189800D01*
X87023100Y-85189800D02*
X89445100Y-87611800D01*
X89445100Y-87611800D02*
X90789100Y-87611800D01*
X90789100Y-87611800D02*
X93217500Y-90040200D01*
X93217500Y-90040200D02*
X93217500Y-126043700D01*
X93217500Y-126043700D02*
X92646500Y-126614700D01*
X92646500Y-130505000D02*
X90448800Y-128307300D01*
X90448800Y-128307300D02*
X90448800Y-122649600D01*
X90448800Y-122649600D02*
X87135500Y-119336300D01*
X87135500Y-119336300D02*
X83894200Y-119336300D01*
X83894200Y-119336300D02*
X80352400Y-115794500D01*
X81677600Y-118958100D02*
X82818100Y-120098600D01*
X82818100Y-120098600D02*
X86907300Y-120098600D01*
X86907300Y-120098600D02*
X89725200Y-122916500D01*
X89725200Y-122916500D02*
X89725200Y-132663700D01*
X89725200Y-132663700D02*
X92646500Y-135585000D01*
X88030000Y-77470000D02*
X93999500Y-83439500D01*
X93999500Y-83439500D02*
X93999500Y-139312000D01*
X93999500Y-139312000D02*
X92646500Y-140665000D01*
X82970000Y-71437500D02*
X76739800Y-77667700D01*
X76739800Y-77667700D02*
X76739800Y-126906800D01*
X76739800Y-126906800D02*
X84007400Y-134174400D01*
X84007400Y-134174400D02*
X85915700Y-134174400D01*
X85915700Y-134174400D02*
X90441700Y-138700400D01*
X90441700Y-138700400D02*
X90441700Y-143540200D01*
X90441700Y-143540200D02*
X92646500Y-145745000D01*
D22*
G36*
X83387959Y-134735827D02*
G01*
X83414109Y-134767691D01*
X83541254Y-134872036D01*
X83686313Y-134949572D01*
X83843711Y-134997318D01*
X83966381Y-135009400D01*
X83966391Y-135009400D01*
X84007399Y-135013439D01*
X84048407Y-135009400D01*
X85569833Y-135009400D01*
X85728091Y-135167659D01*
X85598000Y-135297750D01*
X85598000Y-136147000D01*
X85618000Y-136147000D01*
X85618000Y-136401000D01*
X85598000Y-136401000D01*
X85598000Y-137250250D01*
X85756750Y-137409000D01*
X86721000Y-137412072D01*
X86845482Y-137399812D01*
X86965180Y-137363502D01*
X87075494Y-137304537D01*
X87172185Y-137225185D01*
X87251537Y-137128494D01*
X87310502Y-137018180D01*
X87346812Y-136898482D01*
X87356863Y-136796431D01*
X89606700Y-139046269D01*
X89606701Y-143499172D01*
X89602660Y-143540200D01*
X89618782Y-143703888D01*
X89666528Y-143861286D01*
X89691717Y-143908411D01*
X89744065Y-144006346D01*
X89848410Y-144133491D01*
X89880274Y-144159641D01*
X91187693Y-145467060D01*
X91161500Y-145598740D01*
X91161500Y-145891260D01*
X91218568Y-146178158D01*
X91330510Y-146448411D01*
X91493025Y-146691632D01*
X91699868Y-146898475D01*
X91882034Y-147020195D01*
X91765145Y-147089822D01*
X91548912Y-147284731D01*
X91374859Y-147518080D01*
X91249675Y-147780901D01*
X91205024Y-147928110D01*
X91326345Y-148158000D01*
X92519500Y-148158000D01*
X92519500Y-148138000D01*
X92773500Y-148138000D01*
X92773500Y-148158000D01*
X93966655Y-148158000D01*
X94087976Y-147928110D01*
X94043325Y-147780901D01*
X93918141Y-147518080D01*
X93744088Y-147284731D01*
X93527855Y-147089822D01*
X93410966Y-147020195D01*
X93593132Y-146898475D01*
X93799975Y-146691632D01*
X93962490Y-146448411D01*
X94074432Y-146178158D01*
X94131500Y-145891260D01*
X94131500Y-145598740D01*
X94074432Y-145311842D01*
X93962490Y-145041589D01*
X93799975Y-144798368D01*
X93593132Y-144591525D01*
X93418740Y-144475000D01*
X93593132Y-144358475D01*
X93799975Y-144151632D01*
X93962490Y-143908411D01*
X94074432Y-143638158D01*
X94131500Y-143351260D01*
X94131500Y-143058740D01*
X94074432Y-142771842D01*
X93962490Y-142501589D01*
X93799975Y-142258368D01*
X93593132Y-142051525D01*
X93418740Y-141935000D01*
X93593132Y-141818475D01*
X93799975Y-141611632D01*
X93962490Y-141368411D01*
X94074432Y-141098158D01*
X94131500Y-140811260D01*
X94131500Y-140518740D01*
X94105307Y-140387061D01*
X94340001Y-140152368D01*
X94340001Y-152340000D01*
X86982957Y-152340000D01*
X87075494Y-152290537D01*
X87172185Y-152211185D01*
X87251537Y-152114494D01*
X87310502Y-152004180D01*
X87346812Y-151884482D01*
X87359072Y-151760000D01*
X87356000Y-151545750D01*
X87197250Y-151387000D01*
X85598000Y-151387000D01*
X85598000Y-151407000D01*
X85344000Y-151407000D01*
X85344000Y-151387000D01*
X83744750Y-151387000D01*
X83586000Y-151545750D01*
X83582928Y-151760000D01*
X83595188Y-151884482D01*
X83631498Y-152004180D01*
X83690463Y-152114494D01*
X83769815Y-152211185D01*
X83866506Y-152290537D01*
X83959043Y-152340000D01*
X76660000Y-152340000D01*
X76660000Y-151181890D01*
X91205024Y-151181890D01*
X91249675Y-151329099D01*
X91374859Y-151591920D01*
X91548912Y-151825269D01*
X91765145Y-152020178D01*
X92015248Y-152169157D01*
X92289609Y-152266481D01*
X92519500Y-152145814D01*
X92519500Y-150952000D01*
X92773500Y-150952000D01*
X92773500Y-152145814D01*
X93003391Y-152266481D01*
X93277752Y-152169157D01*
X93527855Y-152020178D01*
X93744088Y-151825269D01*
X93918141Y-151591920D01*
X94043325Y-151329099D01*
X94087976Y-151181890D01*
X93966655Y-150952000D01*
X92773500Y-150952000D01*
X92519500Y-150952000D01*
X91326345Y-150952000D01*
X91205024Y-151181890D01*
X76660000Y-151181890D01*
X76660000Y-150760000D01*
X83582928Y-150760000D01*
X83586000Y-150974250D01*
X83744750Y-151133000D01*
X85344000Y-151133000D01*
X85344000Y-150283750D01*
X85598000Y-150283750D01*
X85598000Y-151133000D01*
X87197250Y-151133000D01*
X87356000Y-150974250D01*
X87359072Y-150760000D01*
X87346812Y-150635518D01*
X87310502Y-150515820D01*
X87251537Y-150405506D01*
X87172185Y-150308815D01*
X87075494Y-150229463D01*
X86965180Y-150170498D01*
X86845482Y-150134188D01*
X86721000Y-150121928D01*
X85756750Y-150125000D01*
X85598000Y-150283750D01*
X85344000Y-150283750D01*
X85185250Y-150125000D01*
X84221000Y-150121928D01*
X84096518Y-150134188D01*
X83976820Y-150170498D01*
X83866506Y-150229463D01*
X83769815Y-150308815D01*
X83690463Y-150405506D01*
X83631498Y-150515820D01*
X83595188Y-150635518D01*
X83582928Y-150760000D01*
X76660000Y-150760000D01*
X76660000Y-148660000D01*
X83582928Y-148660000D01*
X83595188Y-148784482D01*
X83631498Y-148904180D01*
X83690463Y-149014494D01*
X83769815Y-149111185D01*
X83866506Y-149190537D01*
X83976820Y-149249502D01*
X84096518Y-149285812D01*
X84221000Y-149298072D01*
X85185250Y-149295000D01*
X85344000Y-149136250D01*
X85344000Y-148287000D01*
X85598000Y-148287000D01*
X85598000Y-149136250D01*
X85756750Y-149295000D01*
X86721000Y-149298072D01*
X86845482Y-149285812D01*
X86965180Y-149249502D01*
X87075494Y-149190537D01*
X87172185Y-149111185D01*
X87251537Y-149014494D01*
X87310502Y-148904180D01*
X87346812Y-148784482D01*
X87359072Y-148660000D01*
X87358813Y-148641890D01*
X91205024Y-148641890D01*
X91249675Y-148789099D01*
X91374859Y-149051920D01*
X91548912Y-149285269D01*
X91765145Y-149480178D01*
X91890755Y-149555000D01*
X91765145Y-149629822D01*
X91548912Y-149824731D01*
X91374859Y-150058080D01*
X91249675Y-150320901D01*
X91205024Y-150468110D01*
X91326345Y-150698000D01*
X92519500Y-150698000D01*
X92519500Y-148412000D01*
X92773500Y-148412000D01*
X92773500Y-150698000D01*
X93966655Y-150698000D01*
X94087976Y-150468110D01*
X94043325Y-150320901D01*
X93918141Y-150058080D01*
X93744088Y-149824731D01*
X93527855Y-149629822D01*
X93402245Y-149555000D01*
X93527855Y-149480178D01*
X93744088Y-149285269D01*
X93918141Y-149051920D01*
X94043325Y-148789099D01*
X94087976Y-148641890D01*
X93966655Y-148412000D01*
X92773500Y-148412000D01*
X92519500Y-148412000D01*
X91326345Y-148412000D01*
X91205024Y-148641890D01*
X87358813Y-148641890D01*
X87356000Y-148445750D01*
X87197250Y-148287000D01*
X85598000Y-148287000D01*
X85344000Y-148287000D01*
X83744750Y-148287000D01*
X83586000Y-148445750D01*
X83582928Y-148660000D01*
X76660000Y-148660000D01*
X76660000Y-143737264D01*
X81836653Y-143737264D01*
X81836653Y-144458880D01*
X81977434Y-145166631D01*
X82253584Y-145833317D01*
X82654493Y-146433319D01*
X83164753Y-146943579D01*
X83696112Y-147298622D01*
X83690463Y-147305506D01*
X83631498Y-147415820D01*
X83595188Y-147535518D01*
X83582928Y-147660000D01*
X83586000Y-147874250D01*
X83744750Y-148033000D01*
X85344000Y-148033000D01*
X85344000Y-148013000D01*
X85598000Y-148013000D01*
X85598000Y-148033000D01*
X87197250Y-148033000D01*
X87356000Y-147874250D01*
X87359072Y-147660000D01*
X87346812Y-147535518D01*
X87310502Y-147415820D01*
X87262603Y-147326208D01*
X87835247Y-146943579D01*
X88345507Y-146433319D01*
X88746416Y-145833317D01*
X89022566Y-145166631D01*
X89163347Y-144458880D01*
X89163347Y-143737264D01*
X89022566Y-143029513D01*
X88746416Y-142362827D01*
X88345507Y-141762825D01*
X87835247Y-141252565D01*
X87235245Y-140851656D01*
X87160564Y-140820722D01*
X87172185Y-140811185D01*
X87251537Y-140714494D01*
X87310502Y-140604180D01*
X87346812Y-140484482D01*
X87359072Y-140360000D01*
X87359072Y-139360000D01*
X87346812Y-139235518D01*
X87310502Y-139115820D01*
X87251537Y-139005506D01*
X87172185Y-138908815D01*
X87075494Y-138829463D01*
X86965180Y-138770498D01*
X86845482Y-138734188D01*
X86721000Y-138721928D01*
X84221000Y-138721928D01*
X84096518Y-138734188D01*
X83976820Y-138770498D01*
X83866506Y-138829463D01*
X83769815Y-138908815D01*
X83690463Y-139005506D01*
X83631498Y-139115820D01*
X83595188Y-139235518D01*
X83582928Y-139360000D01*
X83582928Y-140360000D01*
X83595188Y-140484482D01*
X83631498Y-140604180D01*
X83690463Y-140714494D01*
X83769815Y-140811185D01*
X83800891Y-140836688D01*
X83764755Y-140851656D01*
X83164753Y-141252565D01*
X82654493Y-141762825D01*
X82253584Y-142362827D01*
X81977434Y-143029513D01*
X81836653Y-143737264D01*
X76660000Y-143737264D01*
X76660000Y-136774000D01*
X83582928Y-136774000D01*
X83595188Y-136898482D01*
X83631498Y-137018180D01*
X83690463Y-137128494D01*
X83769815Y-137225185D01*
X83866506Y-137304537D01*
X83976820Y-137363502D01*
X84096518Y-137399812D01*
X84221000Y-137412072D01*
X85185250Y-137409000D01*
X85344000Y-137250250D01*
X85344000Y-136401000D01*
X83744750Y-136401000D01*
X83586000Y-136559750D01*
X83582928Y-136774000D01*
X76660000Y-136774000D01*
X76660000Y-135774000D01*
X83582928Y-135774000D01*
X83586000Y-135988250D01*
X83744750Y-136147000D01*
X85344000Y-136147000D01*
X85344000Y-135297750D01*
X85185250Y-135139000D01*
X84221000Y-135135928D01*
X84096518Y-135148188D01*
X83976820Y-135184498D01*
X83866506Y-135243463D01*
X83769815Y-135322815D01*
X83690463Y-135419506D01*
X83631498Y-135529820D01*
X83595188Y-135649518D01*
X83582928Y-135774000D01*
X76660000Y-135774000D01*
X76660000Y-128007867D01*
X83387959Y-134735827D01*
G37*
X83387959Y-134735827D02*
X83414109Y-134767691D01*
X83541254Y-134872036D01*
X83686313Y-134949572D01*
X83843711Y-134997318D01*
X83966381Y-135009400D01*
X83966391Y-135009400D01*
X84007399Y-135013439D01*
X84048407Y-135009400D01*
X85569833Y-135009400D01*
X85728091Y-135167659D01*
X85598000Y-135297750D01*
X85598000Y-136147000D01*
X85618000Y-136147000D01*
X85618000Y-136401000D01*
X85598000Y-136401000D01*
X85598000Y-137250250D01*
X85756750Y-137409000D01*
X86721000Y-137412072D01*
X86845482Y-137399812D01*
X86965180Y-137363502D01*
X87075494Y-137304537D01*
X87172185Y-137225185D01*
X87251537Y-137128494D01*
X87310502Y-137018180D01*
X87346812Y-136898482D01*
X87356863Y-136796431D01*
X89606700Y-139046269D01*
X89606701Y-143499172D01*
X89602660Y-143540200D01*
X89618782Y-143703888D01*
X89666528Y-143861286D01*
X89691717Y-143908411D01*
X89744065Y-144006346D01*
X89848410Y-144133491D01*
X89880274Y-144159641D01*
X91187693Y-145467060D01*
X91161500Y-145598740D01*
X91161500Y-145891260D01*
X91218568Y-146178158D01*
X91330510Y-146448411D01*
X91493025Y-146691632D01*
X91699868Y-146898475D01*
X91882034Y-147020195D01*
X91765145Y-147089822D01*
X91548912Y-147284731D01*
X91374859Y-147518080D01*
X91249675Y-147780901D01*
X91205024Y-147928110D01*
X91326345Y-148158000D01*
X92519500Y-148158000D01*
X92519500Y-148138000D01*
X92773500Y-148138000D01*
X92773500Y-148158000D01*
X93966655Y-148158000D01*
X94087976Y-147928110D01*
X94043325Y-147780901D01*
X93918141Y-147518080D01*
X93744088Y-147284731D01*
X93527855Y-147089822D01*
X93410966Y-147020195D01*
X93593132Y-146898475D01*
X93799975Y-146691632D01*
X93962490Y-146448411D01*
X94074432Y-146178158D01*
X94131500Y-145891260D01*
X94131500Y-145598740D01*
X94074432Y-145311842D01*
X93962490Y-145041589D01*
X93799975Y-144798368D01*
X93593132Y-144591525D01*
X93418740Y-144475000D01*
X93593132Y-144358475D01*
X93799975Y-144151632D01*
X93962490Y-143908411D01*
X94074432Y-143638158D01*
X94131500Y-143351260D01*
X94131500Y-143058740D01*
X94074432Y-142771842D01*
X93962490Y-142501589D01*
X93799975Y-142258368D01*
X93593132Y-142051525D01*
X93418740Y-141935000D01*
X93593132Y-141818475D01*
X93799975Y-141611632D01*
X93962490Y-141368411D01*
X94074432Y-141098158D01*
X94131500Y-140811260D01*
X94131500Y-140518740D01*
X94105307Y-140387061D01*
X94340001Y-140152368D01*
X94340001Y-152340000D01*
X86982957Y-152340000D01*
X87075494Y-152290537D01*
X87172185Y-152211185D01*
X87251537Y-152114494D01*
X87310502Y-152004180D01*
X87346812Y-151884482D01*
X87359072Y-151760000D01*
X87356000Y-151545750D01*
X87197250Y-151387000D01*
X85598000Y-151387000D01*
X85598000Y-151407000D01*
X85344000Y-151407000D01*
X85344000Y-151387000D01*
X83744750Y-151387000D01*
X83586000Y-151545750D01*
X83582928Y-151760000D01*
X83595188Y-151884482D01*
X83631498Y-152004180D01*
X83690463Y-152114494D01*
X83769815Y-152211185D01*
X83866506Y-152290537D01*
X83959043Y-152340000D01*
X76660000Y-152340000D01*
X76660000Y-151181890D01*
X91205024Y-151181890D01*
X91249675Y-151329099D01*
X91374859Y-151591920D01*
X91548912Y-151825269D01*
X91765145Y-152020178D01*
X92015248Y-152169157D01*
X92289609Y-152266481D01*
X92519500Y-152145814D01*
X92519500Y-150952000D01*
X92773500Y-150952000D01*
X92773500Y-152145814D01*
X93003391Y-152266481D01*
X93277752Y-152169157D01*
X93527855Y-152020178D01*
X93744088Y-151825269D01*
X93918141Y-151591920D01*
X94043325Y-151329099D01*
X94087976Y-151181890D01*
X93966655Y-150952000D01*
X92773500Y-150952000D01*
X92519500Y-150952000D01*
X91326345Y-150952000D01*
X91205024Y-151181890D01*
X76660000Y-151181890D01*
X76660000Y-150760000D01*
X83582928Y-150760000D01*
X83586000Y-150974250D01*
X83744750Y-151133000D01*
X85344000Y-151133000D01*
X85344000Y-150283750D01*
X85598000Y-150283750D01*
X85598000Y-151133000D01*
X87197250Y-151133000D01*
X87356000Y-150974250D01*
X87359072Y-150760000D01*
X87346812Y-150635518D01*
X87310502Y-150515820D01*
X87251537Y-150405506D01*
X87172185Y-150308815D01*
X87075494Y-150229463D01*
X86965180Y-150170498D01*
X86845482Y-150134188D01*
X86721000Y-150121928D01*
X85756750Y-150125000D01*
X85598000Y-150283750D01*
X85344000Y-150283750D01*
X85185250Y-150125000D01*
X84221000Y-150121928D01*
X84096518Y-150134188D01*
X83976820Y-150170498D01*
X83866506Y-150229463D01*
X83769815Y-150308815D01*
X83690463Y-150405506D01*
X83631498Y-150515820D01*
X83595188Y-150635518D01*
X83582928Y-150760000D01*
X76660000Y-150760000D01*
X76660000Y-148660000D01*
X83582928Y-148660000D01*
X83595188Y-148784482D01*
X83631498Y-148904180D01*
X83690463Y-149014494D01*
X83769815Y-149111185D01*
X83866506Y-149190537D01*
X83976820Y-149249502D01*
X84096518Y-149285812D01*
X84221000Y-149298072D01*
X85185250Y-149295000D01*
X85344000Y-149136250D01*
X85344000Y-148287000D01*
X85598000Y-148287000D01*
X85598000Y-149136250D01*
X85756750Y-149295000D01*
X86721000Y-149298072D01*
X86845482Y-149285812D01*
X86965180Y-149249502D01*
X87075494Y-149190537D01*
X87172185Y-149111185D01*
X87251537Y-149014494D01*
X87310502Y-148904180D01*
X87346812Y-148784482D01*
X87359072Y-148660000D01*
X87358813Y-148641890D01*
X91205024Y-148641890D01*
X91249675Y-148789099D01*
X91374859Y-149051920D01*
X91548912Y-149285269D01*
X91765145Y-149480178D01*
X91890755Y-149555000D01*
X91765145Y-149629822D01*
X91548912Y-149824731D01*
X91374859Y-150058080D01*
X91249675Y-150320901D01*
X91205024Y-150468110D01*
X91326345Y-150698000D01*
X92519500Y-150698000D01*
X92519500Y-148412000D01*
X92773500Y-148412000D01*
X92773500Y-150698000D01*
X93966655Y-150698000D01*
X94087976Y-150468110D01*
X94043325Y-150320901D01*
X93918141Y-150058080D01*
X93744088Y-149824731D01*
X93527855Y-149629822D01*
X93402245Y-149555000D01*
X93527855Y-149480178D01*
X93744088Y-149285269D01*
X93918141Y-149051920D01*
X94043325Y-148789099D01*
X94087976Y-148641890D01*
X93966655Y-148412000D01*
X92773500Y-148412000D01*
X92519500Y-148412000D01*
X91326345Y-148412000D01*
X91205024Y-148641890D01*
X87358813Y-148641890D01*
X87356000Y-148445750D01*
X87197250Y-148287000D01*
X85598000Y-148287000D01*
X85344000Y-148287000D01*
X83744750Y-148287000D01*
X83586000Y-148445750D01*
X83582928Y-148660000D01*
X76660000Y-148660000D01*
X76660000Y-143737264D01*
X81836653Y-143737264D01*
X81836653Y-144458880D01*
X81977434Y-145166631D01*
X82253584Y-145833317D01*
X82654493Y-146433319D01*
X83164753Y-146943579D01*
X83696112Y-147298622D01*
X83690463Y-147305506D01*
X83631498Y-147415820D01*
X83595188Y-147535518D01*
X83582928Y-147660000D01*
X83586000Y-147874250D01*
X83744750Y-148033000D01*
X85344000Y-148033000D01*
X85344000Y-148013000D01*
X85598000Y-148013000D01*
X85598000Y-148033000D01*
X87197250Y-148033000D01*
X87356000Y-147874250D01*
X87359072Y-147660000D01*
X87346812Y-147535518D01*
X87310502Y-147415820D01*
X87262603Y-147326208D01*
X87835247Y-146943579D01*
X88345507Y-146433319D01*
X88746416Y-145833317D01*
X89022566Y-145166631D01*
X89163347Y-144458880D01*
X89163347Y-143737264D01*
X89022566Y-143029513D01*
X88746416Y-142362827D01*
X88345507Y-141762825D01*
X87835247Y-141252565D01*
X87235245Y-140851656D01*
X87160564Y-140820722D01*
X87172185Y-140811185D01*
X87251537Y-140714494D01*
X87310502Y-140604180D01*
X87346812Y-140484482D01*
X87359072Y-140360000D01*
X87359072Y-139360000D01*
X87346812Y-139235518D01*
X87310502Y-139115820D01*
X87251537Y-139005506D01*
X87172185Y-138908815D01*
X87075494Y-138829463D01*
X86965180Y-138770498D01*
X86845482Y-138734188D01*
X86721000Y-138721928D01*
X84221000Y-138721928D01*
X84096518Y-138734188D01*
X83976820Y-138770498D01*
X83866506Y-138829463D01*
X83769815Y-138908815D01*
X83690463Y-139005506D01*
X83631498Y-139115820D01*
X83595188Y-139235518D01*
X83582928Y-139360000D01*
X83582928Y-140360000D01*
X83595188Y-140484482D01*
X83631498Y-140604180D01*
X83690463Y-140714494D01*
X83769815Y-140811185D01*
X83800891Y-140836688D01*
X83764755Y-140851656D01*
X83164753Y-141252565D01*
X82654493Y-141762825D01*
X82253584Y-142362827D01*
X81977434Y-143029513D01*
X81836653Y-143737264D01*
X76660000Y-143737264D01*
X76660000Y-136774000D01*
X83582928Y-136774000D01*
X83595188Y-136898482D01*
X83631498Y-137018180D01*
X83690463Y-137128494D01*
X83769815Y-137225185D01*
X83866506Y-137304537D01*
X83976820Y-137363502D01*
X84096518Y-137399812D01*
X84221000Y-137412072D01*
X85185250Y-137409000D01*
X85344000Y-137250250D01*
X85344000Y-136401000D01*
X83744750Y-136401000D01*
X83586000Y-136559750D01*
X83582928Y-136774000D01*
X76660000Y-136774000D01*
X76660000Y-135774000D01*
X83582928Y-135774000D01*
X83586000Y-135988250D01*
X83744750Y-136147000D01*
X85344000Y-136147000D01*
X85344000Y-135297750D01*
X85185250Y-135139000D01*
X84221000Y-135135928D01*
X84096518Y-135148188D01*
X83976820Y-135184498D01*
X83866506Y-135243463D01*
X83769815Y-135322815D01*
X83690463Y-135419506D01*
X83631498Y-135529820D01*
X83595188Y-135649518D01*
X83582928Y-135774000D01*
X76660000Y-135774000D01*
X76660000Y-128007867D01*
X83387959Y-134735827D01*
G36*
X88890201Y-132622671D02*
G01*
X88886160Y-132663700D01*
X88902282Y-132827388D01*
X88950028Y-132984786D01*
X89027564Y-133129845D01*
X89027565Y-133129846D01*
X89131910Y-133256991D01*
X89163774Y-133283141D01*
X91187693Y-135307061D01*
X91161500Y-135438740D01*
X91161500Y-135731260D01*
X91218568Y-136018158D01*
X91330510Y-136288411D01*
X91493025Y-136531632D01*
X91699868Y-136738475D01*
X91874260Y-136855000D01*
X91699868Y-136971525D01*
X91493025Y-137178368D01*
X91330510Y-137421589D01*
X91218568Y-137691842D01*
X91161500Y-137978740D01*
X91161500Y-138271260D01*
X91162913Y-138278363D01*
X91139336Y-138234254D01*
X91034991Y-138107109D01*
X91003133Y-138080964D01*
X87103621Y-134181454D01*
X87172185Y-134125185D01*
X87251537Y-134028494D01*
X87310502Y-133918180D01*
X87346812Y-133798482D01*
X87359072Y-133674000D01*
X87356000Y-133459750D01*
X87197250Y-133301000D01*
X85598000Y-133301000D01*
X85598000Y-133321000D01*
X85344000Y-133321000D01*
X85344000Y-133301000D01*
X85324000Y-133301000D01*
X85324000Y-133047000D01*
X85344000Y-133047000D01*
X85344000Y-133027000D01*
X85598000Y-133027000D01*
X85598000Y-133047000D01*
X87197250Y-133047000D01*
X87356000Y-132888250D01*
X87359072Y-132674000D01*
X87346812Y-132549518D01*
X87310502Y-132429820D01*
X87262603Y-132340208D01*
X87835247Y-131957579D01*
X88345507Y-131447319D01*
X88746416Y-130847317D01*
X88890201Y-130500189D01*
X88890201Y-132622671D01*
G37*
X88890201Y-132622671D02*
X88886160Y-132663700D01*
X88902282Y-132827388D01*
X88950028Y-132984786D01*
X89027564Y-133129845D01*
X89027565Y-133129846D01*
X89131910Y-133256991D01*
X89163774Y-133283141D01*
X91187693Y-135307061D01*
X91161500Y-135438740D01*
X91161500Y-135731260D01*
X91218568Y-136018158D01*
X91330510Y-136288411D01*
X91493025Y-136531632D01*
X91699868Y-136738475D01*
X91874260Y-136855000D01*
X91699868Y-136971525D01*
X91493025Y-137178368D01*
X91330510Y-137421589D01*
X91218568Y-137691842D01*
X91161500Y-137978740D01*
X91161500Y-138271260D01*
X91162913Y-138278363D01*
X91139336Y-138234254D01*
X91034991Y-138107109D01*
X91003133Y-138080964D01*
X87103621Y-134181454D01*
X87172185Y-134125185D01*
X87251537Y-134028494D01*
X87310502Y-133918180D01*
X87346812Y-133798482D01*
X87359072Y-133674000D01*
X87356000Y-133459750D01*
X87197250Y-133301000D01*
X85598000Y-133301000D01*
X85598000Y-133321000D01*
X85344000Y-133321000D01*
X85344000Y-133301000D01*
X85324000Y-133301000D01*
X85324000Y-133047000D01*
X85344000Y-133047000D01*
X85344000Y-133027000D01*
X85598000Y-133027000D01*
X85598000Y-133047000D01*
X87197250Y-133047000D01*
X87356000Y-132888250D01*
X87359072Y-132674000D01*
X87346812Y-132549518D01*
X87310502Y-132429820D01*
X87262603Y-132340208D01*
X87835247Y-131957579D01*
X88345507Y-131447319D01*
X88746416Y-130847317D01*
X88890201Y-130500189D01*
X88890201Y-132622671D01*
G36*
X82818063Y-95463432D02*
G01*
X82844209Y-95495291D01*
X82971354Y-95599636D01*
X83116413Y-95677172D01*
X83273811Y-95724918D01*
X83396481Y-95737000D01*
X83396482Y-95737000D01*
X83437500Y-95741040D01*
X83478518Y-95737000D01*
X83680043Y-95737000D01*
X83690463Y-95756494D01*
X83769815Y-95853185D01*
X83800891Y-95878688D01*
X83764755Y-95893656D01*
X83164753Y-96294565D01*
X82654493Y-96804825D01*
X82253584Y-97404827D01*
X81977434Y-98071513D01*
X81836653Y-98779264D01*
X81836653Y-99500880D01*
X81977434Y-100208631D01*
X82253584Y-100875317D01*
X82654493Y-101475319D01*
X83164753Y-101985579D01*
X83696112Y-102340622D01*
X83690463Y-102347506D01*
X83631498Y-102457820D01*
X83595188Y-102577518D01*
X83582928Y-102702000D01*
X83586000Y-102916250D01*
X83744750Y-103075000D01*
X85344000Y-103075000D01*
X85344000Y-103055000D01*
X85598000Y-103055000D01*
X85598000Y-103075000D01*
X87197250Y-103075000D01*
X87356000Y-102916250D01*
X87359072Y-102702000D01*
X87346812Y-102577518D01*
X87310502Y-102457820D01*
X87262603Y-102368208D01*
X87835247Y-101985579D01*
X88187000Y-101633826D01*
X88187000Y-104863832D01*
X87349188Y-105701644D01*
X87346812Y-105677518D01*
X87310502Y-105557820D01*
X87251537Y-105447506D01*
X87172185Y-105350815D01*
X87075494Y-105271463D01*
X86965180Y-105212498D01*
X86845482Y-105176188D01*
X86721000Y-105163928D01*
X85756750Y-105167000D01*
X85598000Y-105325750D01*
X85598000Y-106175000D01*
X85618000Y-106175000D01*
X85618000Y-106429000D01*
X85598000Y-106429000D01*
X85598000Y-107278250D01*
X85685291Y-107365541D01*
X84909574Y-108141259D01*
X84877710Y-108167409D01*
X84851562Y-108199271D01*
X84773364Y-108294555D01*
X84695828Y-108439614D01*
X84648082Y-108597012D01*
X84645529Y-108622928D01*
X84221000Y-108622928D01*
X84096518Y-108635188D01*
X83976820Y-108671498D01*
X83866506Y-108730463D01*
X83769815Y-108809815D01*
X83690463Y-108906506D01*
X83631498Y-109016820D01*
X83595188Y-109136518D01*
X83582928Y-109261000D01*
X83582928Y-110261000D01*
X83595188Y-110385482D01*
X83631498Y-110505180D01*
X83690463Y-110615494D01*
X83769815Y-110712185D01*
X83838893Y-110768875D01*
X83764755Y-110799584D01*
X83164753Y-111200493D01*
X82654493Y-111710753D01*
X82253584Y-112310755D01*
X81977434Y-112977441D01*
X81836653Y-113685192D01*
X81836653Y-114406808D01*
X81977434Y-115114559D01*
X82253584Y-115781245D01*
X82654493Y-116381247D01*
X83164753Y-116891507D01*
X83676178Y-117233231D01*
X83631498Y-117316820D01*
X83595188Y-117436518D01*
X83582928Y-117561000D01*
X83586000Y-117775250D01*
X83744748Y-117933998D01*
X83672767Y-117933998D01*
X81487400Y-115748633D01*
X81487400Y-115682712D01*
X81443783Y-115463433D01*
X81358224Y-115256876D01*
X81234012Y-115070980D01*
X81075920Y-114912888D01*
X80890024Y-114788676D01*
X80683467Y-114703117D01*
X80464188Y-114659500D01*
X80240612Y-114659500D01*
X80021333Y-114703117D01*
X79814776Y-114788676D01*
X79628880Y-114912888D01*
X79470788Y-115070980D01*
X79346576Y-115256876D01*
X79261017Y-115463433D01*
X79217400Y-115682712D01*
X79217400Y-115906288D01*
X79261017Y-116125567D01*
X79346576Y-116332124D01*
X79470788Y-116518020D01*
X79628880Y-116676112D01*
X79814776Y-116800324D01*
X80021333Y-116885883D01*
X80240612Y-116929500D01*
X80306533Y-116929500D01*
X81273854Y-117896822D01*
X81139976Y-117952276D01*
X80954080Y-118076488D01*
X80795988Y-118234580D01*
X80671776Y-118420476D01*
X80586217Y-118627033D01*
X80542600Y-118846312D01*
X80542600Y-119069888D01*
X80586217Y-119289167D01*
X80671776Y-119495724D01*
X80795988Y-119681620D01*
X80954080Y-119839712D01*
X81139976Y-119963924D01*
X81346533Y-120049483D01*
X81565812Y-120093100D01*
X81631732Y-120093100D01*
X82198663Y-120660032D01*
X82224809Y-120691891D01*
X82351954Y-120796236D01*
X82497013Y-120873772D01*
X82654411Y-120921518D01*
X82777081Y-120933600D01*
X82777082Y-120933600D01*
X82818100Y-120937640D01*
X82859118Y-120933600D01*
X83644350Y-120933600D01*
X83744750Y-121034000D01*
X85344000Y-121034000D01*
X85344000Y-121014000D01*
X85598000Y-121014000D01*
X85598000Y-121034000D01*
X85618000Y-121034000D01*
X85618000Y-121288000D01*
X85598000Y-121288000D01*
X85598000Y-122137250D01*
X85756750Y-122296000D01*
X86721000Y-122299072D01*
X86845482Y-122286812D01*
X86965180Y-122250502D01*
X87075494Y-122191537D01*
X87172185Y-122112185D01*
X87251537Y-122015494D01*
X87310502Y-121905180D01*
X87346812Y-121785482D01*
X87352774Y-121724942D01*
X88890200Y-123262368D01*
X88890200Y-127723954D01*
X88746416Y-127376827D01*
X88345507Y-126776825D01*
X87835247Y-126266565D01*
X87235245Y-125865656D01*
X87160564Y-125834722D01*
X87172185Y-125825185D01*
X87251537Y-125728494D01*
X87310502Y-125618180D01*
X87346812Y-125498482D01*
X87359072Y-125374000D01*
X87359072Y-124374000D01*
X87346812Y-124249518D01*
X87310502Y-124129820D01*
X87251537Y-124019506D01*
X87172185Y-123922815D01*
X87075494Y-123843463D01*
X86965180Y-123784498D01*
X86845482Y-123748188D01*
X86721000Y-123735928D01*
X84221000Y-123735928D01*
X84096518Y-123748188D01*
X83976820Y-123784498D01*
X83866506Y-123843463D01*
X83769815Y-123922815D01*
X83690463Y-124019506D01*
X83631498Y-124129820D01*
X83595188Y-124249518D01*
X83582928Y-124374000D01*
X83582928Y-125374000D01*
X83595188Y-125498482D01*
X83631498Y-125618180D01*
X83690463Y-125728494D01*
X83769815Y-125825185D01*
X83800891Y-125850688D01*
X83764755Y-125865656D01*
X83164753Y-126266565D01*
X82654493Y-126776825D01*
X82253584Y-127376827D01*
X81977434Y-128043513D01*
X81836653Y-128751264D01*
X81836653Y-129472880D01*
X81977434Y-130180631D01*
X82253584Y-130847317D01*
X82654493Y-131447319D01*
X83164753Y-131957579D01*
X83696112Y-132312622D01*
X83690463Y-132319506D01*
X83631498Y-132429820D01*
X83595188Y-132549518D01*
X83592337Y-132578469D01*
X77574800Y-126560933D01*
X77574800Y-121661000D01*
X83582928Y-121661000D01*
X83595188Y-121785482D01*
X83631498Y-121905180D01*
X83690463Y-122015494D01*
X83769815Y-122112185D01*
X83866506Y-122191537D01*
X83976820Y-122250502D01*
X84096518Y-122286812D01*
X84221000Y-122299072D01*
X85185250Y-122296000D01*
X85344000Y-122137250D01*
X85344000Y-121288000D01*
X83744750Y-121288000D01*
X83586000Y-121446750D01*
X83582928Y-121661000D01*
X77574800Y-121661000D01*
X77574800Y-106802000D01*
X83582928Y-106802000D01*
X83595188Y-106926482D01*
X83631498Y-107046180D01*
X83690463Y-107156494D01*
X83769815Y-107253185D01*
X83866506Y-107332537D01*
X83976820Y-107391502D01*
X84096518Y-107427812D01*
X84221000Y-107440072D01*
X85185250Y-107437000D01*
X85344000Y-107278250D01*
X85344000Y-106429000D01*
X83744750Y-106429000D01*
X83586000Y-106587750D01*
X83582928Y-106802000D01*
X77574800Y-106802000D01*
X77574800Y-105802000D01*
X83582928Y-105802000D01*
X83586000Y-106016250D01*
X83744750Y-106175000D01*
X85344000Y-106175000D01*
X85344000Y-105325750D01*
X85185250Y-105167000D01*
X84221000Y-105163928D01*
X84096518Y-105176188D01*
X83976820Y-105212498D01*
X83866506Y-105271463D01*
X83769815Y-105350815D01*
X83690463Y-105447506D01*
X83631498Y-105557820D01*
X83595188Y-105677518D01*
X83582928Y-105802000D01*
X77574800Y-105802000D01*
X77574800Y-104426087D01*
X78263750Y-104424000D01*
X78422500Y-104265250D01*
X78422500Y-102616000D01*
X78676500Y-102616000D01*
X78676500Y-104265250D01*
X78835250Y-104424000D01*
X79849500Y-104427072D01*
X79973982Y-104414812D01*
X80093680Y-104378502D01*
X80203994Y-104319537D01*
X80300685Y-104240185D01*
X80380037Y-104143494D01*
X80439002Y-104033180D01*
X80475312Y-103913482D01*
X80487572Y-103789000D01*
X80487309Y-103702000D01*
X83582928Y-103702000D01*
X83595188Y-103826482D01*
X83631498Y-103946180D01*
X83690463Y-104056494D01*
X83769815Y-104153185D01*
X83866506Y-104232537D01*
X83976820Y-104291502D01*
X84096518Y-104327812D01*
X84221000Y-104340072D01*
X85185250Y-104337000D01*
X85344000Y-104178250D01*
X85344000Y-103329000D01*
X85598000Y-103329000D01*
X85598000Y-104178250D01*
X85756750Y-104337000D01*
X86721000Y-104340072D01*
X86845482Y-104327812D01*
X86965180Y-104291502D01*
X87075494Y-104232537D01*
X87172185Y-104153185D01*
X87251537Y-104056494D01*
X87310502Y-103946180D01*
X87346812Y-103826482D01*
X87359072Y-103702000D01*
X87356000Y-103487750D01*
X87197250Y-103329000D01*
X85598000Y-103329000D01*
X85344000Y-103329000D01*
X83744750Y-103329000D01*
X83586000Y-103487750D01*
X83582928Y-103702000D01*
X80487309Y-103702000D01*
X80484500Y-102774750D01*
X80325750Y-102616000D01*
X78676500Y-102616000D01*
X78422500Y-102616000D01*
X78402500Y-102616000D01*
X78402500Y-102362000D01*
X78422500Y-102362000D01*
X78422500Y-100712750D01*
X78676500Y-100712750D01*
X78676500Y-102362000D01*
X80325750Y-102362000D01*
X80484500Y-102203250D01*
X80487572Y-101189000D01*
X80475312Y-101064518D01*
X80439002Y-100944820D01*
X80380037Y-100834506D01*
X80300685Y-100737815D01*
X80203994Y-100658463D01*
X80093680Y-100599498D01*
X79973982Y-100563188D01*
X79849500Y-100550928D01*
X78835250Y-100554000D01*
X78676500Y-100712750D01*
X78422500Y-100712750D01*
X78263750Y-100554000D01*
X77574800Y-100551913D01*
X77574800Y-99084931D01*
X77632934Y-99123775D01*
X77985081Y-99269639D01*
X78358919Y-99344000D01*
X78740081Y-99344000D01*
X79113919Y-99269639D01*
X79466066Y-99123775D01*
X79782991Y-98912013D01*
X80052513Y-98642491D01*
X80264275Y-98325566D01*
X80410139Y-97973419D01*
X80484500Y-97599581D01*
X80484500Y-97218419D01*
X80410139Y-96844581D01*
X80264275Y-96492434D01*
X80052513Y-96175509D01*
X79782991Y-95905987D01*
X79466066Y-95694225D01*
X79113919Y-95548361D01*
X78740081Y-95474000D01*
X78634600Y-95474000D01*
X78634600Y-92102572D01*
X79457205Y-92102572D01*
X82818063Y-95463432D01*
G37*
X82818063Y-95463432D02*
X82844209Y-95495291D01*
X82971354Y-95599636D01*
X83116413Y-95677172D01*
X83273811Y-95724918D01*
X83396481Y-95737000D01*
X83396482Y-95737000D01*
X83437500Y-95741040D01*
X83478518Y-95737000D01*
X83680043Y-95737000D01*
X83690463Y-95756494D01*
X83769815Y-95853185D01*
X83800891Y-95878688D01*
X83764755Y-95893656D01*
X83164753Y-96294565D01*
X82654493Y-96804825D01*
X82253584Y-97404827D01*
X81977434Y-98071513D01*
X81836653Y-98779264D01*
X81836653Y-99500880D01*
X81977434Y-100208631D01*
X82253584Y-100875317D01*
X82654493Y-101475319D01*
X83164753Y-101985579D01*
X83696112Y-102340622D01*
X83690463Y-102347506D01*
X83631498Y-102457820D01*
X83595188Y-102577518D01*
X83582928Y-102702000D01*
X83586000Y-102916250D01*
X83744750Y-103075000D01*
X85344000Y-103075000D01*
X85344000Y-103055000D01*
X85598000Y-103055000D01*
X85598000Y-103075000D01*
X87197250Y-103075000D01*
X87356000Y-102916250D01*
X87359072Y-102702000D01*
X87346812Y-102577518D01*
X87310502Y-102457820D01*
X87262603Y-102368208D01*
X87835247Y-101985579D01*
X88187000Y-101633826D01*
X88187000Y-104863832D01*
X87349188Y-105701644D01*
X87346812Y-105677518D01*
X87310502Y-105557820D01*
X87251537Y-105447506D01*
X87172185Y-105350815D01*
X87075494Y-105271463D01*
X86965180Y-105212498D01*
X86845482Y-105176188D01*
X86721000Y-105163928D01*
X85756750Y-105167000D01*
X85598000Y-105325750D01*
X85598000Y-106175000D01*
X85618000Y-106175000D01*
X85618000Y-106429000D01*
X85598000Y-106429000D01*
X85598000Y-107278250D01*
X85685291Y-107365541D01*
X84909574Y-108141259D01*
X84877710Y-108167409D01*
X84851562Y-108199271D01*
X84773364Y-108294555D01*
X84695828Y-108439614D01*
X84648082Y-108597012D01*
X84645529Y-108622928D01*
X84221000Y-108622928D01*
X84096518Y-108635188D01*
X83976820Y-108671498D01*
X83866506Y-108730463D01*
X83769815Y-108809815D01*
X83690463Y-108906506D01*
X83631498Y-109016820D01*
X83595188Y-109136518D01*
X83582928Y-109261000D01*
X83582928Y-110261000D01*
X83595188Y-110385482D01*
X83631498Y-110505180D01*
X83690463Y-110615494D01*
X83769815Y-110712185D01*
X83838893Y-110768875D01*
X83764755Y-110799584D01*
X83164753Y-111200493D01*
X82654493Y-111710753D01*
X82253584Y-112310755D01*
X81977434Y-112977441D01*
X81836653Y-113685192D01*
X81836653Y-114406808D01*
X81977434Y-115114559D01*
X82253584Y-115781245D01*
X82654493Y-116381247D01*
X83164753Y-116891507D01*
X83676178Y-117233231D01*
X83631498Y-117316820D01*
X83595188Y-117436518D01*
X83582928Y-117561000D01*
X83586000Y-117775250D01*
X83744748Y-117933998D01*
X83672767Y-117933998D01*
X81487400Y-115748633D01*
X81487400Y-115682712D01*
X81443783Y-115463433D01*
X81358224Y-115256876D01*
X81234012Y-115070980D01*
X81075920Y-114912888D01*
X80890024Y-114788676D01*
X80683467Y-114703117D01*
X80464188Y-114659500D01*
X80240612Y-114659500D01*
X80021333Y-114703117D01*
X79814776Y-114788676D01*
X79628880Y-114912888D01*
X79470788Y-115070980D01*
X79346576Y-115256876D01*
X79261017Y-115463433D01*
X79217400Y-115682712D01*
X79217400Y-115906288D01*
X79261017Y-116125567D01*
X79346576Y-116332124D01*
X79470788Y-116518020D01*
X79628880Y-116676112D01*
X79814776Y-116800324D01*
X80021333Y-116885883D01*
X80240612Y-116929500D01*
X80306533Y-116929500D01*
X81273854Y-117896822D01*
X81139976Y-117952276D01*
X80954080Y-118076488D01*
X80795988Y-118234580D01*
X80671776Y-118420476D01*
X80586217Y-118627033D01*
X80542600Y-118846312D01*
X80542600Y-119069888D01*
X80586217Y-119289167D01*
X80671776Y-119495724D01*
X80795988Y-119681620D01*
X80954080Y-119839712D01*
X81139976Y-119963924D01*
X81346533Y-120049483D01*
X81565812Y-120093100D01*
X81631732Y-120093100D01*
X82198663Y-120660032D01*
X82224809Y-120691891D01*
X82351954Y-120796236D01*
X82497013Y-120873772D01*
X82654411Y-120921518D01*
X82777081Y-120933600D01*
X82777082Y-120933600D01*
X82818100Y-120937640D01*
X82859118Y-120933600D01*
X83644350Y-120933600D01*
X83744750Y-121034000D01*
X85344000Y-121034000D01*
X85344000Y-121014000D01*
X85598000Y-121014000D01*
X85598000Y-121034000D01*
X85618000Y-121034000D01*
X85618000Y-121288000D01*
X85598000Y-121288000D01*
X85598000Y-122137250D01*
X85756750Y-122296000D01*
X86721000Y-122299072D01*
X86845482Y-122286812D01*
X86965180Y-122250502D01*
X87075494Y-122191537D01*
X87172185Y-122112185D01*
X87251537Y-122015494D01*
X87310502Y-121905180D01*
X87346812Y-121785482D01*
X87352774Y-121724942D01*
X88890200Y-123262368D01*
X88890200Y-127723954D01*
X88746416Y-127376827D01*
X88345507Y-126776825D01*
X87835247Y-126266565D01*
X87235245Y-125865656D01*
X87160564Y-125834722D01*
X87172185Y-125825185D01*
X87251537Y-125728494D01*
X87310502Y-125618180D01*
X87346812Y-125498482D01*
X87359072Y-125374000D01*
X87359072Y-124374000D01*
X87346812Y-124249518D01*
X87310502Y-124129820D01*
X87251537Y-124019506D01*
X87172185Y-123922815D01*
X87075494Y-123843463D01*
X86965180Y-123784498D01*
X86845482Y-123748188D01*
X86721000Y-123735928D01*
X84221000Y-123735928D01*
X84096518Y-123748188D01*
X83976820Y-123784498D01*
X83866506Y-123843463D01*
X83769815Y-123922815D01*
X83690463Y-124019506D01*
X83631498Y-124129820D01*
X83595188Y-124249518D01*
X83582928Y-124374000D01*
X83582928Y-125374000D01*
X83595188Y-125498482D01*
X83631498Y-125618180D01*
X83690463Y-125728494D01*
X83769815Y-125825185D01*
X83800891Y-125850688D01*
X83764755Y-125865656D01*
X83164753Y-126266565D01*
X82654493Y-126776825D01*
X82253584Y-127376827D01*
X81977434Y-128043513D01*
X81836653Y-128751264D01*
X81836653Y-129472880D01*
X81977434Y-130180631D01*
X82253584Y-130847317D01*
X82654493Y-131447319D01*
X83164753Y-131957579D01*
X83696112Y-132312622D01*
X83690463Y-132319506D01*
X83631498Y-132429820D01*
X83595188Y-132549518D01*
X83592337Y-132578469D01*
X77574800Y-126560933D01*
X77574800Y-121661000D01*
X83582928Y-121661000D01*
X83595188Y-121785482D01*
X83631498Y-121905180D01*
X83690463Y-122015494D01*
X83769815Y-122112185D01*
X83866506Y-122191537D01*
X83976820Y-122250502D01*
X84096518Y-122286812D01*
X84221000Y-122299072D01*
X85185250Y-122296000D01*
X85344000Y-122137250D01*
X85344000Y-121288000D01*
X83744750Y-121288000D01*
X83586000Y-121446750D01*
X83582928Y-121661000D01*
X77574800Y-121661000D01*
X77574800Y-106802000D01*
X83582928Y-106802000D01*
X83595188Y-106926482D01*
X83631498Y-107046180D01*
X83690463Y-107156494D01*
X83769815Y-107253185D01*
X83866506Y-107332537D01*
X83976820Y-107391502D01*
X84096518Y-107427812D01*
X84221000Y-107440072D01*
X85185250Y-107437000D01*
X85344000Y-107278250D01*
X85344000Y-106429000D01*
X83744750Y-106429000D01*
X83586000Y-106587750D01*
X83582928Y-106802000D01*
X77574800Y-106802000D01*
X77574800Y-105802000D01*
X83582928Y-105802000D01*
X83586000Y-106016250D01*
X83744750Y-106175000D01*
X85344000Y-106175000D01*
X85344000Y-105325750D01*
X85185250Y-105167000D01*
X84221000Y-105163928D01*
X84096518Y-105176188D01*
X83976820Y-105212498D01*
X83866506Y-105271463D01*
X83769815Y-105350815D01*
X83690463Y-105447506D01*
X83631498Y-105557820D01*
X83595188Y-105677518D01*
X83582928Y-105802000D01*
X77574800Y-105802000D01*
X77574800Y-104426087D01*
X78263750Y-104424000D01*
X78422500Y-104265250D01*
X78422500Y-102616000D01*
X78676500Y-102616000D01*
X78676500Y-104265250D01*
X78835250Y-104424000D01*
X79849500Y-104427072D01*
X79973982Y-104414812D01*
X80093680Y-104378502D01*
X80203994Y-104319537D01*
X80300685Y-104240185D01*
X80380037Y-104143494D01*
X80439002Y-104033180D01*
X80475312Y-103913482D01*
X80487572Y-103789000D01*
X80487309Y-103702000D01*
X83582928Y-103702000D01*
X83595188Y-103826482D01*
X83631498Y-103946180D01*
X83690463Y-104056494D01*
X83769815Y-104153185D01*
X83866506Y-104232537D01*
X83976820Y-104291502D01*
X84096518Y-104327812D01*
X84221000Y-104340072D01*
X85185250Y-104337000D01*
X85344000Y-104178250D01*
X85344000Y-103329000D01*
X85598000Y-103329000D01*
X85598000Y-104178250D01*
X85756750Y-104337000D01*
X86721000Y-104340072D01*
X86845482Y-104327812D01*
X86965180Y-104291502D01*
X87075494Y-104232537D01*
X87172185Y-104153185D01*
X87251537Y-104056494D01*
X87310502Y-103946180D01*
X87346812Y-103826482D01*
X87359072Y-103702000D01*
X87356000Y-103487750D01*
X87197250Y-103329000D01*
X85598000Y-103329000D01*
X85344000Y-103329000D01*
X83744750Y-103329000D01*
X83586000Y-103487750D01*
X83582928Y-103702000D01*
X80487309Y-103702000D01*
X80484500Y-102774750D01*
X80325750Y-102616000D01*
X78676500Y-102616000D01*
X78422500Y-102616000D01*
X78402500Y-102616000D01*
X78402500Y-102362000D01*
X78422500Y-102362000D01*
X78422500Y-100712750D01*
X78676500Y-100712750D01*
X78676500Y-102362000D01*
X80325750Y-102362000D01*
X80484500Y-102203250D01*
X80487572Y-101189000D01*
X80475312Y-101064518D01*
X80439002Y-100944820D01*
X80380037Y-100834506D01*
X80300685Y-100737815D01*
X80203994Y-100658463D01*
X80093680Y-100599498D01*
X79973982Y-100563188D01*
X79849500Y-100550928D01*
X78835250Y-100554000D01*
X78676500Y-100712750D01*
X78422500Y-100712750D01*
X78263750Y-100554000D01*
X77574800Y-100551913D01*
X77574800Y-99084931D01*
X77632934Y-99123775D01*
X77985081Y-99269639D01*
X78358919Y-99344000D01*
X78740081Y-99344000D01*
X79113919Y-99269639D01*
X79466066Y-99123775D01*
X79782991Y-98912013D01*
X80052513Y-98642491D01*
X80264275Y-98325566D01*
X80410139Y-97973419D01*
X80484500Y-97599581D01*
X80484500Y-97218419D01*
X80410139Y-96844581D01*
X80264275Y-96492434D01*
X80052513Y-96175509D01*
X79782991Y-95905987D01*
X79466066Y-95694225D01*
X79113919Y-95548361D01*
X78740081Y-95474000D01*
X78634600Y-95474000D01*
X78634600Y-92102572D01*
X79457205Y-92102572D01*
X82818063Y-95463432D01*
G36*
X90696525Y-91561132D02*
G01*
X90903368Y-91767975D01*
X91146589Y-91930490D01*
X91416842Y-92042432D01*
X91703740Y-92099500D01*
X91996260Y-92099500D01*
X92283158Y-92042432D01*
X92382500Y-92001283D01*
X92382501Y-125697831D01*
X92085073Y-125995260D01*
X92053210Y-126021409D01*
X92027062Y-126053271D01*
X91948864Y-126148555D01*
X91871328Y-126293614D01*
X91823582Y-126451012D01*
X91821029Y-126476928D01*
X91796500Y-126476928D01*
X91672018Y-126489188D01*
X91552320Y-126525498D01*
X91442006Y-126584463D01*
X91345315Y-126663815D01*
X91283800Y-126738771D01*
X91283800Y-122690618D01*
X91287840Y-122649600D01*
X91271718Y-122485911D01*
X91223972Y-122328513D01*
X91146436Y-122183454D01*
X91068239Y-122088170D01*
X91068237Y-122088168D01*
X91042091Y-122056309D01*
X91010232Y-122030163D01*
X87754946Y-118774879D01*
X87728791Y-118743009D01*
X87601646Y-118638664D01*
X87456587Y-118561128D01*
X87358648Y-118531419D01*
X87356000Y-118346750D01*
X87197250Y-118188000D01*
X85598000Y-118188000D01*
X85598000Y-118208000D01*
X85344000Y-118208000D01*
X85344000Y-118188000D01*
X85324000Y-118188000D01*
X85324000Y-117934000D01*
X85344000Y-117934000D01*
X85344000Y-117914000D01*
X85598000Y-117914000D01*
X85598000Y-117934000D01*
X87197250Y-117934000D01*
X87356000Y-117775250D01*
X87359072Y-117561000D01*
X87346812Y-117436518D01*
X87310502Y-117316820D01*
X87281085Y-117261786D01*
X87835247Y-116891507D01*
X88345507Y-116381247D01*
X88746416Y-115781245D01*
X89022566Y-115114559D01*
X89163347Y-114406808D01*
X89163347Y-113685192D01*
X89022566Y-112977441D01*
X88746416Y-112310755D01*
X88345507Y-111710753D01*
X87835247Y-111200493D01*
X87235245Y-110799584D01*
X87122562Y-110752909D01*
X87172185Y-110712185D01*
X87251537Y-110615494D01*
X87310502Y-110505180D01*
X87346812Y-110385482D01*
X87359072Y-110261000D01*
X87359072Y-109261000D01*
X87346812Y-109136518D01*
X87310502Y-109016820D01*
X87251537Y-108906506D01*
X87172185Y-108809815D01*
X87075494Y-108730463D01*
X86965180Y-108671498D01*
X86845482Y-108635188D01*
X86783485Y-108629082D01*
X89583428Y-105829140D01*
X89615291Y-105802991D01*
X89719636Y-105675846D01*
X89797172Y-105530787D01*
X89844918Y-105373389D01*
X89857000Y-105250719D01*
X89857000Y-105250709D01*
X89861039Y-105209701D01*
X89857000Y-105168693D01*
X89857000Y-96033807D01*
X89861039Y-95992799D01*
X89857000Y-95951791D01*
X89857000Y-95951781D01*
X89844918Y-95829111D01*
X89797172Y-95671713D01*
X89719636Y-95526654D01*
X89615291Y-95399509D01*
X89583427Y-95373359D01*
X86581946Y-92371879D01*
X86555791Y-92340009D01*
X86428646Y-92235664D01*
X86283587Y-92158128D01*
X86126189Y-92110382D01*
X86003519Y-92098300D01*
X86003518Y-92098300D01*
X85962500Y-92094260D01*
X85921482Y-92098300D01*
X84382293Y-92098300D01*
X84663158Y-92042432D01*
X84933411Y-91930490D01*
X85176632Y-91767975D01*
X85383475Y-91561132D01*
X85500000Y-91386740D01*
X85616525Y-91561132D01*
X85823368Y-91767975D01*
X86066589Y-91930490D01*
X86336842Y-92042432D01*
X86623740Y-92099500D01*
X86916260Y-92099500D01*
X87203158Y-92042432D01*
X87473411Y-91930490D01*
X87716632Y-91767975D01*
X87923475Y-91561132D01*
X88040000Y-91386740D01*
X88156525Y-91561132D01*
X88363368Y-91767975D01*
X88606589Y-91930490D01*
X88876842Y-92042432D01*
X89163740Y-92099500D01*
X89456260Y-92099500D01*
X89743158Y-92042432D01*
X90013411Y-91930490D01*
X90256632Y-91767975D01*
X90463475Y-91561132D01*
X90580000Y-91386740D01*
X90696525Y-91561132D01*
G37*
X90696525Y-91561132D02*
X90903368Y-91767975D01*
X91146589Y-91930490D01*
X91416842Y-92042432D01*
X91703740Y-92099500D01*
X91996260Y-92099500D01*
X92283158Y-92042432D01*
X92382500Y-92001283D01*
X92382501Y-125697831D01*
X92085073Y-125995260D01*
X92053210Y-126021409D01*
X92027062Y-126053271D01*
X91948864Y-126148555D01*
X91871328Y-126293614D01*
X91823582Y-126451012D01*
X91821029Y-126476928D01*
X91796500Y-126476928D01*
X91672018Y-126489188D01*
X91552320Y-126525498D01*
X91442006Y-126584463D01*
X91345315Y-126663815D01*
X91283800Y-126738771D01*
X91283800Y-122690618D01*
X91287840Y-122649600D01*
X91271718Y-122485911D01*
X91223972Y-122328513D01*
X91146436Y-122183454D01*
X91068239Y-122088170D01*
X91068237Y-122088168D01*
X91042091Y-122056309D01*
X91010232Y-122030163D01*
X87754946Y-118774879D01*
X87728791Y-118743009D01*
X87601646Y-118638664D01*
X87456587Y-118561128D01*
X87358648Y-118531419D01*
X87356000Y-118346750D01*
X87197250Y-118188000D01*
X85598000Y-118188000D01*
X85598000Y-118208000D01*
X85344000Y-118208000D01*
X85344000Y-118188000D01*
X85324000Y-118188000D01*
X85324000Y-117934000D01*
X85344000Y-117934000D01*
X85344000Y-117914000D01*
X85598000Y-117914000D01*
X85598000Y-117934000D01*
X87197250Y-117934000D01*
X87356000Y-117775250D01*
X87359072Y-117561000D01*
X87346812Y-117436518D01*
X87310502Y-117316820D01*
X87281085Y-117261786D01*
X87835247Y-116891507D01*
X88345507Y-116381247D01*
X88746416Y-115781245D01*
X89022566Y-115114559D01*
X89163347Y-114406808D01*
X89163347Y-113685192D01*
X89022566Y-112977441D01*
X88746416Y-112310755D01*
X88345507Y-111710753D01*
X87835247Y-111200493D01*
X87235245Y-110799584D01*
X87122562Y-110752909D01*
X87172185Y-110712185D01*
X87251537Y-110615494D01*
X87310502Y-110505180D01*
X87346812Y-110385482D01*
X87359072Y-110261000D01*
X87359072Y-109261000D01*
X87346812Y-109136518D01*
X87310502Y-109016820D01*
X87251537Y-108906506D01*
X87172185Y-108809815D01*
X87075494Y-108730463D01*
X86965180Y-108671498D01*
X86845482Y-108635188D01*
X86783485Y-108629082D01*
X89583428Y-105829140D01*
X89615291Y-105802991D01*
X89719636Y-105675846D01*
X89797172Y-105530787D01*
X89844918Y-105373389D01*
X89857000Y-105250719D01*
X89857000Y-105250709D01*
X89861039Y-105209701D01*
X89857000Y-105168693D01*
X89857000Y-96033807D01*
X89861039Y-95992799D01*
X89857000Y-95951791D01*
X89857000Y-95951781D01*
X89844918Y-95829111D01*
X89797172Y-95671713D01*
X89719636Y-95526654D01*
X89615291Y-95399509D01*
X89583427Y-95373359D01*
X86581946Y-92371879D01*
X86555791Y-92340009D01*
X86428646Y-92235664D01*
X86283587Y-92158128D01*
X86126189Y-92110382D01*
X86003519Y-92098300D01*
X86003518Y-92098300D01*
X85962500Y-92094260D01*
X85921482Y-92098300D01*
X84382293Y-92098300D01*
X84663158Y-92042432D01*
X84933411Y-91930490D01*
X85176632Y-91767975D01*
X85383475Y-91561132D01*
X85500000Y-91386740D01*
X85616525Y-91561132D01*
X85823368Y-91767975D01*
X86066589Y-91930490D01*
X86336842Y-92042432D01*
X86623740Y-92099500D01*
X86916260Y-92099500D01*
X87203158Y-92042432D01*
X87473411Y-91930490D01*
X87716632Y-91767975D01*
X87923475Y-91561132D01*
X88040000Y-91386740D01*
X88156525Y-91561132D01*
X88363368Y-91767975D01*
X88606589Y-91930490D01*
X88876842Y-92042432D01*
X89163740Y-92099500D01*
X89456260Y-92099500D01*
X89743158Y-92042432D01*
X90013411Y-91930490D01*
X90256632Y-91767975D01*
X90463475Y-91561132D01*
X90580000Y-91386740D01*
X90696525Y-91561132D01*
M02*
