G04 #@! TF.GenerationSoftware,KiCad,Pcbnew,(5.1.5-0-10_14)*
G04 #@! TF.CreationDate,2020-06-01T21:41:54-04:00*
G04 #@! TF.ProjectId,AYOMSM - VCA Control Board,41594f4d-534d-4202-9d20-56434120436f,rev?*
G04 #@! TF.SameCoordinates,Original*
G04 #@! TF.FileFunction,Other,User*
%FSLAX46Y46*%
G04 Gerber Fmt 4.6, Leading zero omitted, Abs format (unit mm)*
G04 Created by KiCad (PCBNEW (5.1.5-0-10_14)) date 2020-06-01 21:41:54*
%MOMM*%
%LPD*%
G04 APERTURE LIST*
%ADD10C,0.050000*%
%ADD11C,0.120000*%
G04 APERTURE END LIST*
D10*
X80450000Y-80170000D02*
X90550000Y-80170000D01*
X80450000Y-74770000D02*
X80450000Y-80170000D01*
X90550000Y-74770000D02*
X80450000Y-74770000D01*
X90550000Y-80170000D02*
X90550000Y-74770000D01*
X80450000Y-68737500D02*
X80450000Y-74137500D01*
X80450000Y-74137500D02*
X90550000Y-74137500D01*
X90550000Y-74137500D02*
X90550000Y-68737500D01*
X90550000Y-68737500D02*
X80450000Y-68737500D01*
X91910000Y-68206000D02*
X91910000Y-54456000D01*
X79090000Y-68206000D02*
X91910000Y-68206000D01*
X79090000Y-54456000D02*
X79090000Y-68206000D01*
X91910000Y-54456000D02*
X79090000Y-54456000D01*
X80349500Y-95609000D02*
X80349500Y-104289000D01*
X80349500Y-95609000D02*
X76749500Y-95609000D01*
X76749500Y-104289000D02*
X80349500Y-104289000D01*
X76749500Y-104289000D02*
X76749500Y-95609000D01*
D11*
X92008700Y-81597500D02*
X92008700Y-88773000D01*
X92008700Y-88773000D02*
X79054700Y-88773000D01*
X79054700Y-88773000D02*
X78991200Y-88773000D01*
X78991200Y-88773000D02*
X78991200Y-81597500D01*
X78991200Y-81597500D02*
X92008700Y-81597500D01*
M02*
