G04 #@! TF.GenerationSoftware,KiCad,Pcbnew,(5.1.5-0-10_14)*
G04 #@! TF.CreationDate,2020-09-10T18:34:02-04:00*
G04 #@! TF.ProjectId,AYOMSM - VCA Control Board,41594f4d-534d-4202-9d20-56434120436f,1.1*
G04 #@! TF.SameCoordinates,Original*
G04 #@! TF.FileFunction,Copper,L2,Bot*
G04 #@! TF.FilePolarity,Positive*
%FSLAX46Y46*%
G04 Gerber Fmt 4.6, Leading zero omitted, Abs format (unit mm)*
G04 Created by KiCad (PCBNEW (5.1.5-0-10_14)) date 2020-09-10 18:34:02*
%MOMM*%
%LPD*%
G04 APERTURE LIST*
%ADD10R,1.700000X1.700000*%
%ADD11O,1.700000X1.700000*%
%ADD12C,1.440000*%
%ADD13R,1.800000X1.800000*%
%ADD14C,1.800000*%
%ADD15O,2.720000X3.240000*%
%ADD16C,0.100000*%
%ADD17C,2.600000*%
%ADD18O,2.000000X3.000000*%
%ADD19R,2.500000X1.000000*%
%ADD20C,0.300000*%
%ADD21C,0.254000*%
G04 APERTURE END LIST*
D10*
X79150000Y-90614500D03*
D11*
X81690000Y-90614500D03*
X84230000Y-90614500D03*
X86770000Y-90614500D03*
X89310000Y-90614500D03*
X91850000Y-90614500D03*
D10*
X92646500Y-127965000D03*
D11*
X92646500Y-130505000D03*
X92646500Y-133045000D03*
X92646500Y-135585000D03*
X92646500Y-138125000D03*
X92646500Y-140665000D03*
X92646500Y-143205000D03*
X92646500Y-145745000D03*
X92646500Y-148285000D03*
X92646500Y-150825000D03*
D12*
X88030000Y-77851000D03*
X85490000Y-77851000D03*
X82950000Y-77851000D03*
X88050000Y-57404000D03*
X85510000Y-57404000D03*
X82970000Y-57404000D03*
D13*
X83000000Y-73556000D03*
D14*
X85500000Y-73556000D03*
X88000000Y-73556000D03*
D15*
X90300000Y-66056000D03*
X80700000Y-66056000D03*
G04 #@! TA.AperFunction,ComponentPad*
D16*
G36*
X93423711Y-100811130D02*
G01*
X93486809Y-100820490D01*
X93548685Y-100835989D01*
X93608744Y-100857478D01*
X93666408Y-100884751D01*
X93721121Y-100917545D01*
X93772356Y-100955543D01*
X93819619Y-100998381D01*
X93862457Y-101045644D01*
X93900455Y-101096879D01*
X93933249Y-101151592D01*
X93960522Y-101209256D01*
X93982011Y-101269315D01*
X93997510Y-101331191D01*
X94006870Y-101394289D01*
X94010000Y-101458000D01*
X94010000Y-102758000D01*
X94006870Y-102821711D01*
X93997510Y-102884809D01*
X93982011Y-102946685D01*
X93960522Y-103006744D01*
X93933249Y-103064408D01*
X93900455Y-103119121D01*
X93862457Y-103170356D01*
X93819619Y-103217619D01*
X93772356Y-103260457D01*
X93721121Y-103298455D01*
X93666408Y-103331249D01*
X93608744Y-103358522D01*
X93548685Y-103380011D01*
X93486809Y-103395510D01*
X93423711Y-103404870D01*
X93360000Y-103408000D01*
X92060000Y-103408000D01*
X91996289Y-103404870D01*
X91933191Y-103395510D01*
X91871315Y-103380011D01*
X91811256Y-103358522D01*
X91753592Y-103331249D01*
X91698879Y-103298455D01*
X91647644Y-103260457D01*
X91600381Y-103217619D01*
X91557543Y-103170356D01*
X91519545Y-103119121D01*
X91486751Y-103064408D01*
X91459478Y-103006744D01*
X91437989Y-102946685D01*
X91422490Y-102884809D01*
X91413130Y-102821711D01*
X91410000Y-102758000D01*
X91410000Y-101458000D01*
X91413130Y-101394289D01*
X91422490Y-101331191D01*
X91437989Y-101269315D01*
X91459478Y-101209256D01*
X91486751Y-101151592D01*
X91519545Y-101096879D01*
X91557543Y-101045644D01*
X91600381Y-100998381D01*
X91647644Y-100955543D01*
X91698879Y-100917545D01*
X91753592Y-100884751D01*
X91811256Y-100857478D01*
X91871315Y-100835989D01*
X91933191Y-100820490D01*
X91996289Y-100811130D01*
X92060000Y-100808000D01*
X93360000Y-100808000D01*
X93423711Y-100811130D01*
G37*
G04 #@! TD.AperFunction*
D17*
X92710000Y-97028000D03*
D18*
X80822800Y-85189800D03*
X85522800Y-85189800D03*
X90222800Y-85189800D03*
D19*
X85471000Y-94902000D03*
X85471000Y-103202000D03*
X85471000Y-106302000D03*
X85471000Y-109761000D03*
X85471000Y-118061000D03*
X85471000Y-121161000D03*
X85471000Y-124874000D03*
X85471000Y-133174000D03*
X85471000Y-136274000D03*
X85471000Y-139860000D03*
X85471000Y-148160000D03*
X85471000Y-151260000D03*
D20*
X85471000Y-121161000D02*
X85471000Y-122061300D01*
X85471000Y-133174000D02*
X83820700Y-133174000D01*
X83820700Y-133174000D02*
X82086300Y-131439600D01*
X82086300Y-131439600D02*
X82086300Y-125446000D01*
X82086300Y-125446000D02*
X85471000Y-122061300D01*
X91850000Y-91864800D02*
X89846600Y-93868200D01*
X89846600Y-93868200D02*
X89846600Y-134584100D01*
X89846600Y-134584100D02*
X85471000Y-138959700D01*
X91850000Y-90614500D02*
X91850000Y-91864800D01*
X85471000Y-139860000D02*
X85471000Y-138959700D01*
X85471000Y-109761000D02*
X85471000Y-108860700D01*
X81690000Y-90614500D02*
X81690000Y-105079700D01*
X81690000Y-105079700D02*
X85471000Y-108860700D01*
X86770000Y-90614500D02*
X86770000Y-91864800D01*
X85471000Y-124874000D02*
X85471000Y-123973700D01*
X85471000Y-123973700D02*
X88907900Y-120536800D01*
X88907900Y-120536800D02*
X88907900Y-94002700D01*
X88907900Y-94002700D02*
X86770000Y-91864800D01*
X92646500Y-126714700D02*
X91000400Y-125068600D01*
X91000400Y-125068600D02*
X91000400Y-95549900D01*
X91000400Y-95549900D02*
X93658500Y-92891800D01*
X93658500Y-92891800D02*
X93658500Y-89863200D01*
X93658500Y-89863200D02*
X92322400Y-88527100D01*
X92322400Y-88527100D02*
X90260400Y-88527100D01*
X90260400Y-88527100D02*
X86923100Y-85189800D01*
X92646500Y-127965000D02*
X92646500Y-126714700D01*
X85522800Y-85189800D02*
X86923100Y-85189800D01*
X85490000Y-77851000D02*
X82950000Y-77851000D01*
X94426200Y-138885300D02*
X92646500Y-140665000D01*
X94426200Y-84247200D02*
X94426200Y-138885300D01*
X88030000Y-77851000D02*
X94426200Y-84247200D01*
X88050000Y-57404000D02*
X88050000Y-73506000D01*
X88050000Y-73506000D02*
X88000000Y-73556000D01*
X93108200Y-90091100D02*
X93108200Y-91587900D01*
X90397100Y-94299000D02*
X90397100Y-140955600D01*
X92288900Y-89271800D02*
X93108200Y-90091100D01*
X87091900Y-89271800D02*
X92288900Y-89271800D01*
X84095800Y-86275700D02*
X87091900Y-89271800D01*
X84095800Y-80860900D02*
X84095800Y-86275700D01*
X86760000Y-78196700D02*
X84095800Y-80860900D01*
X90397100Y-140955600D02*
X92646500Y-143205000D01*
X86760000Y-74796000D02*
X86760000Y-78196700D01*
X93108200Y-91587900D02*
X90397100Y-94299000D01*
X88000000Y-73556000D02*
X86760000Y-74796000D01*
X92646500Y-145745000D02*
X91396200Y-145745000D01*
X83000000Y-73556000D02*
X83000000Y-74856300D01*
X83000000Y-74856300D02*
X79384900Y-78471400D01*
X79384900Y-78471400D02*
X79384900Y-87182600D01*
X79384900Y-87182600D02*
X80400300Y-88198000D01*
X80400300Y-88198000D02*
X80400300Y-145448300D01*
X80400300Y-145448300D02*
X84012400Y-149060400D01*
X84012400Y-149060400D02*
X88080800Y-149060400D01*
X88080800Y-149060400D02*
X91396200Y-145745000D01*
X83000000Y-73043400D02*
X83000000Y-73556000D01*
X83113900Y-57547900D02*
X82970000Y-57404000D01*
X83000000Y-57434000D02*
X82970000Y-57404000D01*
X83000000Y-73556000D02*
X83000000Y-57434000D01*
D21*
G36*
X94340000Y-83050843D02*
G01*
X89366520Y-78077363D01*
X89385000Y-77984456D01*
X89385000Y-77717544D01*
X89332928Y-77455761D01*
X89230785Y-77209167D01*
X89082497Y-76987238D01*
X88893762Y-76798503D01*
X88671833Y-76650215D01*
X88425239Y-76548072D01*
X88163456Y-76496000D01*
X87896544Y-76496000D01*
X87634761Y-76548072D01*
X87545000Y-76585252D01*
X87545000Y-75121157D01*
X87620560Y-75045597D01*
X87848816Y-75091000D01*
X88151184Y-75091000D01*
X88447743Y-75032011D01*
X88727095Y-74916299D01*
X88978505Y-74748312D01*
X89192312Y-74534505D01*
X89360299Y-74283095D01*
X89476011Y-74003743D01*
X89535000Y-73707184D01*
X89535000Y-73404816D01*
X89476011Y-73108257D01*
X89360299Y-72828905D01*
X89192312Y-72577495D01*
X88978505Y-72363688D01*
X88835000Y-72267801D01*
X88835000Y-67675628D01*
X88882497Y-67733503D01*
X89186275Y-67982807D01*
X89532853Y-68168057D01*
X89908912Y-68282133D01*
X90300000Y-68320652D01*
X90691087Y-68282133D01*
X91067146Y-68168057D01*
X91413725Y-67982807D01*
X91717503Y-67733503D01*
X91966807Y-67429725D01*
X92152057Y-67083147D01*
X92266133Y-66707088D01*
X92295000Y-66413998D01*
X92295000Y-65698003D01*
X92266133Y-65404913D01*
X92152057Y-65028853D01*
X91966807Y-64682275D01*
X91717503Y-64378497D01*
X91413725Y-64129193D01*
X91067147Y-63943943D01*
X90691088Y-63829867D01*
X90300000Y-63791348D01*
X89908913Y-63829867D01*
X89532854Y-63943943D01*
X89186276Y-64129193D01*
X88882498Y-64378497D01*
X88835000Y-64436373D01*
X88835000Y-58509124D01*
X88913762Y-58456497D01*
X89102497Y-58267762D01*
X89250785Y-58045833D01*
X89352928Y-57799239D01*
X89405000Y-57537456D01*
X89405000Y-57270544D01*
X89352928Y-57008761D01*
X89250785Y-56762167D01*
X89102497Y-56540238D01*
X88913762Y-56351503D01*
X88691833Y-56203215D01*
X88445239Y-56101072D01*
X88183456Y-56049000D01*
X87916544Y-56049000D01*
X87654761Y-56101072D01*
X87408167Y-56203215D01*
X87186238Y-56351503D01*
X86997503Y-56540238D01*
X86849215Y-56762167D01*
X86780000Y-56929266D01*
X86710785Y-56762167D01*
X86562497Y-56540238D01*
X86373762Y-56351503D01*
X86151833Y-56203215D01*
X85905239Y-56101072D01*
X85643456Y-56049000D01*
X85376544Y-56049000D01*
X85114761Y-56101072D01*
X84868167Y-56203215D01*
X84646238Y-56351503D01*
X84457503Y-56540238D01*
X84309215Y-56762167D01*
X84240000Y-56929266D01*
X84170785Y-56762167D01*
X84022497Y-56540238D01*
X83833762Y-56351503D01*
X83611833Y-56203215D01*
X83365239Y-56101072D01*
X83103456Y-56049000D01*
X82836544Y-56049000D01*
X82574761Y-56101072D01*
X82328167Y-56203215D01*
X82106238Y-56351503D01*
X81917503Y-56540238D01*
X81769215Y-56762167D01*
X81667072Y-57008761D01*
X81615000Y-57270544D01*
X81615000Y-57537456D01*
X81667072Y-57799239D01*
X81769215Y-58045833D01*
X81917503Y-58267762D01*
X82106238Y-58456497D01*
X82215001Y-58529170D01*
X82215001Y-64497298D01*
X82117503Y-64378497D01*
X81813725Y-64129193D01*
X81467147Y-63943943D01*
X81091088Y-63829867D01*
X80700000Y-63791348D01*
X80308913Y-63829867D01*
X79932854Y-63943943D01*
X79586276Y-64129193D01*
X79282498Y-64378497D01*
X79033193Y-64682275D01*
X78847943Y-65028853D01*
X78733867Y-65404912D01*
X78705000Y-65698002D01*
X78705000Y-66413997D01*
X78733867Y-66707087D01*
X78847943Y-67083146D01*
X79033193Y-67429725D01*
X79282497Y-67733503D01*
X79586275Y-67982807D01*
X79932853Y-68168057D01*
X80308912Y-68282133D01*
X80700000Y-68320652D01*
X81091087Y-68282133D01*
X81467146Y-68168057D01*
X81813725Y-67982807D01*
X82117503Y-67733503D01*
X82215000Y-67614702D01*
X82215000Y-72017928D01*
X82100000Y-72017928D01*
X81975518Y-72030188D01*
X81855820Y-72066498D01*
X81745506Y-72125463D01*
X81648815Y-72204815D01*
X81569463Y-72301506D01*
X81510498Y-72411820D01*
X81474188Y-72531518D01*
X81461928Y-72656000D01*
X81461928Y-74456000D01*
X81474188Y-74580482D01*
X81510498Y-74700180D01*
X81569463Y-74810494D01*
X81648815Y-74907185D01*
X81745506Y-74986537D01*
X81754694Y-74991448D01*
X78857090Y-77889053D01*
X78827136Y-77913636D01*
X78729038Y-78033168D01*
X78656146Y-78169541D01*
X78611259Y-78317514D01*
X78599900Y-78432840D01*
X78599900Y-78432847D01*
X78596103Y-78471400D01*
X78599900Y-78509953D01*
X78599901Y-87144037D01*
X78596103Y-87182600D01*
X78611259Y-87336486D01*
X78656146Y-87484459D01*
X78656147Y-87484460D01*
X78729039Y-87620833D01*
X78744963Y-87640236D01*
X78802555Y-87710412D01*
X78802559Y-87710416D01*
X78827137Y-87740364D01*
X78857085Y-87764942D01*
X79615300Y-88523158D01*
X79615300Y-89126428D01*
X78300000Y-89126428D01*
X78175518Y-89138688D01*
X78055820Y-89174998D01*
X77945506Y-89233963D01*
X77848815Y-89313315D01*
X77769463Y-89410006D01*
X77710498Y-89520320D01*
X77674188Y-89640018D01*
X77661928Y-89764500D01*
X77661928Y-91464500D01*
X77674188Y-91588982D01*
X77710498Y-91708680D01*
X77769463Y-91818994D01*
X77848815Y-91915685D01*
X77945506Y-91995037D01*
X78055820Y-92054002D01*
X78175518Y-92090312D01*
X78300000Y-92102572D01*
X79615300Y-92102572D01*
X79615301Y-145409737D01*
X79611503Y-145448300D01*
X79626659Y-145602186D01*
X79671546Y-145750159D01*
X79671547Y-145750160D01*
X79744439Y-145886533D01*
X79784990Y-145935944D01*
X79817955Y-145976112D01*
X79817959Y-145976116D01*
X79842537Y-146006064D01*
X79872485Y-146030642D01*
X83430053Y-149588210D01*
X83454636Y-149618164D01*
X83574167Y-149716262D01*
X83710540Y-149789154D01*
X83858513Y-149834042D01*
X83933426Y-149841420D01*
X83973839Y-149845400D01*
X83973844Y-149845400D01*
X84012400Y-149849197D01*
X84050956Y-149845400D01*
X88042247Y-149845400D01*
X88080800Y-149849197D01*
X88119353Y-149845400D01*
X88119361Y-149845400D01*
X88234687Y-149834041D01*
X88382660Y-149789154D01*
X88519033Y-149716262D01*
X88638564Y-149618164D01*
X88663147Y-149588210D01*
X89609467Y-148641890D01*
X91205024Y-148641890D01*
X91249675Y-148789099D01*
X91374859Y-149051920D01*
X91548912Y-149285269D01*
X91765145Y-149480178D01*
X91890755Y-149555000D01*
X91765145Y-149629822D01*
X91548912Y-149824731D01*
X91374859Y-150058080D01*
X91249675Y-150320901D01*
X91205024Y-150468110D01*
X91326345Y-150698000D01*
X92519500Y-150698000D01*
X92519500Y-148412000D01*
X92773500Y-148412000D01*
X92773500Y-150698000D01*
X93966655Y-150698000D01*
X94087976Y-150468110D01*
X94043325Y-150320901D01*
X93918141Y-150058080D01*
X93744088Y-149824731D01*
X93527855Y-149629822D01*
X93402245Y-149555000D01*
X93527855Y-149480178D01*
X93744088Y-149285269D01*
X93918141Y-149051920D01*
X94043325Y-148789099D01*
X94087976Y-148641890D01*
X93966655Y-148412000D01*
X92773500Y-148412000D01*
X92519500Y-148412000D01*
X91326345Y-148412000D01*
X91205024Y-148641890D01*
X89609467Y-148641890D01*
X91526375Y-146724982D01*
X91699868Y-146898475D01*
X91882034Y-147020195D01*
X91765145Y-147089822D01*
X91548912Y-147284731D01*
X91374859Y-147518080D01*
X91249675Y-147780901D01*
X91205024Y-147928110D01*
X91326345Y-148158000D01*
X92519500Y-148158000D01*
X92519500Y-148138000D01*
X92773500Y-148138000D01*
X92773500Y-148158000D01*
X93966655Y-148158000D01*
X94087976Y-147928110D01*
X94043325Y-147780901D01*
X93918141Y-147518080D01*
X93744088Y-147284731D01*
X93527855Y-147089822D01*
X93410966Y-147020195D01*
X93593132Y-146898475D01*
X93799975Y-146691632D01*
X93962490Y-146448411D01*
X94074432Y-146178158D01*
X94131500Y-145891260D01*
X94131500Y-145598740D01*
X94074432Y-145311842D01*
X93962490Y-145041589D01*
X93799975Y-144798368D01*
X93593132Y-144591525D01*
X93418740Y-144475000D01*
X93593132Y-144358475D01*
X93799975Y-144151632D01*
X93962490Y-143908411D01*
X94074432Y-143638158D01*
X94131500Y-143351260D01*
X94131500Y-143058740D01*
X94074432Y-142771842D01*
X93962490Y-142501589D01*
X93799975Y-142258368D01*
X93593132Y-142051525D01*
X93418740Y-141935000D01*
X93593132Y-141818475D01*
X93799975Y-141611632D01*
X93962490Y-141368411D01*
X94074432Y-141098158D01*
X94131500Y-140811260D01*
X94131500Y-140518740D01*
X94093575Y-140328082D01*
X94340001Y-140081656D01*
X94340001Y-152340000D01*
X86982957Y-152340000D01*
X87075494Y-152290537D01*
X87172185Y-152211185D01*
X87251537Y-152114494D01*
X87310502Y-152004180D01*
X87346812Y-151884482D01*
X87359072Y-151760000D01*
X87356000Y-151545750D01*
X87197250Y-151387000D01*
X85598000Y-151387000D01*
X85598000Y-151407000D01*
X85344000Y-151407000D01*
X85344000Y-151387000D01*
X83744750Y-151387000D01*
X83586000Y-151545750D01*
X83582928Y-151760000D01*
X83595188Y-151884482D01*
X83631498Y-152004180D01*
X83690463Y-152114494D01*
X83769815Y-152211185D01*
X83866506Y-152290537D01*
X83959043Y-152340000D01*
X76660000Y-152340000D01*
X76660000Y-151181890D01*
X91205024Y-151181890D01*
X91249675Y-151329099D01*
X91374859Y-151591920D01*
X91548912Y-151825269D01*
X91765145Y-152020178D01*
X92015248Y-152169157D01*
X92289609Y-152266481D01*
X92519500Y-152145814D01*
X92519500Y-150952000D01*
X92773500Y-150952000D01*
X92773500Y-152145814D01*
X93003391Y-152266481D01*
X93277752Y-152169157D01*
X93527855Y-152020178D01*
X93744088Y-151825269D01*
X93918141Y-151591920D01*
X94043325Y-151329099D01*
X94087976Y-151181890D01*
X93966655Y-150952000D01*
X92773500Y-150952000D01*
X92519500Y-150952000D01*
X91326345Y-150952000D01*
X91205024Y-151181890D01*
X76660000Y-151181890D01*
X76660000Y-150760000D01*
X83582928Y-150760000D01*
X83586000Y-150974250D01*
X83744750Y-151133000D01*
X85344000Y-151133000D01*
X85344000Y-150283750D01*
X85598000Y-150283750D01*
X85598000Y-151133000D01*
X87197250Y-151133000D01*
X87356000Y-150974250D01*
X87359072Y-150760000D01*
X87346812Y-150635518D01*
X87310502Y-150515820D01*
X87251537Y-150405506D01*
X87172185Y-150308815D01*
X87075494Y-150229463D01*
X86965180Y-150170498D01*
X86845482Y-150134188D01*
X86721000Y-150121928D01*
X85756750Y-150125000D01*
X85598000Y-150283750D01*
X85344000Y-150283750D01*
X85185250Y-150125000D01*
X84221000Y-150121928D01*
X84096518Y-150134188D01*
X83976820Y-150170498D01*
X83866506Y-150229463D01*
X83769815Y-150308815D01*
X83690463Y-150405506D01*
X83631498Y-150515820D01*
X83595188Y-150635518D01*
X83582928Y-150760000D01*
X76660000Y-150760000D01*
X76660000Y-54660000D01*
X94340000Y-54660000D01*
X94340000Y-83050843D01*
G37*
X94340000Y-83050843D02*
X89366520Y-78077363D01*
X89385000Y-77984456D01*
X89385000Y-77717544D01*
X89332928Y-77455761D01*
X89230785Y-77209167D01*
X89082497Y-76987238D01*
X88893762Y-76798503D01*
X88671833Y-76650215D01*
X88425239Y-76548072D01*
X88163456Y-76496000D01*
X87896544Y-76496000D01*
X87634761Y-76548072D01*
X87545000Y-76585252D01*
X87545000Y-75121157D01*
X87620560Y-75045597D01*
X87848816Y-75091000D01*
X88151184Y-75091000D01*
X88447743Y-75032011D01*
X88727095Y-74916299D01*
X88978505Y-74748312D01*
X89192312Y-74534505D01*
X89360299Y-74283095D01*
X89476011Y-74003743D01*
X89535000Y-73707184D01*
X89535000Y-73404816D01*
X89476011Y-73108257D01*
X89360299Y-72828905D01*
X89192312Y-72577495D01*
X88978505Y-72363688D01*
X88835000Y-72267801D01*
X88835000Y-67675628D01*
X88882497Y-67733503D01*
X89186275Y-67982807D01*
X89532853Y-68168057D01*
X89908912Y-68282133D01*
X90300000Y-68320652D01*
X90691087Y-68282133D01*
X91067146Y-68168057D01*
X91413725Y-67982807D01*
X91717503Y-67733503D01*
X91966807Y-67429725D01*
X92152057Y-67083147D01*
X92266133Y-66707088D01*
X92295000Y-66413998D01*
X92295000Y-65698003D01*
X92266133Y-65404913D01*
X92152057Y-65028853D01*
X91966807Y-64682275D01*
X91717503Y-64378497D01*
X91413725Y-64129193D01*
X91067147Y-63943943D01*
X90691088Y-63829867D01*
X90300000Y-63791348D01*
X89908913Y-63829867D01*
X89532854Y-63943943D01*
X89186276Y-64129193D01*
X88882498Y-64378497D01*
X88835000Y-64436373D01*
X88835000Y-58509124D01*
X88913762Y-58456497D01*
X89102497Y-58267762D01*
X89250785Y-58045833D01*
X89352928Y-57799239D01*
X89405000Y-57537456D01*
X89405000Y-57270544D01*
X89352928Y-57008761D01*
X89250785Y-56762167D01*
X89102497Y-56540238D01*
X88913762Y-56351503D01*
X88691833Y-56203215D01*
X88445239Y-56101072D01*
X88183456Y-56049000D01*
X87916544Y-56049000D01*
X87654761Y-56101072D01*
X87408167Y-56203215D01*
X87186238Y-56351503D01*
X86997503Y-56540238D01*
X86849215Y-56762167D01*
X86780000Y-56929266D01*
X86710785Y-56762167D01*
X86562497Y-56540238D01*
X86373762Y-56351503D01*
X86151833Y-56203215D01*
X85905239Y-56101072D01*
X85643456Y-56049000D01*
X85376544Y-56049000D01*
X85114761Y-56101072D01*
X84868167Y-56203215D01*
X84646238Y-56351503D01*
X84457503Y-56540238D01*
X84309215Y-56762167D01*
X84240000Y-56929266D01*
X84170785Y-56762167D01*
X84022497Y-56540238D01*
X83833762Y-56351503D01*
X83611833Y-56203215D01*
X83365239Y-56101072D01*
X83103456Y-56049000D01*
X82836544Y-56049000D01*
X82574761Y-56101072D01*
X82328167Y-56203215D01*
X82106238Y-56351503D01*
X81917503Y-56540238D01*
X81769215Y-56762167D01*
X81667072Y-57008761D01*
X81615000Y-57270544D01*
X81615000Y-57537456D01*
X81667072Y-57799239D01*
X81769215Y-58045833D01*
X81917503Y-58267762D01*
X82106238Y-58456497D01*
X82215001Y-58529170D01*
X82215001Y-64497298D01*
X82117503Y-64378497D01*
X81813725Y-64129193D01*
X81467147Y-63943943D01*
X81091088Y-63829867D01*
X80700000Y-63791348D01*
X80308913Y-63829867D01*
X79932854Y-63943943D01*
X79586276Y-64129193D01*
X79282498Y-64378497D01*
X79033193Y-64682275D01*
X78847943Y-65028853D01*
X78733867Y-65404912D01*
X78705000Y-65698002D01*
X78705000Y-66413997D01*
X78733867Y-66707087D01*
X78847943Y-67083146D01*
X79033193Y-67429725D01*
X79282497Y-67733503D01*
X79586275Y-67982807D01*
X79932853Y-68168057D01*
X80308912Y-68282133D01*
X80700000Y-68320652D01*
X81091087Y-68282133D01*
X81467146Y-68168057D01*
X81813725Y-67982807D01*
X82117503Y-67733503D01*
X82215000Y-67614702D01*
X82215000Y-72017928D01*
X82100000Y-72017928D01*
X81975518Y-72030188D01*
X81855820Y-72066498D01*
X81745506Y-72125463D01*
X81648815Y-72204815D01*
X81569463Y-72301506D01*
X81510498Y-72411820D01*
X81474188Y-72531518D01*
X81461928Y-72656000D01*
X81461928Y-74456000D01*
X81474188Y-74580482D01*
X81510498Y-74700180D01*
X81569463Y-74810494D01*
X81648815Y-74907185D01*
X81745506Y-74986537D01*
X81754694Y-74991448D01*
X78857090Y-77889053D01*
X78827136Y-77913636D01*
X78729038Y-78033168D01*
X78656146Y-78169541D01*
X78611259Y-78317514D01*
X78599900Y-78432840D01*
X78599900Y-78432847D01*
X78596103Y-78471400D01*
X78599900Y-78509953D01*
X78599901Y-87144037D01*
X78596103Y-87182600D01*
X78611259Y-87336486D01*
X78656146Y-87484459D01*
X78656147Y-87484460D01*
X78729039Y-87620833D01*
X78744963Y-87640236D01*
X78802555Y-87710412D01*
X78802559Y-87710416D01*
X78827137Y-87740364D01*
X78857085Y-87764942D01*
X79615300Y-88523158D01*
X79615300Y-89126428D01*
X78300000Y-89126428D01*
X78175518Y-89138688D01*
X78055820Y-89174998D01*
X77945506Y-89233963D01*
X77848815Y-89313315D01*
X77769463Y-89410006D01*
X77710498Y-89520320D01*
X77674188Y-89640018D01*
X77661928Y-89764500D01*
X77661928Y-91464500D01*
X77674188Y-91588982D01*
X77710498Y-91708680D01*
X77769463Y-91818994D01*
X77848815Y-91915685D01*
X77945506Y-91995037D01*
X78055820Y-92054002D01*
X78175518Y-92090312D01*
X78300000Y-92102572D01*
X79615300Y-92102572D01*
X79615301Y-145409737D01*
X79611503Y-145448300D01*
X79626659Y-145602186D01*
X79671546Y-145750159D01*
X79671547Y-145750160D01*
X79744439Y-145886533D01*
X79784990Y-145935944D01*
X79817955Y-145976112D01*
X79817959Y-145976116D01*
X79842537Y-146006064D01*
X79872485Y-146030642D01*
X83430053Y-149588210D01*
X83454636Y-149618164D01*
X83574167Y-149716262D01*
X83710540Y-149789154D01*
X83858513Y-149834042D01*
X83933426Y-149841420D01*
X83973839Y-149845400D01*
X83973844Y-149845400D01*
X84012400Y-149849197D01*
X84050956Y-149845400D01*
X88042247Y-149845400D01*
X88080800Y-149849197D01*
X88119353Y-149845400D01*
X88119361Y-149845400D01*
X88234687Y-149834041D01*
X88382660Y-149789154D01*
X88519033Y-149716262D01*
X88638564Y-149618164D01*
X88663147Y-149588210D01*
X89609467Y-148641890D01*
X91205024Y-148641890D01*
X91249675Y-148789099D01*
X91374859Y-149051920D01*
X91548912Y-149285269D01*
X91765145Y-149480178D01*
X91890755Y-149555000D01*
X91765145Y-149629822D01*
X91548912Y-149824731D01*
X91374859Y-150058080D01*
X91249675Y-150320901D01*
X91205024Y-150468110D01*
X91326345Y-150698000D01*
X92519500Y-150698000D01*
X92519500Y-148412000D01*
X92773500Y-148412000D01*
X92773500Y-150698000D01*
X93966655Y-150698000D01*
X94087976Y-150468110D01*
X94043325Y-150320901D01*
X93918141Y-150058080D01*
X93744088Y-149824731D01*
X93527855Y-149629822D01*
X93402245Y-149555000D01*
X93527855Y-149480178D01*
X93744088Y-149285269D01*
X93918141Y-149051920D01*
X94043325Y-148789099D01*
X94087976Y-148641890D01*
X93966655Y-148412000D01*
X92773500Y-148412000D01*
X92519500Y-148412000D01*
X91326345Y-148412000D01*
X91205024Y-148641890D01*
X89609467Y-148641890D01*
X91526375Y-146724982D01*
X91699868Y-146898475D01*
X91882034Y-147020195D01*
X91765145Y-147089822D01*
X91548912Y-147284731D01*
X91374859Y-147518080D01*
X91249675Y-147780901D01*
X91205024Y-147928110D01*
X91326345Y-148158000D01*
X92519500Y-148158000D01*
X92519500Y-148138000D01*
X92773500Y-148138000D01*
X92773500Y-148158000D01*
X93966655Y-148158000D01*
X94087976Y-147928110D01*
X94043325Y-147780901D01*
X93918141Y-147518080D01*
X93744088Y-147284731D01*
X93527855Y-147089822D01*
X93410966Y-147020195D01*
X93593132Y-146898475D01*
X93799975Y-146691632D01*
X93962490Y-146448411D01*
X94074432Y-146178158D01*
X94131500Y-145891260D01*
X94131500Y-145598740D01*
X94074432Y-145311842D01*
X93962490Y-145041589D01*
X93799975Y-144798368D01*
X93593132Y-144591525D01*
X93418740Y-144475000D01*
X93593132Y-144358475D01*
X93799975Y-144151632D01*
X93962490Y-143908411D01*
X94074432Y-143638158D01*
X94131500Y-143351260D01*
X94131500Y-143058740D01*
X94074432Y-142771842D01*
X93962490Y-142501589D01*
X93799975Y-142258368D01*
X93593132Y-142051525D01*
X93418740Y-141935000D01*
X93593132Y-141818475D01*
X93799975Y-141611632D01*
X93962490Y-141368411D01*
X94074432Y-141098158D01*
X94131500Y-140811260D01*
X94131500Y-140518740D01*
X94093575Y-140328082D01*
X94340001Y-140081656D01*
X94340001Y-152340000D01*
X86982957Y-152340000D01*
X87075494Y-152290537D01*
X87172185Y-152211185D01*
X87251537Y-152114494D01*
X87310502Y-152004180D01*
X87346812Y-151884482D01*
X87359072Y-151760000D01*
X87356000Y-151545750D01*
X87197250Y-151387000D01*
X85598000Y-151387000D01*
X85598000Y-151407000D01*
X85344000Y-151407000D01*
X85344000Y-151387000D01*
X83744750Y-151387000D01*
X83586000Y-151545750D01*
X83582928Y-151760000D01*
X83595188Y-151884482D01*
X83631498Y-152004180D01*
X83690463Y-152114494D01*
X83769815Y-152211185D01*
X83866506Y-152290537D01*
X83959043Y-152340000D01*
X76660000Y-152340000D01*
X76660000Y-151181890D01*
X91205024Y-151181890D01*
X91249675Y-151329099D01*
X91374859Y-151591920D01*
X91548912Y-151825269D01*
X91765145Y-152020178D01*
X92015248Y-152169157D01*
X92289609Y-152266481D01*
X92519500Y-152145814D01*
X92519500Y-150952000D01*
X92773500Y-150952000D01*
X92773500Y-152145814D01*
X93003391Y-152266481D01*
X93277752Y-152169157D01*
X93527855Y-152020178D01*
X93744088Y-151825269D01*
X93918141Y-151591920D01*
X94043325Y-151329099D01*
X94087976Y-151181890D01*
X93966655Y-150952000D01*
X92773500Y-150952000D01*
X92519500Y-150952000D01*
X91326345Y-150952000D01*
X91205024Y-151181890D01*
X76660000Y-151181890D01*
X76660000Y-150760000D01*
X83582928Y-150760000D01*
X83586000Y-150974250D01*
X83744750Y-151133000D01*
X85344000Y-151133000D01*
X85344000Y-150283750D01*
X85598000Y-150283750D01*
X85598000Y-151133000D01*
X87197250Y-151133000D01*
X87356000Y-150974250D01*
X87359072Y-150760000D01*
X87346812Y-150635518D01*
X87310502Y-150515820D01*
X87251537Y-150405506D01*
X87172185Y-150308815D01*
X87075494Y-150229463D01*
X86965180Y-150170498D01*
X86845482Y-150134188D01*
X86721000Y-150121928D01*
X85756750Y-150125000D01*
X85598000Y-150283750D01*
X85344000Y-150283750D01*
X85185250Y-150125000D01*
X84221000Y-150121928D01*
X84096518Y-150134188D01*
X83976820Y-150170498D01*
X83866506Y-150229463D01*
X83769815Y-150308815D01*
X83690463Y-150405506D01*
X83631498Y-150515820D01*
X83595188Y-150635518D01*
X83582928Y-150760000D01*
X76660000Y-150760000D01*
X76660000Y-54660000D01*
X94340000Y-54660000D01*
X94340000Y-83050843D01*
G36*
X89612101Y-140917037D02*
G01*
X89608303Y-140955600D01*
X89623459Y-141109486D01*
X89668346Y-141257459D01*
X89668347Y-141257460D01*
X89741239Y-141393833D01*
X89778013Y-141438641D01*
X89814755Y-141483412D01*
X89814759Y-141483416D01*
X89839337Y-141513364D01*
X89869285Y-141537942D01*
X91199425Y-142868082D01*
X91161500Y-143058740D01*
X91161500Y-143351260D01*
X91218568Y-143638158D01*
X91330510Y-143908411D01*
X91493025Y-144151632D01*
X91699868Y-144358475D01*
X91874260Y-144475000D01*
X91699868Y-144591525D01*
X91493025Y-144798368D01*
X91386955Y-144957113D01*
X91357644Y-144960000D01*
X91357639Y-144960000D01*
X91317226Y-144963980D01*
X91242313Y-144971358D01*
X91114706Y-145010068D01*
X91094340Y-145016246D01*
X90957967Y-145089138D01*
X90838436Y-145187236D01*
X90813853Y-145217190D01*
X87755643Y-148275400D01*
X85324000Y-148275400D01*
X85324000Y-148033000D01*
X85344000Y-148033000D01*
X85344000Y-148013000D01*
X85598000Y-148013000D01*
X85598000Y-148033000D01*
X87197250Y-148033000D01*
X87356000Y-147874250D01*
X87359072Y-147660000D01*
X87346812Y-147535518D01*
X87310502Y-147415820D01*
X87262603Y-147326208D01*
X87835247Y-146943579D01*
X88345507Y-146433319D01*
X88746416Y-145833317D01*
X89022566Y-145166631D01*
X89163347Y-144458880D01*
X89163347Y-143737264D01*
X89022566Y-143029513D01*
X88746416Y-142362827D01*
X88345507Y-141762825D01*
X87835247Y-141252565D01*
X87235245Y-140851656D01*
X87160564Y-140820722D01*
X87172185Y-140811185D01*
X87251537Y-140714494D01*
X87310502Y-140604180D01*
X87346812Y-140484482D01*
X87359072Y-140360000D01*
X87359072Y-139360000D01*
X87346812Y-139235518D01*
X87310502Y-139115820D01*
X87251537Y-139005506D01*
X87172185Y-138908815D01*
X87075494Y-138829463D01*
X86965180Y-138770498D01*
X86845482Y-138734188D01*
X86810149Y-138730708D01*
X89612101Y-135928756D01*
X89612101Y-140917037D01*
G37*
X89612101Y-140917037D02*
X89608303Y-140955600D01*
X89623459Y-141109486D01*
X89668346Y-141257459D01*
X89668347Y-141257460D01*
X89741239Y-141393833D01*
X89778013Y-141438641D01*
X89814755Y-141483412D01*
X89814759Y-141483416D01*
X89839337Y-141513364D01*
X89869285Y-141537942D01*
X91199425Y-142868082D01*
X91161500Y-143058740D01*
X91161500Y-143351260D01*
X91218568Y-143638158D01*
X91330510Y-143908411D01*
X91493025Y-144151632D01*
X91699868Y-144358475D01*
X91874260Y-144475000D01*
X91699868Y-144591525D01*
X91493025Y-144798368D01*
X91386955Y-144957113D01*
X91357644Y-144960000D01*
X91357639Y-144960000D01*
X91317226Y-144963980D01*
X91242313Y-144971358D01*
X91114706Y-145010068D01*
X91094340Y-145016246D01*
X90957967Y-145089138D01*
X90838436Y-145187236D01*
X90813853Y-145217190D01*
X87755643Y-148275400D01*
X85324000Y-148275400D01*
X85324000Y-148033000D01*
X85344000Y-148033000D01*
X85344000Y-148013000D01*
X85598000Y-148013000D01*
X85598000Y-148033000D01*
X87197250Y-148033000D01*
X87356000Y-147874250D01*
X87359072Y-147660000D01*
X87346812Y-147535518D01*
X87310502Y-147415820D01*
X87262603Y-147326208D01*
X87835247Y-146943579D01*
X88345507Y-146433319D01*
X88746416Y-145833317D01*
X89022566Y-145166631D01*
X89163347Y-144458880D01*
X89163347Y-143737264D01*
X89022566Y-143029513D01*
X88746416Y-142362827D01*
X88345507Y-141762825D01*
X87835247Y-141252565D01*
X87235245Y-140851656D01*
X87160564Y-140820722D01*
X87172185Y-140811185D01*
X87251537Y-140714494D01*
X87310502Y-140604180D01*
X87346812Y-140484482D01*
X87359072Y-140360000D01*
X87359072Y-139360000D01*
X87346812Y-139235518D01*
X87310502Y-139115820D01*
X87251537Y-139005506D01*
X87172185Y-138908815D01*
X87075494Y-138829463D01*
X86965180Y-138770498D01*
X86845482Y-138734188D01*
X86810149Y-138730708D01*
X89612101Y-135928756D01*
X89612101Y-140917037D01*
G36*
X84131850Y-108631708D02*
G01*
X84096518Y-108635188D01*
X83976820Y-108671498D01*
X83866506Y-108730463D01*
X83769815Y-108809815D01*
X83690463Y-108906506D01*
X83631498Y-109016820D01*
X83595188Y-109136518D01*
X83582928Y-109261000D01*
X83582928Y-110261000D01*
X83595188Y-110385482D01*
X83631498Y-110505180D01*
X83690463Y-110615494D01*
X83769815Y-110712185D01*
X83838893Y-110768875D01*
X83764755Y-110799584D01*
X83164753Y-111200493D01*
X82654493Y-111710753D01*
X82253584Y-112310755D01*
X81977434Y-112977441D01*
X81836653Y-113685192D01*
X81836653Y-114406808D01*
X81977434Y-115114559D01*
X82253584Y-115781245D01*
X82654493Y-116381247D01*
X83164753Y-116891507D01*
X83676178Y-117233231D01*
X83631498Y-117316820D01*
X83595188Y-117436518D01*
X83582928Y-117561000D01*
X83586000Y-117775250D01*
X83744750Y-117934000D01*
X85344000Y-117934000D01*
X85344000Y-117914000D01*
X85598000Y-117914000D01*
X85598000Y-117934000D01*
X87197250Y-117934000D01*
X87356000Y-117775250D01*
X87359072Y-117561000D01*
X87346812Y-117436518D01*
X87310502Y-117316820D01*
X87281085Y-117261786D01*
X87835247Y-116891507D01*
X88122900Y-116603854D01*
X88122900Y-120211643D01*
X87300545Y-121033998D01*
X87197252Y-121033998D01*
X87356000Y-120875250D01*
X87359072Y-120661000D01*
X87346812Y-120536518D01*
X87310502Y-120416820D01*
X87251537Y-120306506D01*
X87172185Y-120209815D01*
X87075494Y-120130463D01*
X86965180Y-120071498D01*
X86845482Y-120035188D01*
X86721000Y-120022928D01*
X85756750Y-120026000D01*
X85598000Y-120184750D01*
X85598000Y-121034000D01*
X85618000Y-121034000D01*
X85618000Y-121288000D01*
X85598000Y-121288000D01*
X85598000Y-122137250D01*
X85756750Y-122296000D01*
X86037648Y-122296895D01*
X84943185Y-123391358D01*
X84913237Y-123415936D01*
X84888659Y-123445884D01*
X84888655Y-123445888D01*
X84855690Y-123486056D01*
X84815139Y-123535467D01*
X84776177Y-123608360D01*
X84742246Y-123671841D01*
X84722805Y-123735928D01*
X84221000Y-123735928D01*
X84096518Y-123748188D01*
X83976820Y-123784498D01*
X83866506Y-123843463D01*
X83769815Y-123922815D01*
X83690463Y-124019506D01*
X83631498Y-124129820D01*
X83595188Y-124249518D01*
X83582928Y-124374000D01*
X83582928Y-125374000D01*
X83595188Y-125498482D01*
X83631498Y-125618180D01*
X83690463Y-125728494D01*
X83769815Y-125825185D01*
X83800891Y-125850688D01*
X83764755Y-125865656D01*
X83164753Y-126266565D01*
X82654493Y-126776825D01*
X82253584Y-127376827D01*
X81977434Y-128043513D01*
X81836653Y-128751264D01*
X81836653Y-129472880D01*
X81977434Y-130180631D01*
X82253584Y-130847317D01*
X82654493Y-131447319D01*
X83164753Y-131957579D01*
X83696112Y-132312622D01*
X83690463Y-132319506D01*
X83631498Y-132429820D01*
X83595188Y-132549518D01*
X83582928Y-132674000D01*
X83586000Y-132888250D01*
X83744750Y-133047000D01*
X85344000Y-133047000D01*
X85344000Y-133027000D01*
X85598000Y-133027000D01*
X85598000Y-133047000D01*
X87197250Y-133047000D01*
X87356000Y-132888250D01*
X87359072Y-132674000D01*
X87346812Y-132549518D01*
X87310502Y-132429820D01*
X87262603Y-132340208D01*
X87835247Y-131957579D01*
X88345507Y-131447319D01*
X88746416Y-130847317D01*
X89022566Y-130180631D01*
X89061601Y-129984390D01*
X89061601Y-134258942D01*
X87356345Y-135964198D01*
X87359072Y-135774000D01*
X87346812Y-135649518D01*
X87310502Y-135529820D01*
X87251537Y-135419506D01*
X87172185Y-135322815D01*
X87075494Y-135243463D01*
X86965180Y-135184498D01*
X86845482Y-135148188D01*
X86721000Y-135135928D01*
X85756750Y-135139000D01*
X85598000Y-135297750D01*
X85598000Y-136147000D01*
X85618000Y-136147000D01*
X85618000Y-136401000D01*
X85598000Y-136401000D01*
X85598000Y-137250250D01*
X85756750Y-137409000D01*
X85911051Y-137409492D01*
X84943185Y-138377358D01*
X84913237Y-138401936D01*
X84888659Y-138431884D01*
X84888655Y-138431888D01*
X84855690Y-138472056D01*
X84815139Y-138521467D01*
X84782014Y-138583441D01*
X84742246Y-138657841D01*
X84722805Y-138721928D01*
X84221000Y-138721928D01*
X84096518Y-138734188D01*
X83976820Y-138770498D01*
X83866506Y-138829463D01*
X83769815Y-138908815D01*
X83690463Y-139005506D01*
X83631498Y-139115820D01*
X83595188Y-139235518D01*
X83582928Y-139360000D01*
X83582928Y-140360000D01*
X83595188Y-140484482D01*
X83631498Y-140604180D01*
X83690463Y-140714494D01*
X83769815Y-140811185D01*
X83800891Y-140836688D01*
X83764755Y-140851656D01*
X83164753Y-141252565D01*
X82654493Y-141762825D01*
X82253584Y-142362827D01*
X81977434Y-143029513D01*
X81836653Y-143737264D01*
X81836653Y-144458880D01*
X81977434Y-145166631D01*
X82253584Y-145833317D01*
X82654493Y-146433319D01*
X83164753Y-146943579D01*
X83696112Y-147298622D01*
X83690463Y-147305506D01*
X83631498Y-147415820D01*
X83595767Y-147533610D01*
X81185300Y-145123143D01*
X81185300Y-136774000D01*
X83582928Y-136774000D01*
X83595188Y-136898482D01*
X83631498Y-137018180D01*
X83690463Y-137128494D01*
X83769815Y-137225185D01*
X83866506Y-137304537D01*
X83976820Y-137363502D01*
X84096518Y-137399812D01*
X84221000Y-137412072D01*
X85185250Y-137409000D01*
X85344000Y-137250250D01*
X85344000Y-136401000D01*
X83744750Y-136401000D01*
X83586000Y-136559750D01*
X83582928Y-136774000D01*
X81185300Y-136774000D01*
X81185300Y-135774000D01*
X83582928Y-135774000D01*
X83586000Y-135988250D01*
X83744750Y-136147000D01*
X85344000Y-136147000D01*
X85344000Y-135297750D01*
X85185250Y-135139000D01*
X84221000Y-135135928D01*
X84096518Y-135148188D01*
X83976820Y-135184498D01*
X83866506Y-135243463D01*
X83769815Y-135322815D01*
X83690463Y-135419506D01*
X83631498Y-135529820D01*
X83595188Y-135649518D01*
X83582928Y-135774000D01*
X81185300Y-135774000D01*
X81185300Y-133674000D01*
X83582928Y-133674000D01*
X83595188Y-133798482D01*
X83631498Y-133918180D01*
X83690463Y-134028494D01*
X83769815Y-134125185D01*
X83866506Y-134204537D01*
X83976820Y-134263502D01*
X84096518Y-134299812D01*
X84221000Y-134312072D01*
X85185250Y-134309000D01*
X85344000Y-134150250D01*
X85344000Y-133301000D01*
X85598000Y-133301000D01*
X85598000Y-134150250D01*
X85756750Y-134309000D01*
X86721000Y-134312072D01*
X86845482Y-134299812D01*
X86965180Y-134263502D01*
X87075494Y-134204537D01*
X87172185Y-134125185D01*
X87251537Y-134028494D01*
X87310502Y-133918180D01*
X87346812Y-133798482D01*
X87359072Y-133674000D01*
X87356000Y-133459750D01*
X87197250Y-133301000D01*
X85598000Y-133301000D01*
X85344000Y-133301000D01*
X83744750Y-133301000D01*
X83586000Y-133459750D01*
X83582928Y-133674000D01*
X81185300Y-133674000D01*
X81185300Y-121661000D01*
X83582928Y-121661000D01*
X83595188Y-121785482D01*
X83631498Y-121905180D01*
X83690463Y-122015494D01*
X83769815Y-122112185D01*
X83866506Y-122191537D01*
X83976820Y-122250502D01*
X84096518Y-122286812D01*
X84221000Y-122299072D01*
X85185250Y-122296000D01*
X85344000Y-122137250D01*
X85344000Y-121288000D01*
X83744750Y-121288000D01*
X83586000Y-121446750D01*
X83582928Y-121661000D01*
X81185300Y-121661000D01*
X81185300Y-120661000D01*
X83582928Y-120661000D01*
X83586000Y-120875250D01*
X83744750Y-121034000D01*
X85344000Y-121034000D01*
X85344000Y-120184750D01*
X85185250Y-120026000D01*
X84221000Y-120022928D01*
X84096518Y-120035188D01*
X83976820Y-120071498D01*
X83866506Y-120130463D01*
X83769815Y-120209815D01*
X83690463Y-120306506D01*
X83631498Y-120416820D01*
X83595188Y-120536518D01*
X83582928Y-120661000D01*
X81185300Y-120661000D01*
X81185300Y-118561000D01*
X83582928Y-118561000D01*
X83595188Y-118685482D01*
X83631498Y-118805180D01*
X83690463Y-118915494D01*
X83769815Y-119012185D01*
X83866506Y-119091537D01*
X83976820Y-119150502D01*
X84096518Y-119186812D01*
X84221000Y-119199072D01*
X85185250Y-119196000D01*
X85344000Y-119037250D01*
X85344000Y-118188000D01*
X85598000Y-118188000D01*
X85598000Y-119037250D01*
X85756750Y-119196000D01*
X86721000Y-119199072D01*
X86845482Y-119186812D01*
X86965180Y-119150502D01*
X87075494Y-119091537D01*
X87172185Y-119012185D01*
X87251537Y-118915494D01*
X87310502Y-118805180D01*
X87346812Y-118685482D01*
X87359072Y-118561000D01*
X87356000Y-118346750D01*
X87197250Y-118188000D01*
X85598000Y-118188000D01*
X85344000Y-118188000D01*
X83744750Y-118188000D01*
X83586000Y-118346750D01*
X83582928Y-118561000D01*
X81185300Y-118561000D01*
X81185300Y-105685157D01*
X84131850Y-108631708D01*
G37*
X84131850Y-108631708D02*
X84096518Y-108635188D01*
X83976820Y-108671498D01*
X83866506Y-108730463D01*
X83769815Y-108809815D01*
X83690463Y-108906506D01*
X83631498Y-109016820D01*
X83595188Y-109136518D01*
X83582928Y-109261000D01*
X83582928Y-110261000D01*
X83595188Y-110385482D01*
X83631498Y-110505180D01*
X83690463Y-110615494D01*
X83769815Y-110712185D01*
X83838893Y-110768875D01*
X83764755Y-110799584D01*
X83164753Y-111200493D01*
X82654493Y-111710753D01*
X82253584Y-112310755D01*
X81977434Y-112977441D01*
X81836653Y-113685192D01*
X81836653Y-114406808D01*
X81977434Y-115114559D01*
X82253584Y-115781245D01*
X82654493Y-116381247D01*
X83164753Y-116891507D01*
X83676178Y-117233231D01*
X83631498Y-117316820D01*
X83595188Y-117436518D01*
X83582928Y-117561000D01*
X83586000Y-117775250D01*
X83744750Y-117934000D01*
X85344000Y-117934000D01*
X85344000Y-117914000D01*
X85598000Y-117914000D01*
X85598000Y-117934000D01*
X87197250Y-117934000D01*
X87356000Y-117775250D01*
X87359072Y-117561000D01*
X87346812Y-117436518D01*
X87310502Y-117316820D01*
X87281085Y-117261786D01*
X87835247Y-116891507D01*
X88122900Y-116603854D01*
X88122900Y-120211643D01*
X87300545Y-121033998D01*
X87197252Y-121033998D01*
X87356000Y-120875250D01*
X87359072Y-120661000D01*
X87346812Y-120536518D01*
X87310502Y-120416820D01*
X87251537Y-120306506D01*
X87172185Y-120209815D01*
X87075494Y-120130463D01*
X86965180Y-120071498D01*
X86845482Y-120035188D01*
X86721000Y-120022928D01*
X85756750Y-120026000D01*
X85598000Y-120184750D01*
X85598000Y-121034000D01*
X85618000Y-121034000D01*
X85618000Y-121288000D01*
X85598000Y-121288000D01*
X85598000Y-122137250D01*
X85756750Y-122296000D01*
X86037648Y-122296895D01*
X84943185Y-123391358D01*
X84913237Y-123415936D01*
X84888659Y-123445884D01*
X84888655Y-123445888D01*
X84855690Y-123486056D01*
X84815139Y-123535467D01*
X84776177Y-123608360D01*
X84742246Y-123671841D01*
X84722805Y-123735928D01*
X84221000Y-123735928D01*
X84096518Y-123748188D01*
X83976820Y-123784498D01*
X83866506Y-123843463D01*
X83769815Y-123922815D01*
X83690463Y-124019506D01*
X83631498Y-124129820D01*
X83595188Y-124249518D01*
X83582928Y-124374000D01*
X83582928Y-125374000D01*
X83595188Y-125498482D01*
X83631498Y-125618180D01*
X83690463Y-125728494D01*
X83769815Y-125825185D01*
X83800891Y-125850688D01*
X83764755Y-125865656D01*
X83164753Y-126266565D01*
X82654493Y-126776825D01*
X82253584Y-127376827D01*
X81977434Y-128043513D01*
X81836653Y-128751264D01*
X81836653Y-129472880D01*
X81977434Y-130180631D01*
X82253584Y-130847317D01*
X82654493Y-131447319D01*
X83164753Y-131957579D01*
X83696112Y-132312622D01*
X83690463Y-132319506D01*
X83631498Y-132429820D01*
X83595188Y-132549518D01*
X83582928Y-132674000D01*
X83586000Y-132888250D01*
X83744750Y-133047000D01*
X85344000Y-133047000D01*
X85344000Y-133027000D01*
X85598000Y-133027000D01*
X85598000Y-133047000D01*
X87197250Y-133047000D01*
X87356000Y-132888250D01*
X87359072Y-132674000D01*
X87346812Y-132549518D01*
X87310502Y-132429820D01*
X87262603Y-132340208D01*
X87835247Y-131957579D01*
X88345507Y-131447319D01*
X88746416Y-130847317D01*
X89022566Y-130180631D01*
X89061601Y-129984390D01*
X89061601Y-134258942D01*
X87356345Y-135964198D01*
X87359072Y-135774000D01*
X87346812Y-135649518D01*
X87310502Y-135529820D01*
X87251537Y-135419506D01*
X87172185Y-135322815D01*
X87075494Y-135243463D01*
X86965180Y-135184498D01*
X86845482Y-135148188D01*
X86721000Y-135135928D01*
X85756750Y-135139000D01*
X85598000Y-135297750D01*
X85598000Y-136147000D01*
X85618000Y-136147000D01*
X85618000Y-136401000D01*
X85598000Y-136401000D01*
X85598000Y-137250250D01*
X85756750Y-137409000D01*
X85911051Y-137409492D01*
X84943185Y-138377358D01*
X84913237Y-138401936D01*
X84888659Y-138431884D01*
X84888655Y-138431888D01*
X84855690Y-138472056D01*
X84815139Y-138521467D01*
X84782014Y-138583441D01*
X84742246Y-138657841D01*
X84722805Y-138721928D01*
X84221000Y-138721928D01*
X84096518Y-138734188D01*
X83976820Y-138770498D01*
X83866506Y-138829463D01*
X83769815Y-138908815D01*
X83690463Y-139005506D01*
X83631498Y-139115820D01*
X83595188Y-139235518D01*
X83582928Y-139360000D01*
X83582928Y-140360000D01*
X83595188Y-140484482D01*
X83631498Y-140604180D01*
X83690463Y-140714494D01*
X83769815Y-140811185D01*
X83800891Y-140836688D01*
X83764755Y-140851656D01*
X83164753Y-141252565D01*
X82654493Y-141762825D01*
X82253584Y-142362827D01*
X81977434Y-143029513D01*
X81836653Y-143737264D01*
X81836653Y-144458880D01*
X81977434Y-145166631D01*
X82253584Y-145833317D01*
X82654493Y-146433319D01*
X83164753Y-146943579D01*
X83696112Y-147298622D01*
X83690463Y-147305506D01*
X83631498Y-147415820D01*
X83595767Y-147533610D01*
X81185300Y-145123143D01*
X81185300Y-136774000D01*
X83582928Y-136774000D01*
X83595188Y-136898482D01*
X83631498Y-137018180D01*
X83690463Y-137128494D01*
X83769815Y-137225185D01*
X83866506Y-137304537D01*
X83976820Y-137363502D01*
X84096518Y-137399812D01*
X84221000Y-137412072D01*
X85185250Y-137409000D01*
X85344000Y-137250250D01*
X85344000Y-136401000D01*
X83744750Y-136401000D01*
X83586000Y-136559750D01*
X83582928Y-136774000D01*
X81185300Y-136774000D01*
X81185300Y-135774000D01*
X83582928Y-135774000D01*
X83586000Y-135988250D01*
X83744750Y-136147000D01*
X85344000Y-136147000D01*
X85344000Y-135297750D01*
X85185250Y-135139000D01*
X84221000Y-135135928D01*
X84096518Y-135148188D01*
X83976820Y-135184498D01*
X83866506Y-135243463D01*
X83769815Y-135322815D01*
X83690463Y-135419506D01*
X83631498Y-135529820D01*
X83595188Y-135649518D01*
X83582928Y-135774000D01*
X81185300Y-135774000D01*
X81185300Y-133674000D01*
X83582928Y-133674000D01*
X83595188Y-133798482D01*
X83631498Y-133918180D01*
X83690463Y-134028494D01*
X83769815Y-134125185D01*
X83866506Y-134204537D01*
X83976820Y-134263502D01*
X84096518Y-134299812D01*
X84221000Y-134312072D01*
X85185250Y-134309000D01*
X85344000Y-134150250D01*
X85344000Y-133301000D01*
X85598000Y-133301000D01*
X85598000Y-134150250D01*
X85756750Y-134309000D01*
X86721000Y-134312072D01*
X86845482Y-134299812D01*
X86965180Y-134263502D01*
X87075494Y-134204537D01*
X87172185Y-134125185D01*
X87251537Y-134028494D01*
X87310502Y-133918180D01*
X87346812Y-133798482D01*
X87359072Y-133674000D01*
X87356000Y-133459750D01*
X87197250Y-133301000D01*
X85598000Y-133301000D01*
X85344000Y-133301000D01*
X83744750Y-133301000D01*
X83586000Y-133459750D01*
X83582928Y-133674000D01*
X81185300Y-133674000D01*
X81185300Y-121661000D01*
X83582928Y-121661000D01*
X83595188Y-121785482D01*
X83631498Y-121905180D01*
X83690463Y-122015494D01*
X83769815Y-122112185D01*
X83866506Y-122191537D01*
X83976820Y-122250502D01*
X84096518Y-122286812D01*
X84221000Y-122299072D01*
X85185250Y-122296000D01*
X85344000Y-122137250D01*
X85344000Y-121288000D01*
X83744750Y-121288000D01*
X83586000Y-121446750D01*
X83582928Y-121661000D01*
X81185300Y-121661000D01*
X81185300Y-120661000D01*
X83582928Y-120661000D01*
X83586000Y-120875250D01*
X83744750Y-121034000D01*
X85344000Y-121034000D01*
X85344000Y-120184750D01*
X85185250Y-120026000D01*
X84221000Y-120022928D01*
X84096518Y-120035188D01*
X83976820Y-120071498D01*
X83866506Y-120130463D01*
X83769815Y-120209815D01*
X83690463Y-120306506D01*
X83631498Y-120416820D01*
X83595188Y-120536518D01*
X83582928Y-120661000D01*
X81185300Y-120661000D01*
X81185300Y-118561000D01*
X83582928Y-118561000D01*
X83595188Y-118685482D01*
X83631498Y-118805180D01*
X83690463Y-118915494D01*
X83769815Y-119012185D01*
X83866506Y-119091537D01*
X83976820Y-119150502D01*
X84096518Y-119186812D01*
X84221000Y-119199072D01*
X85185250Y-119196000D01*
X85344000Y-119037250D01*
X85344000Y-118188000D01*
X85598000Y-118188000D01*
X85598000Y-119037250D01*
X85756750Y-119196000D01*
X86721000Y-119199072D01*
X86845482Y-119186812D01*
X86965180Y-119150502D01*
X87075494Y-119091537D01*
X87172185Y-119012185D01*
X87251537Y-118915494D01*
X87310502Y-118805180D01*
X87346812Y-118685482D01*
X87359072Y-118561000D01*
X87356000Y-118346750D01*
X87197250Y-118188000D01*
X85598000Y-118188000D01*
X85344000Y-118188000D01*
X83744750Y-118188000D01*
X83586000Y-118346750D01*
X83582928Y-118561000D01*
X81185300Y-118561000D01*
X81185300Y-105685157D01*
X84131850Y-108631708D01*
G36*
X93641200Y-100171045D02*
G01*
X92995750Y-100173000D01*
X92837000Y-100331750D01*
X92837000Y-101981000D01*
X92857000Y-101981000D01*
X92857000Y-102235000D01*
X92837000Y-102235000D01*
X92837000Y-103884250D01*
X92995750Y-104043000D01*
X93641200Y-104044955D01*
X93641201Y-126495321D01*
X93620982Y-126489188D01*
X93496500Y-126476928D01*
X93394695Y-126476928D01*
X93375254Y-126412840D01*
X93302362Y-126276467D01*
X93204264Y-126156936D01*
X93174316Y-126132358D01*
X91785400Y-124743443D01*
X91785400Y-104044935D01*
X92424250Y-104043000D01*
X92583000Y-103884250D01*
X92583000Y-102235000D01*
X92563000Y-102235000D01*
X92563000Y-101981000D01*
X92583000Y-101981000D01*
X92583000Y-100331750D01*
X92424250Y-100173000D01*
X91785400Y-100171065D01*
X91785400Y-98737407D01*
X91793434Y-98742775D01*
X92145581Y-98888639D01*
X92519419Y-98963000D01*
X92900581Y-98963000D01*
X93274419Y-98888639D01*
X93626566Y-98742775D01*
X93641200Y-98732997D01*
X93641200Y-100171045D01*
G37*
X93641200Y-100171045D02*
X92995750Y-100173000D01*
X92837000Y-100331750D01*
X92837000Y-101981000D01*
X92857000Y-101981000D01*
X92857000Y-102235000D01*
X92837000Y-102235000D01*
X92837000Y-103884250D01*
X92995750Y-104043000D01*
X93641200Y-104044955D01*
X93641201Y-126495321D01*
X93620982Y-126489188D01*
X93496500Y-126476928D01*
X93394695Y-126476928D01*
X93375254Y-126412840D01*
X93302362Y-126276467D01*
X93204264Y-126156936D01*
X93174316Y-126132358D01*
X91785400Y-124743443D01*
X91785400Y-104044935D01*
X92424250Y-104043000D01*
X92583000Y-103884250D01*
X92583000Y-102235000D01*
X92563000Y-102235000D01*
X92563000Y-101981000D01*
X92583000Y-101981000D01*
X92583000Y-100331750D01*
X92424250Y-100173000D01*
X91785400Y-100171065D01*
X91785400Y-98737407D01*
X91793434Y-98742775D01*
X92145581Y-98888639D01*
X92519419Y-98963000D01*
X92900581Y-98963000D01*
X93274419Y-98888639D01*
X93626566Y-98742775D01*
X93641200Y-98732997D01*
X93641200Y-100171045D01*
G36*
X82654493Y-101475319D02*
G01*
X83164753Y-101985579D01*
X83696112Y-102340622D01*
X83690463Y-102347506D01*
X83631498Y-102457820D01*
X83595188Y-102577518D01*
X83582928Y-102702000D01*
X83586000Y-102916250D01*
X83744750Y-103075000D01*
X85344000Y-103075000D01*
X85344000Y-103055000D01*
X85598000Y-103055000D01*
X85598000Y-103075000D01*
X87197250Y-103075000D01*
X87356000Y-102916250D01*
X87359072Y-102702000D01*
X87346812Y-102577518D01*
X87310502Y-102457820D01*
X87262603Y-102368208D01*
X87835247Y-101985579D01*
X88122901Y-101697925D01*
X88122900Y-111488146D01*
X87835247Y-111200493D01*
X87235245Y-110799584D01*
X87122562Y-110752909D01*
X87172185Y-110712185D01*
X87251537Y-110615494D01*
X87310502Y-110505180D01*
X87346812Y-110385482D01*
X87359072Y-110261000D01*
X87359072Y-109261000D01*
X87346812Y-109136518D01*
X87310502Y-109016820D01*
X87251537Y-108906506D01*
X87172185Y-108809815D01*
X87075494Y-108730463D01*
X86965180Y-108671498D01*
X86845482Y-108635188D01*
X86721000Y-108622928D01*
X86219195Y-108622928D01*
X86199754Y-108558840D01*
X86126862Y-108422467D01*
X86028764Y-108302936D01*
X85998816Y-108278358D01*
X85157546Y-107437088D01*
X85185250Y-107437000D01*
X85344000Y-107278250D01*
X85344000Y-106429000D01*
X85598000Y-106429000D01*
X85598000Y-107278250D01*
X85756750Y-107437000D01*
X86721000Y-107440072D01*
X86845482Y-107427812D01*
X86965180Y-107391502D01*
X87075494Y-107332537D01*
X87172185Y-107253185D01*
X87251537Y-107156494D01*
X87310502Y-107046180D01*
X87346812Y-106926482D01*
X87359072Y-106802000D01*
X87356000Y-106587750D01*
X87197250Y-106429000D01*
X85598000Y-106429000D01*
X85344000Y-106429000D01*
X85324000Y-106429000D01*
X85324000Y-106175000D01*
X85344000Y-106175000D01*
X85344000Y-105325750D01*
X85598000Y-105325750D01*
X85598000Y-106175000D01*
X87197250Y-106175000D01*
X87356000Y-106016250D01*
X87359072Y-105802000D01*
X87346812Y-105677518D01*
X87310502Y-105557820D01*
X87251537Y-105447506D01*
X87172185Y-105350815D01*
X87075494Y-105271463D01*
X86965180Y-105212498D01*
X86845482Y-105176188D01*
X86721000Y-105163928D01*
X85756750Y-105167000D01*
X85598000Y-105325750D01*
X85344000Y-105325750D01*
X85185250Y-105167000D01*
X84221000Y-105163928D01*
X84096518Y-105176188D01*
X83976820Y-105212498D01*
X83866506Y-105271463D01*
X83769815Y-105350815D01*
X83690463Y-105447506D01*
X83631498Y-105557820D01*
X83595188Y-105677518D01*
X83582928Y-105802000D01*
X83583808Y-105863350D01*
X82475000Y-104754543D01*
X82475000Y-103702000D01*
X83582928Y-103702000D01*
X83595188Y-103826482D01*
X83631498Y-103946180D01*
X83690463Y-104056494D01*
X83769815Y-104153185D01*
X83866506Y-104232537D01*
X83976820Y-104291502D01*
X84096518Y-104327812D01*
X84221000Y-104340072D01*
X85185250Y-104337000D01*
X85344000Y-104178250D01*
X85344000Y-103329000D01*
X85598000Y-103329000D01*
X85598000Y-104178250D01*
X85756750Y-104337000D01*
X86721000Y-104340072D01*
X86845482Y-104327812D01*
X86965180Y-104291502D01*
X87075494Y-104232537D01*
X87172185Y-104153185D01*
X87251537Y-104056494D01*
X87310502Y-103946180D01*
X87346812Y-103826482D01*
X87359072Y-103702000D01*
X87356000Y-103487750D01*
X87197250Y-103329000D01*
X85598000Y-103329000D01*
X85344000Y-103329000D01*
X83744750Y-103329000D01*
X83586000Y-103487750D01*
X83582928Y-103702000D01*
X82475000Y-103702000D01*
X82475000Y-101206689D01*
X82654493Y-101475319D01*
G37*
X82654493Y-101475319D02*
X83164753Y-101985579D01*
X83696112Y-102340622D01*
X83690463Y-102347506D01*
X83631498Y-102457820D01*
X83595188Y-102577518D01*
X83582928Y-102702000D01*
X83586000Y-102916250D01*
X83744750Y-103075000D01*
X85344000Y-103075000D01*
X85344000Y-103055000D01*
X85598000Y-103055000D01*
X85598000Y-103075000D01*
X87197250Y-103075000D01*
X87356000Y-102916250D01*
X87359072Y-102702000D01*
X87346812Y-102577518D01*
X87310502Y-102457820D01*
X87262603Y-102368208D01*
X87835247Y-101985579D01*
X88122901Y-101697925D01*
X88122900Y-111488146D01*
X87835247Y-111200493D01*
X87235245Y-110799584D01*
X87122562Y-110752909D01*
X87172185Y-110712185D01*
X87251537Y-110615494D01*
X87310502Y-110505180D01*
X87346812Y-110385482D01*
X87359072Y-110261000D01*
X87359072Y-109261000D01*
X87346812Y-109136518D01*
X87310502Y-109016820D01*
X87251537Y-108906506D01*
X87172185Y-108809815D01*
X87075494Y-108730463D01*
X86965180Y-108671498D01*
X86845482Y-108635188D01*
X86721000Y-108622928D01*
X86219195Y-108622928D01*
X86199754Y-108558840D01*
X86126862Y-108422467D01*
X86028764Y-108302936D01*
X85998816Y-108278358D01*
X85157546Y-107437088D01*
X85185250Y-107437000D01*
X85344000Y-107278250D01*
X85344000Y-106429000D01*
X85598000Y-106429000D01*
X85598000Y-107278250D01*
X85756750Y-107437000D01*
X86721000Y-107440072D01*
X86845482Y-107427812D01*
X86965180Y-107391502D01*
X87075494Y-107332537D01*
X87172185Y-107253185D01*
X87251537Y-107156494D01*
X87310502Y-107046180D01*
X87346812Y-106926482D01*
X87359072Y-106802000D01*
X87356000Y-106587750D01*
X87197250Y-106429000D01*
X85598000Y-106429000D01*
X85344000Y-106429000D01*
X85324000Y-106429000D01*
X85324000Y-106175000D01*
X85344000Y-106175000D01*
X85344000Y-105325750D01*
X85598000Y-105325750D01*
X85598000Y-106175000D01*
X87197250Y-106175000D01*
X87356000Y-106016250D01*
X87359072Y-105802000D01*
X87346812Y-105677518D01*
X87310502Y-105557820D01*
X87251537Y-105447506D01*
X87172185Y-105350815D01*
X87075494Y-105271463D01*
X86965180Y-105212498D01*
X86845482Y-105176188D01*
X86721000Y-105163928D01*
X85756750Y-105167000D01*
X85598000Y-105325750D01*
X85344000Y-105325750D01*
X85185250Y-105167000D01*
X84221000Y-105163928D01*
X84096518Y-105176188D01*
X83976820Y-105212498D01*
X83866506Y-105271463D01*
X83769815Y-105350815D01*
X83690463Y-105447506D01*
X83631498Y-105557820D01*
X83595188Y-105677518D01*
X83582928Y-105802000D01*
X83583808Y-105863350D01*
X82475000Y-104754543D01*
X82475000Y-103702000D01*
X83582928Y-103702000D01*
X83595188Y-103826482D01*
X83631498Y-103946180D01*
X83690463Y-104056494D01*
X83769815Y-104153185D01*
X83866506Y-104232537D01*
X83976820Y-104291502D01*
X84096518Y-104327812D01*
X84221000Y-104340072D01*
X85185250Y-104337000D01*
X85344000Y-104178250D01*
X85344000Y-103329000D01*
X85598000Y-103329000D01*
X85598000Y-104178250D01*
X85756750Y-104337000D01*
X86721000Y-104340072D01*
X86845482Y-104327812D01*
X86965180Y-104291502D01*
X87075494Y-104232537D01*
X87172185Y-104153185D01*
X87251537Y-104056494D01*
X87310502Y-103946180D01*
X87346812Y-103826482D01*
X87359072Y-103702000D01*
X87356000Y-103487750D01*
X87197250Y-103329000D01*
X85598000Y-103329000D01*
X85344000Y-103329000D01*
X83744750Y-103329000D01*
X83586000Y-103487750D01*
X83582928Y-103702000D01*
X82475000Y-103702000D01*
X82475000Y-101206689D01*
X82654493Y-101475319D01*
M02*
