G04 #@! TF.GenerationSoftware,KiCad,Pcbnew,(5.1.5-0-10_14)*
G04 #@! TF.CreationDate,2020-09-23T15:18:55-04:00*
G04 #@! TF.ProjectId,AYOMSM - VCA Control Board,41594f4d-534d-4202-9d20-56434120436f,1.1*
G04 #@! TF.SameCoordinates,Original*
G04 #@! TF.FileFunction,Legend,Bot*
G04 #@! TF.FilePolarity,Positive*
%FSLAX46Y46*%
G04 Gerber Fmt 4.6, Leading zero omitted, Abs format (unit mm)*
G04 Created by KiCad (PCBNEW (5.1.5-0-10_14)) date 2020-09-23 15:18:55*
%MOMM*%
%LPD*%
G04 APERTURE LIST*
%ADD10C,0.150000*%
%ADD11C,0.010000*%
%ADD12C,0.120000*%
G04 APERTURE END LIST*
D10*
X77818761Y-109821095D02*
X77866380Y-109963952D01*
X77866380Y-110202047D01*
X77818761Y-110297285D01*
X77771142Y-110344904D01*
X77675904Y-110392523D01*
X77580666Y-110392523D01*
X77485428Y-110344904D01*
X77437809Y-110297285D01*
X77390190Y-110202047D01*
X77342571Y-110011571D01*
X77294952Y-109916333D01*
X77247333Y-109868714D01*
X77152095Y-109821095D01*
X77056857Y-109821095D01*
X76961619Y-109868714D01*
X76914000Y-109916333D01*
X76866380Y-110011571D01*
X76866380Y-110249666D01*
X76914000Y-110392523D01*
X77866380Y-110821095D02*
X76866380Y-110821095D01*
X77866380Y-111249666D02*
X77342571Y-111249666D01*
X77247333Y-111202047D01*
X77199714Y-111106809D01*
X77199714Y-110963952D01*
X77247333Y-110868714D01*
X77294952Y-110821095D01*
X77866380Y-112154428D02*
X77342571Y-112154428D01*
X77247333Y-112106809D01*
X77199714Y-112011571D01*
X77199714Y-111821095D01*
X77247333Y-111725857D01*
X77818761Y-112154428D02*
X77866380Y-112059190D01*
X77866380Y-111821095D01*
X77818761Y-111725857D01*
X77723523Y-111678238D01*
X77628285Y-111678238D01*
X77533047Y-111725857D01*
X77485428Y-111821095D01*
X77485428Y-112059190D01*
X77437809Y-112154428D01*
X77199714Y-112630619D02*
X78199714Y-112630619D01*
X77247333Y-112630619D02*
X77199714Y-112725857D01*
X77199714Y-112916333D01*
X77247333Y-113011571D01*
X77294952Y-113059190D01*
X77390190Y-113106809D01*
X77675904Y-113106809D01*
X77771142Y-113059190D01*
X77818761Y-113011571D01*
X77866380Y-112916333D01*
X77866380Y-112725857D01*
X77818761Y-112630619D01*
X77818761Y-113916333D02*
X77866380Y-113821095D01*
X77866380Y-113630619D01*
X77818761Y-113535380D01*
X77723523Y-113487761D01*
X77342571Y-113487761D01*
X77247333Y-113535380D01*
X77199714Y-113630619D01*
X77199714Y-113821095D01*
X77247333Y-113916333D01*
X77342571Y-113963952D01*
X77437809Y-113963952D01*
X77533047Y-113487761D01*
X77199714Y-114249666D02*
X77199714Y-114630619D01*
X76866380Y-114392523D02*
X77723523Y-114392523D01*
X77818761Y-114440142D01*
X77866380Y-114535380D01*
X77866380Y-114630619D01*
X77866380Y-115392523D02*
X77342571Y-115392523D01*
X77247333Y-115344904D01*
X77199714Y-115249666D01*
X77199714Y-115059190D01*
X77247333Y-114963952D01*
X77818761Y-115392523D02*
X77866380Y-115297285D01*
X77866380Y-115059190D01*
X77818761Y-114963952D01*
X77723523Y-114916333D01*
X77628285Y-114916333D01*
X77533047Y-114963952D01*
X77485428Y-115059190D01*
X77485428Y-115297285D01*
X77437809Y-115392523D01*
X77866380Y-115868714D02*
X76866380Y-115868714D01*
X77485428Y-115963952D02*
X77866380Y-116249666D01*
X77199714Y-116249666D02*
X77580666Y-115868714D01*
X77818761Y-117059190D02*
X77866380Y-116963952D01*
X77866380Y-116773476D01*
X77818761Y-116678238D01*
X77723523Y-116630619D01*
X77342571Y-116630619D01*
X77247333Y-116678238D01*
X77199714Y-116773476D01*
X77199714Y-116963952D01*
X77247333Y-117059190D01*
X77342571Y-117106809D01*
X77437809Y-117106809D01*
X77533047Y-116630619D01*
X77866380Y-117535380D02*
X77199714Y-117535380D01*
X77390190Y-117535380D02*
X77294952Y-117583000D01*
X77247333Y-117630619D01*
X77199714Y-117725857D01*
X77199714Y-117821095D01*
X77580666Y-118868714D02*
X77580666Y-119344904D01*
X77866380Y-118773476D02*
X76866380Y-119106809D01*
X77866380Y-119440142D01*
X77199714Y-120202047D02*
X77866380Y-120202047D01*
X77199714Y-119773476D02*
X77723523Y-119773476D01*
X77818761Y-119821095D01*
X77866380Y-119916333D01*
X77866380Y-120059190D01*
X77818761Y-120154428D01*
X77771142Y-120202047D01*
X77866380Y-121106809D02*
X76866380Y-121106809D01*
X77818761Y-121106809D02*
X77866380Y-121011571D01*
X77866380Y-120821095D01*
X77818761Y-120725857D01*
X77771142Y-120678238D01*
X77675904Y-120630619D01*
X77390190Y-120630619D01*
X77294952Y-120678238D01*
X77247333Y-120725857D01*
X77199714Y-120821095D01*
X77199714Y-121011571D01*
X77247333Y-121106809D01*
X77866380Y-121583000D02*
X77199714Y-121583000D01*
X76866380Y-121583000D02*
X76914000Y-121535380D01*
X76961619Y-121583000D01*
X76914000Y-121630619D01*
X76866380Y-121583000D01*
X76961619Y-121583000D01*
X77866380Y-122202047D02*
X77818761Y-122106809D01*
X77771142Y-122059190D01*
X77675904Y-122011571D01*
X77390190Y-122011571D01*
X77294952Y-122059190D01*
X77247333Y-122106809D01*
X77199714Y-122202047D01*
X77199714Y-122344904D01*
X77247333Y-122440142D01*
X77294952Y-122487761D01*
X77390190Y-122535380D01*
X77675904Y-122535380D01*
X77771142Y-122487761D01*
X77818761Y-122440142D01*
X77866380Y-122344904D01*
X77866380Y-122202047D01*
X77485428Y-123725857D02*
X77485428Y-124487761D01*
X76866380Y-125725857D02*
X77675904Y-125725857D01*
X77771142Y-125773476D01*
X77818761Y-125821095D01*
X77866380Y-125916333D01*
X77866380Y-126106809D01*
X77818761Y-126202047D01*
X77771142Y-126249666D01*
X77675904Y-126297285D01*
X76866380Y-126297285D01*
X77199714Y-126630619D02*
X77199714Y-127011571D01*
X76866380Y-126773476D02*
X77723523Y-126773476D01*
X77818761Y-126821095D01*
X77866380Y-126916333D01*
X77866380Y-127011571D01*
X77866380Y-127344904D02*
X77199714Y-127344904D01*
X76866380Y-127344904D02*
X76914000Y-127297285D01*
X76961619Y-127344904D01*
X76914000Y-127392523D01*
X76866380Y-127344904D01*
X76961619Y-127344904D01*
X77866380Y-127963952D02*
X77818761Y-127868714D01*
X77723523Y-127821095D01*
X76866380Y-127821095D01*
X77866380Y-128344904D02*
X77199714Y-128344904D01*
X76866380Y-128344904D02*
X76914000Y-128297285D01*
X76961619Y-128344904D01*
X76914000Y-128392523D01*
X76866380Y-128344904D01*
X76961619Y-128344904D01*
X77199714Y-128678238D02*
X77199714Y-129059190D01*
X76866380Y-128821095D02*
X77723523Y-128821095D01*
X77818761Y-128868714D01*
X77866380Y-128963952D01*
X77866380Y-129059190D01*
X77199714Y-129297285D02*
X77866380Y-129535380D01*
X77199714Y-129773476D02*
X77866380Y-129535380D01*
X78104476Y-129440142D01*
X78152095Y-129392523D01*
X78199714Y-129297285D01*
X76866380Y-130773476D02*
X77866380Y-131106809D01*
X76866380Y-131440142D01*
X77771142Y-132344904D02*
X77818761Y-132297285D01*
X77866380Y-132154428D01*
X77866380Y-132059190D01*
X77818761Y-131916333D01*
X77723523Y-131821095D01*
X77628285Y-131773476D01*
X77437809Y-131725857D01*
X77294952Y-131725857D01*
X77104476Y-131773476D01*
X77009238Y-131821095D01*
X76914000Y-131916333D01*
X76866380Y-132059190D01*
X76866380Y-132154428D01*
X76914000Y-132297285D01*
X76961619Y-132344904D01*
X77580666Y-132725857D02*
X77580666Y-133202047D01*
X77866380Y-132630619D02*
X76866380Y-132963952D01*
X77866380Y-133297285D01*
X77771142Y-134963952D02*
X77818761Y-134916333D01*
X77866380Y-134773476D01*
X77866380Y-134678238D01*
X77818761Y-134535380D01*
X77723523Y-134440142D01*
X77628285Y-134392523D01*
X77437809Y-134344904D01*
X77294952Y-134344904D01*
X77104476Y-134392523D01*
X77009238Y-134440142D01*
X76914000Y-134535380D01*
X76866380Y-134678238D01*
X76866380Y-134773476D01*
X76914000Y-134916333D01*
X76961619Y-134963952D01*
X77866380Y-135535380D02*
X77818761Y-135440142D01*
X77771142Y-135392523D01*
X77675904Y-135344904D01*
X77390190Y-135344904D01*
X77294952Y-135392523D01*
X77247333Y-135440142D01*
X77199714Y-135535380D01*
X77199714Y-135678238D01*
X77247333Y-135773476D01*
X77294952Y-135821095D01*
X77390190Y-135868714D01*
X77675904Y-135868714D01*
X77771142Y-135821095D01*
X77818761Y-135773476D01*
X77866380Y-135678238D01*
X77866380Y-135535380D01*
X77199714Y-136297285D02*
X77866380Y-136297285D01*
X77294952Y-136297285D02*
X77247333Y-136344904D01*
X77199714Y-136440142D01*
X77199714Y-136583000D01*
X77247333Y-136678238D01*
X77342571Y-136725857D01*
X77866380Y-136725857D01*
X77199714Y-137059190D02*
X77199714Y-137440142D01*
X76866380Y-137202047D02*
X77723523Y-137202047D01*
X77818761Y-137249666D01*
X77866380Y-137344904D01*
X77866380Y-137440142D01*
X77866380Y-137773476D02*
X77199714Y-137773476D01*
X77390190Y-137773476D02*
X77294952Y-137821095D01*
X77247333Y-137868714D01*
X77199714Y-137963952D01*
X77199714Y-138059190D01*
X77866380Y-138535380D02*
X77818761Y-138440142D01*
X77771142Y-138392523D01*
X77675904Y-138344904D01*
X77390190Y-138344904D01*
X77294952Y-138392523D01*
X77247333Y-138440142D01*
X77199714Y-138535380D01*
X77199714Y-138678238D01*
X77247333Y-138773476D01*
X77294952Y-138821095D01*
X77390190Y-138868714D01*
X77675904Y-138868714D01*
X77771142Y-138821095D01*
X77818761Y-138773476D01*
X77866380Y-138678238D01*
X77866380Y-138535380D01*
X77866380Y-139440142D02*
X77818761Y-139344904D01*
X77723523Y-139297285D01*
X76866380Y-139297285D01*
X77342571Y-140916333D02*
X77390190Y-141059190D01*
X77437809Y-141106809D01*
X77533047Y-141154428D01*
X77675904Y-141154428D01*
X77771142Y-141106809D01*
X77818761Y-141059190D01*
X77866380Y-140963952D01*
X77866380Y-140583000D01*
X76866380Y-140583000D01*
X76866380Y-140916333D01*
X76914000Y-141011571D01*
X76961619Y-141059190D01*
X77056857Y-141106809D01*
X77152095Y-141106809D01*
X77247333Y-141059190D01*
X77294952Y-141011571D01*
X77342571Y-140916333D01*
X77342571Y-140583000D01*
X77866380Y-141725857D02*
X77818761Y-141630619D01*
X77771142Y-141583000D01*
X77675904Y-141535380D01*
X77390190Y-141535380D01*
X77294952Y-141583000D01*
X77247333Y-141630619D01*
X77199714Y-141725857D01*
X77199714Y-141868714D01*
X77247333Y-141963952D01*
X77294952Y-142011571D01*
X77390190Y-142059190D01*
X77675904Y-142059190D01*
X77771142Y-142011571D01*
X77818761Y-141963952D01*
X77866380Y-141868714D01*
X77866380Y-141725857D01*
X77866380Y-142916333D02*
X77342571Y-142916333D01*
X77247333Y-142868714D01*
X77199714Y-142773476D01*
X77199714Y-142583000D01*
X77247333Y-142487761D01*
X77818761Y-142916333D02*
X77866380Y-142821095D01*
X77866380Y-142583000D01*
X77818761Y-142487761D01*
X77723523Y-142440142D01*
X77628285Y-142440142D01*
X77533047Y-142487761D01*
X77485428Y-142583000D01*
X77485428Y-142821095D01*
X77437809Y-142916333D01*
X77866380Y-143392523D02*
X77199714Y-143392523D01*
X77390190Y-143392523D02*
X77294952Y-143440142D01*
X77247333Y-143487761D01*
X77199714Y-143583000D01*
X77199714Y-143678238D01*
X77866380Y-144440142D02*
X76866380Y-144440142D01*
X77818761Y-144440142D02*
X77866380Y-144344904D01*
X77866380Y-144154428D01*
X77818761Y-144059190D01*
X77771142Y-144011571D01*
X77675904Y-143963952D01*
X77390190Y-143963952D01*
X77294952Y-144011571D01*
X77247333Y-144059190D01*
X77199714Y-144154428D01*
X77199714Y-144344904D01*
X77247333Y-144440142D01*
X78247333Y-145963952D02*
X78199714Y-145916333D01*
X78056857Y-145821095D01*
X77961619Y-145773476D01*
X77818761Y-145725857D01*
X77580666Y-145678238D01*
X77390190Y-145678238D01*
X77152095Y-145725857D01*
X77009238Y-145773476D01*
X76914000Y-145821095D01*
X76771142Y-145916333D01*
X76723523Y-145963952D01*
X77866380Y-146916333D02*
X77390190Y-146583000D01*
X77866380Y-146344904D02*
X76866380Y-146344904D01*
X76866380Y-146725857D01*
X76914000Y-146821095D01*
X76961619Y-146868714D01*
X77056857Y-146916333D01*
X77199714Y-146916333D01*
X77294952Y-146868714D01*
X77342571Y-146821095D01*
X77390190Y-146725857D01*
X77390190Y-146344904D01*
X77818761Y-147725857D02*
X77866380Y-147630619D01*
X77866380Y-147440142D01*
X77818761Y-147344904D01*
X77723523Y-147297285D01*
X77342571Y-147297285D01*
X77247333Y-147344904D01*
X77199714Y-147440142D01*
X77199714Y-147630619D01*
X77247333Y-147725857D01*
X77342571Y-147773476D01*
X77437809Y-147773476D01*
X77533047Y-147297285D01*
X77199714Y-148106809D02*
X77866380Y-148344904D01*
X77199714Y-148583000D01*
X77866380Y-150249666D02*
X77866380Y-149678238D01*
X77866380Y-149963952D02*
X76866380Y-149963952D01*
X77009238Y-149868714D01*
X77104476Y-149773476D01*
X77152095Y-149678238D01*
X77771142Y-150678238D02*
X77818761Y-150725857D01*
X77866380Y-150678238D01*
X77818761Y-150630619D01*
X77771142Y-150678238D01*
X77866380Y-150678238D01*
X76866380Y-151059190D02*
X76866380Y-151678238D01*
X77247333Y-151344904D01*
X77247333Y-151487761D01*
X77294952Y-151583000D01*
X77342571Y-151630619D01*
X77437809Y-151678238D01*
X77675904Y-151678238D01*
X77771142Y-151630619D01*
X77818761Y-151583000D01*
X77866380Y-151487761D01*
X77866380Y-151202047D01*
X77818761Y-151106809D01*
X77771142Y-151059190D01*
X78247333Y-152011571D02*
X78199714Y-152059190D01*
X78056857Y-152154428D01*
X77961619Y-152202047D01*
X77818761Y-152249666D01*
X77580666Y-152297285D01*
X77390190Y-152297285D01*
X77152095Y-152249666D01*
X77009238Y-152202047D01*
X76914000Y-152154428D01*
X76771142Y-152059190D01*
X76723523Y-152011571D01*
D11*
G36*
X83530859Y-57836303D02*
G01*
X83348546Y-57836716D01*
X83190217Y-57837365D01*
X83053986Y-57838271D01*
X82937966Y-57839454D01*
X82840270Y-57840933D01*
X82759012Y-57842730D01*
X82692304Y-57844863D01*
X82638262Y-57847352D01*
X82594997Y-57850219D01*
X82560624Y-57853482D01*
X82533255Y-57857162D01*
X82511005Y-57861279D01*
X82491986Y-57865852D01*
X82474312Y-57870901D01*
X82471035Y-57871890D01*
X82295223Y-57944779D01*
X82141646Y-58049125D01*
X82012467Y-58182859D01*
X81909848Y-58343911D01*
X81860677Y-58456127D01*
X81850594Y-58484932D01*
X81842246Y-58514812D01*
X81835426Y-58549729D01*
X81829930Y-58593645D01*
X81825552Y-58650522D01*
X81822084Y-58724322D01*
X81819323Y-58819009D01*
X81817061Y-58938543D01*
X81815093Y-59086888D01*
X81813214Y-59268006D01*
X81812061Y-59392039D01*
X81810401Y-59623652D01*
X81809988Y-59816605D01*
X81810828Y-59971294D01*
X81812925Y-60088116D01*
X81816287Y-60167469D01*
X81820920Y-60209749D01*
X81824636Y-60217539D01*
X81853244Y-60212901D01*
X81906626Y-60200895D01*
X81957228Y-60188231D01*
X82054545Y-60171172D01*
X82176221Y-60161934D01*
X82308323Y-60160525D01*
X82436924Y-60166954D01*
X82548092Y-60181230D01*
X82579307Y-60187840D01*
X82643110Y-60202856D01*
X82690914Y-60213384D01*
X82710121Y-60216843D01*
X82713729Y-60198284D01*
X82717373Y-60145436D01*
X82720893Y-60063089D01*
X82724126Y-59956029D01*
X82726912Y-59829046D01*
X82729089Y-59686926D01*
X82729660Y-59636270D01*
X82731496Y-59469490D01*
X82733431Y-59337062D01*
X82735811Y-59234262D01*
X82738981Y-59156365D01*
X82743285Y-59098648D01*
X82749068Y-59056386D01*
X82756674Y-59024855D01*
X82766449Y-58999331D01*
X82777787Y-58976846D01*
X82855732Y-58867693D01*
X82954082Y-58787916D01*
X83003641Y-58762960D01*
X83017502Y-58758509D01*
X83037991Y-58754509D01*
X83067107Y-58750936D01*
X83106851Y-58747767D01*
X83159222Y-58744978D01*
X83226219Y-58742546D01*
X83309841Y-58740446D01*
X83412087Y-58738657D01*
X83534958Y-58737154D01*
X83680452Y-58735913D01*
X83850569Y-58734912D01*
X84047308Y-58734127D01*
X84272668Y-58733534D01*
X84528649Y-58733110D01*
X84817251Y-58732832D01*
X85140471Y-58732676D01*
X85500311Y-58732618D01*
X85588231Y-58732616D01*
X85956752Y-58732654D01*
X86288197Y-58732786D01*
X86584563Y-58733035D01*
X86847850Y-58733423D01*
X87080058Y-58733975D01*
X87283186Y-58734714D01*
X87459233Y-58735663D01*
X87610199Y-58736847D01*
X87738083Y-58738288D01*
X87844884Y-58740009D01*
X87932602Y-58742035D01*
X88003235Y-58744389D01*
X88058784Y-58747094D01*
X88101248Y-58750174D01*
X88132626Y-58753653D01*
X88154917Y-58757553D01*
X88170122Y-58761898D01*
X88172820Y-58762960D01*
X88278534Y-58827734D01*
X88366384Y-58924291D01*
X88398674Y-58976846D01*
X88440846Y-59055000D01*
X88450615Y-61693559D01*
X88452020Y-62068282D01*
X88453341Y-62405906D01*
X88454611Y-62708408D01*
X88455863Y-62977766D01*
X88457132Y-63215956D01*
X88458449Y-63424957D01*
X88459850Y-63606745D01*
X88461368Y-63763298D01*
X88463035Y-63896594D01*
X88464887Y-64008610D01*
X88466955Y-64101323D01*
X88469273Y-64176710D01*
X88471876Y-64236750D01*
X88474796Y-64283419D01*
X88478067Y-64318694D01*
X88481722Y-64344555D01*
X88485795Y-64362976D01*
X88490320Y-64375937D01*
X88495330Y-64385414D01*
X88496232Y-64386820D01*
X88554399Y-64444325D01*
X88641272Y-64491233D01*
X88747371Y-64525257D01*
X88863220Y-64544110D01*
X88979339Y-64545503D01*
X89082343Y-64528272D01*
X89196473Y-64481955D01*
X89285140Y-64412019D01*
X89318869Y-64371711D01*
X89324453Y-64363867D01*
X89329499Y-64354751D01*
X89334039Y-64342428D01*
X89338106Y-64324968D01*
X89341730Y-64300437D01*
X89344942Y-64266903D01*
X89347776Y-64222433D01*
X89350260Y-64165095D01*
X89352429Y-64092957D01*
X89354312Y-64004085D01*
X89355941Y-63896547D01*
X89357347Y-63768412D01*
X89358563Y-63617746D01*
X89359620Y-63442616D01*
X89360549Y-63241091D01*
X89361381Y-63011238D01*
X89362149Y-62751124D01*
X89362882Y-62458817D01*
X89363614Y-62132384D01*
X89364376Y-61769893D01*
X89364828Y-61549610D01*
X89365593Y-61102425D01*
X89365982Y-60691255D01*
X89365996Y-60316387D01*
X89365637Y-59978105D01*
X89364906Y-59676693D01*
X89363805Y-59412436D01*
X89362335Y-59185618D01*
X89360497Y-58996525D01*
X89358292Y-58845440D01*
X89355723Y-58732649D01*
X89352791Y-58658436D01*
X89350365Y-58628346D01*
X89307339Y-58443512D01*
X89230302Y-58276641D01*
X89121192Y-58130372D01*
X88981946Y-58007342D01*
X88827873Y-57916464D01*
X88675307Y-57843616D01*
X85637077Y-57838373D01*
X85234051Y-57837686D01*
X84868215Y-57837097D01*
X84537683Y-57836624D01*
X84240568Y-57836288D01*
X83974983Y-57836110D01*
X83739042Y-57836108D01*
X83530859Y-57836303D01*
G37*
X83530859Y-57836303D02*
X83348546Y-57836716D01*
X83190217Y-57837365D01*
X83053986Y-57838271D01*
X82937966Y-57839454D01*
X82840270Y-57840933D01*
X82759012Y-57842730D01*
X82692304Y-57844863D01*
X82638262Y-57847352D01*
X82594997Y-57850219D01*
X82560624Y-57853482D01*
X82533255Y-57857162D01*
X82511005Y-57861279D01*
X82491986Y-57865852D01*
X82474312Y-57870901D01*
X82471035Y-57871890D01*
X82295223Y-57944779D01*
X82141646Y-58049125D01*
X82012467Y-58182859D01*
X81909848Y-58343911D01*
X81860677Y-58456127D01*
X81850594Y-58484932D01*
X81842246Y-58514812D01*
X81835426Y-58549729D01*
X81829930Y-58593645D01*
X81825552Y-58650522D01*
X81822084Y-58724322D01*
X81819323Y-58819009D01*
X81817061Y-58938543D01*
X81815093Y-59086888D01*
X81813214Y-59268006D01*
X81812061Y-59392039D01*
X81810401Y-59623652D01*
X81809988Y-59816605D01*
X81810828Y-59971294D01*
X81812925Y-60088116D01*
X81816287Y-60167469D01*
X81820920Y-60209749D01*
X81824636Y-60217539D01*
X81853244Y-60212901D01*
X81906626Y-60200895D01*
X81957228Y-60188231D01*
X82054545Y-60171172D01*
X82176221Y-60161934D01*
X82308323Y-60160525D01*
X82436924Y-60166954D01*
X82548092Y-60181230D01*
X82579307Y-60187840D01*
X82643110Y-60202856D01*
X82690914Y-60213384D01*
X82710121Y-60216843D01*
X82713729Y-60198284D01*
X82717373Y-60145436D01*
X82720893Y-60063089D01*
X82724126Y-59956029D01*
X82726912Y-59829046D01*
X82729089Y-59686926D01*
X82729660Y-59636270D01*
X82731496Y-59469490D01*
X82733431Y-59337062D01*
X82735811Y-59234262D01*
X82738981Y-59156365D01*
X82743285Y-59098648D01*
X82749068Y-59056386D01*
X82756674Y-59024855D01*
X82766449Y-58999331D01*
X82777787Y-58976846D01*
X82855732Y-58867693D01*
X82954082Y-58787916D01*
X83003641Y-58762960D01*
X83017502Y-58758509D01*
X83037991Y-58754509D01*
X83067107Y-58750936D01*
X83106851Y-58747767D01*
X83159222Y-58744978D01*
X83226219Y-58742546D01*
X83309841Y-58740446D01*
X83412087Y-58738657D01*
X83534958Y-58737154D01*
X83680452Y-58735913D01*
X83850569Y-58734912D01*
X84047308Y-58734127D01*
X84272668Y-58733534D01*
X84528649Y-58733110D01*
X84817251Y-58732832D01*
X85140471Y-58732676D01*
X85500311Y-58732618D01*
X85588231Y-58732616D01*
X85956752Y-58732654D01*
X86288197Y-58732786D01*
X86584563Y-58733035D01*
X86847850Y-58733423D01*
X87080058Y-58733975D01*
X87283186Y-58734714D01*
X87459233Y-58735663D01*
X87610199Y-58736847D01*
X87738083Y-58738288D01*
X87844884Y-58740009D01*
X87932602Y-58742035D01*
X88003235Y-58744389D01*
X88058784Y-58747094D01*
X88101248Y-58750174D01*
X88132626Y-58753653D01*
X88154917Y-58757553D01*
X88170122Y-58761898D01*
X88172820Y-58762960D01*
X88278534Y-58827734D01*
X88366384Y-58924291D01*
X88398674Y-58976846D01*
X88440846Y-59055000D01*
X88450615Y-61693559D01*
X88452020Y-62068282D01*
X88453341Y-62405906D01*
X88454611Y-62708408D01*
X88455863Y-62977766D01*
X88457132Y-63215956D01*
X88458449Y-63424957D01*
X88459850Y-63606745D01*
X88461368Y-63763298D01*
X88463035Y-63896594D01*
X88464887Y-64008610D01*
X88466955Y-64101323D01*
X88469273Y-64176710D01*
X88471876Y-64236750D01*
X88474796Y-64283419D01*
X88478067Y-64318694D01*
X88481722Y-64344555D01*
X88485795Y-64362976D01*
X88490320Y-64375937D01*
X88495330Y-64385414D01*
X88496232Y-64386820D01*
X88554399Y-64444325D01*
X88641272Y-64491233D01*
X88747371Y-64525257D01*
X88863220Y-64544110D01*
X88979339Y-64545503D01*
X89082343Y-64528272D01*
X89196473Y-64481955D01*
X89285140Y-64412019D01*
X89318869Y-64371711D01*
X89324453Y-64363867D01*
X89329499Y-64354751D01*
X89334039Y-64342428D01*
X89338106Y-64324968D01*
X89341730Y-64300437D01*
X89344942Y-64266903D01*
X89347776Y-64222433D01*
X89350260Y-64165095D01*
X89352429Y-64092957D01*
X89354312Y-64004085D01*
X89355941Y-63896547D01*
X89357347Y-63768412D01*
X89358563Y-63617746D01*
X89359620Y-63442616D01*
X89360549Y-63241091D01*
X89361381Y-63011238D01*
X89362149Y-62751124D01*
X89362882Y-62458817D01*
X89363614Y-62132384D01*
X89364376Y-61769893D01*
X89364828Y-61549610D01*
X89365593Y-61102425D01*
X89365982Y-60691255D01*
X89365996Y-60316387D01*
X89365637Y-59978105D01*
X89364906Y-59676693D01*
X89363805Y-59412436D01*
X89362335Y-59185618D01*
X89360497Y-58996525D01*
X89358292Y-58845440D01*
X89355723Y-58732649D01*
X89352791Y-58658436D01*
X89350365Y-58628346D01*
X89307339Y-58443512D01*
X89230302Y-58276641D01*
X89121192Y-58130372D01*
X88981946Y-58007342D01*
X88827873Y-57916464D01*
X88675307Y-57843616D01*
X85637077Y-57838373D01*
X85234051Y-57837686D01*
X84868215Y-57837097D01*
X84537683Y-57836624D01*
X84240568Y-57836288D01*
X83974983Y-57836110D01*
X83739042Y-57836108D01*
X83530859Y-57836303D01*
G36*
X81978435Y-61125160D02*
G01*
X81785464Y-61145890D01*
X81614784Y-61179262D01*
X81606410Y-61181431D01*
X81326984Y-61274671D01*
X81053987Y-61405177D01*
X80789822Y-61571344D01*
X80536887Y-61771570D01*
X80297585Y-62004251D01*
X80185070Y-62130758D01*
X80149415Y-62175938D01*
X80095128Y-62248918D01*
X80024800Y-62345943D01*
X79941024Y-62463257D01*
X79846394Y-62597106D01*
X79743501Y-62743733D01*
X79634940Y-62899384D01*
X79523302Y-63060303D01*
X79411180Y-63222736D01*
X79301167Y-63382927D01*
X79195856Y-63537121D01*
X79097840Y-63681562D01*
X79009711Y-63812496D01*
X78934063Y-63926167D01*
X78873487Y-64018819D01*
X78830577Y-64086699D01*
X78809265Y-64123390D01*
X78784572Y-64201008D01*
X78775143Y-64297530D01*
X78781297Y-64395753D01*
X78802687Y-64476923D01*
X78868439Y-64586668D01*
X78957244Y-64670368D01*
X79062493Y-64726682D01*
X79177577Y-64754268D01*
X79295888Y-64751785D01*
X79410815Y-64717893D01*
X79515750Y-64651249D01*
X79542026Y-64626953D01*
X79562512Y-64601403D01*
X79602592Y-64546791D01*
X79659961Y-64466418D01*
X79732309Y-64363581D01*
X79817329Y-64241583D01*
X79912715Y-64103722D01*
X80016158Y-63953298D01*
X80125350Y-63793611D01*
X80147462Y-63761166D01*
X80260336Y-63595906D01*
X80370216Y-63435883D01*
X80474436Y-63284926D01*
X80570326Y-63146861D01*
X80655219Y-63025518D01*
X80726445Y-62924723D01*
X80781337Y-62848304D01*
X80817226Y-62800088D01*
X80819349Y-62797370D01*
X81008124Y-62581098D01*
X81208216Y-62397566D01*
X81417427Y-62248350D01*
X81633556Y-62135026D01*
X81846615Y-62061177D01*
X81989691Y-62036275D01*
X82153554Y-62028080D01*
X82323769Y-62036378D01*
X82485900Y-62060952D01*
X82530461Y-62071377D01*
X82656625Y-62111695D01*
X82801769Y-62171080D01*
X82954519Y-62243993D01*
X83103499Y-62324894D01*
X83237335Y-62408242D01*
X83272923Y-62432961D01*
X83306108Y-62458861D01*
X83366901Y-62508649D01*
X83453346Y-62580662D01*
X83563486Y-62673234D01*
X83695366Y-62784702D01*
X83847030Y-62913401D01*
X84016522Y-63057665D01*
X84201885Y-63215831D01*
X84401165Y-63386234D01*
X84612404Y-63567208D01*
X84833647Y-63757090D01*
X85062939Y-63954215D01*
X85276839Y-64138403D01*
X85511155Y-64340240D01*
X85738760Y-64536131D01*
X85957738Y-64724433D01*
X86166171Y-64903505D01*
X86362142Y-65071706D01*
X86543734Y-65227393D01*
X86709029Y-65368925D01*
X86856109Y-65494660D01*
X86983059Y-65602956D01*
X87087959Y-65692172D01*
X87168894Y-65760665D01*
X87223945Y-65806794D01*
X87250224Y-65828177D01*
X87540316Y-66030606D01*
X87839487Y-66199561D01*
X88144318Y-66333413D01*
X88451389Y-66430528D01*
X88569754Y-66457833D01*
X88694268Y-66477473D01*
X88841872Y-66491331D01*
X88997561Y-66498722D01*
X89146330Y-66498960D01*
X89273172Y-66491358D01*
X89281863Y-66490398D01*
X89560465Y-66438819D01*
X89835070Y-66349334D01*
X90103863Y-66223050D01*
X90365028Y-66061077D01*
X90616752Y-65864524D01*
X90857218Y-65634500D01*
X91058295Y-65405000D01*
X91093651Y-65358783D01*
X91147350Y-65285255D01*
X91216771Y-65188220D01*
X91299297Y-65071485D01*
X91392307Y-64938854D01*
X91493183Y-64794135D01*
X91599305Y-64641131D01*
X91708054Y-64483650D01*
X91816811Y-64325495D01*
X91922956Y-64170473D01*
X92023871Y-64022390D01*
X92116936Y-63885050D01*
X92199532Y-63762260D01*
X92269039Y-63657824D01*
X92322838Y-63575549D01*
X92358311Y-63519241D01*
X92369444Y-63500000D01*
X92397155Y-63416064D01*
X92406495Y-63303083D01*
X92403865Y-63223889D01*
X92391793Y-63165079D01*
X92365475Y-63108238D01*
X92348022Y-63078908D01*
X92264281Y-62976618D01*
X92162813Y-62905448D01*
X92049791Y-62865603D01*
X91931390Y-62857290D01*
X91813784Y-62880713D01*
X91703147Y-62936078D01*
X91605653Y-63023591D01*
X91581904Y-63053405D01*
X91554891Y-63091239D01*
X91508592Y-63157601D01*
X91445636Y-63248665D01*
X91368649Y-63360607D01*
X91280260Y-63489598D01*
X91183096Y-63631814D01*
X91079784Y-63783428D01*
X91000162Y-63900539D01*
X90858501Y-64108717D01*
X90736170Y-64287446D01*
X90630853Y-64439811D01*
X90540235Y-64568896D01*
X90461999Y-64677787D01*
X90393830Y-64769567D01*
X90333413Y-64847322D01*
X90278431Y-64914137D01*
X90226568Y-64973096D01*
X90175509Y-65027284D01*
X90122939Y-65079786D01*
X90093831Y-65107830D01*
X89888868Y-65281259D01*
X89678114Y-65416078D01*
X89461814Y-65512283D01*
X89240212Y-65569873D01*
X89013553Y-65588844D01*
X88782084Y-65569194D01*
X88546048Y-65510921D01*
X88305691Y-65414021D01*
X88061257Y-65278493D01*
X87849024Y-65131835D01*
X87817617Y-65106603D01*
X87758580Y-65057529D01*
X87673876Y-64986287D01*
X87565469Y-64894554D01*
X87435323Y-64784005D01*
X87285401Y-64656316D01*
X87117668Y-64513161D01*
X86934086Y-64356218D01*
X86736620Y-64187161D01*
X86527233Y-64007666D01*
X86307890Y-63819409D01*
X86080553Y-63624065D01*
X85900846Y-63469491D01*
X85668745Y-63269844D01*
X85443183Y-63075979D01*
X85226119Y-62889573D01*
X85019512Y-62712300D01*
X84825321Y-62545837D01*
X84645504Y-62391858D01*
X84482021Y-62252041D01*
X84336830Y-62128059D01*
X84211890Y-62021588D01*
X84109160Y-61934305D01*
X84030598Y-61867884D01*
X83978164Y-61824002D01*
X83956769Y-61806579D01*
X83689310Y-61615744D01*
X83411093Y-61451825D01*
X83127584Y-61317398D01*
X82844247Y-61215033D01*
X82566551Y-61147305D01*
X82550000Y-61144367D01*
X82374813Y-61123844D01*
X82179588Y-61117627D01*
X81978435Y-61125160D01*
G37*
X81978435Y-61125160D02*
X81785464Y-61145890D01*
X81614784Y-61179262D01*
X81606410Y-61181431D01*
X81326984Y-61274671D01*
X81053987Y-61405177D01*
X80789822Y-61571344D01*
X80536887Y-61771570D01*
X80297585Y-62004251D01*
X80185070Y-62130758D01*
X80149415Y-62175938D01*
X80095128Y-62248918D01*
X80024800Y-62345943D01*
X79941024Y-62463257D01*
X79846394Y-62597106D01*
X79743501Y-62743733D01*
X79634940Y-62899384D01*
X79523302Y-63060303D01*
X79411180Y-63222736D01*
X79301167Y-63382927D01*
X79195856Y-63537121D01*
X79097840Y-63681562D01*
X79009711Y-63812496D01*
X78934063Y-63926167D01*
X78873487Y-64018819D01*
X78830577Y-64086699D01*
X78809265Y-64123390D01*
X78784572Y-64201008D01*
X78775143Y-64297530D01*
X78781297Y-64395753D01*
X78802687Y-64476923D01*
X78868439Y-64586668D01*
X78957244Y-64670368D01*
X79062493Y-64726682D01*
X79177577Y-64754268D01*
X79295888Y-64751785D01*
X79410815Y-64717893D01*
X79515750Y-64651249D01*
X79542026Y-64626953D01*
X79562512Y-64601403D01*
X79602592Y-64546791D01*
X79659961Y-64466418D01*
X79732309Y-64363581D01*
X79817329Y-64241583D01*
X79912715Y-64103722D01*
X80016158Y-63953298D01*
X80125350Y-63793611D01*
X80147462Y-63761166D01*
X80260336Y-63595906D01*
X80370216Y-63435883D01*
X80474436Y-63284926D01*
X80570326Y-63146861D01*
X80655219Y-63025518D01*
X80726445Y-62924723D01*
X80781337Y-62848304D01*
X80817226Y-62800088D01*
X80819349Y-62797370D01*
X81008124Y-62581098D01*
X81208216Y-62397566D01*
X81417427Y-62248350D01*
X81633556Y-62135026D01*
X81846615Y-62061177D01*
X81989691Y-62036275D01*
X82153554Y-62028080D01*
X82323769Y-62036378D01*
X82485900Y-62060952D01*
X82530461Y-62071377D01*
X82656625Y-62111695D01*
X82801769Y-62171080D01*
X82954519Y-62243993D01*
X83103499Y-62324894D01*
X83237335Y-62408242D01*
X83272923Y-62432961D01*
X83306108Y-62458861D01*
X83366901Y-62508649D01*
X83453346Y-62580662D01*
X83563486Y-62673234D01*
X83695366Y-62784702D01*
X83847030Y-62913401D01*
X84016522Y-63057665D01*
X84201885Y-63215831D01*
X84401165Y-63386234D01*
X84612404Y-63567208D01*
X84833647Y-63757090D01*
X85062939Y-63954215D01*
X85276839Y-64138403D01*
X85511155Y-64340240D01*
X85738760Y-64536131D01*
X85957738Y-64724433D01*
X86166171Y-64903505D01*
X86362142Y-65071706D01*
X86543734Y-65227393D01*
X86709029Y-65368925D01*
X86856109Y-65494660D01*
X86983059Y-65602956D01*
X87087959Y-65692172D01*
X87168894Y-65760665D01*
X87223945Y-65806794D01*
X87250224Y-65828177D01*
X87540316Y-66030606D01*
X87839487Y-66199561D01*
X88144318Y-66333413D01*
X88451389Y-66430528D01*
X88569754Y-66457833D01*
X88694268Y-66477473D01*
X88841872Y-66491331D01*
X88997561Y-66498722D01*
X89146330Y-66498960D01*
X89273172Y-66491358D01*
X89281863Y-66490398D01*
X89560465Y-66438819D01*
X89835070Y-66349334D01*
X90103863Y-66223050D01*
X90365028Y-66061077D01*
X90616752Y-65864524D01*
X90857218Y-65634500D01*
X91058295Y-65405000D01*
X91093651Y-65358783D01*
X91147350Y-65285255D01*
X91216771Y-65188220D01*
X91299297Y-65071485D01*
X91392307Y-64938854D01*
X91493183Y-64794135D01*
X91599305Y-64641131D01*
X91708054Y-64483650D01*
X91816811Y-64325495D01*
X91922956Y-64170473D01*
X92023871Y-64022390D01*
X92116936Y-63885050D01*
X92199532Y-63762260D01*
X92269039Y-63657824D01*
X92322838Y-63575549D01*
X92358311Y-63519241D01*
X92369444Y-63500000D01*
X92397155Y-63416064D01*
X92406495Y-63303083D01*
X92403865Y-63223889D01*
X92391793Y-63165079D01*
X92365475Y-63108238D01*
X92348022Y-63078908D01*
X92264281Y-62976618D01*
X92162813Y-62905448D01*
X92049791Y-62865603D01*
X91931390Y-62857290D01*
X91813784Y-62880713D01*
X91703147Y-62936078D01*
X91605653Y-63023591D01*
X91581904Y-63053405D01*
X91554891Y-63091239D01*
X91508592Y-63157601D01*
X91445636Y-63248665D01*
X91368649Y-63360607D01*
X91280260Y-63489598D01*
X91183096Y-63631814D01*
X91079784Y-63783428D01*
X91000162Y-63900539D01*
X90858501Y-64108717D01*
X90736170Y-64287446D01*
X90630853Y-64439811D01*
X90540235Y-64568896D01*
X90461999Y-64677787D01*
X90393830Y-64769567D01*
X90333413Y-64847322D01*
X90278431Y-64914137D01*
X90226568Y-64973096D01*
X90175509Y-65027284D01*
X90122939Y-65079786D01*
X90093831Y-65107830D01*
X89888868Y-65281259D01*
X89678114Y-65416078D01*
X89461814Y-65512283D01*
X89240212Y-65569873D01*
X89013553Y-65588844D01*
X88782084Y-65569194D01*
X88546048Y-65510921D01*
X88305691Y-65414021D01*
X88061257Y-65278493D01*
X87849024Y-65131835D01*
X87817617Y-65106603D01*
X87758580Y-65057529D01*
X87673876Y-64986287D01*
X87565469Y-64894554D01*
X87435323Y-64784005D01*
X87285401Y-64656316D01*
X87117668Y-64513161D01*
X86934086Y-64356218D01*
X86736620Y-64187161D01*
X86527233Y-64007666D01*
X86307890Y-63819409D01*
X86080553Y-63624065D01*
X85900846Y-63469491D01*
X85668745Y-63269844D01*
X85443183Y-63075979D01*
X85226119Y-62889573D01*
X85019512Y-62712300D01*
X84825321Y-62545837D01*
X84645504Y-62391858D01*
X84482021Y-62252041D01*
X84336830Y-62128059D01*
X84211890Y-62021588D01*
X84109160Y-61934305D01*
X84030598Y-61867884D01*
X83978164Y-61824002D01*
X83956769Y-61806579D01*
X83689310Y-61615744D01*
X83411093Y-61451825D01*
X83127584Y-61317398D01*
X82844247Y-61215033D01*
X82566551Y-61147305D01*
X82550000Y-61144367D01*
X82374813Y-61123844D01*
X82179588Y-61117627D01*
X81978435Y-61125160D01*
G36*
X82245494Y-62907162D02*
G01*
X82114982Y-62921647D01*
X81996836Y-62957315D01*
X81900875Y-63010652D01*
X81863191Y-63044001D01*
X81817307Y-63092844D01*
X81817307Y-69332231D01*
X81859305Y-69410641D01*
X81939681Y-69525229D01*
X82038686Y-69608340D01*
X82151653Y-69658297D01*
X82273914Y-69673424D01*
X82400803Y-69652045D01*
X82463461Y-69627638D01*
X82567585Y-69560778D01*
X82649478Y-69471004D01*
X82701283Y-69367196D01*
X82705007Y-69354578D01*
X82708150Y-69331251D01*
X82710974Y-69284659D01*
X82713484Y-69213648D01*
X82715687Y-69117062D01*
X82717589Y-68993747D01*
X82719195Y-68842549D01*
X82720511Y-68662313D01*
X82721545Y-68451884D01*
X82722301Y-68210108D01*
X82722786Y-67935831D01*
X82723006Y-67627897D01*
X82722967Y-67285153D01*
X82722674Y-66906443D01*
X82722135Y-66490613D01*
X82721618Y-66179418D01*
X82716077Y-63085221D01*
X82642337Y-63021480D01*
X82540367Y-62956629D01*
X82414428Y-62918719D01*
X82261729Y-62906946D01*
X82245494Y-62907162D01*
G37*
X82245494Y-62907162D02*
X82114982Y-62921647D01*
X81996836Y-62957315D01*
X81900875Y-63010652D01*
X81863191Y-63044001D01*
X81817307Y-63092844D01*
X81817307Y-69332231D01*
X81859305Y-69410641D01*
X81939681Y-69525229D01*
X82038686Y-69608340D01*
X82151653Y-69658297D01*
X82273914Y-69673424D01*
X82400803Y-69652045D01*
X82463461Y-69627638D01*
X82567585Y-69560778D01*
X82649478Y-69471004D01*
X82701283Y-69367196D01*
X82705007Y-69354578D01*
X82708150Y-69331251D01*
X82710974Y-69284659D01*
X82713484Y-69213648D01*
X82715687Y-69117062D01*
X82717589Y-68993747D01*
X82719195Y-68842549D01*
X82720511Y-68662313D01*
X82721545Y-68451884D01*
X82722301Y-68210108D01*
X82722786Y-67935831D01*
X82723006Y-67627897D01*
X82722967Y-67285153D01*
X82722674Y-66906443D01*
X82722135Y-66490613D01*
X82721618Y-66179418D01*
X82716077Y-63085221D01*
X82642337Y-63021480D01*
X82540367Y-62956629D01*
X82414428Y-62918719D01*
X82261729Y-62906946D01*
X82245494Y-62907162D01*
G36*
X88450724Y-68284662D02*
G01*
X88451118Y-68503566D01*
X88452215Y-68704646D01*
X88453960Y-68884804D01*
X88456296Y-69040942D01*
X88459171Y-69169961D01*
X88462528Y-69268762D01*
X88466312Y-69334248D01*
X88469861Y-69361539D01*
X88517837Y-69465231D01*
X88594929Y-69551474D01*
X88693732Y-69616730D01*
X88806844Y-69657459D01*
X88926862Y-69670121D01*
X89046383Y-69651176D01*
X89063639Y-69645450D01*
X89152550Y-69596984D01*
X89237614Y-69520651D01*
X89307526Y-69426943D01*
X89316904Y-69410385D01*
X89326253Y-69392239D01*
X89334133Y-69373043D01*
X89340693Y-69349431D01*
X89346079Y-69318039D01*
X89350439Y-69275500D01*
X89353920Y-69218449D01*
X89356669Y-69143522D01*
X89358833Y-69047352D01*
X89360561Y-68926576D01*
X89361999Y-68777827D01*
X89363294Y-68597740D01*
X89364594Y-68382950D01*
X89365006Y-68311346D01*
X89365890Y-68115732D01*
X89366259Y-67932420D01*
X89366137Y-67765028D01*
X89365550Y-67617176D01*
X89364521Y-67492481D01*
X89363075Y-67394563D01*
X89361238Y-67327040D01*
X89359033Y-67293531D01*
X89358057Y-67290462D01*
X89333842Y-67295186D01*
X89283413Y-67307501D01*
X89225205Y-67322742D01*
X89100824Y-67345232D01*
X88955421Y-67354401D01*
X88804639Y-67350441D01*
X88664123Y-67333545D01*
X88582500Y-67314791D01*
X88450615Y-67276171D01*
X88450724Y-68284662D01*
G37*
X88450724Y-68284662D02*
X88451118Y-68503566D01*
X88452215Y-68704646D01*
X88453960Y-68884804D01*
X88456296Y-69040942D01*
X88459171Y-69169961D01*
X88462528Y-69268762D01*
X88466312Y-69334248D01*
X88469861Y-69361539D01*
X88517837Y-69465231D01*
X88594929Y-69551474D01*
X88693732Y-69616730D01*
X88806844Y-69657459D01*
X88926862Y-69670121D01*
X89046383Y-69651176D01*
X89063639Y-69645450D01*
X89152550Y-69596984D01*
X89237614Y-69520651D01*
X89307526Y-69426943D01*
X89316904Y-69410385D01*
X89326253Y-69392239D01*
X89334133Y-69373043D01*
X89340693Y-69349431D01*
X89346079Y-69318039D01*
X89350439Y-69275500D01*
X89353920Y-69218449D01*
X89356669Y-69143522D01*
X89358833Y-69047352D01*
X89360561Y-68926576D01*
X89361999Y-68777827D01*
X89363294Y-68597740D01*
X89364594Y-68382950D01*
X89365006Y-68311346D01*
X89365890Y-68115732D01*
X89366259Y-67932420D01*
X89366137Y-67765028D01*
X89365550Y-67617176D01*
X89364521Y-67492481D01*
X89363075Y-67394563D01*
X89361238Y-67327040D01*
X89359033Y-67293531D01*
X89358057Y-67290462D01*
X89333842Y-67295186D01*
X89283413Y-67307501D01*
X89225205Y-67322742D01*
X89100824Y-67345232D01*
X88955421Y-67354401D01*
X88804639Y-67350441D01*
X88664123Y-67333545D01*
X88582500Y-67314791D01*
X88450615Y-67276171D01*
X88450724Y-68284662D01*
G36*
X85187628Y-54210387D02*
G01*
X84583687Y-54252235D01*
X83990418Y-54331509D01*
X83406907Y-54448410D01*
X82832240Y-54603139D01*
X82265504Y-54795896D01*
X81705787Y-55026883D01*
X81387461Y-55176749D01*
X80904767Y-55429941D01*
X80450204Y-55701433D01*
X80017799Y-55995510D01*
X79601577Y-56316461D01*
X79195567Y-56668573D01*
X78856141Y-56993457D01*
X78659988Y-57192322D01*
X78487500Y-57374484D01*
X78331878Y-57547716D01*
X78186319Y-57719785D01*
X78044025Y-57898463D01*
X77915383Y-58068308D01*
X77573541Y-58560755D01*
X77263123Y-59074046D01*
X76985288Y-59605477D01*
X76741194Y-60152342D01*
X76532001Y-60711938D01*
X76358869Y-61281559D01*
X76222956Y-61858502D01*
X76171202Y-62137689D01*
X76142361Y-62311846D01*
X76118598Y-62465609D01*
X76099431Y-62605589D01*
X76084381Y-62738394D01*
X76072966Y-62870633D01*
X76064705Y-63008915D01*
X76059117Y-63159849D01*
X76055722Y-63330042D01*
X76054039Y-63526106D01*
X76053586Y-63754000D01*
X76053917Y-63967097D01*
X76055026Y-64146296D01*
X76057085Y-64296773D01*
X76060269Y-64423701D01*
X76064750Y-64532256D01*
X76070701Y-64627612D01*
X76078296Y-64714943D01*
X76087708Y-64799426D01*
X76088900Y-64809077D01*
X76173505Y-65377144D01*
X76283061Y-65919222D01*
X76419127Y-66440624D01*
X76583263Y-66946665D01*
X76777029Y-67442658D01*
X77001985Y-67933916D01*
X77012260Y-67954770D01*
X77242309Y-68395345D01*
X77484814Y-68808998D01*
X77746429Y-69205974D01*
X78033805Y-69596517D01*
X78268349Y-69889077D01*
X78364551Y-70000302D01*
X78484409Y-70131155D01*
X78621984Y-70275748D01*
X78771336Y-70428193D01*
X78926527Y-70582600D01*
X79081617Y-70733080D01*
X79230667Y-70873746D01*
X79367739Y-70998707D01*
X79486894Y-71102075D01*
X79515907Y-71126078D01*
X80009719Y-71504730D01*
X80520550Y-71848460D01*
X81047554Y-72156930D01*
X81589885Y-72429800D01*
X82146696Y-72666731D01*
X82717139Y-72867387D01*
X83300369Y-73031428D01*
X83895538Y-73158515D01*
X84501800Y-73248310D01*
X84923923Y-73288187D01*
X85013916Y-73293197D01*
X85130814Y-73297382D01*
X85267341Y-73300698D01*
X85416219Y-73303101D01*
X85570171Y-73304548D01*
X85721920Y-73304995D01*
X85864189Y-73304399D01*
X85989700Y-73302716D01*
X86091176Y-73299902D01*
X86161341Y-73295914D01*
X86164615Y-73295616D01*
X86210672Y-73291474D01*
X86285296Y-73284975D01*
X86378113Y-73277016D01*
X86477230Y-73268621D01*
X87039020Y-73202300D01*
X87602026Y-73098429D01*
X88162696Y-72958242D01*
X88717481Y-72782975D01*
X89262831Y-72573864D01*
X89795197Y-72332142D01*
X90311027Y-72059046D01*
X90785461Y-71769750D01*
X91284259Y-71421708D01*
X91757659Y-71045245D01*
X92204621Y-70641907D01*
X92624110Y-70213243D01*
X93015088Y-69760801D01*
X93376516Y-69286128D01*
X93707358Y-68790774D01*
X94006575Y-68276285D01*
X94273131Y-67744210D01*
X94505986Y-67196096D01*
X94704105Y-66633492D01*
X94866449Y-66057946D01*
X94986209Y-65502693D01*
X95017846Y-65327942D01*
X95044220Y-65174011D01*
X95065803Y-65034844D01*
X95083070Y-64904388D01*
X95096493Y-64776589D01*
X95106544Y-64645392D01*
X95113696Y-64504744D01*
X95118423Y-64348590D01*
X95121196Y-64170875D01*
X95122489Y-63965547D01*
X95122661Y-63839529D01*
X94360777Y-63839529D01*
X94359228Y-64028756D01*
X94356038Y-64207832D01*
X94351208Y-64369728D01*
X94344738Y-64507418D01*
X94336628Y-64613873D01*
X94335627Y-64623462D01*
X94252527Y-65216409D01*
X94133274Y-65795723D01*
X93978318Y-66360451D01*
X93788111Y-66909639D01*
X93563107Y-67442333D01*
X93303756Y-67957580D01*
X93010511Y-68454427D01*
X92683825Y-68931919D01*
X92324148Y-69389103D01*
X91931934Y-69825025D01*
X91811264Y-69948238D01*
X91386690Y-70346720D01*
X90940061Y-70714312D01*
X90473153Y-71050325D01*
X89987746Y-71354071D01*
X89485618Y-71624861D01*
X88968547Y-71862009D01*
X88438312Y-72064825D01*
X87896690Y-72232622D01*
X87345460Y-72364711D01*
X86786400Y-72460404D01*
X86221290Y-72519013D01*
X85651906Y-72539850D01*
X85148615Y-72526389D01*
X84578458Y-72477876D01*
X84027696Y-72397487D01*
X83491801Y-72284245D01*
X82966242Y-72137172D01*
X82446489Y-71955288D01*
X82374154Y-71927079D01*
X81841292Y-71696163D01*
X81329414Y-71433212D01*
X80839522Y-71139699D01*
X80372620Y-70817097D01*
X79929710Y-70466877D01*
X79511795Y-70090512D01*
X79119879Y-69689474D01*
X78754965Y-69265235D01*
X78418054Y-68819268D01*
X78110152Y-68353044D01*
X77832259Y-67868036D01*
X77585381Y-67365715D01*
X77370518Y-66847555D01*
X77188675Y-66315027D01*
X77040855Y-65769604D01*
X76928060Y-65212757D01*
X76851293Y-64645959D01*
X76811558Y-64070682D01*
X76805851Y-63754000D01*
X76817210Y-63298781D01*
X76852167Y-62852529D01*
X76912040Y-62402217D01*
X76981793Y-62015077D01*
X77113908Y-61452691D01*
X77282168Y-60903441D01*
X77485419Y-60368818D01*
X77722506Y-59850313D01*
X77992273Y-59349416D01*
X78293565Y-58867619D01*
X78625227Y-58406412D01*
X78986103Y-57967286D01*
X79375038Y-57551732D01*
X79790877Y-57161240D01*
X80232465Y-56797302D01*
X80698646Y-56461407D01*
X81188265Y-56155047D01*
X81700166Y-55879713D01*
X81758692Y-55850943D01*
X82289431Y-55614020D01*
X82832494Y-55413753D01*
X83386062Y-55250371D01*
X83948317Y-55124104D01*
X84517440Y-55035180D01*
X85091612Y-54983828D01*
X85669014Y-54970277D01*
X86247828Y-54994755D01*
X86826234Y-55057492D01*
X87348682Y-55147614D01*
X87916663Y-55282878D01*
X88471190Y-55454590D01*
X89011006Y-55662070D01*
X89534849Y-55904641D01*
X90041460Y-56181624D01*
X90529580Y-56492341D01*
X90997948Y-56836112D01*
X91445305Y-57212261D01*
X91791950Y-57540761D01*
X92197344Y-57972777D01*
X92569639Y-58425375D01*
X92908477Y-58897799D01*
X93213501Y-59389297D01*
X93484350Y-59899115D01*
X93720666Y-60426498D01*
X93922091Y-60970695D01*
X94088265Y-61530950D01*
X94218831Y-62106510D01*
X94313428Y-62696622D01*
X94335627Y-62884539D01*
X94343919Y-62987092D01*
X94350571Y-63121661D01*
X94355583Y-63281217D01*
X94358954Y-63458732D01*
X94360686Y-63647178D01*
X94360777Y-63839529D01*
X95122661Y-63839529D01*
X95122779Y-63754000D01*
X95122412Y-63519249D01*
X95120996Y-63317509D01*
X95118059Y-63142718D01*
X95113127Y-62988814D01*
X95105728Y-62849735D01*
X95095388Y-62719420D01*
X95081635Y-62591807D01*
X95063997Y-62460833D01*
X95041999Y-62320437D01*
X95015170Y-62164557D01*
X94986372Y-62005308D01*
X94859710Y-61421119D01*
X94696923Y-60849749D01*
X94499242Y-60292551D01*
X94267897Y-59750878D01*
X94004121Y-59226082D01*
X93709144Y-58719517D01*
X93384198Y-58232535D01*
X93030514Y-57766489D01*
X92649324Y-57322733D01*
X92241858Y-56902618D01*
X91809348Y-56507498D01*
X91353025Y-56138727D01*
X90874120Y-55797655D01*
X90373865Y-55485638D01*
X89853491Y-55204026D01*
X89314229Y-54954174D01*
X88757311Y-54737434D01*
X88213576Y-54563597D01*
X87716448Y-54435194D01*
X87220598Y-54336222D01*
X86717587Y-54265429D01*
X86198977Y-54221562D01*
X85803154Y-54205764D01*
X85187628Y-54210387D01*
G37*
X85187628Y-54210387D02*
X84583687Y-54252235D01*
X83990418Y-54331509D01*
X83406907Y-54448410D01*
X82832240Y-54603139D01*
X82265504Y-54795896D01*
X81705787Y-55026883D01*
X81387461Y-55176749D01*
X80904767Y-55429941D01*
X80450204Y-55701433D01*
X80017799Y-55995510D01*
X79601577Y-56316461D01*
X79195567Y-56668573D01*
X78856141Y-56993457D01*
X78659988Y-57192322D01*
X78487500Y-57374484D01*
X78331878Y-57547716D01*
X78186319Y-57719785D01*
X78044025Y-57898463D01*
X77915383Y-58068308D01*
X77573541Y-58560755D01*
X77263123Y-59074046D01*
X76985288Y-59605477D01*
X76741194Y-60152342D01*
X76532001Y-60711938D01*
X76358869Y-61281559D01*
X76222956Y-61858502D01*
X76171202Y-62137689D01*
X76142361Y-62311846D01*
X76118598Y-62465609D01*
X76099431Y-62605589D01*
X76084381Y-62738394D01*
X76072966Y-62870633D01*
X76064705Y-63008915D01*
X76059117Y-63159849D01*
X76055722Y-63330042D01*
X76054039Y-63526106D01*
X76053586Y-63754000D01*
X76053917Y-63967097D01*
X76055026Y-64146296D01*
X76057085Y-64296773D01*
X76060269Y-64423701D01*
X76064750Y-64532256D01*
X76070701Y-64627612D01*
X76078296Y-64714943D01*
X76087708Y-64799426D01*
X76088900Y-64809077D01*
X76173505Y-65377144D01*
X76283061Y-65919222D01*
X76419127Y-66440624D01*
X76583263Y-66946665D01*
X76777029Y-67442658D01*
X77001985Y-67933916D01*
X77012260Y-67954770D01*
X77242309Y-68395345D01*
X77484814Y-68808998D01*
X77746429Y-69205974D01*
X78033805Y-69596517D01*
X78268349Y-69889077D01*
X78364551Y-70000302D01*
X78484409Y-70131155D01*
X78621984Y-70275748D01*
X78771336Y-70428193D01*
X78926527Y-70582600D01*
X79081617Y-70733080D01*
X79230667Y-70873746D01*
X79367739Y-70998707D01*
X79486894Y-71102075D01*
X79515907Y-71126078D01*
X80009719Y-71504730D01*
X80520550Y-71848460D01*
X81047554Y-72156930D01*
X81589885Y-72429800D01*
X82146696Y-72666731D01*
X82717139Y-72867387D01*
X83300369Y-73031428D01*
X83895538Y-73158515D01*
X84501800Y-73248310D01*
X84923923Y-73288187D01*
X85013916Y-73293197D01*
X85130814Y-73297382D01*
X85267341Y-73300698D01*
X85416219Y-73303101D01*
X85570171Y-73304548D01*
X85721920Y-73304995D01*
X85864189Y-73304399D01*
X85989700Y-73302716D01*
X86091176Y-73299902D01*
X86161341Y-73295914D01*
X86164615Y-73295616D01*
X86210672Y-73291474D01*
X86285296Y-73284975D01*
X86378113Y-73277016D01*
X86477230Y-73268621D01*
X87039020Y-73202300D01*
X87602026Y-73098429D01*
X88162696Y-72958242D01*
X88717481Y-72782975D01*
X89262831Y-72573864D01*
X89795197Y-72332142D01*
X90311027Y-72059046D01*
X90785461Y-71769750D01*
X91284259Y-71421708D01*
X91757659Y-71045245D01*
X92204621Y-70641907D01*
X92624110Y-70213243D01*
X93015088Y-69760801D01*
X93376516Y-69286128D01*
X93707358Y-68790774D01*
X94006575Y-68276285D01*
X94273131Y-67744210D01*
X94505986Y-67196096D01*
X94704105Y-66633492D01*
X94866449Y-66057946D01*
X94986209Y-65502693D01*
X95017846Y-65327942D01*
X95044220Y-65174011D01*
X95065803Y-65034844D01*
X95083070Y-64904388D01*
X95096493Y-64776589D01*
X95106544Y-64645392D01*
X95113696Y-64504744D01*
X95118423Y-64348590D01*
X95121196Y-64170875D01*
X95122489Y-63965547D01*
X95122661Y-63839529D01*
X94360777Y-63839529D01*
X94359228Y-64028756D01*
X94356038Y-64207832D01*
X94351208Y-64369728D01*
X94344738Y-64507418D01*
X94336628Y-64613873D01*
X94335627Y-64623462D01*
X94252527Y-65216409D01*
X94133274Y-65795723D01*
X93978318Y-66360451D01*
X93788111Y-66909639D01*
X93563107Y-67442333D01*
X93303756Y-67957580D01*
X93010511Y-68454427D01*
X92683825Y-68931919D01*
X92324148Y-69389103D01*
X91931934Y-69825025D01*
X91811264Y-69948238D01*
X91386690Y-70346720D01*
X90940061Y-70714312D01*
X90473153Y-71050325D01*
X89987746Y-71354071D01*
X89485618Y-71624861D01*
X88968547Y-71862009D01*
X88438312Y-72064825D01*
X87896690Y-72232622D01*
X87345460Y-72364711D01*
X86786400Y-72460404D01*
X86221290Y-72519013D01*
X85651906Y-72539850D01*
X85148615Y-72526389D01*
X84578458Y-72477876D01*
X84027696Y-72397487D01*
X83491801Y-72284245D01*
X82966242Y-72137172D01*
X82446489Y-71955288D01*
X82374154Y-71927079D01*
X81841292Y-71696163D01*
X81329414Y-71433212D01*
X80839522Y-71139699D01*
X80372620Y-70817097D01*
X79929710Y-70466877D01*
X79511795Y-70090512D01*
X79119879Y-69689474D01*
X78754965Y-69265235D01*
X78418054Y-68819268D01*
X78110152Y-68353044D01*
X77832259Y-67868036D01*
X77585381Y-67365715D01*
X77370518Y-66847555D01*
X77188675Y-66315027D01*
X77040855Y-65769604D01*
X76928060Y-65212757D01*
X76851293Y-64645959D01*
X76811558Y-64070682D01*
X76805851Y-63754000D01*
X76817210Y-63298781D01*
X76852167Y-62852529D01*
X76912040Y-62402217D01*
X76981793Y-62015077D01*
X77113908Y-61452691D01*
X77282168Y-60903441D01*
X77485419Y-60368818D01*
X77722506Y-59850313D01*
X77992273Y-59349416D01*
X78293565Y-58867619D01*
X78625227Y-58406412D01*
X78986103Y-57967286D01*
X79375038Y-57551732D01*
X79790877Y-57161240D01*
X80232465Y-56797302D01*
X80698646Y-56461407D01*
X81188265Y-56155047D01*
X81700166Y-55879713D01*
X81758692Y-55850943D01*
X82289431Y-55614020D01*
X82832494Y-55413753D01*
X83386062Y-55250371D01*
X83948317Y-55124104D01*
X84517440Y-55035180D01*
X85091612Y-54983828D01*
X85669014Y-54970277D01*
X86247828Y-54994755D01*
X86826234Y-55057492D01*
X87348682Y-55147614D01*
X87916663Y-55282878D01*
X88471190Y-55454590D01*
X89011006Y-55662070D01*
X89534849Y-55904641D01*
X90041460Y-56181624D01*
X90529580Y-56492341D01*
X90997948Y-56836112D01*
X91445305Y-57212261D01*
X91791950Y-57540761D01*
X92197344Y-57972777D01*
X92569639Y-58425375D01*
X92908477Y-58897799D01*
X93213501Y-59389297D01*
X93484350Y-59899115D01*
X93720666Y-60426498D01*
X93922091Y-60970695D01*
X94088265Y-61530950D01*
X94218831Y-62106510D01*
X94313428Y-62696622D01*
X94335627Y-62884539D01*
X94343919Y-62987092D01*
X94350571Y-63121661D01*
X94355583Y-63281217D01*
X94358954Y-63458732D01*
X94360686Y-63647178D01*
X94360777Y-63839529D01*
X95122661Y-63839529D01*
X95122779Y-63754000D01*
X95122412Y-63519249D01*
X95120996Y-63317509D01*
X95118059Y-63142718D01*
X95113127Y-62988814D01*
X95105728Y-62849735D01*
X95095388Y-62719420D01*
X95081635Y-62591807D01*
X95063997Y-62460833D01*
X95041999Y-62320437D01*
X95015170Y-62164557D01*
X94986372Y-62005308D01*
X94859710Y-61421119D01*
X94696923Y-60849749D01*
X94499242Y-60292551D01*
X94267897Y-59750878D01*
X94004121Y-59226082D01*
X93709144Y-58719517D01*
X93384198Y-58232535D01*
X93030514Y-57766489D01*
X92649324Y-57322733D01*
X92241858Y-56902618D01*
X91809348Y-56507498D01*
X91353025Y-56138727D01*
X90874120Y-55797655D01*
X90373865Y-55485638D01*
X89853491Y-55204026D01*
X89314229Y-54954174D01*
X88757311Y-54737434D01*
X88213576Y-54563597D01*
X87716448Y-54435194D01*
X87220598Y-54336222D01*
X86717587Y-54265429D01*
X86198977Y-54221562D01*
X85803154Y-54205764D01*
X85187628Y-54210387D01*
D12*
X80420000Y-89284500D02*
X80420000Y-91944500D01*
X80420000Y-89284500D02*
X93180000Y-89284500D01*
X93180000Y-89284500D02*
X93180000Y-91944500D01*
X80420000Y-91944500D02*
X93180000Y-91944500D01*
X77820000Y-91944500D02*
X79150000Y-91944500D01*
X77820000Y-90614500D02*
X77820000Y-91944500D01*
X93976500Y-129235000D02*
X91316500Y-129235000D01*
X93976500Y-129235000D02*
X93976500Y-152155000D01*
X93976500Y-152155000D02*
X91316500Y-152155000D01*
X91316500Y-129235000D02*
X91316500Y-152155000D01*
X91316500Y-126635000D02*
X91316500Y-127965000D01*
X92646500Y-126635000D02*
X91316500Y-126635000D01*
D10*
X76541380Y-90090666D02*
X77255666Y-90090666D01*
X77398523Y-90043047D01*
X77493761Y-89947809D01*
X77541380Y-89804952D01*
X77541380Y-89709714D01*
X76541380Y-91043047D02*
X76541380Y-90566857D01*
X77017571Y-90519238D01*
X76969952Y-90566857D01*
X76922333Y-90662095D01*
X76922333Y-90900190D01*
X76969952Y-90995428D01*
X77017571Y-91043047D01*
X77112809Y-91090666D01*
X77350904Y-91090666D01*
X77446142Y-91043047D01*
X77493761Y-90995428D01*
X77541380Y-90900190D01*
X77541380Y-90662095D01*
X77493761Y-90566857D01*
X77446142Y-90519238D01*
X92979833Y-124647380D02*
X92979833Y-125361666D01*
X93027452Y-125504523D01*
X93122690Y-125599761D01*
X93265547Y-125647380D01*
X93360785Y-125647380D01*
X92075071Y-124647380D02*
X92265547Y-124647380D01*
X92360785Y-124695000D01*
X92408404Y-124742619D01*
X92503642Y-124885476D01*
X92551261Y-125075952D01*
X92551261Y-125456904D01*
X92503642Y-125552142D01*
X92456023Y-125599761D01*
X92360785Y-125647380D01*
X92170309Y-125647380D01*
X92075071Y-125599761D01*
X92027452Y-125552142D01*
X91979833Y-125456904D01*
X91979833Y-125218809D01*
X92027452Y-125123571D01*
X92075071Y-125075952D01*
X92170309Y-125028333D01*
X92360785Y-125028333D01*
X92456023Y-125075952D01*
X92503642Y-125123571D01*
X92551261Y-125218809D01*
M02*
