G04 #@! TF.GenerationSoftware,KiCad,Pcbnew,(5.1.5-0-10_14)*
G04 #@! TF.CreationDate,2020-10-09T22:17:27-04:00*
G04 #@! TF.ProjectId,AYOM - VCA Control Board,41594f4d-202d-4205-9643-4120436f6e74,1.1*
G04 #@! TF.SameCoordinates,Original*
G04 #@! TF.FileFunction,Copper,L1,Top*
G04 #@! TF.FilePolarity,Positive*
%FSLAX46Y46*%
G04 Gerber Fmt 4.6, Leading zero omitted, Abs format (unit mm)*
G04 Created by KiCad (PCBNEW (5.1.5-0-10_14)) date 2020-10-09 22:17:27*
%MOMM*%
%LPD*%
G04 APERTURE LIST*
%ADD10R,1.700000X1.700000*%
%ADD11O,1.700000X1.700000*%
%ADD12C,1.440000*%
%ADD13R,1.800000X1.800000*%
%ADD14C,1.800000*%
%ADD15O,2.720000X3.240000*%
%ADD16C,0.100000*%
%ADD17C,2.600000*%
%ADD18O,2.000000X3.000000*%
%ADD19R,2.500000X1.000000*%
%ADD20C,1.600000*%
%ADD21O,1.600000X1.600000*%
%ADD22C,0.300000*%
%ADD23C,0.254000*%
G04 APERTURE END LIST*
D10*
X79150000Y-90614500D03*
D11*
X81690000Y-90614500D03*
X84230000Y-90614500D03*
X86770000Y-90614500D03*
X89310000Y-90614500D03*
X91850000Y-90614500D03*
D10*
X92646500Y-127965000D03*
D11*
X92646500Y-130505000D03*
X92646500Y-133045000D03*
X92646500Y-135585000D03*
X92646500Y-138125000D03*
X92646500Y-140665000D03*
X92646500Y-143205000D03*
X92646500Y-145745000D03*
X92646500Y-148285000D03*
X92646500Y-150825000D03*
D12*
X88030000Y-77851000D03*
X85490000Y-77851000D03*
X82950000Y-77851000D03*
X88050000Y-57404000D03*
X85510000Y-57404000D03*
X82970000Y-57404000D03*
D13*
X83000000Y-73556000D03*
D14*
X85500000Y-73556000D03*
X88000000Y-73556000D03*
D15*
X90300000Y-66056000D03*
X80700000Y-66056000D03*
G04 #@! TA.AperFunction,ComponentPad*
D16*
G36*
X93423711Y-100811130D02*
G01*
X93486809Y-100820490D01*
X93548685Y-100835989D01*
X93608744Y-100857478D01*
X93666408Y-100884751D01*
X93721121Y-100917545D01*
X93772356Y-100955543D01*
X93819619Y-100998381D01*
X93862457Y-101045644D01*
X93900455Y-101096879D01*
X93933249Y-101151592D01*
X93960522Y-101209256D01*
X93982011Y-101269315D01*
X93997510Y-101331191D01*
X94006870Y-101394289D01*
X94010000Y-101458000D01*
X94010000Y-102758000D01*
X94006870Y-102821711D01*
X93997510Y-102884809D01*
X93982011Y-102946685D01*
X93960522Y-103006744D01*
X93933249Y-103064408D01*
X93900455Y-103119121D01*
X93862457Y-103170356D01*
X93819619Y-103217619D01*
X93772356Y-103260457D01*
X93721121Y-103298455D01*
X93666408Y-103331249D01*
X93608744Y-103358522D01*
X93548685Y-103380011D01*
X93486809Y-103395510D01*
X93423711Y-103404870D01*
X93360000Y-103408000D01*
X92060000Y-103408000D01*
X91996289Y-103404870D01*
X91933191Y-103395510D01*
X91871315Y-103380011D01*
X91811256Y-103358522D01*
X91753592Y-103331249D01*
X91698879Y-103298455D01*
X91647644Y-103260457D01*
X91600381Y-103217619D01*
X91557543Y-103170356D01*
X91519545Y-103119121D01*
X91486751Y-103064408D01*
X91459478Y-103006744D01*
X91437989Y-102946685D01*
X91422490Y-102884809D01*
X91413130Y-102821711D01*
X91410000Y-102758000D01*
X91410000Y-101458000D01*
X91413130Y-101394289D01*
X91422490Y-101331191D01*
X91437989Y-101269315D01*
X91459478Y-101209256D01*
X91486751Y-101151592D01*
X91519545Y-101096879D01*
X91557543Y-101045644D01*
X91600381Y-100998381D01*
X91647644Y-100955543D01*
X91698879Y-100917545D01*
X91753592Y-100884751D01*
X91811256Y-100857478D01*
X91871315Y-100835989D01*
X91933191Y-100820490D01*
X91996289Y-100811130D01*
X92060000Y-100808000D01*
X93360000Y-100808000D01*
X93423711Y-100811130D01*
G37*
G04 #@! TD.AperFunction*
D17*
X92710000Y-97028000D03*
D18*
X80822800Y-85189800D03*
X85522800Y-85189800D03*
X90222800Y-85189800D03*
D19*
X85471000Y-94902000D03*
X85471000Y-103202000D03*
X85471000Y-106302000D03*
X85471000Y-109761000D03*
X85471000Y-118061000D03*
X85471000Y-121161000D03*
X85471000Y-124874000D03*
X85471000Y-133174000D03*
X85471000Y-136274000D03*
X85471000Y-139860000D03*
X85471000Y-148160000D03*
X85471000Y-151260000D03*
D13*
X79814000Y-150633000D03*
D14*
X77274000Y-150633000D03*
D20*
X79114000Y-147183000D03*
D21*
X79114000Y-139563000D03*
D22*
X92646500Y-150825000D02*
X92646500Y-148285000D01*
X83921000Y-136274000D02*
X85471000Y-136274000D01*
X82085900Y-134438900D02*
X83921000Y-136274000D01*
X82085900Y-125446400D02*
X82085900Y-134438900D01*
X85471000Y-122061300D02*
X82085900Y-125446400D01*
X85471000Y-121161000D02*
X85471000Y-122061300D01*
X85471000Y-139860000D02*
X87272800Y-139860000D01*
X87272800Y-139860000D02*
X91887800Y-144475000D01*
X91887800Y-144475000D02*
X93182800Y-144475000D01*
X93182800Y-144475000D02*
X93896900Y-143760900D01*
X93896900Y-143760900D02*
X93896900Y-107431000D01*
X93896900Y-107431000D02*
X90992600Y-104526700D01*
X90992600Y-104526700D02*
X90992600Y-95465300D01*
X90992600Y-95465300D02*
X91850000Y-94607900D01*
X91850000Y-94607900D02*
X91850000Y-90614500D01*
X86770000Y-91864800D02*
X88924300Y-94019100D01*
X88924300Y-94019100D02*
X88924300Y-120520400D01*
X88924300Y-120520400D02*
X85471000Y-123973700D01*
X86770000Y-90614500D02*
X86770000Y-91864800D01*
X85471000Y-124874000D02*
X85471000Y-123973700D01*
X85500000Y-73556000D02*
X80414000Y-78642000D01*
X80414000Y-78642000D02*
X80414000Y-80883000D01*
X83380001Y-89764501D02*
X84230000Y-90614500D01*
X83380001Y-83849001D02*
X83380001Y-89764501D01*
X80414000Y-80883000D02*
X83380001Y-83849001D01*
X89310000Y-90614500D02*
X89310000Y-89364200D01*
X85510000Y-57404000D02*
X85510000Y-67965200D01*
X85510000Y-67965200D02*
X89340500Y-71795700D01*
X89340500Y-71795700D02*
X89340500Y-78453300D01*
X89340500Y-78453300D02*
X88792100Y-79001700D01*
X88792100Y-79001700D02*
X88792100Y-88846300D01*
X88792100Y-88846300D02*
X89310000Y-89364200D01*
X92646500Y-133045000D02*
X90414000Y-130812500D01*
X90222800Y-86989800D02*
X90222800Y-85189800D01*
X90599999Y-87366999D02*
X90222800Y-86989800D01*
X90599999Y-91174503D02*
X90599999Y-87366999D01*
X90414000Y-91360502D02*
X90599999Y-91174503D01*
X90414000Y-130812500D02*
X90414000Y-91360502D01*
X89474600Y-137493100D02*
X92646500Y-140665000D01*
X89474600Y-93299500D02*
X89474600Y-137493100D01*
X88030000Y-91854900D02*
X89474600Y-93299500D01*
X88030000Y-77851000D02*
X88030000Y-91854900D01*
X81508700Y-138067000D02*
X81508700Y-96481700D01*
X81508700Y-96481700D02*
X85500000Y-92490400D01*
X85500000Y-92490400D02*
X85500000Y-89320800D01*
X85500000Y-89320800D02*
X86925100Y-87895700D01*
X86925100Y-87895700D02*
X86925100Y-81496400D01*
X86925100Y-81496400D02*
X86862700Y-81434000D01*
X86862700Y-81434000D02*
X86862700Y-74693300D01*
X86862700Y-74693300D02*
X88000000Y-73556000D01*
X87508500Y-138067000D02*
X92646500Y-143205000D01*
X81508700Y-138067000D02*
X87508500Y-138067000D01*
X79478630Y-138067000D02*
X81508700Y-138067000D01*
X79114000Y-138431630D02*
X79478630Y-138067000D01*
X79114000Y-139563000D02*
X79114000Y-138431630D01*
X83000000Y-73556000D02*
X83000000Y-57434000D01*
X83000000Y-57434000D02*
X82970000Y-57404000D01*
D23*
G36*
X94340000Y-95984560D02*
G01*
X94213013Y-95794509D01*
X93943491Y-95524987D01*
X93626566Y-95313225D01*
X93274419Y-95167361D01*
X92900581Y-95093000D01*
X92519419Y-95093000D01*
X92457250Y-95105366D01*
X92505862Y-95046133D01*
X92578754Y-94909760D01*
X92579429Y-94907536D01*
X92623642Y-94761787D01*
X92632193Y-94674961D01*
X92635000Y-94646461D01*
X92635000Y-94646456D01*
X92638797Y-94607900D01*
X92635000Y-94569344D01*
X92635000Y-91875974D01*
X92796632Y-91767975D01*
X93003475Y-91561132D01*
X93165990Y-91317911D01*
X93277932Y-91047658D01*
X93335000Y-90760760D01*
X93335000Y-90468240D01*
X93277932Y-90181342D01*
X93165990Y-89911089D01*
X93003475Y-89667868D01*
X92796632Y-89461025D01*
X92553411Y-89298510D01*
X92283158Y-89186568D01*
X91996260Y-89129500D01*
X91703740Y-89129500D01*
X91416842Y-89186568D01*
X91384999Y-89199758D01*
X91384999Y-87405554D01*
X91388796Y-87366999D01*
X91384999Y-87328443D01*
X91384999Y-87328438D01*
X91381019Y-87288025D01*
X91373641Y-87213112D01*
X91328753Y-87065139D01*
X91309094Y-87028360D01*
X91266386Y-86948458D01*
X91384514Y-86851514D01*
X91588831Y-86602552D01*
X91740652Y-86318515D01*
X91834143Y-86010316D01*
X91857800Y-85770122D01*
X91857800Y-84609478D01*
X91834143Y-84369284D01*
X91740652Y-84061085D01*
X91588831Y-83777048D01*
X91384514Y-83528086D01*
X91135552Y-83323769D01*
X90851515Y-83171948D01*
X90543316Y-83078457D01*
X90222800Y-83046889D01*
X89902285Y-83078457D01*
X89594086Y-83171948D01*
X89577100Y-83181027D01*
X89577100Y-79326857D01*
X89868310Y-79035647D01*
X89898264Y-79011064D01*
X89996362Y-78891533D01*
X90069254Y-78755160D01*
X90103581Y-78642000D01*
X90114142Y-78607187D01*
X90125404Y-78492833D01*
X90125500Y-78491861D01*
X90125500Y-78491856D01*
X90129297Y-78453300D01*
X90125500Y-78414744D01*
X90125500Y-71834252D01*
X90129297Y-71795699D01*
X90125500Y-71757146D01*
X90125500Y-71757139D01*
X90114141Y-71641813D01*
X90069254Y-71493840D01*
X89996362Y-71357467D01*
X89898264Y-71237936D01*
X89868317Y-71213359D01*
X86295000Y-67640043D01*
X86295000Y-65698002D01*
X88305000Y-65698002D01*
X88305000Y-66413997D01*
X88333867Y-66707087D01*
X88447943Y-67083146D01*
X88633193Y-67429725D01*
X88882497Y-67733503D01*
X89186275Y-67982807D01*
X89532853Y-68168057D01*
X89908912Y-68282133D01*
X90300000Y-68320652D01*
X90691087Y-68282133D01*
X91067146Y-68168057D01*
X91413725Y-67982807D01*
X91717503Y-67733503D01*
X91966807Y-67429725D01*
X92152057Y-67083147D01*
X92266133Y-66707088D01*
X92295000Y-66413998D01*
X92295000Y-65698003D01*
X92266133Y-65404913D01*
X92152057Y-65028853D01*
X91966807Y-64682275D01*
X91717503Y-64378497D01*
X91413725Y-64129193D01*
X91067147Y-63943943D01*
X90691088Y-63829867D01*
X90300000Y-63791348D01*
X89908913Y-63829867D01*
X89532854Y-63943943D01*
X89186276Y-64129193D01*
X88882498Y-64378497D01*
X88633193Y-64682275D01*
X88447943Y-65028853D01*
X88333867Y-65404912D01*
X88305000Y-65698002D01*
X86295000Y-65698002D01*
X86295000Y-58509124D01*
X86373762Y-58456497D01*
X86562497Y-58267762D01*
X86710785Y-58045833D01*
X86780000Y-57878734D01*
X86849215Y-58045833D01*
X86997503Y-58267762D01*
X87186238Y-58456497D01*
X87408167Y-58604785D01*
X87654761Y-58706928D01*
X87916544Y-58759000D01*
X88183456Y-58759000D01*
X88445239Y-58706928D01*
X88691833Y-58604785D01*
X88913762Y-58456497D01*
X89102497Y-58267762D01*
X89250785Y-58045833D01*
X89352928Y-57799239D01*
X89405000Y-57537456D01*
X89405000Y-57270544D01*
X89352928Y-57008761D01*
X89250785Y-56762167D01*
X89102497Y-56540238D01*
X88913762Y-56351503D01*
X88691833Y-56203215D01*
X88445239Y-56101072D01*
X88183456Y-56049000D01*
X87916544Y-56049000D01*
X87654761Y-56101072D01*
X87408167Y-56203215D01*
X87186238Y-56351503D01*
X86997503Y-56540238D01*
X86849215Y-56762167D01*
X86780000Y-56929266D01*
X86710785Y-56762167D01*
X86562497Y-56540238D01*
X86373762Y-56351503D01*
X86151833Y-56203215D01*
X85905239Y-56101072D01*
X85643456Y-56049000D01*
X85376544Y-56049000D01*
X85114761Y-56101072D01*
X84868167Y-56203215D01*
X84646238Y-56351503D01*
X84457503Y-56540238D01*
X84309215Y-56762167D01*
X84240000Y-56929266D01*
X84170785Y-56762167D01*
X84022497Y-56540238D01*
X83833762Y-56351503D01*
X83611833Y-56203215D01*
X83365239Y-56101072D01*
X83103456Y-56049000D01*
X82836544Y-56049000D01*
X82574761Y-56101072D01*
X82328167Y-56203215D01*
X82106238Y-56351503D01*
X81917503Y-56540238D01*
X81769215Y-56762167D01*
X81667072Y-57008761D01*
X81615000Y-57270544D01*
X81615000Y-57537456D01*
X81667072Y-57799239D01*
X81769215Y-58045833D01*
X81917503Y-58267762D01*
X82106238Y-58456497D01*
X82215001Y-58529170D01*
X82215001Y-64497298D01*
X82117503Y-64378497D01*
X81813725Y-64129193D01*
X81467147Y-63943943D01*
X81091088Y-63829867D01*
X80700000Y-63791348D01*
X80308913Y-63829867D01*
X79932854Y-63943943D01*
X79586276Y-64129193D01*
X79282498Y-64378497D01*
X79033193Y-64682275D01*
X78847943Y-65028853D01*
X78733867Y-65404912D01*
X78705000Y-65698002D01*
X78705000Y-66413997D01*
X78733867Y-66707087D01*
X78847943Y-67083146D01*
X79033193Y-67429725D01*
X79282497Y-67733503D01*
X79586275Y-67982807D01*
X79932853Y-68168057D01*
X80308912Y-68282133D01*
X80700000Y-68320652D01*
X81091087Y-68282133D01*
X81467146Y-68168057D01*
X81813725Y-67982807D01*
X82117503Y-67733503D01*
X82215000Y-67614702D01*
X82215000Y-72017928D01*
X82100000Y-72017928D01*
X81975518Y-72030188D01*
X81855820Y-72066498D01*
X81745506Y-72125463D01*
X81648815Y-72204815D01*
X81569463Y-72301506D01*
X81510498Y-72411820D01*
X81474188Y-72531518D01*
X81461928Y-72656000D01*
X81461928Y-74456000D01*
X81474188Y-74580482D01*
X81510498Y-74700180D01*
X81569463Y-74810494D01*
X81648815Y-74907185D01*
X81745506Y-74986537D01*
X81855820Y-75045502D01*
X81975518Y-75081812D01*
X82100000Y-75094072D01*
X82851770Y-75094072D01*
X79886190Y-78059653D01*
X79856236Y-78084236D01*
X79758138Y-78203768D01*
X79685246Y-78340141D01*
X79640359Y-78488114D01*
X79629000Y-78603440D01*
X79629000Y-78603447D01*
X79625203Y-78642000D01*
X79629000Y-78680553D01*
X79629001Y-80844437D01*
X79625203Y-80883000D01*
X79640359Y-81036886D01*
X79685246Y-81184859D01*
X79719177Y-81248340D01*
X79758139Y-81321233D01*
X79798690Y-81370644D01*
X79831655Y-81410812D01*
X79831659Y-81410816D01*
X79856237Y-81440764D01*
X79886185Y-81465342D01*
X81786075Y-83365232D01*
X81735552Y-83323769D01*
X81451515Y-83171948D01*
X81143316Y-83078457D01*
X80822800Y-83046889D01*
X80502285Y-83078457D01*
X80194086Y-83171948D01*
X79910049Y-83323769D01*
X79661087Y-83528086D01*
X79456770Y-83777048D01*
X79304948Y-84061085D01*
X79211457Y-84369284D01*
X79187800Y-84609478D01*
X79187800Y-85770121D01*
X79211457Y-86010315D01*
X79304948Y-86318514D01*
X79456769Y-86602551D01*
X79661086Y-86851514D01*
X79910048Y-87055831D01*
X80194085Y-87207652D01*
X80502284Y-87301143D01*
X80822800Y-87332711D01*
X81143315Y-87301143D01*
X81451514Y-87207652D01*
X81735551Y-87055831D01*
X81984514Y-86851514D01*
X82188831Y-86602552D01*
X82340652Y-86318515D01*
X82434143Y-86010316D01*
X82457800Y-85770122D01*
X82457800Y-84609478D01*
X82434143Y-84369284D01*
X82340652Y-84061085D01*
X82188831Y-83777048D01*
X82147368Y-83726525D01*
X82595001Y-84174158D01*
X82595002Y-89433209D01*
X82393411Y-89298510D01*
X82123158Y-89186568D01*
X81836260Y-89129500D01*
X81543740Y-89129500D01*
X81256842Y-89186568D01*
X80986589Y-89298510D01*
X80743368Y-89461025D01*
X80611513Y-89592880D01*
X80589502Y-89520320D01*
X80530537Y-89410006D01*
X80451185Y-89313315D01*
X80354494Y-89233963D01*
X80244180Y-89174998D01*
X80124482Y-89138688D01*
X80000000Y-89126428D01*
X78300000Y-89126428D01*
X78175518Y-89138688D01*
X78055820Y-89174998D01*
X77945506Y-89233963D01*
X77848815Y-89313315D01*
X77769463Y-89410006D01*
X77710498Y-89520320D01*
X77674188Y-89640018D01*
X77661928Y-89764500D01*
X77661928Y-91464500D01*
X77674188Y-91588982D01*
X77710498Y-91708680D01*
X77769463Y-91818994D01*
X77848815Y-91915685D01*
X77945506Y-91995037D01*
X78055820Y-92054002D01*
X78175518Y-92090312D01*
X78300000Y-92102572D01*
X80000000Y-92102572D01*
X80124482Y-92090312D01*
X80244180Y-92054002D01*
X80354494Y-91995037D01*
X80451185Y-91915685D01*
X80530537Y-91818994D01*
X80589502Y-91708680D01*
X80611513Y-91636120D01*
X80743368Y-91767975D01*
X80986589Y-91930490D01*
X81256842Y-92042432D01*
X81543740Y-92099500D01*
X81836260Y-92099500D01*
X82123158Y-92042432D01*
X82393411Y-91930490D01*
X82636632Y-91767975D01*
X82843475Y-91561132D01*
X82960000Y-91386740D01*
X83076525Y-91561132D01*
X83283368Y-91767975D01*
X83526589Y-91930490D01*
X83796842Y-92042432D01*
X84083740Y-92099500D01*
X84376260Y-92099500D01*
X84663158Y-92042432D01*
X84715000Y-92020958D01*
X84715000Y-92165243D01*
X80980885Y-95899358D01*
X80950937Y-95923936D01*
X80926359Y-95953884D01*
X80926355Y-95953888D01*
X80895486Y-95991502D01*
X80852839Y-96043467D01*
X80850606Y-96047645D01*
X80779946Y-96179841D01*
X80735059Y-96327814D01*
X80719903Y-96481700D01*
X80723701Y-96520263D01*
X80723700Y-137282000D01*
X79517186Y-137282000D01*
X79478630Y-137278203D01*
X79440074Y-137282000D01*
X79440069Y-137282000D01*
X79399656Y-137285980D01*
X79324743Y-137293358D01*
X79176770Y-137338246D01*
X79040397Y-137411138D01*
X78920866Y-137509236D01*
X78896279Y-137539195D01*
X78586186Y-137849287D01*
X78556237Y-137873866D01*
X78531659Y-137903814D01*
X78531655Y-137903818D01*
X78509075Y-137931332D01*
X78458139Y-137993397D01*
X78443432Y-138020912D01*
X78385246Y-138129771D01*
X78340359Y-138277744D01*
X78332312Y-138359448D01*
X78199241Y-138448363D01*
X77999363Y-138648241D01*
X77842320Y-138883273D01*
X77734147Y-139144426D01*
X77679000Y-139421665D01*
X77679000Y-139704335D01*
X77734147Y-139981574D01*
X77842320Y-140242727D01*
X77999363Y-140477759D01*
X78199241Y-140677637D01*
X78434273Y-140834680D01*
X78695426Y-140942853D01*
X78972665Y-140998000D01*
X79255335Y-140998000D01*
X79532574Y-140942853D01*
X79793727Y-140834680D01*
X80028759Y-140677637D01*
X80228637Y-140477759D01*
X80385680Y-140242727D01*
X80493853Y-139981574D01*
X80549000Y-139704335D01*
X80549000Y-139421665D01*
X80493853Y-139144426D01*
X80385680Y-138883273D01*
X80364784Y-138852000D01*
X81470139Y-138852000D01*
X81508700Y-138855798D01*
X81547260Y-138852000D01*
X83839044Y-138852000D01*
X83769815Y-138908815D01*
X83690463Y-139005506D01*
X83631498Y-139115820D01*
X83595188Y-139235518D01*
X83582928Y-139360000D01*
X83582928Y-140360000D01*
X83595188Y-140484482D01*
X83631498Y-140604180D01*
X83690463Y-140714494D01*
X83769815Y-140811185D01*
X83800891Y-140836688D01*
X83764755Y-140851656D01*
X83164753Y-141252565D01*
X82654493Y-141762825D01*
X82253584Y-142362827D01*
X81977434Y-143029513D01*
X81836653Y-143737264D01*
X81836653Y-144458880D01*
X81977434Y-145166631D01*
X82253584Y-145833317D01*
X82654493Y-146433319D01*
X83164753Y-146943579D01*
X83696112Y-147298622D01*
X83690463Y-147305506D01*
X83631498Y-147415820D01*
X83595188Y-147535518D01*
X83582928Y-147660000D01*
X83582928Y-148660000D01*
X83595188Y-148784482D01*
X83631498Y-148904180D01*
X83690463Y-149014494D01*
X83769815Y-149111185D01*
X83866506Y-149190537D01*
X83976820Y-149249502D01*
X84096518Y-149285812D01*
X84221000Y-149298072D01*
X86721000Y-149298072D01*
X86845482Y-149285812D01*
X86965180Y-149249502D01*
X87075494Y-149190537D01*
X87172185Y-149111185D01*
X87251537Y-149014494D01*
X87310502Y-148904180D01*
X87346812Y-148784482D01*
X87359072Y-148660000D01*
X87359072Y-148641890D01*
X91205024Y-148641890D01*
X91249675Y-148789099D01*
X91374859Y-149051920D01*
X91548912Y-149285269D01*
X91765145Y-149480178D01*
X91890755Y-149555000D01*
X91765145Y-149629822D01*
X91548912Y-149824731D01*
X91374859Y-150058080D01*
X91249675Y-150320901D01*
X91205024Y-150468110D01*
X91326345Y-150698000D01*
X92519500Y-150698000D01*
X92519500Y-148412000D01*
X92773500Y-148412000D01*
X92773500Y-150698000D01*
X93966655Y-150698000D01*
X94087976Y-150468110D01*
X94043325Y-150320901D01*
X93918141Y-150058080D01*
X93744088Y-149824731D01*
X93527855Y-149629822D01*
X93402245Y-149555000D01*
X93527855Y-149480178D01*
X93744088Y-149285269D01*
X93918141Y-149051920D01*
X94043325Y-148789099D01*
X94087976Y-148641890D01*
X93966655Y-148412000D01*
X92773500Y-148412000D01*
X92519500Y-148412000D01*
X91326345Y-148412000D01*
X91205024Y-148641890D01*
X87359072Y-148641890D01*
X87359072Y-147660000D01*
X87346812Y-147535518D01*
X87310502Y-147415820D01*
X87262603Y-147326208D01*
X87835247Y-146943579D01*
X88345507Y-146433319D01*
X88746416Y-145833317D01*
X89022566Y-145166631D01*
X89163347Y-144458880D01*
X89163347Y-143737264D01*
X89022566Y-143029513D01*
X88803653Y-142501010D01*
X91305453Y-145002810D01*
X91330036Y-145032764D01*
X91334150Y-145036141D01*
X91330510Y-145041589D01*
X91218568Y-145311842D01*
X91161500Y-145598740D01*
X91161500Y-145891260D01*
X91218568Y-146178158D01*
X91330510Y-146448411D01*
X91493025Y-146691632D01*
X91699868Y-146898475D01*
X91882034Y-147020195D01*
X91765145Y-147089822D01*
X91548912Y-147284731D01*
X91374859Y-147518080D01*
X91249675Y-147780901D01*
X91205024Y-147928110D01*
X91326345Y-148158000D01*
X92519500Y-148158000D01*
X92519500Y-148138000D01*
X92773500Y-148138000D01*
X92773500Y-148158000D01*
X93966655Y-148158000D01*
X94087976Y-147928110D01*
X94043325Y-147780901D01*
X93918141Y-147518080D01*
X93744088Y-147284731D01*
X93527855Y-147089822D01*
X93410966Y-147020195D01*
X93593132Y-146898475D01*
X93799975Y-146691632D01*
X93962490Y-146448411D01*
X94074432Y-146178158D01*
X94131500Y-145891260D01*
X94131500Y-145598740D01*
X94074432Y-145311842D01*
X93962490Y-145041589D01*
X93867913Y-144900044D01*
X94340001Y-144427957D01*
X94340001Y-152340000D01*
X86982957Y-152340000D01*
X87075494Y-152290537D01*
X87172185Y-152211185D01*
X87251537Y-152114494D01*
X87310502Y-152004180D01*
X87346812Y-151884482D01*
X87359072Y-151760000D01*
X87356000Y-151545750D01*
X87197250Y-151387000D01*
X85598000Y-151387000D01*
X85598000Y-151407000D01*
X85344000Y-151407000D01*
X85344000Y-151387000D01*
X83744750Y-151387000D01*
X83586000Y-151545750D01*
X83582928Y-151760000D01*
X83595188Y-151884482D01*
X83631498Y-152004180D01*
X83690463Y-152114494D01*
X83769815Y-152211185D01*
X83866506Y-152290537D01*
X83959043Y-152340000D01*
X76660000Y-152340000D01*
X76660000Y-152040145D01*
X76826257Y-152109011D01*
X77122816Y-152168000D01*
X77425184Y-152168000D01*
X77721743Y-152109011D01*
X78001095Y-151993299D01*
X78252505Y-151825312D01*
X78318944Y-151758873D01*
X78324498Y-151777180D01*
X78383463Y-151887494D01*
X78462815Y-151984185D01*
X78559506Y-152063537D01*
X78669820Y-152122502D01*
X78789518Y-152158812D01*
X78914000Y-152171072D01*
X79528250Y-152168000D01*
X79687000Y-152009250D01*
X79687000Y-150760000D01*
X79941000Y-150760000D01*
X79941000Y-152009250D01*
X80099750Y-152168000D01*
X80714000Y-152171072D01*
X80838482Y-152158812D01*
X80958180Y-152122502D01*
X81068494Y-152063537D01*
X81165185Y-151984185D01*
X81244537Y-151887494D01*
X81303502Y-151777180D01*
X81339812Y-151657482D01*
X81352072Y-151533000D01*
X81350317Y-151181890D01*
X91205024Y-151181890D01*
X91249675Y-151329099D01*
X91374859Y-151591920D01*
X91548912Y-151825269D01*
X91765145Y-152020178D01*
X92015248Y-152169157D01*
X92289609Y-152266481D01*
X92519500Y-152145814D01*
X92519500Y-150952000D01*
X92773500Y-150952000D01*
X92773500Y-152145814D01*
X93003391Y-152266481D01*
X93277752Y-152169157D01*
X93527855Y-152020178D01*
X93744088Y-151825269D01*
X93918141Y-151591920D01*
X94043325Y-151329099D01*
X94087976Y-151181890D01*
X93966655Y-150952000D01*
X92773500Y-150952000D01*
X92519500Y-150952000D01*
X91326345Y-150952000D01*
X91205024Y-151181890D01*
X81350317Y-151181890D01*
X81349000Y-150918750D01*
X81190250Y-150760000D01*
X83582928Y-150760000D01*
X83586000Y-150974250D01*
X83744750Y-151133000D01*
X85344000Y-151133000D01*
X85344000Y-150283750D01*
X85598000Y-150283750D01*
X85598000Y-151133000D01*
X87197250Y-151133000D01*
X87356000Y-150974250D01*
X87359072Y-150760000D01*
X87346812Y-150635518D01*
X87310502Y-150515820D01*
X87251537Y-150405506D01*
X87172185Y-150308815D01*
X87075494Y-150229463D01*
X86965180Y-150170498D01*
X86845482Y-150134188D01*
X86721000Y-150121928D01*
X85756750Y-150125000D01*
X85598000Y-150283750D01*
X85344000Y-150283750D01*
X85185250Y-150125000D01*
X84221000Y-150121928D01*
X84096518Y-150134188D01*
X83976820Y-150170498D01*
X83866506Y-150229463D01*
X83769815Y-150308815D01*
X83690463Y-150405506D01*
X83631498Y-150515820D01*
X83595188Y-150635518D01*
X83582928Y-150760000D01*
X81190250Y-150760000D01*
X79941000Y-150760000D01*
X79687000Y-150760000D01*
X79667000Y-150760000D01*
X79667000Y-150506000D01*
X79687000Y-150506000D01*
X79687000Y-149256750D01*
X79941000Y-149256750D01*
X79941000Y-150506000D01*
X81190250Y-150506000D01*
X81349000Y-150347250D01*
X81352072Y-149733000D01*
X81339812Y-149608518D01*
X81303502Y-149488820D01*
X81244537Y-149378506D01*
X81165185Y-149281815D01*
X81068494Y-149202463D01*
X80958180Y-149143498D01*
X80838482Y-149107188D01*
X80714000Y-149094928D01*
X80099750Y-149098000D01*
X79941000Y-149256750D01*
X79687000Y-149256750D01*
X79528250Y-149098000D01*
X78914000Y-149094928D01*
X78789518Y-149107188D01*
X78669820Y-149143498D01*
X78559506Y-149202463D01*
X78462815Y-149281815D01*
X78383463Y-149378506D01*
X78324498Y-149488820D01*
X78318944Y-149507127D01*
X78252505Y-149440688D01*
X78001095Y-149272701D01*
X77721743Y-149156989D01*
X77425184Y-149098000D01*
X77122816Y-149098000D01*
X76826257Y-149156989D01*
X76660000Y-149225855D01*
X76660000Y-147041665D01*
X77679000Y-147041665D01*
X77679000Y-147324335D01*
X77734147Y-147601574D01*
X77842320Y-147862727D01*
X77999363Y-148097759D01*
X78199241Y-148297637D01*
X78434273Y-148454680D01*
X78695426Y-148562853D01*
X78972665Y-148618000D01*
X79255335Y-148618000D01*
X79532574Y-148562853D01*
X79793727Y-148454680D01*
X80028759Y-148297637D01*
X80228637Y-148097759D01*
X80385680Y-147862727D01*
X80493853Y-147601574D01*
X80549000Y-147324335D01*
X80549000Y-147041665D01*
X80493853Y-146764426D01*
X80385680Y-146503273D01*
X80228637Y-146268241D01*
X80028759Y-146068363D01*
X79793727Y-145911320D01*
X79532574Y-145803147D01*
X79255335Y-145748000D01*
X78972665Y-145748000D01*
X78695426Y-145803147D01*
X78434273Y-145911320D01*
X78199241Y-146068363D01*
X77999363Y-146268241D01*
X77842320Y-146503273D01*
X77734147Y-146764426D01*
X77679000Y-147041665D01*
X76660000Y-147041665D01*
X76660000Y-54660000D01*
X94340000Y-54660000D01*
X94340000Y-95984560D01*
G37*
X94340000Y-95984560D02*
X94213013Y-95794509D01*
X93943491Y-95524987D01*
X93626566Y-95313225D01*
X93274419Y-95167361D01*
X92900581Y-95093000D01*
X92519419Y-95093000D01*
X92457250Y-95105366D01*
X92505862Y-95046133D01*
X92578754Y-94909760D01*
X92579429Y-94907536D01*
X92623642Y-94761787D01*
X92632193Y-94674961D01*
X92635000Y-94646461D01*
X92635000Y-94646456D01*
X92638797Y-94607900D01*
X92635000Y-94569344D01*
X92635000Y-91875974D01*
X92796632Y-91767975D01*
X93003475Y-91561132D01*
X93165990Y-91317911D01*
X93277932Y-91047658D01*
X93335000Y-90760760D01*
X93335000Y-90468240D01*
X93277932Y-90181342D01*
X93165990Y-89911089D01*
X93003475Y-89667868D01*
X92796632Y-89461025D01*
X92553411Y-89298510D01*
X92283158Y-89186568D01*
X91996260Y-89129500D01*
X91703740Y-89129500D01*
X91416842Y-89186568D01*
X91384999Y-89199758D01*
X91384999Y-87405554D01*
X91388796Y-87366999D01*
X91384999Y-87328443D01*
X91384999Y-87328438D01*
X91381019Y-87288025D01*
X91373641Y-87213112D01*
X91328753Y-87065139D01*
X91309094Y-87028360D01*
X91266386Y-86948458D01*
X91384514Y-86851514D01*
X91588831Y-86602552D01*
X91740652Y-86318515D01*
X91834143Y-86010316D01*
X91857800Y-85770122D01*
X91857800Y-84609478D01*
X91834143Y-84369284D01*
X91740652Y-84061085D01*
X91588831Y-83777048D01*
X91384514Y-83528086D01*
X91135552Y-83323769D01*
X90851515Y-83171948D01*
X90543316Y-83078457D01*
X90222800Y-83046889D01*
X89902285Y-83078457D01*
X89594086Y-83171948D01*
X89577100Y-83181027D01*
X89577100Y-79326857D01*
X89868310Y-79035647D01*
X89898264Y-79011064D01*
X89996362Y-78891533D01*
X90069254Y-78755160D01*
X90103581Y-78642000D01*
X90114142Y-78607187D01*
X90125404Y-78492833D01*
X90125500Y-78491861D01*
X90125500Y-78491856D01*
X90129297Y-78453300D01*
X90125500Y-78414744D01*
X90125500Y-71834252D01*
X90129297Y-71795699D01*
X90125500Y-71757146D01*
X90125500Y-71757139D01*
X90114141Y-71641813D01*
X90069254Y-71493840D01*
X89996362Y-71357467D01*
X89898264Y-71237936D01*
X89868317Y-71213359D01*
X86295000Y-67640043D01*
X86295000Y-65698002D01*
X88305000Y-65698002D01*
X88305000Y-66413997D01*
X88333867Y-66707087D01*
X88447943Y-67083146D01*
X88633193Y-67429725D01*
X88882497Y-67733503D01*
X89186275Y-67982807D01*
X89532853Y-68168057D01*
X89908912Y-68282133D01*
X90300000Y-68320652D01*
X90691087Y-68282133D01*
X91067146Y-68168057D01*
X91413725Y-67982807D01*
X91717503Y-67733503D01*
X91966807Y-67429725D01*
X92152057Y-67083147D01*
X92266133Y-66707088D01*
X92295000Y-66413998D01*
X92295000Y-65698003D01*
X92266133Y-65404913D01*
X92152057Y-65028853D01*
X91966807Y-64682275D01*
X91717503Y-64378497D01*
X91413725Y-64129193D01*
X91067147Y-63943943D01*
X90691088Y-63829867D01*
X90300000Y-63791348D01*
X89908913Y-63829867D01*
X89532854Y-63943943D01*
X89186276Y-64129193D01*
X88882498Y-64378497D01*
X88633193Y-64682275D01*
X88447943Y-65028853D01*
X88333867Y-65404912D01*
X88305000Y-65698002D01*
X86295000Y-65698002D01*
X86295000Y-58509124D01*
X86373762Y-58456497D01*
X86562497Y-58267762D01*
X86710785Y-58045833D01*
X86780000Y-57878734D01*
X86849215Y-58045833D01*
X86997503Y-58267762D01*
X87186238Y-58456497D01*
X87408167Y-58604785D01*
X87654761Y-58706928D01*
X87916544Y-58759000D01*
X88183456Y-58759000D01*
X88445239Y-58706928D01*
X88691833Y-58604785D01*
X88913762Y-58456497D01*
X89102497Y-58267762D01*
X89250785Y-58045833D01*
X89352928Y-57799239D01*
X89405000Y-57537456D01*
X89405000Y-57270544D01*
X89352928Y-57008761D01*
X89250785Y-56762167D01*
X89102497Y-56540238D01*
X88913762Y-56351503D01*
X88691833Y-56203215D01*
X88445239Y-56101072D01*
X88183456Y-56049000D01*
X87916544Y-56049000D01*
X87654761Y-56101072D01*
X87408167Y-56203215D01*
X87186238Y-56351503D01*
X86997503Y-56540238D01*
X86849215Y-56762167D01*
X86780000Y-56929266D01*
X86710785Y-56762167D01*
X86562497Y-56540238D01*
X86373762Y-56351503D01*
X86151833Y-56203215D01*
X85905239Y-56101072D01*
X85643456Y-56049000D01*
X85376544Y-56049000D01*
X85114761Y-56101072D01*
X84868167Y-56203215D01*
X84646238Y-56351503D01*
X84457503Y-56540238D01*
X84309215Y-56762167D01*
X84240000Y-56929266D01*
X84170785Y-56762167D01*
X84022497Y-56540238D01*
X83833762Y-56351503D01*
X83611833Y-56203215D01*
X83365239Y-56101072D01*
X83103456Y-56049000D01*
X82836544Y-56049000D01*
X82574761Y-56101072D01*
X82328167Y-56203215D01*
X82106238Y-56351503D01*
X81917503Y-56540238D01*
X81769215Y-56762167D01*
X81667072Y-57008761D01*
X81615000Y-57270544D01*
X81615000Y-57537456D01*
X81667072Y-57799239D01*
X81769215Y-58045833D01*
X81917503Y-58267762D01*
X82106238Y-58456497D01*
X82215001Y-58529170D01*
X82215001Y-64497298D01*
X82117503Y-64378497D01*
X81813725Y-64129193D01*
X81467147Y-63943943D01*
X81091088Y-63829867D01*
X80700000Y-63791348D01*
X80308913Y-63829867D01*
X79932854Y-63943943D01*
X79586276Y-64129193D01*
X79282498Y-64378497D01*
X79033193Y-64682275D01*
X78847943Y-65028853D01*
X78733867Y-65404912D01*
X78705000Y-65698002D01*
X78705000Y-66413997D01*
X78733867Y-66707087D01*
X78847943Y-67083146D01*
X79033193Y-67429725D01*
X79282497Y-67733503D01*
X79586275Y-67982807D01*
X79932853Y-68168057D01*
X80308912Y-68282133D01*
X80700000Y-68320652D01*
X81091087Y-68282133D01*
X81467146Y-68168057D01*
X81813725Y-67982807D01*
X82117503Y-67733503D01*
X82215000Y-67614702D01*
X82215000Y-72017928D01*
X82100000Y-72017928D01*
X81975518Y-72030188D01*
X81855820Y-72066498D01*
X81745506Y-72125463D01*
X81648815Y-72204815D01*
X81569463Y-72301506D01*
X81510498Y-72411820D01*
X81474188Y-72531518D01*
X81461928Y-72656000D01*
X81461928Y-74456000D01*
X81474188Y-74580482D01*
X81510498Y-74700180D01*
X81569463Y-74810494D01*
X81648815Y-74907185D01*
X81745506Y-74986537D01*
X81855820Y-75045502D01*
X81975518Y-75081812D01*
X82100000Y-75094072D01*
X82851770Y-75094072D01*
X79886190Y-78059653D01*
X79856236Y-78084236D01*
X79758138Y-78203768D01*
X79685246Y-78340141D01*
X79640359Y-78488114D01*
X79629000Y-78603440D01*
X79629000Y-78603447D01*
X79625203Y-78642000D01*
X79629000Y-78680553D01*
X79629001Y-80844437D01*
X79625203Y-80883000D01*
X79640359Y-81036886D01*
X79685246Y-81184859D01*
X79719177Y-81248340D01*
X79758139Y-81321233D01*
X79798690Y-81370644D01*
X79831655Y-81410812D01*
X79831659Y-81410816D01*
X79856237Y-81440764D01*
X79886185Y-81465342D01*
X81786075Y-83365232D01*
X81735552Y-83323769D01*
X81451515Y-83171948D01*
X81143316Y-83078457D01*
X80822800Y-83046889D01*
X80502285Y-83078457D01*
X80194086Y-83171948D01*
X79910049Y-83323769D01*
X79661087Y-83528086D01*
X79456770Y-83777048D01*
X79304948Y-84061085D01*
X79211457Y-84369284D01*
X79187800Y-84609478D01*
X79187800Y-85770121D01*
X79211457Y-86010315D01*
X79304948Y-86318514D01*
X79456769Y-86602551D01*
X79661086Y-86851514D01*
X79910048Y-87055831D01*
X80194085Y-87207652D01*
X80502284Y-87301143D01*
X80822800Y-87332711D01*
X81143315Y-87301143D01*
X81451514Y-87207652D01*
X81735551Y-87055831D01*
X81984514Y-86851514D01*
X82188831Y-86602552D01*
X82340652Y-86318515D01*
X82434143Y-86010316D01*
X82457800Y-85770122D01*
X82457800Y-84609478D01*
X82434143Y-84369284D01*
X82340652Y-84061085D01*
X82188831Y-83777048D01*
X82147368Y-83726525D01*
X82595001Y-84174158D01*
X82595002Y-89433209D01*
X82393411Y-89298510D01*
X82123158Y-89186568D01*
X81836260Y-89129500D01*
X81543740Y-89129500D01*
X81256842Y-89186568D01*
X80986589Y-89298510D01*
X80743368Y-89461025D01*
X80611513Y-89592880D01*
X80589502Y-89520320D01*
X80530537Y-89410006D01*
X80451185Y-89313315D01*
X80354494Y-89233963D01*
X80244180Y-89174998D01*
X80124482Y-89138688D01*
X80000000Y-89126428D01*
X78300000Y-89126428D01*
X78175518Y-89138688D01*
X78055820Y-89174998D01*
X77945506Y-89233963D01*
X77848815Y-89313315D01*
X77769463Y-89410006D01*
X77710498Y-89520320D01*
X77674188Y-89640018D01*
X77661928Y-89764500D01*
X77661928Y-91464500D01*
X77674188Y-91588982D01*
X77710498Y-91708680D01*
X77769463Y-91818994D01*
X77848815Y-91915685D01*
X77945506Y-91995037D01*
X78055820Y-92054002D01*
X78175518Y-92090312D01*
X78300000Y-92102572D01*
X80000000Y-92102572D01*
X80124482Y-92090312D01*
X80244180Y-92054002D01*
X80354494Y-91995037D01*
X80451185Y-91915685D01*
X80530537Y-91818994D01*
X80589502Y-91708680D01*
X80611513Y-91636120D01*
X80743368Y-91767975D01*
X80986589Y-91930490D01*
X81256842Y-92042432D01*
X81543740Y-92099500D01*
X81836260Y-92099500D01*
X82123158Y-92042432D01*
X82393411Y-91930490D01*
X82636632Y-91767975D01*
X82843475Y-91561132D01*
X82960000Y-91386740D01*
X83076525Y-91561132D01*
X83283368Y-91767975D01*
X83526589Y-91930490D01*
X83796842Y-92042432D01*
X84083740Y-92099500D01*
X84376260Y-92099500D01*
X84663158Y-92042432D01*
X84715000Y-92020958D01*
X84715000Y-92165243D01*
X80980885Y-95899358D01*
X80950937Y-95923936D01*
X80926359Y-95953884D01*
X80926355Y-95953888D01*
X80895486Y-95991502D01*
X80852839Y-96043467D01*
X80850606Y-96047645D01*
X80779946Y-96179841D01*
X80735059Y-96327814D01*
X80719903Y-96481700D01*
X80723701Y-96520263D01*
X80723700Y-137282000D01*
X79517186Y-137282000D01*
X79478630Y-137278203D01*
X79440074Y-137282000D01*
X79440069Y-137282000D01*
X79399656Y-137285980D01*
X79324743Y-137293358D01*
X79176770Y-137338246D01*
X79040397Y-137411138D01*
X78920866Y-137509236D01*
X78896279Y-137539195D01*
X78586186Y-137849287D01*
X78556237Y-137873866D01*
X78531659Y-137903814D01*
X78531655Y-137903818D01*
X78509075Y-137931332D01*
X78458139Y-137993397D01*
X78443432Y-138020912D01*
X78385246Y-138129771D01*
X78340359Y-138277744D01*
X78332312Y-138359448D01*
X78199241Y-138448363D01*
X77999363Y-138648241D01*
X77842320Y-138883273D01*
X77734147Y-139144426D01*
X77679000Y-139421665D01*
X77679000Y-139704335D01*
X77734147Y-139981574D01*
X77842320Y-140242727D01*
X77999363Y-140477759D01*
X78199241Y-140677637D01*
X78434273Y-140834680D01*
X78695426Y-140942853D01*
X78972665Y-140998000D01*
X79255335Y-140998000D01*
X79532574Y-140942853D01*
X79793727Y-140834680D01*
X80028759Y-140677637D01*
X80228637Y-140477759D01*
X80385680Y-140242727D01*
X80493853Y-139981574D01*
X80549000Y-139704335D01*
X80549000Y-139421665D01*
X80493853Y-139144426D01*
X80385680Y-138883273D01*
X80364784Y-138852000D01*
X81470139Y-138852000D01*
X81508700Y-138855798D01*
X81547260Y-138852000D01*
X83839044Y-138852000D01*
X83769815Y-138908815D01*
X83690463Y-139005506D01*
X83631498Y-139115820D01*
X83595188Y-139235518D01*
X83582928Y-139360000D01*
X83582928Y-140360000D01*
X83595188Y-140484482D01*
X83631498Y-140604180D01*
X83690463Y-140714494D01*
X83769815Y-140811185D01*
X83800891Y-140836688D01*
X83764755Y-140851656D01*
X83164753Y-141252565D01*
X82654493Y-141762825D01*
X82253584Y-142362827D01*
X81977434Y-143029513D01*
X81836653Y-143737264D01*
X81836653Y-144458880D01*
X81977434Y-145166631D01*
X82253584Y-145833317D01*
X82654493Y-146433319D01*
X83164753Y-146943579D01*
X83696112Y-147298622D01*
X83690463Y-147305506D01*
X83631498Y-147415820D01*
X83595188Y-147535518D01*
X83582928Y-147660000D01*
X83582928Y-148660000D01*
X83595188Y-148784482D01*
X83631498Y-148904180D01*
X83690463Y-149014494D01*
X83769815Y-149111185D01*
X83866506Y-149190537D01*
X83976820Y-149249502D01*
X84096518Y-149285812D01*
X84221000Y-149298072D01*
X86721000Y-149298072D01*
X86845482Y-149285812D01*
X86965180Y-149249502D01*
X87075494Y-149190537D01*
X87172185Y-149111185D01*
X87251537Y-149014494D01*
X87310502Y-148904180D01*
X87346812Y-148784482D01*
X87359072Y-148660000D01*
X87359072Y-148641890D01*
X91205024Y-148641890D01*
X91249675Y-148789099D01*
X91374859Y-149051920D01*
X91548912Y-149285269D01*
X91765145Y-149480178D01*
X91890755Y-149555000D01*
X91765145Y-149629822D01*
X91548912Y-149824731D01*
X91374859Y-150058080D01*
X91249675Y-150320901D01*
X91205024Y-150468110D01*
X91326345Y-150698000D01*
X92519500Y-150698000D01*
X92519500Y-148412000D01*
X92773500Y-148412000D01*
X92773500Y-150698000D01*
X93966655Y-150698000D01*
X94087976Y-150468110D01*
X94043325Y-150320901D01*
X93918141Y-150058080D01*
X93744088Y-149824731D01*
X93527855Y-149629822D01*
X93402245Y-149555000D01*
X93527855Y-149480178D01*
X93744088Y-149285269D01*
X93918141Y-149051920D01*
X94043325Y-148789099D01*
X94087976Y-148641890D01*
X93966655Y-148412000D01*
X92773500Y-148412000D01*
X92519500Y-148412000D01*
X91326345Y-148412000D01*
X91205024Y-148641890D01*
X87359072Y-148641890D01*
X87359072Y-147660000D01*
X87346812Y-147535518D01*
X87310502Y-147415820D01*
X87262603Y-147326208D01*
X87835247Y-146943579D01*
X88345507Y-146433319D01*
X88746416Y-145833317D01*
X89022566Y-145166631D01*
X89163347Y-144458880D01*
X89163347Y-143737264D01*
X89022566Y-143029513D01*
X88803653Y-142501010D01*
X91305453Y-145002810D01*
X91330036Y-145032764D01*
X91334150Y-145036141D01*
X91330510Y-145041589D01*
X91218568Y-145311842D01*
X91161500Y-145598740D01*
X91161500Y-145891260D01*
X91218568Y-146178158D01*
X91330510Y-146448411D01*
X91493025Y-146691632D01*
X91699868Y-146898475D01*
X91882034Y-147020195D01*
X91765145Y-147089822D01*
X91548912Y-147284731D01*
X91374859Y-147518080D01*
X91249675Y-147780901D01*
X91205024Y-147928110D01*
X91326345Y-148158000D01*
X92519500Y-148158000D01*
X92519500Y-148138000D01*
X92773500Y-148138000D01*
X92773500Y-148158000D01*
X93966655Y-148158000D01*
X94087976Y-147928110D01*
X94043325Y-147780901D01*
X93918141Y-147518080D01*
X93744088Y-147284731D01*
X93527855Y-147089822D01*
X93410966Y-147020195D01*
X93593132Y-146898475D01*
X93799975Y-146691632D01*
X93962490Y-146448411D01*
X94074432Y-146178158D01*
X94131500Y-145891260D01*
X94131500Y-145598740D01*
X94074432Y-145311842D01*
X93962490Y-145041589D01*
X93867913Y-144900044D01*
X94340001Y-144427957D01*
X94340001Y-152340000D01*
X86982957Y-152340000D01*
X87075494Y-152290537D01*
X87172185Y-152211185D01*
X87251537Y-152114494D01*
X87310502Y-152004180D01*
X87346812Y-151884482D01*
X87359072Y-151760000D01*
X87356000Y-151545750D01*
X87197250Y-151387000D01*
X85598000Y-151387000D01*
X85598000Y-151407000D01*
X85344000Y-151407000D01*
X85344000Y-151387000D01*
X83744750Y-151387000D01*
X83586000Y-151545750D01*
X83582928Y-151760000D01*
X83595188Y-151884482D01*
X83631498Y-152004180D01*
X83690463Y-152114494D01*
X83769815Y-152211185D01*
X83866506Y-152290537D01*
X83959043Y-152340000D01*
X76660000Y-152340000D01*
X76660000Y-152040145D01*
X76826257Y-152109011D01*
X77122816Y-152168000D01*
X77425184Y-152168000D01*
X77721743Y-152109011D01*
X78001095Y-151993299D01*
X78252505Y-151825312D01*
X78318944Y-151758873D01*
X78324498Y-151777180D01*
X78383463Y-151887494D01*
X78462815Y-151984185D01*
X78559506Y-152063537D01*
X78669820Y-152122502D01*
X78789518Y-152158812D01*
X78914000Y-152171072D01*
X79528250Y-152168000D01*
X79687000Y-152009250D01*
X79687000Y-150760000D01*
X79941000Y-150760000D01*
X79941000Y-152009250D01*
X80099750Y-152168000D01*
X80714000Y-152171072D01*
X80838482Y-152158812D01*
X80958180Y-152122502D01*
X81068494Y-152063537D01*
X81165185Y-151984185D01*
X81244537Y-151887494D01*
X81303502Y-151777180D01*
X81339812Y-151657482D01*
X81352072Y-151533000D01*
X81350317Y-151181890D01*
X91205024Y-151181890D01*
X91249675Y-151329099D01*
X91374859Y-151591920D01*
X91548912Y-151825269D01*
X91765145Y-152020178D01*
X92015248Y-152169157D01*
X92289609Y-152266481D01*
X92519500Y-152145814D01*
X92519500Y-150952000D01*
X92773500Y-150952000D01*
X92773500Y-152145814D01*
X93003391Y-152266481D01*
X93277752Y-152169157D01*
X93527855Y-152020178D01*
X93744088Y-151825269D01*
X93918141Y-151591920D01*
X94043325Y-151329099D01*
X94087976Y-151181890D01*
X93966655Y-150952000D01*
X92773500Y-150952000D01*
X92519500Y-150952000D01*
X91326345Y-150952000D01*
X91205024Y-151181890D01*
X81350317Y-151181890D01*
X81349000Y-150918750D01*
X81190250Y-150760000D01*
X83582928Y-150760000D01*
X83586000Y-150974250D01*
X83744750Y-151133000D01*
X85344000Y-151133000D01*
X85344000Y-150283750D01*
X85598000Y-150283750D01*
X85598000Y-151133000D01*
X87197250Y-151133000D01*
X87356000Y-150974250D01*
X87359072Y-150760000D01*
X87346812Y-150635518D01*
X87310502Y-150515820D01*
X87251537Y-150405506D01*
X87172185Y-150308815D01*
X87075494Y-150229463D01*
X86965180Y-150170498D01*
X86845482Y-150134188D01*
X86721000Y-150121928D01*
X85756750Y-150125000D01*
X85598000Y-150283750D01*
X85344000Y-150283750D01*
X85185250Y-150125000D01*
X84221000Y-150121928D01*
X84096518Y-150134188D01*
X83976820Y-150170498D01*
X83866506Y-150229463D01*
X83769815Y-150308815D01*
X83690463Y-150405506D01*
X83631498Y-150515820D01*
X83595188Y-150635518D01*
X83582928Y-150760000D01*
X81190250Y-150760000D01*
X79941000Y-150760000D01*
X79687000Y-150760000D01*
X79667000Y-150760000D01*
X79667000Y-150506000D01*
X79687000Y-150506000D01*
X79687000Y-149256750D01*
X79941000Y-149256750D01*
X79941000Y-150506000D01*
X81190250Y-150506000D01*
X81349000Y-150347250D01*
X81352072Y-149733000D01*
X81339812Y-149608518D01*
X81303502Y-149488820D01*
X81244537Y-149378506D01*
X81165185Y-149281815D01*
X81068494Y-149202463D01*
X80958180Y-149143498D01*
X80838482Y-149107188D01*
X80714000Y-149094928D01*
X80099750Y-149098000D01*
X79941000Y-149256750D01*
X79687000Y-149256750D01*
X79528250Y-149098000D01*
X78914000Y-149094928D01*
X78789518Y-149107188D01*
X78669820Y-149143498D01*
X78559506Y-149202463D01*
X78462815Y-149281815D01*
X78383463Y-149378506D01*
X78324498Y-149488820D01*
X78318944Y-149507127D01*
X78252505Y-149440688D01*
X78001095Y-149272701D01*
X77721743Y-149156989D01*
X77425184Y-149098000D01*
X77122816Y-149098000D01*
X76826257Y-149156989D01*
X76660000Y-149225855D01*
X76660000Y-147041665D01*
X77679000Y-147041665D01*
X77679000Y-147324335D01*
X77734147Y-147601574D01*
X77842320Y-147862727D01*
X77999363Y-148097759D01*
X78199241Y-148297637D01*
X78434273Y-148454680D01*
X78695426Y-148562853D01*
X78972665Y-148618000D01*
X79255335Y-148618000D01*
X79532574Y-148562853D01*
X79793727Y-148454680D01*
X80028759Y-148297637D01*
X80228637Y-148097759D01*
X80385680Y-147862727D01*
X80493853Y-147601574D01*
X80549000Y-147324335D01*
X80549000Y-147041665D01*
X80493853Y-146764426D01*
X80385680Y-146503273D01*
X80228637Y-146268241D01*
X80028759Y-146068363D01*
X79793727Y-145911320D01*
X79532574Y-145803147D01*
X79255335Y-145748000D01*
X78972665Y-145748000D01*
X78695426Y-145803147D01*
X78434273Y-145911320D01*
X78199241Y-146068363D01*
X77999363Y-146268241D01*
X77842320Y-146503273D01*
X77734147Y-146764426D01*
X77679000Y-147041665D01*
X76660000Y-147041665D01*
X76660000Y-54660000D01*
X94340000Y-54660000D01*
X94340000Y-95984560D01*
G36*
X82654493Y-131447319D02*
G01*
X83164753Y-131957579D01*
X83696112Y-132312622D01*
X83690463Y-132319506D01*
X83631498Y-132429820D01*
X83595188Y-132549518D01*
X83582928Y-132674000D01*
X83582928Y-133674000D01*
X83595188Y-133798482D01*
X83631498Y-133918180D01*
X83690463Y-134028494D01*
X83769815Y-134125185D01*
X83866506Y-134204537D01*
X83976820Y-134263502D01*
X84096518Y-134299812D01*
X84221000Y-134312072D01*
X86721000Y-134312072D01*
X86845482Y-134299812D01*
X86965180Y-134263502D01*
X87075494Y-134204537D01*
X87172185Y-134125185D01*
X87251537Y-134028494D01*
X87310502Y-133918180D01*
X87346812Y-133798482D01*
X87359072Y-133674000D01*
X87359072Y-132674000D01*
X87346812Y-132549518D01*
X87310502Y-132429820D01*
X87262603Y-132340208D01*
X87835247Y-131957579D01*
X88345507Y-131447319D01*
X88689601Y-130932347D01*
X88689601Y-137454537D01*
X88685803Y-137493100D01*
X88700959Y-137646986D01*
X88745846Y-137794959D01*
X88745847Y-137794960D01*
X88818739Y-137931333D01*
X88859290Y-137980744D01*
X88892255Y-138020912D01*
X88892259Y-138020916D01*
X88916837Y-138050864D01*
X88946785Y-138075442D01*
X91199424Y-140328082D01*
X91161500Y-140518740D01*
X91161500Y-140609842D01*
X88090847Y-137539190D01*
X88066264Y-137509236D01*
X87946733Y-137411138D01*
X87810360Y-137338246D01*
X87662387Y-137293359D01*
X87547061Y-137282000D01*
X87547053Y-137282000D01*
X87508500Y-137278203D01*
X87469947Y-137282000D01*
X87102956Y-137282000D01*
X87172185Y-137225185D01*
X87251537Y-137128494D01*
X87310502Y-137018180D01*
X87346812Y-136898482D01*
X87359072Y-136774000D01*
X87356000Y-136559750D01*
X87197250Y-136401000D01*
X85598000Y-136401000D01*
X85598000Y-136421000D01*
X85344000Y-136421000D01*
X85344000Y-136401000D01*
X83744750Y-136401000D01*
X83586000Y-136559750D01*
X83582928Y-136774000D01*
X83595188Y-136898482D01*
X83631498Y-137018180D01*
X83690463Y-137128494D01*
X83769815Y-137225185D01*
X83839044Y-137282000D01*
X82293700Y-137282000D01*
X82293700Y-135774000D01*
X83582928Y-135774000D01*
X83586000Y-135988250D01*
X83744750Y-136147000D01*
X85344000Y-136147000D01*
X85344000Y-135297750D01*
X85598000Y-135297750D01*
X85598000Y-136147000D01*
X87197250Y-136147000D01*
X87356000Y-135988250D01*
X87359072Y-135774000D01*
X87346812Y-135649518D01*
X87310502Y-135529820D01*
X87251537Y-135419506D01*
X87172185Y-135322815D01*
X87075494Y-135243463D01*
X86965180Y-135184498D01*
X86845482Y-135148188D01*
X86721000Y-135135928D01*
X85756750Y-135139000D01*
X85598000Y-135297750D01*
X85344000Y-135297750D01*
X85185250Y-135139000D01*
X84221000Y-135135928D01*
X84096518Y-135148188D01*
X83976820Y-135184498D01*
X83866506Y-135243463D01*
X83769815Y-135322815D01*
X83690463Y-135419506D01*
X83631498Y-135529820D01*
X83595188Y-135649518D01*
X83582928Y-135774000D01*
X82293700Y-135774000D01*
X82293700Y-130907355D01*
X82654493Y-131447319D01*
G37*
X82654493Y-131447319D02*
X83164753Y-131957579D01*
X83696112Y-132312622D01*
X83690463Y-132319506D01*
X83631498Y-132429820D01*
X83595188Y-132549518D01*
X83582928Y-132674000D01*
X83582928Y-133674000D01*
X83595188Y-133798482D01*
X83631498Y-133918180D01*
X83690463Y-134028494D01*
X83769815Y-134125185D01*
X83866506Y-134204537D01*
X83976820Y-134263502D01*
X84096518Y-134299812D01*
X84221000Y-134312072D01*
X86721000Y-134312072D01*
X86845482Y-134299812D01*
X86965180Y-134263502D01*
X87075494Y-134204537D01*
X87172185Y-134125185D01*
X87251537Y-134028494D01*
X87310502Y-133918180D01*
X87346812Y-133798482D01*
X87359072Y-133674000D01*
X87359072Y-132674000D01*
X87346812Y-132549518D01*
X87310502Y-132429820D01*
X87262603Y-132340208D01*
X87835247Y-131957579D01*
X88345507Y-131447319D01*
X88689601Y-130932347D01*
X88689601Y-137454537D01*
X88685803Y-137493100D01*
X88700959Y-137646986D01*
X88745846Y-137794959D01*
X88745847Y-137794960D01*
X88818739Y-137931333D01*
X88859290Y-137980744D01*
X88892255Y-138020912D01*
X88892259Y-138020916D01*
X88916837Y-138050864D01*
X88946785Y-138075442D01*
X91199424Y-140328082D01*
X91161500Y-140518740D01*
X91161500Y-140609842D01*
X88090847Y-137539190D01*
X88066264Y-137509236D01*
X87946733Y-137411138D01*
X87810360Y-137338246D01*
X87662387Y-137293359D01*
X87547061Y-137282000D01*
X87547053Y-137282000D01*
X87508500Y-137278203D01*
X87469947Y-137282000D01*
X87102956Y-137282000D01*
X87172185Y-137225185D01*
X87251537Y-137128494D01*
X87310502Y-137018180D01*
X87346812Y-136898482D01*
X87359072Y-136774000D01*
X87356000Y-136559750D01*
X87197250Y-136401000D01*
X85598000Y-136401000D01*
X85598000Y-136421000D01*
X85344000Y-136421000D01*
X85344000Y-136401000D01*
X83744750Y-136401000D01*
X83586000Y-136559750D01*
X83582928Y-136774000D01*
X83595188Y-136898482D01*
X83631498Y-137018180D01*
X83690463Y-137128494D01*
X83769815Y-137225185D01*
X83839044Y-137282000D01*
X82293700Y-137282000D01*
X82293700Y-135774000D01*
X83582928Y-135774000D01*
X83586000Y-135988250D01*
X83744750Y-136147000D01*
X85344000Y-136147000D01*
X85344000Y-135297750D01*
X85598000Y-135297750D01*
X85598000Y-136147000D01*
X87197250Y-136147000D01*
X87356000Y-135988250D01*
X87359072Y-135774000D01*
X87346812Y-135649518D01*
X87310502Y-135529820D01*
X87251537Y-135419506D01*
X87172185Y-135322815D01*
X87075494Y-135243463D01*
X86965180Y-135184498D01*
X86845482Y-135148188D01*
X86721000Y-135135928D01*
X85756750Y-135139000D01*
X85598000Y-135297750D01*
X85344000Y-135297750D01*
X85185250Y-135139000D01*
X84221000Y-135135928D01*
X84096518Y-135148188D01*
X83976820Y-135184498D01*
X83866506Y-135243463D01*
X83769815Y-135322815D01*
X83690463Y-135419506D01*
X83631498Y-135529820D01*
X83595188Y-135649518D01*
X83582928Y-135774000D01*
X82293700Y-135774000D01*
X82293700Y-130907355D01*
X82654493Y-131447319D01*
G36*
X82654493Y-116381247D02*
G01*
X83164753Y-116891507D01*
X83676178Y-117233231D01*
X83631498Y-117316820D01*
X83595188Y-117436518D01*
X83582928Y-117561000D01*
X83582928Y-118561000D01*
X83595188Y-118685482D01*
X83631498Y-118805180D01*
X83690463Y-118915494D01*
X83769815Y-119012185D01*
X83866506Y-119091537D01*
X83976820Y-119150502D01*
X84096518Y-119186812D01*
X84221000Y-119199072D01*
X86721000Y-119199072D01*
X86845482Y-119186812D01*
X86965180Y-119150502D01*
X87075494Y-119091537D01*
X87172185Y-119012185D01*
X87251537Y-118915494D01*
X87310502Y-118805180D01*
X87346812Y-118685482D01*
X87359072Y-118561000D01*
X87359072Y-117561000D01*
X87346812Y-117436518D01*
X87310502Y-117316820D01*
X87281085Y-117261786D01*
X87835247Y-116891507D01*
X88139301Y-116587453D01*
X88139301Y-120195242D01*
X87300545Y-121033998D01*
X87197252Y-121033998D01*
X87356000Y-120875250D01*
X87359072Y-120661000D01*
X87346812Y-120536518D01*
X87310502Y-120416820D01*
X87251537Y-120306506D01*
X87172185Y-120209815D01*
X87075494Y-120130463D01*
X86965180Y-120071498D01*
X86845482Y-120035188D01*
X86721000Y-120022928D01*
X85756750Y-120026000D01*
X85598000Y-120184750D01*
X85598000Y-121034000D01*
X85618000Y-121034000D01*
X85618000Y-121288000D01*
X85598000Y-121288000D01*
X85598000Y-122137250D01*
X85756750Y-122296000D01*
X86037648Y-122296895D01*
X84943185Y-123391358D01*
X84913237Y-123415936D01*
X84888659Y-123445884D01*
X84888655Y-123445888D01*
X84855690Y-123486056D01*
X84815139Y-123535467D01*
X84776177Y-123608360D01*
X84742246Y-123671841D01*
X84722805Y-123735928D01*
X84221000Y-123735928D01*
X84096518Y-123748188D01*
X83976820Y-123784498D01*
X83866506Y-123843463D01*
X83769815Y-123922815D01*
X83690463Y-124019506D01*
X83631498Y-124129820D01*
X83595188Y-124249518D01*
X83582928Y-124374000D01*
X83582928Y-125374000D01*
X83595188Y-125498482D01*
X83631498Y-125618180D01*
X83690463Y-125728494D01*
X83769815Y-125825185D01*
X83800891Y-125850688D01*
X83764755Y-125865656D01*
X83164753Y-126266565D01*
X82654493Y-126776825D01*
X82293700Y-127316789D01*
X82293700Y-121661000D01*
X83582928Y-121661000D01*
X83595188Y-121785482D01*
X83631498Y-121905180D01*
X83690463Y-122015494D01*
X83769815Y-122112185D01*
X83866506Y-122191537D01*
X83976820Y-122250502D01*
X84096518Y-122286812D01*
X84221000Y-122299072D01*
X85185250Y-122296000D01*
X85344000Y-122137250D01*
X85344000Y-121288000D01*
X83744750Y-121288000D01*
X83586000Y-121446750D01*
X83582928Y-121661000D01*
X82293700Y-121661000D01*
X82293700Y-120661000D01*
X83582928Y-120661000D01*
X83586000Y-120875250D01*
X83744750Y-121034000D01*
X85344000Y-121034000D01*
X85344000Y-120184750D01*
X85185250Y-120026000D01*
X84221000Y-120022928D01*
X84096518Y-120035188D01*
X83976820Y-120071498D01*
X83866506Y-120130463D01*
X83769815Y-120209815D01*
X83690463Y-120306506D01*
X83631498Y-120416820D01*
X83595188Y-120536518D01*
X83582928Y-120661000D01*
X82293700Y-120661000D01*
X82293700Y-115841283D01*
X82654493Y-116381247D01*
G37*
X82654493Y-116381247D02*
X83164753Y-116891507D01*
X83676178Y-117233231D01*
X83631498Y-117316820D01*
X83595188Y-117436518D01*
X83582928Y-117561000D01*
X83582928Y-118561000D01*
X83595188Y-118685482D01*
X83631498Y-118805180D01*
X83690463Y-118915494D01*
X83769815Y-119012185D01*
X83866506Y-119091537D01*
X83976820Y-119150502D01*
X84096518Y-119186812D01*
X84221000Y-119199072D01*
X86721000Y-119199072D01*
X86845482Y-119186812D01*
X86965180Y-119150502D01*
X87075494Y-119091537D01*
X87172185Y-119012185D01*
X87251537Y-118915494D01*
X87310502Y-118805180D01*
X87346812Y-118685482D01*
X87359072Y-118561000D01*
X87359072Y-117561000D01*
X87346812Y-117436518D01*
X87310502Y-117316820D01*
X87281085Y-117261786D01*
X87835247Y-116891507D01*
X88139301Y-116587453D01*
X88139301Y-120195242D01*
X87300545Y-121033998D01*
X87197252Y-121033998D01*
X87356000Y-120875250D01*
X87359072Y-120661000D01*
X87346812Y-120536518D01*
X87310502Y-120416820D01*
X87251537Y-120306506D01*
X87172185Y-120209815D01*
X87075494Y-120130463D01*
X86965180Y-120071498D01*
X86845482Y-120035188D01*
X86721000Y-120022928D01*
X85756750Y-120026000D01*
X85598000Y-120184750D01*
X85598000Y-121034000D01*
X85618000Y-121034000D01*
X85618000Y-121288000D01*
X85598000Y-121288000D01*
X85598000Y-122137250D01*
X85756750Y-122296000D01*
X86037648Y-122296895D01*
X84943185Y-123391358D01*
X84913237Y-123415936D01*
X84888659Y-123445884D01*
X84888655Y-123445888D01*
X84855690Y-123486056D01*
X84815139Y-123535467D01*
X84776177Y-123608360D01*
X84742246Y-123671841D01*
X84722805Y-123735928D01*
X84221000Y-123735928D01*
X84096518Y-123748188D01*
X83976820Y-123784498D01*
X83866506Y-123843463D01*
X83769815Y-123922815D01*
X83690463Y-124019506D01*
X83631498Y-124129820D01*
X83595188Y-124249518D01*
X83582928Y-124374000D01*
X83582928Y-125374000D01*
X83595188Y-125498482D01*
X83631498Y-125618180D01*
X83690463Y-125728494D01*
X83769815Y-125825185D01*
X83800891Y-125850688D01*
X83764755Y-125865656D01*
X83164753Y-126266565D01*
X82654493Y-126776825D01*
X82293700Y-127316789D01*
X82293700Y-121661000D01*
X83582928Y-121661000D01*
X83595188Y-121785482D01*
X83631498Y-121905180D01*
X83690463Y-122015494D01*
X83769815Y-122112185D01*
X83866506Y-122191537D01*
X83976820Y-122250502D01*
X84096518Y-122286812D01*
X84221000Y-122299072D01*
X85185250Y-122296000D01*
X85344000Y-122137250D01*
X85344000Y-121288000D01*
X83744750Y-121288000D01*
X83586000Y-121446750D01*
X83582928Y-121661000D01*
X82293700Y-121661000D01*
X82293700Y-120661000D01*
X83582928Y-120661000D01*
X83586000Y-120875250D01*
X83744750Y-121034000D01*
X85344000Y-121034000D01*
X85344000Y-120184750D01*
X85185250Y-120026000D01*
X84221000Y-120022928D01*
X84096518Y-120035188D01*
X83976820Y-120071498D01*
X83866506Y-120130463D01*
X83769815Y-120209815D01*
X83690463Y-120306506D01*
X83631498Y-120416820D01*
X83595188Y-120536518D01*
X83582928Y-120661000D01*
X82293700Y-120661000D01*
X82293700Y-115841283D01*
X82654493Y-116381247D01*
G36*
X82654493Y-101475319D02*
G01*
X83164753Y-101985579D01*
X83696112Y-102340622D01*
X83690463Y-102347506D01*
X83631498Y-102457820D01*
X83595188Y-102577518D01*
X83582928Y-102702000D01*
X83582928Y-103702000D01*
X83595188Y-103826482D01*
X83631498Y-103946180D01*
X83690463Y-104056494D01*
X83769815Y-104153185D01*
X83866506Y-104232537D01*
X83976820Y-104291502D01*
X84096518Y-104327812D01*
X84221000Y-104340072D01*
X86721000Y-104340072D01*
X86845482Y-104327812D01*
X86965180Y-104291502D01*
X87075494Y-104232537D01*
X87172185Y-104153185D01*
X87251537Y-104056494D01*
X87310502Y-103946180D01*
X87346812Y-103826482D01*
X87359072Y-103702000D01*
X87359072Y-102702000D01*
X87346812Y-102577518D01*
X87310502Y-102457820D01*
X87262603Y-102368208D01*
X87835247Y-101985579D01*
X88139300Y-101681526D01*
X88139301Y-111504547D01*
X87835247Y-111200493D01*
X87235245Y-110799584D01*
X87122562Y-110752909D01*
X87172185Y-110712185D01*
X87251537Y-110615494D01*
X87310502Y-110505180D01*
X87346812Y-110385482D01*
X87359072Y-110261000D01*
X87359072Y-109261000D01*
X87346812Y-109136518D01*
X87310502Y-109016820D01*
X87251537Y-108906506D01*
X87172185Y-108809815D01*
X87075494Y-108730463D01*
X86965180Y-108671498D01*
X86845482Y-108635188D01*
X86721000Y-108622928D01*
X84221000Y-108622928D01*
X84096518Y-108635188D01*
X83976820Y-108671498D01*
X83866506Y-108730463D01*
X83769815Y-108809815D01*
X83690463Y-108906506D01*
X83631498Y-109016820D01*
X83595188Y-109136518D01*
X83582928Y-109261000D01*
X83582928Y-110261000D01*
X83595188Y-110385482D01*
X83631498Y-110505180D01*
X83690463Y-110615494D01*
X83769815Y-110712185D01*
X83838893Y-110768875D01*
X83764755Y-110799584D01*
X83164753Y-111200493D01*
X82654493Y-111710753D01*
X82293700Y-112250717D01*
X82293700Y-106802000D01*
X83582928Y-106802000D01*
X83595188Y-106926482D01*
X83631498Y-107046180D01*
X83690463Y-107156494D01*
X83769815Y-107253185D01*
X83866506Y-107332537D01*
X83976820Y-107391502D01*
X84096518Y-107427812D01*
X84221000Y-107440072D01*
X85185250Y-107437000D01*
X85344000Y-107278250D01*
X85344000Y-106429000D01*
X85598000Y-106429000D01*
X85598000Y-107278250D01*
X85756750Y-107437000D01*
X86721000Y-107440072D01*
X86845482Y-107427812D01*
X86965180Y-107391502D01*
X87075494Y-107332537D01*
X87172185Y-107253185D01*
X87251537Y-107156494D01*
X87310502Y-107046180D01*
X87346812Y-106926482D01*
X87359072Y-106802000D01*
X87356000Y-106587750D01*
X87197250Y-106429000D01*
X85598000Y-106429000D01*
X85344000Y-106429000D01*
X83744750Y-106429000D01*
X83586000Y-106587750D01*
X83582928Y-106802000D01*
X82293700Y-106802000D01*
X82293700Y-105802000D01*
X83582928Y-105802000D01*
X83586000Y-106016250D01*
X83744750Y-106175000D01*
X85344000Y-106175000D01*
X85344000Y-105325750D01*
X85598000Y-105325750D01*
X85598000Y-106175000D01*
X87197250Y-106175000D01*
X87356000Y-106016250D01*
X87359072Y-105802000D01*
X87346812Y-105677518D01*
X87310502Y-105557820D01*
X87251537Y-105447506D01*
X87172185Y-105350815D01*
X87075494Y-105271463D01*
X86965180Y-105212498D01*
X86845482Y-105176188D01*
X86721000Y-105163928D01*
X85756750Y-105167000D01*
X85598000Y-105325750D01*
X85344000Y-105325750D01*
X85185250Y-105167000D01*
X84221000Y-105163928D01*
X84096518Y-105176188D01*
X83976820Y-105212498D01*
X83866506Y-105271463D01*
X83769815Y-105350815D01*
X83690463Y-105447506D01*
X83631498Y-105557820D01*
X83595188Y-105677518D01*
X83582928Y-105802000D01*
X82293700Y-105802000D01*
X82293700Y-100935355D01*
X82654493Y-101475319D01*
G37*
X82654493Y-101475319D02*
X83164753Y-101985579D01*
X83696112Y-102340622D01*
X83690463Y-102347506D01*
X83631498Y-102457820D01*
X83595188Y-102577518D01*
X83582928Y-102702000D01*
X83582928Y-103702000D01*
X83595188Y-103826482D01*
X83631498Y-103946180D01*
X83690463Y-104056494D01*
X83769815Y-104153185D01*
X83866506Y-104232537D01*
X83976820Y-104291502D01*
X84096518Y-104327812D01*
X84221000Y-104340072D01*
X86721000Y-104340072D01*
X86845482Y-104327812D01*
X86965180Y-104291502D01*
X87075494Y-104232537D01*
X87172185Y-104153185D01*
X87251537Y-104056494D01*
X87310502Y-103946180D01*
X87346812Y-103826482D01*
X87359072Y-103702000D01*
X87359072Y-102702000D01*
X87346812Y-102577518D01*
X87310502Y-102457820D01*
X87262603Y-102368208D01*
X87835247Y-101985579D01*
X88139300Y-101681526D01*
X88139301Y-111504547D01*
X87835247Y-111200493D01*
X87235245Y-110799584D01*
X87122562Y-110752909D01*
X87172185Y-110712185D01*
X87251537Y-110615494D01*
X87310502Y-110505180D01*
X87346812Y-110385482D01*
X87359072Y-110261000D01*
X87359072Y-109261000D01*
X87346812Y-109136518D01*
X87310502Y-109016820D01*
X87251537Y-108906506D01*
X87172185Y-108809815D01*
X87075494Y-108730463D01*
X86965180Y-108671498D01*
X86845482Y-108635188D01*
X86721000Y-108622928D01*
X84221000Y-108622928D01*
X84096518Y-108635188D01*
X83976820Y-108671498D01*
X83866506Y-108730463D01*
X83769815Y-108809815D01*
X83690463Y-108906506D01*
X83631498Y-109016820D01*
X83595188Y-109136518D01*
X83582928Y-109261000D01*
X83582928Y-110261000D01*
X83595188Y-110385482D01*
X83631498Y-110505180D01*
X83690463Y-110615494D01*
X83769815Y-110712185D01*
X83838893Y-110768875D01*
X83764755Y-110799584D01*
X83164753Y-111200493D01*
X82654493Y-111710753D01*
X82293700Y-112250717D01*
X82293700Y-106802000D01*
X83582928Y-106802000D01*
X83595188Y-106926482D01*
X83631498Y-107046180D01*
X83690463Y-107156494D01*
X83769815Y-107253185D01*
X83866506Y-107332537D01*
X83976820Y-107391502D01*
X84096518Y-107427812D01*
X84221000Y-107440072D01*
X85185250Y-107437000D01*
X85344000Y-107278250D01*
X85344000Y-106429000D01*
X85598000Y-106429000D01*
X85598000Y-107278250D01*
X85756750Y-107437000D01*
X86721000Y-107440072D01*
X86845482Y-107427812D01*
X86965180Y-107391502D01*
X87075494Y-107332537D01*
X87172185Y-107253185D01*
X87251537Y-107156494D01*
X87310502Y-107046180D01*
X87346812Y-106926482D01*
X87359072Y-106802000D01*
X87356000Y-106587750D01*
X87197250Y-106429000D01*
X85598000Y-106429000D01*
X85344000Y-106429000D01*
X83744750Y-106429000D01*
X83586000Y-106587750D01*
X83582928Y-106802000D01*
X82293700Y-106802000D01*
X82293700Y-105802000D01*
X83582928Y-105802000D01*
X83586000Y-106016250D01*
X83744750Y-106175000D01*
X85344000Y-106175000D01*
X85344000Y-105325750D01*
X85598000Y-105325750D01*
X85598000Y-106175000D01*
X87197250Y-106175000D01*
X87356000Y-106016250D01*
X87359072Y-105802000D01*
X87346812Y-105677518D01*
X87310502Y-105557820D01*
X87251537Y-105447506D01*
X87172185Y-105350815D01*
X87075494Y-105271463D01*
X86965180Y-105212498D01*
X86845482Y-105176188D01*
X86721000Y-105163928D01*
X85756750Y-105167000D01*
X85598000Y-105325750D01*
X85344000Y-105325750D01*
X85185250Y-105167000D01*
X84221000Y-105163928D01*
X84096518Y-105176188D01*
X83976820Y-105212498D01*
X83866506Y-105271463D01*
X83769815Y-105350815D01*
X83690463Y-105447506D01*
X83631498Y-105557820D01*
X83595188Y-105677518D01*
X83582928Y-105802000D01*
X82293700Y-105802000D01*
X82293700Y-100935355D01*
X82654493Y-101475319D01*
G36*
X94340000Y-100264371D02*
G01*
X94254180Y-100218498D01*
X94134482Y-100182188D01*
X94010000Y-100169928D01*
X92995750Y-100173000D01*
X92837000Y-100331750D01*
X92837000Y-101981000D01*
X92857000Y-101981000D01*
X92857000Y-102235000D01*
X92837000Y-102235000D01*
X92837000Y-103884250D01*
X92995750Y-104043000D01*
X94010000Y-104046072D01*
X94134482Y-104033812D01*
X94254180Y-103997502D01*
X94340001Y-103951629D01*
X94340001Y-106763943D01*
X91777600Y-104201543D01*
X91777600Y-104044959D01*
X92424250Y-104043000D01*
X92583000Y-103884250D01*
X92583000Y-102235000D01*
X92563000Y-102235000D01*
X92563000Y-101981000D01*
X92583000Y-101981000D01*
X92583000Y-100331750D01*
X92424250Y-100173000D01*
X91777600Y-100171041D01*
X91777600Y-98732195D01*
X91793434Y-98742775D01*
X92145581Y-98888639D01*
X92519419Y-98963000D01*
X92900581Y-98963000D01*
X93274419Y-98888639D01*
X93626566Y-98742775D01*
X93943491Y-98531013D01*
X94213013Y-98261491D01*
X94340000Y-98071440D01*
X94340000Y-100264371D01*
G37*
X94340000Y-100264371D02*
X94254180Y-100218498D01*
X94134482Y-100182188D01*
X94010000Y-100169928D01*
X92995750Y-100173000D01*
X92837000Y-100331750D01*
X92837000Y-101981000D01*
X92857000Y-101981000D01*
X92857000Y-102235000D01*
X92837000Y-102235000D01*
X92837000Y-103884250D01*
X92995750Y-104043000D01*
X94010000Y-104046072D01*
X94134482Y-104033812D01*
X94254180Y-103997502D01*
X94340001Y-103951629D01*
X94340001Y-106763943D01*
X91777600Y-104201543D01*
X91777600Y-104044959D01*
X92424250Y-104043000D01*
X92583000Y-103884250D01*
X92583000Y-102235000D01*
X92563000Y-102235000D01*
X92563000Y-101981000D01*
X92583000Y-101981000D01*
X92583000Y-100331750D01*
X92424250Y-100173000D01*
X91777600Y-100171041D01*
X91777600Y-98732195D01*
X91793434Y-98742775D01*
X92145581Y-98888639D01*
X92519419Y-98963000D01*
X92900581Y-98963000D01*
X93274419Y-98888639D01*
X93626566Y-98742775D01*
X93943491Y-98531013D01*
X94213013Y-98261491D01*
X94340000Y-98071440D01*
X94340000Y-100264371D01*
M02*
