G04 #@! TF.GenerationSoftware,KiCad,Pcbnew,(5.1.5-0-10_14)*
G04 #@! TF.CreationDate,2020-06-01T21:41:54-04:00*
G04 #@! TF.ProjectId,AYOMSM - VCA Control Board,41594f4d-534d-4202-9d20-56434120436f,rev?*
G04 #@! TF.SameCoordinates,Original*
G04 #@! TF.FileFunction,Copper,L1,Top*
G04 #@! TF.FilePolarity,Positive*
%FSLAX46Y46*%
G04 Gerber Fmt 4.6, Leading zero omitted, Abs format (unit mm)*
G04 Created by KiCad (PCBNEW (5.1.5-0-10_14)) date 2020-06-01 21:41:54*
%MOMM*%
%LPD*%
G04 APERTURE LIST*
%ADD10R,1.700000X1.700000*%
%ADD11O,1.700000X1.700000*%
%ADD12C,1.440000*%
%ADD13R,1.800000X1.800000*%
%ADD14C,1.800000*%
%ADD15O,2.720000X3.240000*%
%ADD16C,0.100000*%
%ADD17C,2.600000*%
%ADD18O,2.000000X3.000000*%
%ADD19R,2.500000X1.000000*%
%ADD20C,0.900000*%
%ADD21C,1.000000*%
%ADD22C,0.400000*%
%ADD23C,0.254000*%
G04 APERTURE END LIST*
D10*
X79150000Y-90614500D03*
D11*
X81690000Y-90614500D03*
X84230000Y-90614500D03*
X86770000Y-90614500D03*
X89310000Y-90614500D03*
X91850000Y-90614500D03*
D10*
X92646500Y-127965000D03*
D11*
X92646500Y-130505000D03*
X92646500Y-133045000D03*
X92646500Y-135585000D03*
X92646500Y-138125000D03*
X92646500Y-140665000D03*
X92646500Y-143205000D03*
X92646500Y-145745000D03*
X92646500Y-148285000D03*
X92646500Y-150825000D03*
D12*
X88030000Y-77470000D03*
X85490000Y-77470000D03*
X82950000Y-77470000D03*
X88050000Y-71437500D03*
X85510000Y-71437500D03*
X82970000Y-71437500D03*
D13*
X83000000Y-67056000D03*
D14*
X85500000Y-67056000D03*
X88000000Y-67056000D03*
D15*
X90300000Y-59556000D03*
X80700000Y-59556000D03*
G04 #@! TA.AperFunction,ComponentPad*
D16*
G36*
X79263211Y-101192130D02*
G01*
X79326309Y-101201490D01*
X79388185Y-101216989D01*
X79448244Y-101238478D01*
X79505908Y-101265751D01*
X79560621Y-101298545D01*
X79611856Y-101336543D01*
X79659119Y-101379381D01*
X79701957Y-101426644D01*
X79739955Y-101477879D01*
X79772749Y-101532592D01*
X79800022Y-101590256D01*
X79821511Y-101650315D01*
X79837010Y-101712191D01*
X79846370Y-101775289D01*
X79849500Y-101839000D01*
X79849500Y-103139000D01*
X79846370Y-103202711D01*
X79837010Y-103265809D01*
X79821511Y-103327685D01*
X79800022Y-103387744D01*
X79772749Y-103445408D01*
X79739955Y-103500121D01*
X79701957Y-103551356D01*
X79659119Y-103598619D01*
X79611856Y-103641457D01*
X79560621Y-103679455D01*
X79505908Y-103712249D01*
X79448244Y-103739522D01*
X79388185Y-103761011D01*
X79326309Y-103776510D01*
X79263211Y-103785870D01*
X79199500Y-103789000D01*
X77899500Y-103789000D01*
X77835789Y-103785870D01*
X77772691Y-103776510D01*
X77710815Y-103761011D01*
X77650756Y-103739522D01*
X77593092Y-103712249D01*
X77538379Y-103679455D01*
X77487144Y-103641457D01*
X77439881Y-103598619D01*
X77397043Y-103551356D01*
X77359045Y-103500121D01*
X77326251Y-103445408D01*
X77298978Y-103387744D01*
X77277489Y-103327685D01*
X77261990Y-103265809D01*
X77252630Y-103202711D01*
X77249500Y-103139000D01*
X77249500Y-101839000D01*
X77252630Y-101775289D01*
X77261990Y-101712191D01*
X77277489Y-101650315D01*
X77298978Y-101590256D01*
X77326251Y-101532592D01*
X77359045Y-101477879D01*
X77397043Y-101426644D01*
X77439881Y-101379381D01*
X77487144Y-101336543D01*
X77538379Y-101298545D01*
X77593092Y-101265751D01*
X77650756Y-101238478D01*
X77710815Y-101216989D01*
X77772691Y-101201490D01*
X77835789Y-101192130D01*
X77899500Y-101189000D01*
X79199500Y-101189000D01*
X79263211Y-101192130D01*
G37*
G04 #@! TD.AperFunction*
D17*
X78549500Y-97409000D03*
D18*
X80822800Y-85189800D03*
X85522800Y-85189800D03*
X90222800Y-85189800D03*
D19*
X85471000Y-94902000D03*
X85471000Y-103202000D03*
X85471000Y-106302000D03*
X85471000Y-109761000D03*
X85471000Y-118061000D03*
X85471000Y-121161000D03*
X85471000Y-124874000D03*
X85471000Y-133174000D03*
X85471000Y-136274000D03*
X85471000Y-139860000D03*
X85471000Y-148160000D03*
X85471000Y-151260000D03*
D20*
X88821200Y-124406700D03*
X86593400Y-123571500D03*
D21*
X78548100Y-94806900D03*
D22*
X85500000Y-148160000D02*
X85500000Y-151260000D01*
X85500000Y-118146000D02*
X85500000Y-121246000D01*
X85500000Y-106238500D02*
X85500000Y-103138500D01*
X85500000Y-136253000D02*
X85500000Y-133153000D01*
X92646500Y-150825000D02*
X92646500Y-148285000D01*
X85500000Y-138859700D02*
X90089200Y-134270500D01*
X90089200Y-134270500D02*
X90089200Y-93725600D01*
X90089200Y-93725600D02*
X91850000Y-91964800D01*
X85500000Y-139860000D02*
X85500000Y-138859700D01*
X91850000Y-90614500D02*
X91850000Y-91964800D01*
X79150000Y-90614500D02*
X83374000Y-94838500D01*
X83374000Y-94838500D02*
X85500000Y-94838500D01*
X85500000Y-109846000D02*
X85500000Y-108845700D01*
X81690000Y-90614500D02*
X84547900Y-93472400D01*
X84547900Y-93472400D02*
X86668200Y-93472400D01*
X86668200Y-93472400D02*
X89008300Y-95812500D01*
X89008300Y-95812500D02*
X89008300Y-105337400D01*
X89008300Y-105337400D02*
X85500000Y-108845700D01*
X85500000Y-69117500D02*
X85500000Y-67056000D01*
X84190001Y-70427499D02*
X85500000Y-69117500D01*
X84190001Y-79068499D02*
X84190001Y-70427499D01*
X83312000Y-79946500D02*
X84190001Y-79068499D01*
X83312000Y-87122000D02*
X83312000Y-79946500D01*
X84230000Y-88040000D02*
X83312000Y-87122000D01*
X84230000Y-90614500D02*
X84230000Y-88040000D01*
X80822800Y-85189800D02*
X79322500Y-85189800D01*
X79322500Y-85189800D02*
X77799600Y-86712700D01*
X77799600Y-86712700D02*
X77799600Y-91735100D01*
X77799600Y-91735100D02*
X81645500Y-95581000D01*
X81645500Y-95581000D02*
X81645500Y-119869100D01*
X81645500Y-119869100D02*
X84060500Y-122284100D01*
X84060500Y-122284100D02*
X86698600Y-122284100D01*
X86698600Y-122284100D02*
X88821200Y-124406700D01*
X92646500Y-133045000D02*
X91296100Y-131694600D01*
X91296100Y-131694600D02*
X91296100Y-126056900D01*
X91296100Y-126056900D02*
X93236500Y-124116500D01*
X93236500Y-124116500D02*
X93236500Y-86703200D01*
X93236500Y-86703200D02*
X91723100Y-85189800D01*
X90222800Y-85189800D02*
X91723100Y-85189800D01*
X80945100Y-97203900D02*
X80945100Y-120159000D01*
X80945100Y-120159000D02*
X84357600Y-123571500D01*
X84357600Y-123571500D02*
X86593400Y-123571500D01*
X80945100Y-97203900D02*
X78548100Y-94806900D01*
X88050000Y-71437500D02*
X93999500Y-77387000D01*
X93999500Y-77387000D02*
X93999500Y-141852000D01*
X93999500Y-141852000D02*
X92646500Y-143205000D01*
X88000000Y-67056000D02*
X88050000Y-67106000D01*
X88050000Y-67106000D02*
X88050000Y-71437500D01*
X76731000Y-77676500D02*
X82970000Y-71437500D01*
X76731000Y-146835000D02*
X76731000Y-77676500D01*
X88265000Y-150126500D02*
X88265000Y-152474990D01*
X82370990Y-152474990D02*
X76731000Y-146835000D01*
X88265000Y-152474990D02*
X82370990Y-152474990D01*
X92646500Y-145745000D02*
X88265000Y-150126500D01*
X82970000Y-67086000D02*
X83000000Y-67056000D01*
X82970000Y-71437500D02*
X82970000Y-67086000D01*
D23*
G36*
X94340001Y-152340000D02*
G01*
X89100000Y-152340000D01*
X89100000Y-151181890D01*
X91205024Y-151181890D01*
X91249675Y-151329099D01*
X91374859Y-151591920D01*
X91548912Y-151825269D01*
X91765145Y-152020178D01*
X92015248Y-152169157D01*
X92289609Y-152266481D01*
X92519500Y-152145814D01*
X92519500Y-150952000D01*
X92773500Y-150952000D01*
X92773500Y-152145814D01*
X93003391Y-152266481D01*
X93277752Y-152169157D01*
X93527855Y-152020178D01*
X93744088Y-151825269D01*
X93918141Y-151591920D01*
X94043325Y-151329099D01*
X94087976Y-151181890D01*
X93966655Y-150952000D01*
X92773500Y-150952000D01*
X92519500Y-150952000D01*
X91326345Y-150952000D01*
X91205024Y-151181890D01*
X89100000Y-151181890D01*
X89100000Y-150472367D01*
X91161500Y-148410868D01*
X91161500Y-148412002D01*
X91326344Y-148412002D01*
X91205024Y-148641890D01*
X91249675Y-148789099D01*
X91374859Y-149051920D01*
X91548912Y-149285269D01*
X91765145Y-149480178D01*
X91890755Y-149555000D01*
X91765145Y-149629822D01*
X91548912Y-149824731D01*
X91374859Y-150058080D01*
X91249675Y-150320901D01*
X91205024Y-150468110D01*
X91326345Y-150698000D01*
X92519500Y-150698000D01*
X92519500Y-148412000D01*
X92773500Y-148412000D01*
X92773500Y-150698000D01*
X93966655Y-150698000D01*
X94087976Y-150468110D01*
X94043325Y-150320901D01*
X93918141Y-150058080D01*
X93744088Y-149824731D01*
X93527855Y-149629822D01*
X93402245Y-149555000D01*
X93527855Y-149480178D01*
X93744088Y-149285269D01*
X93918141Y-149051920D01*
X94043325Y-148789099D01*
X94087976Y-148641890D01*
X93966655Y-148412000D01*
X92773500Y-148412000D01*
X92519500Y-148412000D01*
X92499500Y-148412000D01*
X92499500Y-148158000D01*
X92519500Y-148158000D01*
X92519500Y-148138000D01*
X92773500Y-148138000D01*
X92773500Y-148158000D01*
X93966655Y-148158000D01*
X94087976Y-147928110D01*
X94043325Y-147780901D01*
X93918141Y-147518080D01*
X93744088Y-147284731D01*
X93527855Y-147089822D01*
X93410966Y-147020195D01*
X93593132Y-146898475D01*
X93799975Y-146691632D01*
X93962490Y-146448411D01*
X94074432Y-146178158D01*
X94131500Y-145891260D01*
X94131500Y-145598740D01*
X94074432Y-145311842D01*
X93962490Y-145041589D01*
X93799975Y-144798368D01*
X93593132Y-144591525D01*
X93418740Y-144475000D01*
X93593132Y-144358475D01*
X93799975Y-144151632D01*
X93962490Y-143908411D01*
X94074432Y-143638158D01*
X94131500Y-143351260D01*
X94131500Y-143058740D01*
X94105307Y-142927061D01*
X94340001Y-142692368D01*
X94340001Y-152340000D01*
G37*
X94340001Y-152340000D02*
X89100000Y-152340000D01*
X89100000Y-151181890D01*
X91205024Y-151181890D01*
X91249675Y-151329099D01*
X91374859Y-151591920D01*
X91548912Y-151825269D01*
X91765145Y-152020178D01*
X92015248Y-152169157D01*
X92289609Y-152266481D01*
X92519500Y-152145814D01*
X92519500Y-150952000D01*
X92773500Y-150952000D01*
X92773500Y-152145814D01*
X93003391Y-152266481D01*
X93277752Y-152169157D01*
X93527855Y-152020178D01*
X93744088Y-151825269D01*
X93918141Y-151591920D01*
X94043325Y-151329099D01*
X94087976Y-151181890D01*
X93966655Y-150952000D01*
X92773500Y-150952000D01*
X92519500Y-150952000D01*
X91326345Y-150952000D01*
X91205024Y-151181890D01*
X89100000Y-151181890D01*
X89100000Y-150472367D01*
X91161500Y-148410868D01*
X91161500Y-148412002D01*
X91326344Y-148412002D01*
X91205024Y-148641890D01*
X91249675Y-148789099D01*
X91374859Y-149051920D01*
X91548912Y-149285269D01*
X91765145Y-149480178D01*
X91890755Y-149555000D01*
X91765145Y-149629822D01*
X91548912Y-149824731D01*
X91374859Y-150058080D01*
X91249675Y-150320901D01*
X91205024Y-150468110D01*
X91326345Y-150698000D01*
X92519500Y-150698000D01*
X92519500Y-148412000D01*
X92773500Y-148412000D01*
X92773500Y-150698000D01*
X93966655Y-150698000D01*
X94087976Y-150468110D01*
X94043325Y-150320901D01*
X93918141Y-150058080D01*
X93744088Y-149824731D01*
X93527855Y-149629822D01*
X93402245Y-149555000D01*
X93527855Y-149480178D01*
X93744088Y-149285269D01*
X93918141Y-149051920D01*
X94043325Y-148789099D01*
X94087976Y-148641890D01*
X93966655Y-148412000D01*
X92773500Y-148412000D01*
X92519500Y-148412000D01*
X92499500Y-148412000D01*
X92499500Y-148158000D01*
X92519500Y-148158000D01*
X92519500Y-148138000D01*
X92773500Y-148138000D01*
X92773500Y-148158000D01*
X93966655Y-148158000D01*
X94087976Y-147928110D01*
X94043325Y-147780901D01*
X93918141Y-147518080D01*
X93744088Y-147284731D01*
X93527855Y-147089822D01*
X93410966Y-147020195D01*
X93593132Y-146898475D01*
X93799975Y-146691632D01*
X93962490Y-146448411D01*
X94074432Y-146178158D01*
X94131500Y-145891260D01*
X94131500Y-145598740D01*
X94074432Y-145311842D01*
X93962490Y-145041589D01*
X93799975Y-144798368D01*
X93593132Y-144591525D01*
X93418740Y-144475000D01*
X93593132Y-144358475D01*
X93799975Y-144151632D01*
X93962490Y-143908411D01*
X94074432Y-143638158D01*
X94131500Y-143351260D01*
X94131500Y-143058740D01*
X94105307Y-142927061D01*
X94340001Y-142692368D01*
X94340001Y-152340000D01*
G36*
X80110100Y-100608275D02*
G01*
X80093680Y-100599498D01*
X79973982Y-100563188D01*
X79849500Y-100550928D01*
X78835250Y-100554000D01*
X78676500Y-100712750D01*
X78676500Y-102362000D01*
X78696500Y-102362000D01*
X78696500Y-102616000D01*
X78676500Y-102616000D01*
X78676500Y-104265250D01*
X78835250Y-104424000D01*
X79849500Y-104427072D01*
X79973982Y-104414812D01*
X80093680Y-104378502D01*
X80110100Y-104369725D01*
X80110101Y-120117971D01*
X80106060Y-120159000D01*
X80122182Y-120322688D01*
X80169928Y-120480086D01*
X80169929Y-120480087D01*
X80247465Y-120625146D01*
X80351810Y-120752291D01*
X80383674Y-120778441D01*
X83667569Y-124062338D01*
X83631498Y-124129820D01*
X83595188Y-124249518D01*
X83582928Y-124374000D01*
X83582928Y-125374000D01*
X83595188Y-125498482D01*
X83631498Y-125618180D01*
X83690463Y-125728494D01*
X83769815Y-125825185D01*
X83800891Y-125850688D01*
X83764755Y-125865656D01*
X83164753Y-126266565D01*
X82654493Y-126776825D01*
X82253584Y-127376827D01*
X81977434Y-128043513D01*
X81836653Y-128751264D01*
X81836653Y-129472880D01*
X81977434Y-130180631D01*
X82253584Y-130847317D01*
X82654493Y-131447319D01*
X83164753Y-131957579D01*
X83696112Y-132312622D01*
X83690463Y-132319506D01*
X83631498Y-132429820D01*
X83595188Y-132549518D01*
X83582928Y-132674000D01*
X83586000Y-132888250D01*
X83744750Y-133047000D01*
X85344000Y-133047000D01*
X85344000Y-133027000D01*
X85598000Y-133027000D01*
X85598000Y-133047000D01*
X87197250Y-133047000D01*
X87356000Y-132888250D01*
X87359072Y-132674000D01*
X87346812Y-132549518D01*
X87310502Y-132429820D01*
X87262603Y-132340208D01*
X87835247Y-131957579D01*
X88345507Y-131447319D01*
X88746416Y-130847317D01*
X89022566Y-130180631D01*
X89163347Y-129472880D01*
X89163347Y-128751264D01*
X89022566Y-128043513D01*
X88746416Y-127376827D01*
X88345507Y-126776825D01*
X87835247Y-126266565D01*
X87235245Y-125865656D01*
X87160564Y-125834722D01*
X87172185Y-125825185D01*
X87251537Y-125728494D01*
X87310502Y-125618180D01*
X87346812Y-125498482D01*
X87359072Y-125374000D01*
X87359072Y-124374000D01*
X87356046Y-124343276D01*
X87436175Y-124263147D01*
X87460449Y-124226818D01*
X87736200Y-124502569D01*
X87736200Y-124513563D01*
X87777896Y-124723183D01*
X87859685Y-124920640D01*
X87978425Y-125098347D01*
X88129553Y-125249475D01*
X88307260Y-125368215D01*
X88504717Y-125450004D01*
X88714337Y-125491700D01*
X88928063Y-125491700D01*
X89137683Y-125450004D01*
X89254200Y-125401741D01*
X89254200Y-133924631D01*
X87358406Y-135820426D01*
X87359072Y-135774000D01*
X87346812Y-135649518D01*
X87310502Y-135529820D01*
X87251537Y-135419506D01*
X87172185Y-135322815D01*
X87075494Y-135243463D01*
X86965180Y-135184498D01*
X86845482Y-135148188D01*
X86721000Y-135135928D01*
X85756750Y-135139000D01*
X85598000Y-135297750D01*
X85598000Y-136147000D01*
X85618000Y-136147000D01*
X85618000Y-136401000D01*
X85598000Y-136401000D01*
X85598000Y-137250250D01*
X85756750Y-137409000D01*
X85769791Y-137409042D01*
X84938574Y-138240259D01*
X84906710Y-138266409D01*
X84880562Y-138298271D01*
X84802364Y-138393555D01*
X84724828Y-138538614D01*
X84677082Y-138696012D01*
X84674529Y-138721928D01*
X84221000Y-138721928D01*
X84096518Y-138734188D01*
X83976820Y-138770498D01*
X83866506Y-138829463D01*
X83769815Y-138908815D01*
X83690463Y-139005506D01*
X83631498Y-139115820D01*
X83595188Y-139235518D01*
X83582928Y-139360000D01*
X83582928Y-140360000D01*
X83595188Y-140484482D01*
X83631498Y-140604180D01*
X83690463Y-140714494D01*
X83769815Y-140811185D01*
X83800891Y-140836688D01*
X83764755Y-140851656D01*
X83164753Y-141252565D01*
X82654493Y-141762825D01*
X82253584Y-142362827D01*
X81977434Y-143029513D01*
X81836653Y-143737264D01*
X81836653Y-144458880D01*
X81977434Y-145166631D01*
X82253584Y-145833317D01*
X82654493Y-146433319D01*
X83164753Y-146943579D01*
X83696112Y-147298622D01*
X83690463Y-147305506D01*
X83631498Y-147415820D01*
X83595188Y-147535518D01*
X83582928Y-147660000D01*
X83586000Y-147874250D01*
X83744750Y-148033000D01*
X85344000Y-148033000D01*
X85344000Y-148013000D01*
X85598000Y-148013000D01*
X85598000Y-148033000D01*
X87197250Y-148033000D01*
X87356000Y-147874250D01*
X87359072Y-147660000D01*
X87346812Y-147535518D01*
X87310502Y-147415820D01*
X87262603Y-147326208D01*
X87835247Y-146943579D01*
X88345507Y-146433319D01*
X88746416Y-145833317D01*
X89022566Y-145166631D01*
X89163347Y-144458880D01*
X89163347Y-143737264D01*
X89022566Y-143029513D01*
X88746416Y-142362827D01*
X88345507Y-141762825D01*
X87835247Y-141252565D01*
X87235245Y-140851656D01*
X87160564Y-140820722D01*
X87172185Y-140811185D01*
X87251537Y-140714494D01*
X87310502Y-140604180D01*
X87346812Y-140484482D01*
X87359072Y-140360000D01*
X87359072Y-139360000D01*
X87346812Y-139235518D01*
X87310502Y-139115820D01*
X87251537Y-139005506D01*
X87172185Y-138908815D01*
X87075494Y-138829463D01*
X86965180Y-138770498D01*
X86845482Y-138734188D01*
X86809885Y-138730682D01*
X90650633Y-134889936D01*
X90682491Y-134863791D01*
X90786836Y-134736646D01*
X90864372Y-134591587D01*
X90912118Y-134434189D01*
X90924200Y-134311519D01*
X90924200Y-134311518D01*
X90928240Y-134270500D01*
X90924200Y-134229482D01*
X90924200Y-132503567D01*
X91187693Y-132767060D01*
X91161500Y-132898740D01*
X91161500Y-133191260D01*
X91218568Y-133478158D01*
X91330510Y-133748411D01*
X91493025Y-133991632D01*
X91699868Y-134198475D01*
X91874260Y-134315000D01*
X91699868Y-134431525D01*
X91493025Y-134638368D01*
X91330510Y-134881589D01*
X91218568Y-135151842D01*
X91161500Y-135438740D01*
X91161500Y-135731260D01*
X91218568Y-136018158D01*
X91330510Y-136288411D01*
X91493025Y-136531632D01*
X91699868Y-136738475D01*
X91874260Y-136855000D01*
X91699868Y-136971525D01*
X91493025Y-137178368D01*
X91330510Y-137421589D01*
X91218568Y-137691842D01*
X91161500Y-137978740D01*
X91161500Y-138271260D01*
X91218568Y-138558158D01*
X91330510Y-138828411D01*
X91493025Y-139071632D01*
X91699868Y-139278475D01*
X91874260Y-139395000D01*
X91699868Y-139511525D01*
X91493025Y-139718368D01*
X91330510Y-139961589D01*
X91218568Y-140231842D01*
X91161500Y-140518740D01*
X91161500Y-140811260D01*
X91218568Y-141098158D01*
X91330510Y-141368411D01*
X91493025Y-141611632D01*
X91699868Y-141818475D01*
X91874260Y-141935000D01*
X91699868Y-142051525D01*
X91493025Y-142258368D01*
X91330510Y-142501589D01*
X91218568Y-142771842D01*
X91161500Y-143058740D01*
X91161500Y-143351260D01*
X91218568Y-143638158D01*
X91330510Y-143908411D01*
X91493025Y-144151632D01*
X91699868Y-144358475D01*
X91874260Y-144475000D01*
X91699868Y-144591525D01*
X91493025Y-144798368D01*
X91330510Y-145041589D01*
X91218568Y-145311842D01*
X91161500Y-145598740D01*
X91161500Y-145891260D01*
X91187693Y-146022939D01*
X87703579Y-149507054D01*
X87671709Y-149533209D01*
X87592422Y-149629822D01*
X87567364Y-149660355D01*
X87489828Y-149805414D01*
X87442082Y-149962812D01*
X87425960Y-150126500D01*
X87430000Y-150167519D01*
X87430001Y-151639990D01*
X87357351Y-151639990D01*
X87356000Y-151545750D01*
X87197250Y-151387000D01*
X85598000Y-151387000D01*
X85598000Y-151407000D01*
X85344000Y-151407000D01*
X85344000Y-151387000D01*
X83744750Y-151387000D01*
X83586000Y-151545750D01*
X83584649Y-151639990D01*
X82716858Y-151639990D01*
X81836868Y-150760000D01*
X83582928Y-150760000D01*
X83586000Y-150974250D01*
X83744750Y-151133000D01*
X85344000Y-151133000D01*
X85344000Y-150283750D01*
X85598000Y-150283750D01*
X85598000Y-151133000D01*
X87197250Y-151133000D01*
X87356000Y-150974250D01*
X87359072Y-150760000D01*
X87346812Y-150635518D01*
X87310502Y-150515820D01*
X87251537Y-150405506D01*
X87172185Y-150308815D01*
X87075494Y-150229463D01*
X86965180Y-150170498D01*
X86845482Y-150134188D01*
X86721000Y-150121928D01*
X85756750Y-150125000D01*
X85598000Y-150283750D01*
X85344000Y-150283750D01*
X85185250Y-150125000D01*
X84221000Y-150121928D01*
X84096518Y-150134188D01*
X83976820Y-150170498D01*
X83866506Y-150229463D01*
X83769815Y-150308815D01*
X83690463Y-150405506D01*
X83631498Y-150515820D01*
X83595188Y-150635518D01*
X83582928Y-150760000D01*
X81836868Y-150760000D01*
X79736868Y-148660000D01*
X83582928Y-148660000D01*
X83595188Y-148784482D01*
X83631498Y-148904180D01*
X83690463Y-149014494D01*
X83769815Y-149111185D01*
X83866506Y-149190537D01*
X83976820Y-149249502D01*
X84096518Y-149285812D01*
X84221000Y-149298072D01*
X85185250Y-149295000D01*
X85344000Y-149136250D01*
X85344000Y-148287000D01*
X85598000Y-148287000D01*
X85598000Y-149136250D01*
X85756750Y-149295000D01*
X86721000Y-149298072D01*
X86845482Y-149285812D01*
X86965180Y-149249502D01*
X87075494Y-149190537D01*
X87172185Y-149111185D01*
X87251537Y-149014494D01*
X87310502Y-148904180D01*
X87346812Y-148784482D01*
X87359072Y-148660000D01*
X87356000Y-148445750D01*
X87197250Y-148287000D01*
X85598000Y-148287000D01*
X85344000Y-148287000D01*
X83744750Y-148287000D01*
X83586000Y-148445750D01*
X83582928Y-148660000D01*
X79736868Y-148660000D01*
X77566000Y-146489133D01*
X77566000Y-136774000D01*
X83582928Y-136774000D01*
X83595188Y-136898482D01*
X83631498Y-137018180D01*
X83690463Y-137128494D01*
X83769815Y-137225185D01*
X83866506Y-137304537D01*
X83976820Y-137363502D01*
X84096518Y-137399812D01*
X84221000Y-137412072D01*
X85185250Y-137409000D01*
X85344000Y-137250250D01*
X85344000Y-136401000D01*
X83744750Y-136401000D01*
X83586000Y-136559750D01*
X83582928Y-136774000D01*
X77566000Y-136774000D01*
X77566000Y-135774000D01*
X83582928Y-135774000D01*
X83586000Y-135988250D01*
X83744750Y-136147000D01*
X85344000Y-136147000D01*
X85344000Y-135297750D01*
X85185250Y-135139000D01*
X84221000Y-135135928D01*
X84096518Y-135148188D01*
X83976820Y-135184498D01*
X83866506Y-135243463D01*
X83769815Y-135322815D01*
X83690463Y-135419506D01*
X83631498Y-135529820D01*
X83595188Y-135649518D01*
X83582928Y-135774000D01*
X77566000Y-135774000D01*
X77566000Y-133674000D01*
X83582928Y-133674000D01*
X83595188Y-133798482D01*
X83631498Y-133918180D01*
X83690463Y-134028494D01*
X83769815Y-134125185D01*
X83866506Y-134204537D01*
X83976820Y-134263502D01*
X84096518Y-134299812D01*
X84221000Y-134312072D01*
X85185250Y-134309000D01*
X85344000Y-134150250D01*
X85344000Y-133301000D01*
X85598000Y-133301000D01*
X85598000Y-134150250D01*
X85756750Y-134309000D01*
X86721000Y-134312072D01*
X86845482Y-134299812D01*
X86965180Y-134263502D01*
X87075494Y-134204537D01*
X87172185Y-134125185D01*
X87251537Y-134028494D01*
X87310502Y-133918180D01*
X87346812Y-133798482D01*
X87359072Y-133674000D01*
X87356000Y-133459750D01*
X87197250Y-133301000D01*
X85598000Y-133301000D01*
X85344000Y-133301000D01*
X83744750Y-133301000D01*
X83586000Y-133459750D01*
X83582928Y-133674000D01*
X77566000Y-133674000D01*
X77566000Y-104426113D01*
X78263750Y-104424000D01*
X78422500Y-104265250D01*
X78422500Y-102616000D01*
X78402500Y-102616000D01*
X78402500Y-102362000D01*
X78422500Y-102362000D01*
X78422500Y-100712750D01*
X78263750Y-100554000D01*
X77566000Y-100551887D01*
X77566000Y-99079051D01*
X77632934Y-99123775D01*
X77985081Y-99269639D01*
X78358919Y-99344000D01*
X78740081Y-99344000D01*
X79113919Y-99269639D01*
X79466066Y-99123775D01*
X79782991Y-98912013D01*
X80052513Y-98642491D01*
X80110100Y-98556306D01*
X80110100Y-100608275D01*
G37*
X80110100Y-100608275D02*
X80093680Y-100599498D01*
X79973982Y-100563188D01*
X79849500Y-100550928D01*
X78835250Y-100554000D01*
X78676500Y-100712750D01*
X78676500Y-102362000D01*
X78696500Y-102362000D01*
X78696500Y-102616000D01*
X78676500Y-102616000D01*
X78676500Y-104265250D01*
X78835250Y-104424000D01*
X79849500Y-104427072D01*
X79973982Y-104414812D01*
X80093680Y-104378502D01*
X80110100Y-104369725D01*
X80110101Y-120117971D01*
X80106060Y-120159000D01*
X80122182Y-120322688D01*
X80169928Y-120480086D01*
X80169929Y-120480087D01*
X80247465Y-120625146D01*
X80351810Y-120752291D01*
X80383674Y-120778441D01*
X83667569Y-124062338D01*
X83631498Y-124129820D01*
X83595188Y-124249518D01*
X83582928Y-124374000D01*
X83582928Y-125374000D01*
X83595188Y-125498482D01*
X83631498Y-125618180D01*
X83690463Y-125728494D01*
X83769815Y-125825185D01*
X83800891Y-125850688D01*
X83764755Y-125865656D01*
X83164753Y-126266565D01*
X82654493Y-126776825D01*
X82253584Y-127376827D01*
X81977434Y-128043513D01*
X81836653Y-128751264D01*
X81836653Y-129472880D01*
X81977434Y-130180631D01*
X82253584Y-130847317D01*
X82654493Y-131447319D01*
X83164753Y-131957579D01*
X83696112Y-132312622D01*
X83690463Y-132319506D01*
X83631498Y-132429820D01*
X83595188Y-132549518D01*
X83582928Y-132674000D01*
X83586000Y-132888250D01*
X83744750Y-133047000D01*
X85344000Y-133047000D01*
X85344000Y-133027000D01*
X85598000Y-133027000D01*
X85598000Y-133047000D01*
X87197250Y-133047000D01*
X87356000Y-132888250D01*
X87359072Y-132674000D01*
X87346812Y-132549518D01*
X87310502Y-132429820D01*
X87262603Y-132340208D01*
X87835247Y-131957579D01*
X88345507Y-131447319D01*
X88746416Y-130847317D01*
X89022566Y-130180631D01*
X89163347Y-129472880D01*
X89163347Y-128751264D01*
X89022566Y-128043513D01*
X88746416Y-127376827D01*
X88345507Y-126776825D01*
X87835247Y-126266565D01*
X87235245Y-125865656D01*
X87160564Y-125834722D01*
X87172185Y-125825185D01*
X87251537Y-125728494D01*
X87310502Y-125618180D01*
X87346812Y-125498482D01*
X87359072Y-125374000D01*
X87359072Y-124374000D01*
X87356046Y-124343276D01*
X87436175Y-124263147D01*
X87460449Y-124226818D01*
X87736200Y-124502569D01*
X87736200Y-124513563D01*
X87777896Y-124723183D01*
X87859685Y-124920640D01*
X87978425Y-125098347D01*
X88129553Y-125249475D01*
X88307260Y-125368215D01*
X88504717Y-125450004D01*
X88714337Y-125491700D01*
X88928063Y-125491700D01*
X89137683Y-125450004D01*
X89254200Y-125401741D01*
X89254200Y-133924631D01*
X87358406Y-135820426D01*
X87359072Y-135774000D01*
X87346812Y-135649518D01*
X87310502Y-135529820D01*
X87251537Y-135419506D01*
X87172185Y-135322815D01*
X87075494Y-135243463D01*
X86965180Y-135184498D01*
X86845482Y-135148188D01*
X86721000Y-135135928D01*
X85756750Y-135139000D01*
X85598000Y-135297750D01*
X85598000Y-136147000D01*
X85618000Y-136147000D01*
X85618000Y-136401000D01*
X85598000Y-136401000D01*
X85598000Y-137250250D01*
X85756750Y-137409000D01*
X85769791Y-137409042D01*
X84938574Y-138240259D01*
X84906710Y-138266409D01*
X84880562Y-138298271D01*
X84802364Y-138393555D01*
X84724828Y-138538614D01*
X84677082Y-138696012D01*
X84674529Y-138721928D01*
X84221000Y-138721928D01*
X84096518Y-138734188D01*
X83976820Y-138770498D01*
X83866506Y-138829463D01*
X83769815Y-138908815D01*
X83690463Y-139005506D01*
X83631498Y-139115820D01*
X83595188Y-139235518D01*
X83582928Y-139360000D01*
X83582928Y-140360000D01*
X83595188Y-140484482D01*
X83631498Y-140604180D01*
X83690463Y-140714494D01*
X83769815Y-140811185D01*
X83800891Y-140836688D01*
X83764755Y-140851656D01*
X83164753Y-141252565D01*
X82654493Y-141762825D01*
X82253584Y-142362827D01*
X81977434Y-143029513D01*
X81836653Y-143737264D01*
X81836653Y-144458880D01*
X81977434Y-145166631D01*
X82253584Y-145833317D01*
X82654493Y-146433319D01*
X83164753Y-146943579D01*
X83696112Y-147298622D01*
X83690463Y-147305506D01*
X83631498Y-147415820D01*
X83595188Y-147535518D01*
X83582928Y-147660000D01*
X83586000Y-147874250D01*
X83744750Y-148033000D01*
X85344000Y-148033000D01*
X85344000Y-148013000D01*
X85598000Y-148013000D01*
X85598000Y-148033000D01*
X87197250Y-148033000D01*
X87356000Y-147874250D01*
X87359072Y-147660000D01*
X87346812Y-147535518D01*
X87310502Y-147415820D01*
X87262603Y-147326208D01*
X87835247Y-146943579D01*
X88345507Y-146433319D01*
X88746416Y-145833317D01*
X89022566Y-145166631D01*
X89163347Y-144458880D01*
X89163347Y-143737264D01*
X89022566Y-143029513D01*
X88746416Y-142362827D01*
X88345507Y-141762825D01*
X87835247Y-141252565D01*
X87235245Y-140851656D01*
X87160564Y-140820722D01*
X87172185Y-140811185D01*
X87251537Y-140714494D01*
X87310502Y-140604180D01*
X87346812Y-140484482D01*
X87359072Y-140360000D01*
X87359072Y-139360000D01*
X87346812Y-139235518D01*
X87310502Y-139115820D01*
X87251537Y-139005506D01*
X87172185Y-138908815D01*
X87075494Y-138829463D01*
X86965180Y-138770498D01*
X86845482Y-138734188D01*
X86809885Y-138730682D01*
X90650633Y-134889936D01*
X90682491Y-134863791D01*
X90786836Y-134736646D01*
X90864372Y-134591587D01*
X90912118Y-134434189D01*
X90924200Y-134311519D01*
X90924200Y-134311518D01*
X90928240Y-134270500D01*
X90924200Y-134229482D01*
X90924200Y-132503567D01*
X91187693Y-132767060D01*
X91161500Y-132898740D01*
X91161500Y-133191260D01*
X91218568Y-133478158D01*
X91330510Y-133748411D01*
X91493025Y-133991632D01*
X91699868Y-134198475D01*
X91874260Y-134315000D01*
X91699868Y-134431525D01*
X91493025Y-134638368D01*
X91330510Y-134881589D01*
X91218568Y-135151842D01*
X91161500Y-135438740D01*
X91161500Y-135731260D01*
X91218568Y-136018158D01*
X91330510Y-136288411D01*
X91493025Y-136531632D01*
X91699868Y-136738475D01*
X91874260Y-136855000D01*
X91699868Y-136971525D01*
X91493025Y-137178368D01*
X91330510Y-137421589D01*
X91218568Y-137691842D01*
X91161500Y-137978740D01*
X91161500Y-138271260D01*
X91218568Y-138558158D01*
X91330510Y-138828411D01*
X91493025Y-139071632D01*
X91699868Y-139278475D01*
X91874260Y-139395000D01*
X91699868Y-139511525D01*
X91493025Y-139718368D01*
X91330510Y-139961589D01*
X91218568Y-140231842D01*
X91161500Y-140518740D01*
X91161500Y-140811260D01*
X91218568Y-141098158D01*
X91330510Y-141368411D01*
X91493025Y-141611632D01*
X91699868Y-141818475D01*
X91874260Y-141935000D01*
X91699868Y-142051525D01*
X91493025Y-142258368D01*
X91330510Y-142501589D01*
X91218568Y-142771842D01*
X91161500Y-143058740D01*
X91161500Y-143351260D01*
X91218568Y-143638158D01*
X91330510Y-143908411D01*
X91493025Y-144151632D01*
X91699868Y-144358475D01*
X91874260Y-144475000D01*
X91699868Y-144591525D01*
X91493025Y-144798368D01*
X91330510Y-145041589D01*
X91218568Y-145311842D01*
X91161500Y-145598740D01*
X91161500Y-145891260D01*
X91187693Y-146022939D01*
X87703579Y-149507054D01*
X87671709Y-149533209D01*
X87592422Y-149629822D01*
X87567364Y-149660355D01*
X87489828Y-149805414D01*
X87442082Y-149962812D01*
X87425960Y-150126500D01*
X87430000Y-150167519D01*
X87430001Y-151639990D01*
X87357351Y-151639990D01*
X87356000Y-151545750D01*
X87197250Y-151387000D01*
X85598000Y-151387000D01*
X85598000Y-151407000D01*
X85344000Y-151407000D01*
X85344000Y-151387000D01*
X83744750Y-151387000D01*
X83586000Y-151545750D01*
X83584649Y-151639990D01*
X82716858Y-151639990D01*
X81836868Y-150760000D01*
X83582928Y-150760000D01*
X83586000Y-150974250D01*
X83744750Y-151133000D01*
X85344000Y-151133000D01*
X85344000Y-150283750D01*
X85598000Y-150283750D01*
X85598000Y-151133000D01*
X87197250Y-151133000D01*
X87356000Y-150974250D01*
X87359072Y-150760000D01*
X87346812Y-150635518D01*
X87310502Y-150515820D01*
X87251537Y-150405506D01*
X87172185Y-150308815D01*
X87075494Y-150229463D01*
X86965180Y-150170498D01*
X86845482Y-150134188D01*
X86721000Y-150121928D01*
X85756750Y-150125000D01*
X85598000Y-150283750D01*
X85344000Y-150283750D01*
X85185250Y-150125000D01*
X84221000Y-150121928D01*
X84096518Y-150134188D01*
X83976820Y-150170498D01*
X83866506Y-150229463D01*
X83769815Y-150308815D01*
X83690463Y-150405506D01*
X83631498Y-150515820D01*
X83595188Y-150635518D01*
X83582928Y-150760000D01*
X81836868Y-150760000D01*
X79736868Y-148660000D01*
X83582928Y-148660000D01*
X83595188Y-148784482D01*
X83631498Y-148904180D01*
X83690463Y-149014494D01*
X83769815Y-149111185D01*
X83866506Y-149190537D01*
X83976820Y-149249502D01*
X84096518Y-149285812D01*
X84221000Y-149298072D01*
X85185250Y-149295000D01*
X85344000Y-149136250D01*
X85344000Y-148287000D01*
X85598000Y-148287000D01*
X85598000Y-149136250D01*
X85756750Y-149295000D01*
X86721000Y-149298072D01*
X86845482Y-149285812D01*
X86965180Y-149249502D01*
X87075494Y-149190537D01*
X87172185Y-149111185D01*
X87251537Y-149014494D01*
X87310502Y-148904180D01*
X87346812Y-148784482D01*
X87359072Y-148660000D01*
X87356000Y-148445750D01*
X87197250Y-148287000D01*
X85598000Y-148287000D01*
X85344000Y-148287000D01*
X83744750Y-148287000D01*
X83586000Y-148445750D01*
X83582928Y-148660000D01*
X79736868Y-148660000D01*
X77566000Y-146489133D01*
X77566000Y-136774000D01*
X83582928Y-136774000D01*
X83595188Y-136898482D01*
X83631498Y-137018180D01*
X83690463Y-137128494D01*
X83769815Y-137225185D01*
X83866506Y-137304537D01*
X83976820Y-137363502D01*
X84096518Y-137399812D01*
X84221000Y-137412072D01*
X85185250Y-137409000D01*
X85344000Y-137250250D01*
X85344000Y-136401000D01*
X83744750Y-136401000D01*
X83586000Y-136559750D01*
X83582928Y-136774000D01*
X77566000Y-136774000D01*
X77566000Y-135774000D01*
X83582928Y-135774000D01*
X83586000Y-135988250D01*
X83744750Y-136147000D01*
X85344000Y-136147000D01*
X85344000Y-135297750D01*
X85185250Y-135139000D01*
X84221000Y-135135928D01*
X84096518Y-135148188D01*
X83976820Y-135184498D01*
X83866506Y-135243463D01*
X83769815Y-135322815D01*
X83690463Y-135419506D01*
X83631498Y-135529820D01*
X83595188Y-135649518D01*
X83582928Y-135774000D01*
X77566000Y-135774000D01*
X77566000Y-133674000D01*
X83582928Y-133674000D01*
X83595188Y-133798482D01*
X83631498Y-133918180D01*
X83690463Y-134028494D01*
X83769815Y-134125185D01*
X83866506Y-134204537D01*
X83976820Y-134263502D01*
X84096518Y-134299812D01*
X84221000Y-134312072D01*
X85185250Y-134309000D01*
X85344000Y-134150250D01*
X85344000Y-133301000D01*
X85598000Y-133301000D01*
X85598000Y-134150250D01*
X85756750Y-134309000D01*
X86721000Y-134312072D01*
X86845482Y-134299812D01*
X86965180Y-134263502D01*
X87075494Y-134204537D01*
X87172185Y-134125185D01*
X87251537Y-134028494D01*
X87310502Y-133918180D01*
X87346812Y-133798482D01*
X87359072Y-133674000D01*
X87356000Y-133459750D01*
X87197250Y-133301000D01*
X85598000Y-133301000D01*
X85344000Y-133301000D01*
X83744750Y-133301000D01*
X83586000Y-133459750D01*
X83582928Y-133674000D01*
X77566000Y-133674000D01*
X77566000Y-104426113D01*
X78263750Y-104424000D01*
X78422500Y-104265250D01*
X78422500Y-102616000D01*
X78402500Y-102616000D01*
X78402500Y-102362000D01*
X78422500Y-102362000D01*
X78422500Y-100712750D01*
X78263750Y-100554000D01*
X77566000Y-100551887D01*
X77566000Y-99079051D01*
X77632934Y-99123775D01*
X77985081Y-99269639D01*
X78358919Y-99344000D01*
X78740081Y-99344000D01*
X79113919Y-99269639D01*
X79466066Y-99123775D01*
X79782991Y-98912013D01*
X80052513Y-98642491D01*
X80110100Y-98556306D01*
X80110100Y-100608275D01*
G36*
X89254200Y-123411659D02*
G01*
X89137683Y-123363396D01*
X88928063Y-123321700D01*
X88917069Y-123321700D01*
X87349864Y-121754497D01*
X87359072Y-121661000D01*
X87356000Y-121446750D01*
X87197250Y-121288000D01*
X85598000Y-121288000D01*
X85598000Y-121308000D01*
X85344000Y-121308000D01*
X85344000Y-121288000D01*
X85324000Y-121288000D01*
X85324000Y-121034000D01*
X85344000Y-121034000D01*
X85344000Y-120184750D01*
X85598000Y-120184750D01*
X85598000Y-121034000D01*
X87197250Y-121034000D01*
X87356000Y-120875250D01*
X87359072Y-120661000D01*
X87346812Y-120536518D01*
X87310502Y-120416820D01*
X87251537Y-120306506D01*
X87172185Y-120209815D01*
X87075494Y-120130463D01*
X86965180Y-120071498D01*
X86845482Y-120035188D01*
X86721000Y-120022928D01*
X85756750Y-120026000D01*
X85598000Y-120184750D01*
X85344000Y-120184750D01*
X85185250Y-120026000D01*
X84221000Y-120022928D01*
X84096518Y-120035188D01*
X83976820Y-120071498D01*
X83866506Y-120130463D01*
X83769815Y-120209815D01*
X83690463Y-120306506D01*
X83631498Y-120416820D01*
X83595188Y-120536518D01*
X83586097Y-120628828D01*
X82480500Y-119523233D01*
X82480500Y-118561000D01*
X83582928Y-118561000D01*
X83595188Y-118685482D01*
X83631498Y-118805180D01*
X83690463Y-118915494D01*
X83769815Y-119012185D01*
X83866506Y-119091537D01*
X83976820Y-119150502D01*
X84096518Y-119186812D01*
X84221000Y-119199072D01*
X85185250Y-119196000D01*
X85344000Y-119037250D01*
X85344000Y-118188000D01*
X85598000Y-118188000D01*
X85598000Y-119037250D01*
X85756750Y-119196000D01*
X86721000Y-119199072D01*
X86845482Y-119186812D01*
X86965180Y-119150502D01*
X87075494Y-119091537D01*
X87172185Y-119012185D01*
X87251537Y-118915494D01*
X87310502Y-118805180D01*
X87346812Y-118685482D01*
X87359072Y-118561000D01*
X87356000Y-118346750D01*
X87197250Y-118188000D01*
X85598000Y-118188000D01*
X85344000Y-118188000D01*
X83744750Y-118188000D01*
X83586000Y-118346750D01*
X83582928Y-118561000D01*
X82480500Y-118561000D01*
X82480500Y-116120848D01*
X82654493Y-116381247D01*
X83164753Y-116891507D01*
X83676178Y-117233231D01*
X83631498Y-117316820D01*
X83595188Y-117436518D01*
X83582928Y-117561000D01*
X83586000Y-117775250D01*
X83744750Y-117934000D01*
X85344000Y-117934000D01*
X85344000Y-117914000D01*
X85598000Y-117914000D01*
X85598000Y-117934000D01*
X87197250Y-117934000D01*
X87356000Y-117775250D01*
X87359072Y-117561000D01*
X87346812Y-117436518D01*
X87310502Y-117316820D01*
X87281085Y-117261786D01*
X87835247Y-116891507D01*
X88345507Y-116381247D01*
X88746416Y-115781245D01*
X89022566Y-115114559D01*
X89163347Y-114406808D01*
X89163347Y-113685192D01*
X89022566Y-112977441D01*
X88746416Y-112310755D01*
X88345507Y-111710753D01*
X87835247Y-111200493D01*
X87235245Y-110799584D01*
X87122562Y-110752909D01*
X87172185Y-110712185D01*
X87251537Y-110615494D01*
X87310502Y-110505180D01*
X87346812Y-110385482D01*
X87359072Y-110261000D01*
X87359072Y-109261000D01*
X87346812Y-109136518D01*
X87310502Y-109016820D01*
X87251537Y-108906506D01*
X87172185Y-108809815D01*
X87075494Y-108730463D01*
X86965180Y-108671498D01*
X86880697Y-108645870D01*
X89254201Y-106272367D01*
X89254200Y-123411659D01*
G37*
X89254200Y-123411659D02*
X89137683Y-123363396D01*
X88928063Y-123321700D01*
X88917069Y-123321700D01*
X87349864Y-121754497D01*
X87359072Y-121661000D01*
X87356000Y-121446750D01*
X87197250Y-121288000D01*
X85598000Y-121288000D01*
X85598000Y-121308000D01*
X85344000Y-121308000D01*
X85344000Y-121288000D01*
X85324000Y-121288000D01*
X85324000Y-121034000D01*
X85344000Y-121034000D01*
X85344000Y-120184750D01*
X85598000Y-120184750D01*
X85598000Y-121034000D01*
X87197250Y-121034000D01*
X87356000Y-120875250D01*
X87359072Y-120661000D01*
X87346812Y-120536518D01*
X87310502Y-120416820D01*
X87251537Y-120306506D01*
X87172185Y-120209815D01*
X87075494Y-120130463D01*
X86965180Y-120071498D01*
X86845482Y-120035188D01*
X86721000Y-120022928D01*
X85756750Y-120026000D01*
X85598000Y-120184750D01*
X85344000Y-120184750D01*
X85185250Y-120026000D01*
X84221000Y-120022928D01*
X84096518Y-120035188D01*
X83976820Y-120071498D01*
X83866506Y-120130463D01*
X83769815Y-120209815D01*
X83690463Y-120306506D01*
X83631498Y-120416820D01*
X83595188Y-120536518D01*
X83586097Y-120628828D01*
X82480500Y-119523233D01*
X82480500Y-118561000D01*
X83582928Y-118561000D01*
X83595188Y-118685482D01*
X83631498Y-118805180D01*
X83690463Y-118915494D01*
X83769815Y-119012185D01*
X83866506Y-119091537D01*
X83976820Y-119150502D01*
X84096518Y-119186812D01*
X84221000Y-119199072D01*
X85185250Y-119196000D01*
X85344000Y-119037250D01*
X85344000Y-118188000D01*
X85598000Y-118188000D01*
X85598000Y-119037250D01*
X85756750Y-119196000D01*
X86721000Y-119199072D01*
X86845482Y-119186812D01*
X86965180Y-119150502D01*
X87075494Y-119091537D01*
X87172185Y-119012185D01*
X87251537Y-118915494D01*
X87310502Y-118805180D01*
X87346812Y-118685482D01*
X87359072Y-118561000D01*
X87356000Y-118346750D01*
X87197250Y-118188000D01*
X85598000Y-118188000D01*
X85344000Y-118188000D01*
X83744750Y-118188000D01*
X83586000Y-118346750D01*
X83582928Y-118561000D01*
X82480500Y-118561000D01*
X82480500Y-116120848D01*
X82654493Y-116381247D01*
X83164753Y-116891507D01*
X83676178Y-117233231D01*
X83631498Y-117316820D01*
X83595188Y-117436518D01*
X83582928Y-117561000D01*
X83586000Y-117775250D01*
X83744750Y-117934000D01*
X85344000Y-117934000D01*
X85344000Y-117914000D01*
X85598000Y-117914000D01*
X85598000Y-117934000D01*
X87197250Y-117934000D01*
X87356000Y-117775250D01*
X87359072Y-117561000D01*
X87346812Y-117436518D01*
X87310502Y-117316820D01*
X87281085Y-117261786D01*
X87835247Y-116891507D01*
X88345507Y-116381247D01*
X88746416Y-115781245D01*
X89022566Y-115114559D01*
X89163347Y-114406808D01*
X89163347Y-113685192D01*
X89022566Y-112977441D01*
X88746416Y-112310755D01*
X88345507Y-111710753D01*
X87835247Y-111200493D01*
X87235245Y-110799584D01*
X87122562Y-110752909D01*
X87172185Y-110712185D01*
X87251537Y-110615494D01*
X87310502Y-110505180D01*
X87346812Y-110385482D01*
X87359072Y-110261000D01*
X87359072Y-109261000D01*
X87346812Y-109136518D01*
X87310502Y-109016820D01*
X87251537Y-108906506D01*
X87172185Y-108809815D01*
X87075494Y-108730463D01*
X86965180Y-108671498D01*
X86880697Y-108645870D01*
X89254201Y-106272367D01*
X89254200Y-123411659D01*
G36*
X82654493Y-101475319D02*
G01*
X83164753Y-101985579D01*
X83696112Y-102340622D01*
X83690463Y-102347506D01*
X83631498Y-102457820D01*
X83595188Y-102577518D01*
X83582928Y-102702000D01*
X83586000Y-102916250D01*
X83744750Y-103075000D01*
X85344000Y-103075000D01*
X85344000Y-103055000D01*
X85598000Y-103055000D01*
X85598000Y-103075000D01*
X87197250Y-103075000D01*
X87356000Y-102916250D01*
X87359072Y-102702000D01*
X87346812Y-102577518D01*
X87310502Y-102457820D01*
X87262603Y-102368208D01*
X87835247Y-101985579D01*
X88173301Y-101647525D01*
X88173301Y-104991531D01*
X87359017Y-105805815D01*
X87359072Y-105802000D01*
X87346812Y-105677518D01*
X87310502Y-105557820D01*
X87251537Y-105447506D01*
X87172185Y-105350815D01*
X87075494Y-105271463D01*
X86965180Y-105212498D01*
X86845482Y-105176188D01*
X86721000Y-105163928D01*
X85756750Y-105167000D01*
X85598000Y-105325750D01*
X85598000Y-106175000D01*
X85618000Y-106175000D01*
X85618000Y-106429000D01*
X85598000Y-106429000D01*
X85598000Y-107278250D01*
X85742291Y-107422541D01*
X84938574Y-108226259D01*
X84906710Y-108252409D01*
X84880562Y-108284271D01*
X84802364Y-108379555D01*
X84724828Y-108524614D01*
X84695005Y-108622928D01*
X84221000Y-108622928D01*
X84096518Y-108635188D01*
X83976820Y-108671498D01*
X83866506Y-108730463D01*
X83769815Y-108809815D01*
X83690463Y-108906506D01*
X83631498Y-109016820D01*
X83595188Y-109136518D01*
X83582928Y-109261000D01*
X83582928Y-110261000D01*
X83595188Y-110385482D01*
X83631498Y-110505180D01*
X83690463Y-110615494D01*
X83769815Y-110712185D01*
X83838893Y-110768875D01*
X83764755Y-110799584D01*
X83164753Y-111200493D01*
X82654493Y-111710753D01*
X82480500Y-111971152D01*
X82480500Y-106802000D01*
X83582928Y-106802000D01*
X83595188Y-106926482D01*
X83631498Y-107046180D01*
X83690463Y-107156494D01*
X83769815Y-107253185D01*
X83866506Y-107332537D01*
X83976820Y-107391502D01*
X84096518Y-107427812D01*
X84221000Y-107440072D01*
X85185250Y-107437000D01*
X85344000Y-107278250D01*
X85344000Y-106429000D01*
X83744750Y-106429000D01*
X83586000Y-106587750D01*
X83582928Y-106802000D01*
X82480500Y-106802000D01*
X82480500Y-105802000D01*
X83582928Y-105802000D01*
X83586000Y-106016250D01*
X83744750Y-106175000D01*
X85344000Y-106175000D01*
X85344000Y-105325750D01*
X85185250Y-105167000D01*
X84221000Y-105163928D01*
X84096518Y-105176188D01*
X83976820Y-105212498D01*
X83866506Y-105271463D01*
X83769815Y-105350815D01*
X83690463Y-105447506D01*
X83631498Y-105557820D01*
X83595188Y-105677518D01*
X83582928Y-105802000D01*
X82480500Y-105802000D01*
X82480500Y-103702000D01*
X83582928Y-103702000D01*
X83595188Y-103826482D01*
X83631498Y-103946180D01*
X83690463Y-104056494D01*
X83769815Y-104153185D01*
X83866506Y-104232537D01*
X83976820Y-104291502D01*
X84096518Y-104327812D01*
X84221000Y-104340072D01*
X85185250Y-104337000D01*
X85344000Y-104178250D01*
X85344000Y-103329000D01*
X85598000Y-103329000D01*
X85598000Y-104178250D01*
X85756750Y-104337000D01*
X86721000Y-104340072D01*
X86845482Y-104327812D01*
X86965180Y-104291502D01*
X87075494Y-104232537D01*
X87172185Y-104153185D01*
X87251537Y-104056494D01*
X87310502Y-103946180D01*
X87346812Y-103826482D01*
X87359072Y-103702000D01*
X87356000Y-103487750D01*
X87197250Y-103329000D01*
X85598000Y-103329000D01*
X85344000Y-103329000D01*
X83744750Y-103329000D01*
X83586000Y-103487750D01*
X83582928Y-103702000D01*
X82480500Y-103702000D01*
X82480500Y-101214920D01*
X82654493Y-101475319D01*
G37*
X82654493Y-101475319D02*
X83164753Y-101985579D01*
X83696112Y-102340622D01*
X83690463Y-102347506D01*
X83631498Y-102457820D01*
X83595188Y-102577518D01*
X83582928Y-102702000D01*
X83586000Y-102916250D01*
X83744750Y-103075000D01*
X85344000Y-103075000D01*
X85344000Y-103055000D01*
X85598000Y-103055000D01*
X85598000Y-103075000D01*
X87197250Y-103075000D01*
X87356000Y-102916250D01*
X87359072Y-102702000D01*
X87346812Y-102577518D01*
X87310502Y-102457820D01*
X87262603Y-102368208D01*
X87835247Y-101985579D01*
X88173301Y-101647525D01*
X88173301Y-104991531D01*
X87359017Y-105805815D01*
X87359072Y-105802000D01*
X87346812Y-105677518D01*
X87310502Y-105557820D01*
X87251537Y-105447506D01*
X87172185Y-105350815D01*
X87075494Y-105271463D01*
X86965180Y-105212498D01*
X86845482Y-105176188D01*
X86721000Y-105163928D01*
X85756750Y-105167000D01*
X85598000Y-105325750D01*
X85598000Y-106175000D01*
X85618000Y-106175000D01*
X85618000Y-106429000D01*
X85598000Y-106429000D01*
X85598000Y-107278250D01*
X85742291Y-107422541D01*
X84938574Y-108226259D01*
X84906710Y-108252409D01*
X84880562Y-108284271D01*
X84802364Y-108379555D01*
X84724828Y-108524614D01*
X84695005Y-108622928D01*
X84221000Y-108622928D01*
X84096518Y-108635188D01*
X83976820Y-108671498D01*
X83866506Y-108730463D01*
X83769815Y-108809815D01*
X83690463Y-108906506D01*
X83631498Y-109016820D01*
X83595188Y-109136518D01*
X83582928Y-109261000D01*
X83582928Y-110261000D01*
X83595188Y-110385482D01*
X83631498Y-110505180D01*
X83690463Y-110615494D01*
X83769815Y-110712185D01*
X83838893Y-110768875D01*
X83764755Y-110799584D01*
X83164753Y-111200493D01*
X82654493Y-111710753D01*
X82480500Y-111971152D01*
X82480500Y-106802000D01*
X83582928Y-106802000D01*
X83595188Y-106926482D01*
X83631498Y-107046180D01*
X83690463Y-107156494D01*
X83769815Y-107253185D01*
X83866506Y-107332537D01*
X83976820Y-107391502D01*
X84096518Y-107427812D01*
X84221000Y-107440072D01*
X85185250Y-107437000D01*
X85344000Y-107278250D01*
X85344000Y-106429000D01*
X83744750Y-106429000D01*
X83586000Y-106587750D01*
X83582928Y-106802000D01*
X82480500Y-106802000D01*
X82480500Y-105802000D01*
X83582928Y-105802000D01*
X83586000Y-106016250D01*
X83744750Y-106175000D01*
X85344000Y-106175000D01*
X85344000Y-105325750D01*
X85185250Y-105167000D01*
X84221000Y-105163928D01*
X84096518Y-105176188D01*
X83976820Y-105212498D01*
X83866506Y-105271463D01*
X83769815Y-105350815D01*
X83690463Y-105447506D01*
X83631498Y-105557820D01*
X83595188Y-105677518D01*
X83582928Y-105802000D01*
X82480500Y-105802000D01*
X82480500Y-103702000D01*
X83582928Y-103702000D01*
X83595188Y-103826482D01*
X83631498Y-103946180D01*
X83690463Y-104056494D01*
X83769815Y-104153185D01*
X83866506Y-104232537D01*
X83976820Y-104291502D01*
X84096518Y-104327812D01*
X84221000Y-104340072D01*
X85185250Y-104337000D01*
X85344000Y-104178250D01*
X85344000Y-103329000D01*
X85598000Y-103329000D01*
X85598000Y-104178250D01*
X85756750Y-104337000D01*
X86721000Y-104340072D01*
X86845482Y-104327812D01*
X86965180Y-104291502D01*
X87075494Y-104232537D01*
X87172185Y-104153185D01*
X87251537Y-104056494D01*
X87310502Y-103946180D01*
X87346812Y-103826482D01*
X87359072Y-103702000D01*
X87356000Y-103487750D01*
X87197250Y-103329000D01*
X85598000Y-103329000D01*
X85344000Y-103329000D01*
X83744750Y-103329000D01*
X83586000Y-103487750D01*
X83582928Y-103702000D01*
X82480500Y-103702000D01*
X82480500Y-101214920D01*
X82654493Y-101475319D01*
M02*
