G04 #@! TF.GenerationSoftware,KiCad,Pcbnew,(5.1.5-0-10_14)*
G04 #@! TF.CreationDate,2020-08-16T11:11:37-04:00*
G04 #@! TF.ProjectId,AYOMSM - VCA Control Board,41594f4d-534d-4202-9d20-56434120436f,rev?*
G04 #@! TF.SameCoordinates,Original*
G04 #@! TF.FileFunction,Legend,Top*
G04 #@! TF.FilePolarity,Positive*
%FSLAX46Y46*%
G04 Gerber Fmt 4.6, Leading zero omitted, Abs format (unit mm)*
G04 Created by KiCad (PCBNEW (5.1.5-0-10_14)) date 2020-08-16 11:11:37*
%MOMM*%
%LPD*%
G04 APERTURE LIST*
%ADD10C,0.150000*%
%ADD11C,0.120000*%
G04 APERTURE END LIST*
D10*
X76962047Y-95067428D02*
X77723952Y-95067428D01*
X77343000Y-95448380D02*
X77343000Y-94686476D01*
X76962047Y-104719428D02*
X77723952Y-104719428D01*
X81756214Y-77537380D02*
X81184785Y-77537380D01*
X81470500Y-77537380D02*
X81470500Y-76537380D01*
X81375261Y-76680238D01*
X81280023Y-76775476D01*
X81184785Y-76823095D01*
X89884214Y-71695380D02*
X89312785Y-71695380D01*
X89598500Y-71695380D02*
X89598500Y-70695380D01*
X89503261Y-70838238D01*
X89408023Y-70933476D01*
X89312785Y-70981095D01*
D11*
X80605000Y-80000000D02*
X80605000Y-74930000D01*
X90375000Y-80000000D02*
X90375000Y-74930000D01*
X90375000Y-74930000D02*
X80605000Y-74930000D01*
X90375000Y-80000000D02*
X80605000Y-80000000D01*
X80625000Y-68907500D02*
X90395000Y-68907500D01*
X80625000Y-73977500D02*
X90395000Y-73977500D01*
X80625000Y-68907500D02*
X80625000Y-73977500D01*
X90395000Y-68907500D02*
X90395000Y-73977500D01*
X90370000Y-54586000D02*
X80630000Y-54586000D01*
X90370000Y-66176000D02*
X88880000Y-66176000D01*
X90370000Y-57646000D02*
X90370000Y-54586000D01*
X80620000Y-66176000D02*
X80620000Y-61456000D01*
X80630000Y-57646000D02*
X80630000Y-54586000D01*
X90370000Y-66176000D02*
X90370000Y-61456000D01*
X81810000Y-66176000D02*
X80630000Y-66176000D01*
X84710000Y-66176000D02*
X84180000Y-66176000D01*
X87160000Y-66176000D02*
X86330000Y-66176000D01*
X77049500Y-103989000D02*
X80049500Y-103989000D01*
X80049500Y-95889000D02*
X77049500Y-95889000D01*
X77049500Y-103989000D02*
X77049500Y-95889000D01*
X80049500Y-95889000D02*
X80049500Y-103989000D01*
X91869000Y-81762600D02*
X91869000Y-88620600D01*
X91869000Y-88620600D02*
X79169000Y-88620600D01*
X79169000Y-88620600D02*
X79169000Y-81762600D01*
X79169000Y-81762600D02*
X91869000Y-81762600D01*
D10*
X81026000Y-103632000D02*
X83566000Y-103632000D01*
X83566000Y-103632000D02*
X83566000Y-104267000D01*
X83566000Y-104267000D02*
X87376000Y-104267000D01*
X87376000Y-104267000D02*
X87376000Y-103632000D01*
X87376000Y-103632000D02*
X89916000Y-103632000D01*
X89971000Y-93822000D02*
X89971000Y-104322000D01*
X80971000Y-93822000D02*
X80971000Y-104322000D01*
X80971000Y-104322000D02*
X89971000Y-104322000D01*
X80971000Y-93822000D02*
X89971000Y-93822000D01*
X81026000Y-118491000D02*
X83566000Y-118491000D01*
X83566000Y-118491000D02*
X83566000Y-119126000D01*
X83566000Y-119126000D02*
X87376000Y-119126000D01*
X87376000Y-119126000D02*
X87376000Y-118491000D01*
X87376000Y-118491000D02*
X89916000Y-118491000D01*
X89971000Y-108681000D02*
X89971000Y-119181000D01*
X80971000Y-108681000D02*
X80971000Y-119181000D01*
X80971000Y-119181000D02*
X89971000Y-119181000D01*
X80971000Y-108681000D02*
X89971000Y-108681000D01*
X81026000Y-133604000D02*
X83566000Y-133604000D01*
X83566000Y-133604000D02*
X83566000Y-134239000D01*
X83566000Y-134239000D02*
X87376000Y-134239000D01*
X87376000Y-134239000D02*
X87376000Y-133604000D01*
X87376000Y-133604000D02*
X89916000Y-133604000D01*
X89971000Y-123794000D02*
X89971000Y-134294000D01*
X80971000Y-123794000D02*
X80971000Y-134294000D01*
X80971000Y-134294000D02*
X89971000Y-134294000D01*
X80971000Y-123794000D02*
X89971000Y-123794000D01*
X81026000Y-148590000D02*
X83566000Y-148590000D01*
X83566000Y-148590000D02*
X83566000Y-149225000D01*
X83566000Y-149225000D02*
X87376000Y-149225000D01*
X87376000Y-149225000D02*
X87376000Y-148590000D01*
X87376000Y-148590000D02*
X89916000Y-148590000D01*
X89971000Y-138780000D02*
X89971000Y-149280000D01*
X80971000Y-138780000D02*
X80971000Y-149280000D01*
X80971000Y-149280000D02*
X89971000Y-149280000D01*
X80971000Y-138780000D02*
X89971000Y-138780000D01*
X80163880Y-78065238D02*
X79687690Y-78398571D01*
X80163880Y-78636666D02*
X79163880Y-78636666D01*
X79163880Y-78255714D01*
X79211500Y-78160476D01*
X79259119Y-78112857D01*
X79354357Y-78065238D01*
X79497214Y-78065238D01*
X79592452Y-78112857D01*
X79640071Y-78160476D01*
X79687690Y-78255714D01*
X79687690Y-78636666D01*
X79163880Y-77779523D02*
X80163880Y-77446190D01*
X79163880Y-77112857D01*
X79259119Y-76827142D02*
X79211500Y-76779523D01*
X79163880Y-76684285D01*
X79163880Y-76446190D01*
X79211500Y-76350952D01*
X79259119Y-76303333D01*
X79354357Y-76255714D01*
X79449595Y-76255714D01*
X79592452Y-76303333D01*
X80163880Y-76874761D01*
X80163880Y-76255714D01*
X91146380Y-79065238D02*
X91146380Y-78493809D01*
X92146380Y-78779523D02*
X91146380Y-78779523D01*
X92146380Y-77589047D02*
X91670190Y-77922380D01*
X92146380Y-78160476D02*
X91146380Y-78160476D01*
X91146380Y-77779523D01*
X91194000Y-77684285D01*
X91241619Y-77636666D01*
X91336857Y-77589047D01*
X91479714Y-77589047D01*
X91574952Y-77636666D01*
X91622571Y-77684285D01*
X91670190Y-77779523D01*
X91670190Y-78160476D01*
X92146380Y-77160476D02*
X91146380Y-77160476D01*
X92146380Y-76684285D02*
X91146380Y-76684285D01*
X91860666Y-76350952D01*
X91146380Y-76017619D01*
X92146380Y-76017619D01*
X88241285Y-78668619D02*
X88288904Y-78621000D01*
X88384142Y-78573380D01*
X88622238Y-78573380D01*
X88717476Y-78621000D01*
X88765095Y-78668619D01*
X88812714Y-78763857D01*
X88812714Y-78859095D01*
X88765095Y-79001952D01*
X88193666Y-79573380D01*
X88812714Y-79573380D01*
X89241285Y-79573380D02*
X89241285Y-78573380D01*
X89812714Y-79573380D02*
X89384142Y-79001952D01*
X89812714Y-78573380D02*
X89241285Y-79144809D01*
X80106780Y-72032738D02*
X79630590Y-72366071D01*
X80106780Y-72604166D02*
X79106780Y-72604166D01*
X79106780Y-72223214D01*
X79154400Y-72127976D01*
X79202019Y-72080357D01*
X79297257Y-72032738D01*
X79440114Y-72032738D01*
X79535352Y-72080357D01*
X79582971Y-72127976D01*
X79630590Y-72223214D01*
X79630590Y-72604166D01*
X79106780Y-71747023D02*
X80106780Y-71413690D01*
X79106780Y-71080357D01*
X79106780Y-70842261D02*
X79106780Y-70223214D01*
X79487733Y-70556547D01*
X79487733Y-70413690D01*
X79535352Y-70318452D01*
X79582971Y-70270833D01*
X79678209Y-70223214D01*
X79916304Y-70223214D01*
X80011542Y-70270833D01*
X80059161Y-70318452D01*
X80106780Y-70413690D01*
X80106780Y-70699404D01*
X80059161Y-70794642D01*
X80011542Y-70842261D01*
X91622571Y-72508928D02*
X91670190Y-72366071D01*
X91717809Y-72318452D01*
X91813047Y-72270833D01*
X91955904Y-72270833D01*
X92051142Y-72318452D01*
X92098761Y-72366071D01*
X92146380Y-72461309D01*
X92146380Y-72842261D01*
X91146380Y-72842261D01*
X91146380Y-72508928D01*
X91194000Y-72413690D01*
X91241619Y-72366071D01*
X91336857Y-72318452D01*
X91432095Y-72318452D01*
X91527333Y-72366071D01*
X91574952Y-72413690D01*
X91622571Y-72508928D01*
X91622571Y-72842261D01*
X92146380Y-71842261D02*
X91146380Y-71842261D01*
X91860666Y-71413690D02*
X91860666Y-70937500D01*
X92146380Y-71508928D02*
X91146380Y-71175595D01*
X92146380Y-70842261D01*
X92098761Y-70556547D02*
X92146380Y-70413690D01*
X92146380Y-70175595D01*
X92098761Y-70080357D01*
X92051142Y-70032738D01*
X91955904Y-69985119D01*
X91860666Y-69985119D01*
X91765428Y-70032738D01*
X91717809Y-70080357D01*
X91670190Y-70175595D01*
X91622571Y-70366071D01*
X91574952Y-70461309D01*
X91527333Y-70508928D01*
X91432095Y-70556547D01*
X91336857Y-70556547D01*
X91241619Y-70508928D01*
X91194000Y-70461309D01*
X91146380Y-70366071D01*
X91146380Y-70127976D01*
X91194000Y-69985119D01*
X81586533Y-73591680D02*
X81015104Y-73591680D01*
X81300819Y-73591680D02*
X81300819Y-72591680D01*
X81205580Y-72734538D01*
X81110342Y-72829776D01*
X81015104Y-72877395D01*
X82205580Y-72591680D02*
X82300819Y-72591680D01*
X82396057Y-72639300D01*
X82443676Y-72686919D01*
X82491295Y-72782157D01*
X82538914Y-72972633D01*
X82538914Y-73210728D01*
X82491295Y-73401204D01*
X82443676Y-73496442D01*
X82396057Y-73544061D01*
X82300819Y-73591680D01*
X82205580Y-73591680D01*
X82110342Y-73544061D01*
X82062723Y-73496442D01*
X82015104Y-73401204D01*
X81967485Y-73210728D01*
X81967485Y-72972633D01*
X82015104Y-72782157D01*
X82062723Y-72686919D01*
X82110342Y-72639300D01*
X82205580Y-72591680D01*
X83157961Y-72591680D02*
X83253200Y-72591680D01*
X83348438Y-72639300D01*
X83396057Y-72686919D01*
X83443676Y-72782157D01*
X83491295Y-72972633D01*
X83491295Y-73210728D01*
X83443676Y-73401204D01*
X83396057Y-73496442D01*
X83348438Y-73544061D01*
X83253200Y-73591680D01*
X83157961Y-73591680D01*
X83062723Y-73544061D01*
X83015104Y-73496442D01*
X82967485Y-73401204D01*
X82919866Y-73210728D01*
X82919866Y-72972633D01*
X82967485Y-72782157D01*
X83015104Y-72686919D01*
X83062723Y-72639300D01*
X83157961Y-72591680D01*
X83919866Y-73591680D02*
X83919866Y-72591680D01*
X84491295Y-73591680D02*
X84062723Y-73020252D01*
X84491295Y-72591680D02*
X83919866Y-73163109D01*
X78812380Y-60941238D02*
X78336190Y-61274571D01*
X78812380Y-61512666D02*
X77812380Y-61512666D01*
X77812380Y-61131714D01*
X77860000Y-61036476D01*
X77907619Y-60988857D01*
X78002857Y-60941238D01*
X78145714Y-60941238D01*
X78240952Y-60988857D01*
X78288571Y-61036476D01*
X78336190Y-61131714D01*
X78336190Y-61512666D01*
X77812380Y-60655523D02*
X78812380Y-60322190D01*
X77812380Y-59988857D01*
X78812380Y-59131714D02*
X78812380Y-59703142D01*
X78812380Y-59417428D02*
X77812380Y-59417428D01*
X77955238Y-59512666D01*
X78050476Y-59607904D01*
X78098095Y-59703142D01*
X93416380Y-62807191D02*
X92940190Y-63140524D01*
X93416380Y-63378620D02*
X92416380Y-63378620D01*
X92416380Y-62997667D01*
X92464000Y-62902429D01*
X92511619Y-62854810D01*
X92606857Y-62807191D01*
X92749714Y-62807191D01*
X92844952Y-62854810D01*
X92892571Y-62902429D01*
X92940190Y-62997667D01*
X92940190Y-63378620D01*
X93511619Y-62616715D02*
X93511619Y-61854810D01*
X93416380Y-61616715D02*
X92416380Y-61616715D01*
X92416380Y-61235762D01*
X92464000Y-61140524D01*
X92511619Y-61092905D01*
X92606857Y-61045286D01*
X92749714Y-61045286D01*
X92844952Y-61092905D01*
X92892571Y-61140524D01*
X92940190Y-61235762D01*
X92940190Y-61616715D01*
X92416380Y-60426239D02*
X92416380Y-60235762D01*
X92464000Y-60140524D01*
X92559238Y-60045286D01*
X92749714Y-59997667D01*
X93083047Y-59997667D01*
X93273523Y-60045286D01*
X93368761Y-60140524D01*
X93416380Y-60235762D01*
X93416380Y-60426239D01*
X93368761Y-60521477D01*
X93273523Y-60616715D01*
X93083047Y-60664334D01*
X92749714Y-60664334D01*
X92559238Y-60616715D01*
X92464000Y-60521477D01*
X92416380Y-60426239D01*
X92416380Y-59711953D02*
X92416380Y-59140524D01*
X93416380Y-59426239D02*
X92416380Y-59426239D01*
X83642857Y-61192071D02*
X83785714Y-61239690D01*
X83833333Y-61287309D01*
X83880952Y-61382547D01*
X83880952Y-61525404D01*
X83833333Y-61620642D01*
X83785714Y-61668261D01*
X83690476Y-61715880D01*
X83309523Y-61715880D01*
X83309523Y-60715880D01*
X83642857Y-60715880D01*
X83738095Y-60763500D01*
X83785714Y-60811119D01*
X83833333Y-60906357D01*
X83833333Y-61001595D01*
X83785714Y-61096833D01*
X83738095Y-61144452D01*
X83642857Y-61192071D01*
X83309523Y-61192071D01*
X84833333Y-61715880D02*
X84261904Y-61715880D01*
X84547619Y-61715880D02*
X84547619Y-60715880D01*
X84452380Y-60858738D01*
X84357142Y-60953976D01*
X84261904Y-61001595D01*
X85452380Y-60715880D02*
X85547619Y-60715880D01*
X85642857Y-60763500D01*
X85690476Y-60811119D01*
X85738095Y-60906357D01*
X85785714Y-61096833D01*
X85785714Y-61334928D01*
X85738095Y-61525404D01*
X85690476Y-61620642D01*
X85642857Y-61668261D01*
X85547619Y-61715880D01*
X85452380Y-61715880D01*
X85357142Y-61668261D01*
X85309523Y-61620642D01*
X85261904Y-61525404D01*
X85214285Y-61334928D01*
X85214285Y-61096833D01*
X85261904Y-60906357D01*
X85309523Y-60811119D01*
X85357142Y-60763500D01*
X85452380Y-60715880D01*
X86404761Y-60715880D02*
X86500000Y-60715880D01*
X86595238Y-60763500D01*
X86642857Y-60811119D01*
X86690476Y-60906357D01*
X86738095Y-61096833D01*
X86738095Y-61334928D01*
X86690476Y-61525404D01*
X86642857Y-61620642D01*
X86595238Y-61668261D01*
X86500000Y-61715880D01*
X86404761Y-61715880D01*
X86309523Y-61668261D01*
X86261904Y-61620642D01*
X86214285Y-61525404D01*
X86166666Y-61334928D01*
X86166666Y-61096833D01*
X86214285Y-60906357D01*
X86261904Y-60811119D01*
X86309523Y-60763500D01*
X86404761Y-60715880D01*
X87166666Y-61715880D02*
X87166666Y-60715880D01*
X87738095Y-61715880D02*
X87309523Y-61144452D01*
X87738095Y-60715880D02*
X87166666Y-61287309D01*
X77413785Y-99392642D02*
X77928071Y-99392642D01*
X77670928Y-100292642D02*
X77670928Y-99392642D01*
X78228071Y-100292642D02*
X78228071Y-99392642D01*
X78570928Y-99392642D01*
X78656642Y-99435500D01*
X78699500Y-99478357D01*
X78742357Y-99564071D01*
X78742357Y-99692642D01*
X78699500Y-99778357D01*
X78656642Y-99821214D01*
X78570928Y-99864071D01*
X78228071Y-99864071D01*
X79599500Y-100292642D02*
X79085214Y-100292642D01*
X79342357Y-100292642D02*
X79342357Y-99392642D01*
X79256642Y-99521214D01*
X79170928Y-99606928D01*
X79085214Y-99649785D01*
X93264361Y-86829733D02*
X93311980Y-86686876D01*
X93311980Y-86448780D01*
X93264361Y-86353542D01*
X93216742Y-86305923D01*
X93121504Y-86258304D01*
X93026266Y-86258304D01*
X92931028Y-86305923D01*
X92883409Y-86353542D01*
X92835790Y-86448780D01*
X92788171Y-86639257D01*
X92740552Y-86734495D01*
X92692933Y-86782114D01*
X92597695Y-86829733D01*
X92502457Y-86829733D01*
X92407219Y-86782114D01*
X92359600Y-86734495D01*
X92311980Y-86639257D01*
X92311980Y-86401161D01*
X92359600Y-86258304D01*
X92311980Y-85924971D02*
X93311980Y-85686876D01*
X92597695Y-85496400D01*
X93311980Y-85305923D01*
X92311980Y-85067828D01*
X93311980Y-84163066D02*
X93311980Y-84734495D01*
X93311980Y-84448780D02*
X92311980Y-84448780D01*
X92454838Y-84544019D01*
X92550076Y-84639257D01*
X92597695Y-84734495D01*
X78443461Y-87448477D02*
X78491080Y-87305619D01*
X78491080Y-87067524D01*
X78443461Y-86972286D01*
X78395842Y-86924667D01*
X78300604Y-86877048D01*
X78205366Y-86877048D01*
X78110128Y-86924667D01*
X78062509Y-86972286D01*
X78014890Y-87067524D01*
X77967271Y-87258000D01*
X77919652Y-87353239D01*
X77872033Y-87400858D01*
X77776795Y-87448477D01*
X77681557Y-87448477D01*
X77586319Y-87400858D01*
X77538700Y-87353239D01*
X77491080Y-87258000D01*
X77491080Y-87019905D01*
X77538700Y-86877048D01*
X77491080Y-86543715D02*
X78491080Y-86305619D01*
X77776795Y-86115143D01*
X78491080Y-85924667D01*
X77491080Y-85686572D01*
X78586319Y-85543715D02*
X78586319Y-84781810D01*
X78443461Y-84591334D02*
X78491080Y-84448477D01*
X78491080Y-84210381D01*
X78443461Y-84115143D01*
X78395842Y-84067524D01*
X78300604Y-84019905D01*
X78205366Y-84019905D01*
X78110128Y-84067524D01*
X78062509Y-84115143D01*
X78014890Y-84210381D01*
X77967271Y-84400858D01*
X77919652Y-84496096D01*
X77872033Y-84543715D01*
X77776795Y-84591334D01*
X77681557Y-84591334D01*
X77586319Y-84543715D01*
X77538700Y-84496096D01*
X77491080Y-84400858D01*
X77491080Y-84162762D01*
X77538700Y-84019905D01*
X78491080Y-83591334D02*
X77491080Y-83591334D01*
X77491080Y-83210381D01*
X77538700Y-83115143D01*
X77586319Y-83067524D01*
X77681557Y-83019905D01*
X77824414Y-83019905D01*
X77919652Y-83067524D01*
X77967271Y-83115143D01*
X78014890Y-83210381D01*
X78014890Y-83591334D01*
X78491080Y-82591334D02*
X77491080Y-82591334D01*
X77491080Y-82353239D01*
X77538700Y-82210381D01*
X77633938Y-82115143D01*
X77729176Y-82067524D01*
X77919652Y-82019905D01*
X78062509Y-82019905D01*
X78252985Y-82067524D01*
X78348223Y-82115143D01*
X78443461Y-82210381D01*
X78491080Y-82353239D01*
X78491080Y-82591334D01*
X77491080Y-81734191D02*
X77491080Y-81162762D01*
X78491080Y-81448477D02*
X77491080Y-81448477D01*
X90638380Y-99774333D02*
X91352666Y-99774333D01*
X91495523Y-99821952D01*
X91590761Y-99917190D01*
X91638380Y-100060047D01*
X91638380Y-100155285D01*
X90733619Y-99345761D02*
X90686000Y-99298142D01*
X90638380Y-99202904D01*
X90638380Y-98964809D01*
X90686000Y-98869571D01*
X90733619Y-98821952D01*
X90828857Y-98774333D01*
X90924095Y-98774333D01*
X91066952Y-98821952D01*
X91638380Y-99393380D01*
X91638380Y-98774333D01*
X90638380Y-114252333D02*
X91352666Y-114252333D01*
X91495523Y-114299952D01*
X91590761Y-114395190D01*
X91638380Y-114538047D01*
X91638380Y-114633285D01*
X90638380Y-113871380D02*
X90638380Y-113252333D01*
X91019333Y-113585666D01*
X91019333Y-113442809D01*
X91066952Y-113347571D01*
X91114571Y-113299952D01*
X91209809Y-113252333D01*
X91447904Y-113252333D01*
X91543142Y-113299952D01*
X91590761Y-113347571D01*
X91638380Y-113442809D01*
X91638380Y-113728523D01*
X91590761Y-113823761D01*
X91543142Y-113871380D01*
X79208380Y-129111333D02*
X79922666Y-129111333D01*
X80065523Y-129158952D01*
X80160761Y-129254190D01*
X80208380Y-129397047D01*
X80208380Y-129492285D01*
X79541714Y-128206571D02*
X80208380Y-128206571D01*
X79160761Y-128444666D02*
X79875047Y-128682761D01*
X79875047Y-128063714D01*
X79208380Y-144224333D02*
X79922666Y-144224333D01*
X80065523Y-144271952D01*
X80160761Y-144367190D01*
X80208380Y-144510047D01*
X80208380Y-144605285D01*
X80208380Y-143224333D02*
X80208380Y-143795761D01*
X80208380Y-143510047D02*
X79208380Y-143510047D01*
X79351238Y-143605285D01*
X79446476Y-143700523D01*
X79494095Y-143795761D01*
M02*
