M48
; DRILL file {KiCad (5.1.5-0-10_14)} date Saturday, October 10, 2020 at 03:47:03 PM
; FORMAT={-:-/ absolute / inch / decimal}
; #@! TF.CreationDate,2020-10-10T15:47:03-04:00
; #@! TF.GenerationSoftware,Kicad,Pcbnew,(5.1.5-0-10_14)
; #@! TF.FileFunction,Plated,1,2,PTH
FMAT,2
INCH
T1C0.0197
T2C0.0315
T3C0.0354
T4C0.0394
T5C0.0433
T6C0.0472
T7C0.0512
%
G90
G05
T2
X3.2665Y-2.26
X3.3665Y-2.26
X3.4665Y-2.26
X3.2657Y-3.065
X3.3657Y-3.065
X3.4657Y-3.065
X3.1147Y-5.4946
X3.1147Y-5.7946
T3
X3.0423Y-5.9304
X3.1423Y-5.9304
T4
X3.6475Y-5.038
X3.6475Y-5.138
X3.6475Y-5.238
X3.6475Y-5.338
X3.6475Y-5.438
X3.6475Y-5.538
X3.6475Y-5.638
X3.6475Y-5.738
X3.6475Y-5.838
X3.6475Y-5.938
X3.1161Y-3.5675
X3.2161Y-3.5675
X3.3161Y-3.5675
X3.4161Y-3.5675
X3.5161Y-3.5675
X3.6161Y-3.5675
X3.2677Y-2.8959
X3.3661Y-2.8959
X3.4646Y-2.8959
T7
X3.65Y-3.82
X3.65Y-4.02
T1
G00X3.3453Y-4.9163
M15
G01X3.3847Y-4.9163
M16
G05
G00X3.3453Y-5.2431
M15
G01X3.3847Y-5.2431
M16
G05
G00X3.3453Y-5.3651
M15
G01X3.3847Y-5.3651
M16
G05
G00X3.3453Y-5.5063
M15
G01X3.3847Y-5.5063
M16
G05
G00X3.3453Y-5.8331
M15
G01X3.3847Y-5.8331
M16
G05
G00X3.3453Y-5.9551
M15
G01X3.3847Y-5.9551
M16
G05
G00X3.3453Y-4.3213
M15
G01X3.3847Y-4.3213
M16
G05
G00X3.3453Y-4.6481
M15
G01X3.3847Y-4.6481
M16
G05
G00X3.3453Y-4.7701
M15
G01X3.3847Y-4.7701
M16
G05
G00X3.3453Y-3.7363
M15
G01X3.3847Y-3.7363
M16
G05
G00X3.3453Y-4.0631
M15
G01X3.3847Y-4.0631
M16
G05
G00X3.3453Y-4.1851
M15
G01X3.3847Y-4.1851
M16
G05
T5
G00X3.1772Y-2.6144
M15
G01X3.1772Y-2.5869
M16
G05
G00X3.5551Y-2.6144
M15
G01X3.5551Y-2.5869
M16
G05
T6
G00X3.182Y-3.3313
M15
G01X3.182Y-3.3766
M16
G05
G00X3.367Y-3.3313
M15
G01X3.367Y-3.3766
M16
G05
G00X3.5521Y-3.3313
M15
G01X3.5521Y-3.3766
M16
G05
T0
M30
