G04 #@! TF.GenerationSoftware,KiCad,Pcbnew,(5.1.5-0-10_14)*
G04 #@! TF.CreationDate,2020-09-10T18:34:02-04:00*
G04 #@! TF.ProjectId,AYOMSM - VCA Control Board,41594f4d-534d-4202-9d20-56434120436f,1.1*
G04 #@! TF.SameCoordinates,Original*
G04 #@! TF.FileFunction,Legend,Bot*
G04 #@! TF.FilePolarity,Positive*
%FSLAX46Y46*%
G04 Gerber Fmt 4.6, Leading zero omitted, Abs format (unit mm)*
G04 Created by KiCad (PCBNEW (5.1.5-0-10_14)) date 2020-09-10 18:34:02*
%MOMM*%
%LPD*%
G04 APERTURE LIST*
%ADD10C,0.150000*%
%ADD11C,0.010000*%
%ADD12C,0.120000*%
G04 APERTURE END LIST*
D10*
X76795380Y-109254428D02*
X76795380Y-109444904D01*
X76843000Y-109540142D01*
X76938238Y-109635380D01*
X77128714Y-109683000D01*
X77462047Y-109683000D01*
X77652523Y-109635380D01*
X77747761Y-109540142D01*
X77795380Y-109444904D01*
X77795380Y-109254428D01*
X77747761Y-109159190D01*
X77652523Y-109063952D01*
X77462047Y-109016333D01*
X77128714Y-109016333D01*
X76938238Y-109063952D01*
X76843000Y-109159190D01*
X76795380Y-109254428D01*
X77795380Y-110111571D02*
X77128714Y-110111571D01*
X77319190Y-110111571D02*
X77223952Y-110159190D01*
X77176333Y-110206809D01*
X77128714Y-110302047D01*
X77128714Y-110397285D01*
X77795380Y-110730619D02*
X77128714Y-110730619D01*
X76795380Y-110730619D02*
X76843000Y-110683000D01*
X76890619Y-110730619D01*
X76843000Y-110778238D01*
X76795380Y-110730619D01*
X76890619Y-110730619D01*
X77128714Y-111635380D02*
X77938238Y-111635380D01*
X78033476Y-111587761D01*
X78081095Y-111540142D01*
X78128714Y-111444904D01*
X78128714Y-111302047D01*
X78081095Y-111206809D01*
X77747761Y-111635380D02*
X77795380Y-111540142D01*
X77795380Y-111349666D01*
X77747761Y-111254428D01*
X77700142Y-111206809D01*
X77604904Y-111159190D01*
X77319190Y-111159190D01*
X77223952Y-111206809D01*
X77176333Y-111254428D01*
X77128714Y-111349666D01*
X77128714Y-111540142D01*
X77176333Y-111635380D01*
X77795380Y-112111571D02*
X77128714Y-112111571D01*
X76795380Y-112111571D02*
X76843000Y-112063952D01*
X76890619Y-112111571D01*
X76843000Y-112159190D01*
X76795380Y-112111571D01*
X76890619Y-112111571D01*
X77128714Y-112587761D02*
X77795380Y-112587761D01*
X77223952Y-112587761D02*
X77176333Y-112635380D01*
X77128714Y-112730619D01*
X77128714Y-112873476D01*
X77176333Y-112968714D01*
X77271571Y-113016333D01*
X77795380Y-113016333D01*
X77795380Y-113921095D02*
X77271571Y-113921095D01*
X77176333Y-113873476D01*
X77128714Y-113778238D01*
X77128714Y-113587761D01*
X77176333Y-113492523D01*
X77747761Y-113921095D02*
X77795380Y-113825857D01*
X77795380Y-113587761D01*
X77747761Y-113492523D01*
X77652523Y-113444904D01*
X77557285Y-113444904D01*
X77462047Y-113492523D01*
X77414428Y-113587761D01*
X77414428Y-113825857D01*
X77366809Y-113921095D01*
X77795380Y-114540142D02*
X77747761Y-114444904D01*
X77652523Y-114397285D01*
X76795380Y-114397285D01*
X77795380Y-115683000D02*
X76795380Y-115683000D01*
X76795380Y-115921095D01*
X76843000Y-116063952D01*
X76938238Y-116159190D01*
X77033476Y-116206809D01*
X77223952Y-116254428D01*
X77366809Y-116254428D01*
X77557285Y-116206809D01*
X77652523Y-116159190D01*
X77747761Y-116063952D01*
X77795380Y-115921095D01*
X77795380Y-115683000D01*
X77747761Y-117063952D02*
X77795380Y-116968714D01*
X77795380Y-116778238D01*
X77747761Y-116683000D01*
X77652523Y-116635380D01*
X77271571Y-116635380D01*
X77176333Y-116683000D01*
X77128714Y-116778238D01*
X77128714Y-116968714D01*
X77176333Y-117063952D01*
X77271571Y-117111571D01*
X77366809Y-117111571D01*
X77462047Y-116635380D01*
X77747761Y-117492523D02*
X77795380Y-117587761D01*
X77795380Y-117778238D01*
X77747761Y-117873476D01*
X77652523Y-117921095D01*
X77604904Y-117921095D01*
X77509666Y-117873476D01*
X77462047Y-117778238D01*
X77462047Y-117635380D01*
X77414428Y-117540142D01*
X77319190Y-117492523D01*
X77271571Y-117492523D01*
X77176333Y-117540142D01*
X77128714Y-117635380D01*
X77128714Y-117778238D01*
X77176333Y-117873476D01*
X77795380Y-118349666D02*
X77128714Y-118349666D01*
X76795380Y-118349666D02*
X76843000Y-118302047D01*
X76890619Y-118349666D01*
X76843000Y-118397285D01*
X76795380Y-118349666D01*
X76890619Y-118349666D01*
X77128714Y-119254428D02*
X77938238Y-119254428D01*
X78033476Y-119206809D01*
X78081095Y-119159190D01*
X78128714Y-119063952D01*
X78128714Y-118921095D01*
X78081095Y-118825857D01*
X77747761Y-119254428D02*
X77795380Y-119159190D01*
X77795380Y-118968714D01*
X77747761Y-118873476D01*
X77700142Y-118825857D01*
X77604904Y-118778238D01*
X77319190Y-118778238D01*
X77223952Y-118825857D01*
X77176333Y-118873476D01*
X77128714Y-118968714D01*
X77128714Y-119159190D01*
X77176333Y-119254428D01*
X77128714Y-119730619D02*
X77795380Y-119730619D01*
X77223952Y-119730619D02*
X77176333Y-119778238D01*
X77128714Y-119873476D01*
X77128714Y-120016333D01*
X77176333Y-120111571D01*
X77271571Y-120159190D01*
X77795380Y-120159190D01*
X77795380Y-121397285D02*
X76795380Y-121397285D01*
X77176333Y-121397285D02*
X77128714Y-121492523D01*
X77128714Y-121683000D01*
X77176333Y-121778238D01*
X77223952Y-121825857D01*
X77319190Y-121873476D01*
X77604904Y-121873476D01*
X77700142Y-121825857D01*
X77747761Y-121778238D01*
X77795380Y-121683000D01*
X77795380Y-121492523D01*
X77747761Y-121397285D01*
X77128714Y-122206809D02*
X77795380Y-122444904D01*
X77128714Y-122683000D02*
X77795380Y-122444904D01*
X78033476Y-122349666D01*
X78081095Y-122302047D01*
X78128714Y-122206809D01*
X77795380Y-124397285D02*
X77319190Y-124063952D01*
X77795380Y-123825857D02*
X76795380Y-123825857D01*
X76795380Y-124206809D01*
X76843000Y-124302047D01*
X76890619Y-124349666D01*
X76985857Y-124397285D01*
X77128714Y-124397285D01*
X77223952Y-124349666D01*
X77271571Y-124302047D01*
X77319190Y-124206809D01*
X77319190Y-123825857D01*
X77795380Y-125254428D02*
X77271571Y-125254428D01*
X77176333Y-125206809D01*
X77128714Y-125111571D01*
X77128714Y-124921095D01*
X77176333Y-124825857D01*
X77747761Y-125254428D02*
X77795380Y-125159190D01*
X77795380Y-124921095D01*
X77747761Y-124825857D01*
X77652523Y-124778238D01*
X77557285Y-124778238D01*
X77462047Y-124825857D01*
X77414428Y-124921095D01*
X77414428Y-125159190D01*
X77366809Y-125254428D01*
X77128714Y-125635380D02*
X77795380Y-125873476D01*
X77128714Y-126111571D02*
X77795380Y-125873476D01*
X78033476Y-125778238D01*
X78081095Y-125730619D01*
X78128714Y-125635380D01*
X76795380Y-127159190D02*
X77795380Y-127397285D01*
X77081095Y-127587761D01*
X77795380Y-127778238D01*
X76795380Y-128016333D01*
X77795380Y-128397285D02*
X77128714Y-128397285D01*
X76795380Y-128397285D02*
X76843000Y-128349666D01*
X76890619Y-128397285D01*
X76843000Y-128444904D01*
X76795380Y-128397285D01*
X76890619Y-128397285D01*
X77795380Y-129016333D02*
X77747761Y-128921095D01*
X77652523Y-128873476D01*
X76795380Y-128873476D01*
X77747761Y-129349666D02*
X77795380Y-129444904D01*
X77795380Y-129635380D01*
X77747761Y-129730619D01*
X77652523Y-129778238D01*
X77604904Y-129778238D01*
X77509666Y-129730619D01*
X77462047Y-129635380D01*
X77462047Y-129492523D01*
X77414428Y-129397285D01*
X77319190Y-129349666D01*
X77271571Y-129349666D01*
X77176333Y-129397285D01*
X77128714Y-129492523D01*
X77128714Y-129635380D01*
X77176333Y-129730619D01*
X77795380Y-130349666D02*
X77747761Y-130254428D01*
X77700142Y-130206809D01*
X77604904Y-130159190D01*
X77319190Y-130159190D01*
X77223952Y-130206809D01*
X77176333Y-130254428D01*
X77128714Y-130349666D01*
X77128714Y-130492523D01*
X77176333Y-130587761D01*
X77223952Y-130635380D01*
X77319190Y-130682999D01*
X77604904Y-130682999D01*
X77700142Y-130635380D01*
X77747761Y-130587761D01*
X77795380Y-130492523D01*
X77795380Y-130349666D01*
X77128714Y-131111571D02*
X77795380Y-131111571D01*
X77223952Y-131111571D02*
X77176333Y-131159190D01*
X77128714Y-131254428D01*
X77128714Y-131397285D01*
X77176333Y-131492523D01*
X77271571Y-131540142D01*
X77795380Y-131540142D01*
X78176333Y-133063952D02*
X78128714Y-133016333D01*
X77985857Y-132921095D01*
X77890619Y-132873476D01*
X77747761Y-132825857D01*
X77509666Y-132778238D01*
X77319190Y-132778238D01*
X77081095Y-132825857D01*
X76938238Y-132873476D01*
X76843000Y-132921095D01*
X76700142Y-133016333D01*
X76652523Y-133063952D01*
X77795380Y-133444904D02*
X76795380Y-133444904D01*
X77509666Y-133778238D01*
X76795380Y-134111571D01*
X77795380Y-134111571D01*
X77128714Y-135016333D02*
X77795380Y-135016333D01*
X77128714Y-134587761D02*
X77652523Y-134587761D01*
X77747761Y-134635380D01*
X77795380Y-134730619D01*
X77795380Y-134873476D01*
X77747761Y-134968714D01*
X77700142Y-135016333D01*
X77747761Y-135444904D02*
X77795380Y-135540142D01*
X77795380Y-135730619D01*
X77747761Y-135825857D01*
X77652523Y-135873476D01*
X77604904Y-135873476D01*
X77509666Y-135825857D01*
X77462047Y-135730619D01*
X77462047Y-135587761D01*
X77414428Y-135492523D01*
X77319190Y-135444904D01*
X77271571Y-135444904D01*
X77176333Y-135492523D01*
X77128714Y-135587761D01*
X77128714Y-135730619D01*
X77176333Y-135825857D01*
X77795380Y-136302047D02*
X77128714Y-136302047D01*
X76795380Y-136302047D02*
X76843000Y-136254428D01*
X76890619Y-136302047D01*
X76843000Y-136349666D01*
X76795380Y-136302047D01*
X76890619Y-136302047D01*
X77747761Y-137206809D02*
X77795380Y-137111571D01*
X77795380Y-136921095D01*
X77747761Y-136825857D01*
X77700142Y-136778238D01*
X77604904Y-136730619D01*
X77319190Y-136730619D01*
X77223952Y-136778238D01*
X77176333Y-136825857D01*
X77128714Y-136921095D01*
X77128714Y-137111571D01*
X77176333Y-137206809D01*
X77271571Y-138730619D02*
X77271571Y-138397285D01*
X77795380Y-138397285D02*
X76795380Y-138397285D01*
X76795380Y-138873476D01*
X77795380Y-139254428D02*
X77128714Y-139254428D01*
X77319190Y-139254428D02*
X77223952Y-139302047D01*
X77176333Y-139349666D01*
X77128714Y-139444904D01*
X77128714Y-139540142D01*
X77795380Y-140016333D02*
X77747761Y-139921095D01*
X77700142Y-139873476D01*
X77604904Y-139825857D01*
X77319190Y-139825857D01*
X77223952Y-139873476D01*
X77176333Y-139921095D01*
X77128714Y-140016333D01*
X77128714Y-140159190D01*
X77176333Y-140254428D01*
X77223952Y-140302047D01*
X77319190Y-140349666D01*
X77604904Y-140349666D01*
X77700142Y-140302047D01*
X77747761Y-140254428D01*
X77795380Y-140159190D01*
X77795380Y-140016333D01*
X77795380Y-140778238D02*
X77128714Y-140778238D01*
X77223952Y-140778238D02*
X77176333Y-140825857D01*
X77128714Y-140921095D01*
X77128714Y-141063952D01*
X77176333Y-141159190D01*
X77271571Y-141206809D01*
X77795380Y-141206809D01*
X77271571Y-141206809D02*
X77176333Y-141254428D01*
X77128714Y-141349666D01*
X77128714Y-141492523D01*
X77176333Y-141587761D01*
X77271571Y-141635380D01*
X77795380Y-141635380D01*
X76795380Y-143063952D02*
X76795380Y-143254428D01*
X76843000Y-143349666D01*
X76938238Y-143444904D01*
X77128714Y-143492523D01*
X77462047Y-143492523D01*
X77652523Y-143444904D01*
X77747761Y-143349666D01*
X77795380Y-143254428D01*
X77795380Y-143063952D01*
X77747761Y-142968714D01*
X77652523Y-142873476D01*
X77462047Y-142825857D01*
X77128714Y-142825857D01*
X76938238Y-142873476D01*
X76843000Y-142968714D01*
X76795380Y-143063952D01*
X77128714Y-144349666D02*
X77795380Y-144349666D01*
X77128714Y-143921095D02*
X77652523Y-143921095D01*
X77747761Y-143968714D01*
X77795380Y-144063952D01*
X77795380Y-144206809D01*
X77747761Y-144302047D01*
X77700142Y-144349666D01*
X77128714Y-144682999D02*
X77128714Y-145063952D01*
X76795380Y-144825857D02*
X77652523Y-144825857D01*
X77747761Y-144873476D01*
X77795380Y-144968714D01*
X77795380Y-145063952D01*
X77747761Y-145778238D02*
X77795380Y-145682999D01*
X77795380Y-145492523D01*
X77747761Y-145397285D01*
X77652523Y-145349666D01*
X77271571Y-145349666D01*
X77176333Y-145397285D01*
X77128714Y-145492523D01*
X77128714Y-145682999D01*
X77176333Y-145778238D01*
X77271571Y-145825857D01*
X77366809Y-145825857D01*
X77462047Y-145349666D01*
X77795380Y-146254428D02*
X77128714Y-146254428D01*
X77319190Y-146254428D02*
X77223952Y-146302047D01*
X77176333Y-146349666D01*
X77128714Y-146444904D01*
X77128714Y-146540142D01*
X77747761Y-147587761D02*
X77795380Y-147730619D01*
X77795380Y-147968714D01*
X77747761Y-148063952D01*
X77700142Y-148111571D01*
X77604904Y-148159190D01*
X77509666Y-148159190D01*
X77414428Y-148111571D01*
X77366809Y-148063952D01*
X77319190Y-147968714D01*
X77271571Y-147778238D01*
X77223952Y-147682999D01*
X77176333Y-147635380D01*
X77081095Y-147587761D01*
X76985857Y-147587761D01*
X76890619Y-147635380D01*
X76843000Y-147682999D01*
X76795380Y-147778238D01*
X76795380Y-148016333D01*
X76843000Y-148159190D01*
X77128714Y-148587761D02*
X78128714Y-148587761D01*
X77176333Y-148587761D02*
X77128714Y-148682999D01*
X77128714Y-148873476D01*
X77176333Y-148968714D01*
X77223952Y-149016333D01*
X77319190Y-149063952D01*
X77604904Y-149063952D01*
X77700142Y-149016333D01*
X77747761Y-148968714D01*
X77795380Y-148873476D01*
X77795380Y-148682999D01*
X77747761Y-148587761D01*
X77795380Y-149921095D02*
X77271571Y-149921095D01*
X77176333Y-149873476D01*
X77128714Y-149778238D01*
X77128714Y-149587761D01*
X77176333Y-149492523D01*
X77747761Y-149921095D02*
X77795380Y-149825857D01*
X77795380Y-149587761D01*
X77747761Y-149492523D01*
X77652523Y-149444904D01*
X77557285Y-149444904D01*
X77462047Y-149492523D01*
X77414428Y-149587761D01*
X77414428Y-149825857D01*
X77366809Y-149921095D01*
X77747761Y-150825857D02*
X77795380Y-150730619D01*
X77795380Y-150540142D01*
X77747761Y-150444904D01*
X77700142Y-150397285D01*
X77604904Y-150349666D01*
X77319190Y-150349666D01*
X77223952Y-150397285D01*
X77176333Y-150444904D01*
X77128714Y-150540142D01*
X77128714Y-150730619D01*
X77176333Y-150825857D01*
X77747761Y-151635380D02*
X77795380Y-151540142D01*
X77795380Y-151349666D01*
X77747761Y-151254428D01*
X77652523Y-151206809D01*
X77271571Y-151206809D01*
X77176333Y-151254428D01*
X77128714Y-151349666D01*
X77128714Y-151540142D01*
X77176333Y-151635380D01*
X77271571Y-151682999D01*
X77366809Y-151682999D01*
X77462047Y-151206809D01*
X78176333Y-152016333D02*
X78128714Y-152063952D01*
X77985857Y-152159190D01*
X77890619Y-152206809D01*
X77747761Y-152254428D01*
X77509666Y-152302047D01*
X77319190Y-152302047D01*
X77081095Y-152254428D01*
X76938238Y-152206809D01*
X76843000Y-152159190D01*
X76700142Y-152063952D01*
X76652523Y-152016333D01*
X94257761Y-76909095D02*
X94305380Y-77051952D01*
X94305380Y-77290047D01*
X94257761Y-77385285D01*
X94210142Y-77432904D01*
X94114904Y-77480523D01*
X94019666Y-77480523D01*
X93924428Y-77432904D01*
X93876809Y-77385285D01*
X93829190Y-77290047D01*
X93781571Y-77099571D01*
X93733952Y-77004333D01*
X93686333Y-76956714D01*
X93591095Y-76909095D01*
X93495857Y-76909095D01*
X93400619Y-76956714D01*
X93353000Y-77004333D01*
X93305380Y-77099571D01*
X93305380Y-77337666D01*
X93353000Y-77480523D01*
X94305380Y-77909095D02*
X93305380Y-77909095D01*
X94305380Y-78337666D02*
X93781571Y-78337666D01*
X93686333Y-78290047D01*
X93638714Y-78194809D01*
X93638714Y-78051952D01*
X93686333Y-77956714D01*
X93733952Y-77909095D01*
X94305380Y-79242428D02*
X93781571Y-79242428D01*
X93686333Y-79194809D01*
X93638714Y-79099571D01*
X93638714Y-78909095D01*
X93686333Y-78813857D01*
X94257761Y-79242428D02*
X94305380Y-79147190D01*
X94305380Y-78909095D01*
X94257761Y-78813857D01*
X94162523Y-78766238D01*
X94067285Y-78766238D01*
X93972047Y-78813857D01*
X93924428Y-78909095D01*
X93924428Y-79147190D01*
X93876809Y-79242428D01*
X93638714Y-79718619D02*
X94638714Y-79718619D01*
X93686333Y-79718619D02*
X93638714Y-79813857D01*
X93638714Y-80004333D01*
X93686333Y-80099571D01*
X93733952Y-80147190D01*
X93829190Y-80194809D01*
X94114904Y-80194809D01*
X94210142Y-80147190D01*
X94257761Y-80099571D01*
X94305380Y-80004333D01*
X94305380Y-79813857D01*
X94257761Y-79718619D01*
X94257761Y-81004333D02*
X94305380Y-80909095D01*
X94305380Y-80718619D01*
X94257761Y-80623380D01*
X94162523Y-80575761D01*
X93781571Y-80575761D01*
X93686333Y-80623380D01*
X93638714Y-80718619D01*
X93638714Y-80909095D01*
X93686333Y-81004333D01*
X93781571Y-81051952D01*
X93876809Y-81051952D01*
X93972047Y-80575761D01*
X93638714Y-81337666D02*
X93638714Y-81718619D01*
X93305380Y-81480523D02*
X94162523Y-81480523D01*
X94257761Y-81528142D01*
X94305380Y-81623380D01*
X94305380Y-81718619D01*
X94305380Y-82480523D02*
X93781571Y-82480523D01*
X93686333Y-82432904D01*
X93638714Y-82337666D01*
X93638714Y-82147190D01*
X93686333Y-82051952D01*
X94257761Y-82480523D02*
X94305380Y-82385285D01*
X94305380Y-82147190D01*
X94257761Y-82051952D01*
X94162523Y-82004333D01*
X94067285Y-82004333D01*
X93972047Y-82051952D01*
X93924428Y-82147190D01*
X93924428Y-82385285D01*
X93876809Y-82480523D01*
X94305380Y-82956714D02*
X93305380Y-82956714D01*
X93924428Y-83051952D02*
X94305380Y-83337666D01*
X93638714Y-83337666D02*
X94019666Y-82956714D01*
X94257761Y-84147190D02*
X94305380Y-84051952D01*
X94305380Y-83861476D01*
X94257761Y-83766238D01*
X94162523Y-83718619D01*
X93781571Y-83718619D01*
X93686333Y-83766238D01*
X93638714Y-83861476D01*
X93638714Y-84051952D01*
X93686333Y-84147190D01*
X93781571Y-84194809D01*
X93876809Y-84194809D01*
X93972047Y-83718619D01*
X94305380Y-84623380D02*
X93638714Y-84623380D01*
X93829190Y-84623380D02*
X93733952Y-84671000D01*
X93686333Y-84718619D01*
X93638714Y-84813857D01*
X93638714Y-84909095D01*
X94019666Y-85956714D02*
X94019666Y-86432904D01*
X94305380Y-85861476D02*
X93305380Y-86194809D01*
X94305380Y-86528142D01*
X93638714Y-87290047D02*
X94305380Y-87290047D01*
X93638714Y-86861476D02*
X94162523Y-86861476D01*
X94257761Y-86909095D01*
X94305380Y-87004333D01*
X94305380Y-87147190D01*
X94257761Y-87242428D01*
X94210142Y-87290047D01*
X94305380Y-88194809D02*
X93305380Y-88194809D01*
X94257761Y-88194809D02*
X94305380Y-88099571D01*
X94305380Y-87909095D01*
X94257761Y-87813857D01*
X94210142Y-87766238D01*
X94114904Y-87718619D01*
X93829190Y-87718619D01*
X93733952Y-87766238D01*
X93686333Y-87813857D01*
X93638714Y-87909095D01*
X93638714Y-88099571D01*
X93686333Y-88194809D01*
X94305380Y-88671000D02*
X93638714Y-88671000D01*
X93305380Y-88671000D02*
X93353000Y-88623380D01*
X93400619Y-88671000D01*
X93353000Y-88718619D01*
X93305380Y-88671000D01*
X93400619Y-88671000D01*
X94305380Y-89290047D02*
X94257761Y-89194809D01*
X94210142Y-89147190D01*
X94114904Y-89099571D01*
X93829190Y-89099571D01*
X93733952Y-89147190D01*
X93686333Y-89194809D01*
X93638714Y-89290047D01*
X93638714Y-89432904D01*
X93686333Y-89528142D01*
X93733952Y-89575761D01*
X93829190Y-89623380D01*
X94114904Y-89623380D01*
X94210142Y-89575761D01*
X94257761Y-89528142D01*
X94305380Y-89432904D01*
X94305380Y-89290047D01*
X93924428Y-90813857D02*
X93924428Y-91575761D01*
X93305380Y-92813857D02*
X94114904Y-92813857D01*
X94210142Y-92861476D01*
X94257761Y-92909095D01*
X94305380Y-93004333D01*
X94305380Y-93194809D01*
X94257761Y-93290047D01*
X94210142Y-93337666D01*
X94114904Y-93385285D01*
X93305380Y-93385285D01*
X93638714Y-93718619D02*
X93638714Y-94099571D01*
X93305380Y-93861476D02*
X94162523Y-93861476D01*
X94257761Y-93909095D01*
X94305380Y-94004333D01*
X94305380Y-94099571D01*
X94305380Y-94432904D02*
X93638714Y-94432904D01*
X93305380Y-94432904D02*
X93353000Y-94385285D01*
X93400619Y-94432904D01*
X93353000Y-94480523D01*
X93305380Y-94432904D01*
X93400619Y-94432904D01*
X94305380Y-95051952D02*
X94257761Y-94956714D01*
X94162523Y-94909095D01*
X93305380Y-94909095D01*
X94305380Y-95432904D02*
X93638714Y-95432904D01*
X93305380Y-95432904D02*
X93353000Y-95385285D01*
X93400619Y-95432904D01*
X93353000Y-95480523D01*
X93305380Y-95432904D01*
X93400619Y-95432904D01*
X93638714Y-95766238D02*
X93638714Y-96147190D01*
X93305380Y-95909095D02*
X94162523Y-95909095D01*
X94257761Y-95956714D01*
X94305380Y-96051952D01*
X94305380Y-96147190D01*
X93638714Y-96385285D02*
X94305380Y-96623380D01*
X93638714Y-96861476D02*
X94305380Y-96623380D01*
X94543476Y-96528142D01*
X94591095Y-96480523D01*
X94638714Y-96385285D01*
X93305380Y-97861476D02*
X94305380Y-98194809D01*
X93305380Y-98528142D01*
X94210142Y-99432904D02*
X94257761Y-99385285D01*
X94305380Y-99242428D01*
X94305380Y-99147190D01*
X94257761Y-99004333D01*
X94162523Y-98909095D01*
X94067285Y-98861476D01*
X93876809Y-98813857D01*
X93733952Y-98813857D01*
X93543476Y-98861476D01*
X93448238Y-98909095D01*
X93353000Y-99004333D01*
X93305380Y-99147190D01*
X93305380Y-99242428D01*
X93353000Y-99385285D01*
X93400619Y-99432904D01*
X94019666Y-99813857D02*
X94019666Y-100290047D01*
X94305380Y-99718619D02*
X93305380Y-100051952D01*
X94305380Y-100385285D01*
X94210142Y-102051952D02*
X94257761Y-102004333D01*
X94305380Y-101861476D01*
X94305380Y-101766238D01*
X94257761Y-101623380D01*
X94162523Y-101528142D01*
X94067285Y-101480523D01*
X93876809Y-101432904D01*
X93733952Y-101432904D01*
X93543476Y-101480523D01*
X93448238Y-101528142D01*
X93353000Y-101623380D01*
X93305380Y-101766238D01*
X93305380Y-101861476D01*
X93353000Y-102004333D01*
X93400619Y-102051952D01*
X94305380Y-102623380D02*
X94257761Y-102528142D01*
X94210142Y-102480523D01*
X94114904Y-102432904D01*
X93829190Y-102432904D01*
X93733952Y-102480523D01*
X93686333Y-102528142D01*
X93638714Y-102623380D01*
X93638714Y-102766238D01*
X93686333Y-102861476D01*
X93733952Y-102909095D01*
X93829190Y-102956714D01*
X94114904Y-102956714D01*
X94210142Y-102909095D01*
X94257761Y-102861476D01*
X94305380Y-102766238D01*
X94305380Y-102623380D01*
X93638714Y-103385285D02*
X94305380Y-103385285D01*
X93733952Y-103385285D02*
X93686333Y-103432904D01*
X93638714Y-103528142D01*
X93638714Y-103671000D01*
X93686333Y-103766238D01*
X93781571Y-103813857D01*
X94305380Y-103813857D01*
X93638714Y-104147190D02*
X93638714Y-104528142D01*
X93305380Y-104290047D02*
X94162523Y-104290047D01*
X94257761Y-104337666D01*
X94305380Y-104432904D01*
X94305380Y-104528142D01*
X94305380Y-104861476D02*
X93638714Y-104861476D01*
X93829190Y-104861476D02*
X93733952Y-104909095D01*
X93686333Y-104956714D01*
X93638714Y-105051952D01*
X93638714Y-105147190D01*
X94305380Y-105623380D02*
X94257761Y-105528142D01*
X94210142Y-105480523D01*
X94114904Y-105432904D01*
X93829190Y-105432904D01*
X93733952Y-105480523D01*
X93686333Y-105528142D01*
X93638714Y-105623380D01*
X93638714Y-105766238D01*
X93686333Y-105861476D01*
X93733952Y-105909095D01*
X93829190Y-105956714D01*
X94114904Y-105956714D01*
X94210142Y-105909095D01*
X94257761Y-105861476D01*
X94305380Y-105766238D01*
X94305380Y-105623380D01*
X94305380Y-106528142D02*
X94257761Y-106432904D01*
X94162523Y-106385285D01*
X93305380Y-106385285D01*
X93781571Y-108004333D02*
X93829190Y-108147190D01*
X93876809Y-108194809D01*
X93972047Y-108242428D01*
X94114904Y-108242428D01*
X94210142Y-108194809D01*
X94257761Y-108147190D01*
X94305380Y-108051952D01*
X94305380Y-107671000D01*
X93305380Y-107671000D01*
X93305380Y-108004333D01*
X93353000Y-108099571D01*
X93400619Y-108147190D01*
X93495857Y-108194809D01*
X93591095Y-108194809D01*
X93686333Y-108147190D01*
X93733952Y-108099571D01*
X93781571Y-108004333D01*
X93781571Y-107671000D01*
X94305380Y-108813857D02*
X94257761Y-108718619D01*
X94210142Y-108671000D01*
X94114904Y-108623380D01*
X93829190Y-108623380D01*
X93733952Y-108671000D01*
X93686333Y-108718619D01*
X93638714Y-108813857D01*
X93638714Y-108956714D01*
X93686333Y-109051952D01*
X93733952Y-109099571D01*
X93829190Y-109147190D01*
X94114904Y-109147190D01*
X94210142Y-109099571D01*
X94257761Y-109051952D01*
X94305380Y-108956714D01*
X94305380Y-108813857D01*
X94305380Y-110004333D02*
X93781571Y-110004333D01*
X93686333Y-109956714D01*
X93638714Y-109861476D01*
X93638714Y-109671000D01*
X93686333Y-109575761D01*
X94257761Y-110004333D02*
X94305380Y-109909095D01*
X94305380Y-109671000D01*
X94257761Y-109575761D01*
X94162523Y-109528142D01*
X94067285Y-109528142D01*
X93972047Y-109575761D01*
X93924428Y-109671000D01*
X93924428Y-109909095D01*
X93876809Y-110004333D01*
X94305380Y-110480523D02*
X93638714Y-110480523D01*
X93829190Y-110480523D02*
X93733952Y-110528142D01*
X93686333Y-110575761D01*
X93638714Y-110671000D01*
X93638714Y-110766238D01*
X94305380Y-111528142D02*
X93305380Y-111528142D01*
X94257761Y-111528142D02*
X94305380Y-111432904D01*
X94305380Y-111242428D01*
X94257761Y-111147190D01*
X94210142Y-111099571D01*
X94114904Y-111051952D01*
X93829190Y-111051952D01*
X93733952Y-111099571D01*
X93686333Y-111147190D01*
X93638714Y-111242428D01*
X93638714Y-111432904D01*
X93686333Y-111528142D01*
X94686333Y-113051952D02*
X94638714Y-113004333D01*
X94495857Y-112909095D01*
X94400619Y-112861476D01*
X94257761Y-112813857D01*
X94019666Y-112766238D01*
X93829190Y-112766238D01*
X93591095Y-112813857D01*
X93448238Y-112861476D01*
X93353000Y-112909095D01*
X93210142Y-113004333D01*
X93162523Y-113051952D01*
X94305380Y-114004333D02*
X93829190Y-113671000D01*
X94305380Y-113432904D02*
X93305380Y-113432904D01*
X93305380Y-113813857D01*
X93353000Y-113909095D01*
X93400619Y-113956714D01*
X93495857Y-114004333D01*
X93638714Y-114004333D01*
X93733952Y-113956714D01*
X93781571Y-113909095D01*
X93829190Y-113813857D01*
X93829190Y-113432904D01*
X94257761Y-114813857D02*
X94305380Y-114718619D01*
X94305380Y-114528142D01*
X94257761Y-114432904D01*
X94162523Y-114385285D01*
X93781571Y-114385285D01*
X93686333Y-114432904D01*
X93638714Y-114528142D01*
X93638714Y-114718619D01*
X93686333Y-114813857D01*
X93781571Y-114861476D01*
X93876809Y-114861476D01*
X93972047Y-114385285D01*
X93638714Y-115194809D02*
X94305380Y-115432904D01*
X93638714Y-115671000D01*
X94305380Y-117337666D02*
X94305380Y-116766238D01*
X94305380Y-117051952D02*
X93305380Y-117051952D01*
X93448238Y-116956714D01*
X93543476Y-116861476D01*
X93591095Y-116766238D01*
X94210142Y-117766238D02*
X94257761Y-117813857D01*
X94305380Y-117766238D01*
X94257761Y-117718619D01*
X94210142Y-117766238D01*
X94305380Y-117766238D01*
X93400619Y-118194809D02*
X93353000Y-118242428D01*
X93305380Y-118337666D01*
X93305380Y-118575761D01*
X93353000Y-118671000D01*
X93400619Y-118718619D01*
X93495857Y-118766238D01*
X93591095Y-118766238D01*
X93733952Y-118718619D01*
X94305380Y-118147190D01*
X94305380Y-118766238D01*
X94686333Y-119099571D02*
X94638714Y-119147190D01*
X94495857Y-119242428D01*
X94400619Y-119290047D01*
X94257761Y-119337666D01*
X94019666Y-119385285D01*
X93829190Y-119385285D01*
X93591095Y-119337666D01*
X93448238Y-119290047D01*
X93353000Y-119242428D01*
X93210142Y-119147190D01*
X93162523Y-119099571D01*
D11*
G36*
X83530859Y-57836303D02*
G01*
X83348546Y-57836716D01*
X83190217Y-57837365D01*
X83053986Y-57838271D01*
X82937966Y-57839454D01*
X82840270Y-57840933D01*
X82759012Y-57842730D01*
X82692304Y-57844863D01*
X82638262Y-57847352D01*
X82594997Y-57850219D01*
X82560624Y-57853482D01*
X82533255Y-57857162D01*
X82511005Y-57861279D01*
X82491986Y-57865852D01*
X82474312Y-57870901D01*
X82471035Y-57871890D01*
X82295223Y-57944779D01*
X82141646Y-58049125D01*
X82012467Y-58182859D01*
X81909848Y-58343911D01*
X81860677Y-58456127D01*
X81850594Y-58484932D01*
X81842246Y-58514812D01*
X81835426Y-58549729D01*
X81829930Y-58593645D01*
X81825552Y-58650522D01*
X81822084Y-58724322D01*
X81819323Y-58819009D01*
X81817061Y-58938543D01*
X81815093Y-59086888D01*
X81813214Y-59268006D01*
X81812061Y-59392039D01*
X81810401Y-59623652D01*
X81809988Y-59816605D01*
X81810828Y-59971294D01*
X81812925Y-60088116D01*
X81816287Y-60167469D01*
X81820920Y-60209749D01*
X81824636Y-60217539D01*
X81853244Y-60212901D01*
X81906626Y-60200895D01*
X81957228Y-60188231D01*
X82054545Y-60171172D01*
X82176221Y-60161934D01*
X82308323Y-60160525D01*
X82436924Y-60166954D01*
X82548092Y-60181230D01*
X82579307Y-60187840D01*
X82643110Y-60202856D01*
X82690914Y-60213384D01*
X82710121Y-60216843D01*
X82713729Y-60198284D01*
X82717373Y-60145436D01*
X82720893Y-60063089D01*
X82724126Y-59956029D01*
X82726912Y-59829046D01*
X82729089Y-59686926D01*
X82729660Y-59636270D01*
X82731496Y-59469490D01*
X82733431Y-59337062D01*
X82735811Y-59234262D01*
X82738981Y-59156365D01*
X82743285Y-59098648D01*
X82749068Y-59056386D01*
X82756674Y-59024855D01*
X82766449Y-58999331D01*
X82777787Y-58976846D01*
X82855732Y-58867693D01*
X82954082Y-58787916D01*
X83003641Y-58762960D01*
X83017502Y-58758509D01*
X83037991Y-58754509D01*
X83067107Y-58750936D01*
X83106851Y-58747767D01*
X83159222Y-58744978D01*
X83226219Y-58742546D01*
X83309841Y-58740446D01*
X83412087Y-58738657D01*
X83534958Y-58737154D01*
X83680452Y-58735913D01*
X83850569Y-58734912D01*
X84047308Y-58734127D01*
X84272668Y-58733534D01*
X84528649Y-58733110D01*
X84817251Y-58732832D01*
X85140471Y-58732676D01*
X85500311Y-58732618D01*
X85588231Y-58732616D01*
X85956752Y-58732654D01*
X86288197Y-58732786D01*
X86584563Y-58733035D01*
X86847850Y-58733423D01*
X87080058Y-58733975D01*
X87283186Y-58734714D01*
X87459233Y-58735663D01*
X87610199Y-58736847D01*
X87738083Y-58738288D01*
X87844884Y-58740009D01*
X87932602Y-58742035D01*
X88003235Y-58744389D01*
X88058784Y-58747094D01*
X88101248Y-58750174D01*
X88132626Y-58753653D01*
X88154917Y-58757553D01*
X88170122Y-58761898D01*
X88172820Y-58762960D01*
X88278534Y-58827734D01*
X88366384Y-58924291D01*
X88398674Y-58976846D01*
X88440846Y-59055000D01*
X88450615Y-61693559D01*
X88452020Y-62068282D01*
X88453341Y-62405906D01*
X88454611Y-62708408D01*
X88455863Y-62977766D01*
X88457132Y-63215956D01*
X88458449Y-63424957D01*
X88459850Y-63606745D01*
X88461368Y-63763298D01*
X88463035Y-63896594D01*
X88464887Y-64008610D01*
X88466955Y-64101323D01*
X88469273Y-64176710D01*
X88471876Y-64236750D01*
X88474796Y-64283419D01*
X88478067Y-64318694D01*
X88481722Y-64344555D01*
X88485795Y-64362976D01*
X88490320Y-64375937D01*
X88495330Y-64385414D01*
X88496232Y-64386820D01*
X88554399Y-64444325D01*
X88641272Y-64491233D01*
X88747371Y-64525257D01*
X88863220Y-64544110D01*
X88979339Y-64545503D01*
X89082343Y-64528272D01*
X89196473Y-64481955D01*
X89285140Y-64412019D01*
X89318869Y-64371711D01*
X89324453Y-64363867D01*
X89329499Y-64354751D01*
X89334039Y-64342428D01*
X89338106Y-64324968D01*
X89341730Y-64300437D01*
X89344942Y-64266903D01*
X89347776Y-64222433D01*
X89350260Y-64165095D01*
X89352429Y-64092957D01*
X89354312Y-64004085D01*
X89355941Y-63896547D01*
X89357347Y-63768412D01*
X89358563Y-63617746D01*
X89359620Y-63442616D01*
X89360549Y-63241091D01*
X89361381Y-63011238D01*
X89362149Y-62751124D01*
X89362882Y-62458817D01*
X89363614Y-62132384D01*
X89364376Y-61769893D01*
X89364828Y-61549610D01*
X89365593Y-61102425D01*
X89365982Y-60691255D01*
X89365996Y-60316387D01*
X89365637Y-59978105D01*
X89364906Y-59676693D01*
X89363805Y-59412436D01*
X89362335Y-59185618D01*
X89360497Y-58996525D01*
X89358292Y-58845440D01*
X89355723Y-58732649D01*
X89352791Y-58658436D01*
X89350365Y-58628346D01*
X89307339Y-58443512D01*
X89230302Y-58276641D01*
X89121192Y-58130372D01*
X88981946Y-58007342D01*
X88827873Y-57916464D01*
X88675307Y-57843616D01*
X85637077Y-57838373D01*
X85234051Y-57837686D01*
X84868215Y-57837097D01*
X84537683Y-57836624D01*
X84240568Y-57836288D01*
X83974983Y-57836110D01*
X83739042Y-57836108D01*
X83530859Y-57836303D01*
G37*
X83530859Y-57836303D02*
X83348546Y-57836716D01*
X83190217Y-57837365D01*
X83053986Y-57838271D01*
X82937966Y-57839454D01*
X82840270Y-57840933D01*
X82759012Y-57842730D01*
X82692304Y-57844863D01*
X82638262Y-57847352D01*
X82594997Y-57850219D01*
X82560624Y-57853482D01*
X82533255Y-57857162D01*
X82511005Y-57861279D01*
X82491986Y-57865852D01*
X82474312Y-57870901D01*
X82471035Y-57871890D01*
X82295223Y-57944779D01*
X82141646Y-58049125D01*
X82012467Y-58182859D01*
X81909848Y-58343911D01*
X81860677Y-58456127D01*
X81850594Y-58484932D01*
X81842246Y-58514812D01*
X81835426Y-58549729D01*
X81829930Y-58593645D01*
X81825552Y-58650522D01*
X81822084Y-58724322D01*
X81819323Y-58819009D01*
X81817061Y-58938543D01*
X81815093Y-59086888D01*
X81813214Y-59268006D01*
X81812061Y-59392039D01*
X81810401Y-59623652D01*
X81809988Y-59816605D01*
X81810828Y-59971294D01*
X81812925Y-60088116D01*
X81816287Y-60167469D01*
X81820920Y-60209749D01*
X81824636Y-60217539D01*
X81853244Y-60212901D01*
X81906626Y-60200895D01*
X81957228Y-60188231D01*
X82054545Y-60171172D01*
X82176221Y-60161934D01*
X82308323Y-60160525D01*
X82436924Y-60166954D01*
X82548092Y-60181230D01*
X82579307Y-60187840D01*
X82643110Y-60202856D01*
X82690914Y-60213384D01*
X82710121Y-60216843D01*
X82713729Y-60198284D01*
X82717373Y-60145436D01*
X82720893Y-60063089D01*
X82724126Y-59956029D01*
X82726912Y-59829046D01*
X82729089Y-59686926D01*
X82729660Y-59636270D01*
X82731496Y-59469490D01*
X82733431Y-59337062D01*
X82735811Y-59234262D01*
X82738981Y-59156365D01*
X82743285Y-59098648D01*
X82749068Y-59056386D01*
X82756674Y-59024855D01*
X82766449Y-58999331D01*
X82777787Y-58976846D01*
X82855732Y-58867693D01*
X82954082Y-58787916D01*
X83003641Y-58762960D01*
X83017502Y-58758509D01*
X83037991Y-58754509D01*
X83067107Y-58750936D01*
X83106851Y-58747767D01*
X83159222Y-58744978D01*
X83226219Y-58742546D01*
X83309841Y-58740446D01*
X83412087Y-58738657D01*
X83534958Y-58737154D01*
X83680452Y-58735913D01*
X83850569Y-58734912D01*
X84047308Y-58734127D01*
X84272668Y-58733534D01*
X84528649Y-58733110D01*
X84817251Y-58732832D01*
X85140471Y-58732676D01*
X85500311Y-58732618D01*
X85588231Y-58732616D01*
X85956752Y-58732654D01*
X86288197Y-58732786D01*
X86584563Y-58733035D01*
X86847850Y-58733423D01*
X87080058Y-58733975D01*
X87283186Y-58734714D01*
X87459233Y-58735663D01*
X87610199Y-58736847D01*
X87738083Y-58738288D01*
X87844884Y-58740009D01*
X87932602Y-58742035D01*
X88003235Y-58744389D01*
X88058784Y-58747094D01*
X88101248Y-58750174D01*
X88132626Y-58753653D01*
X88154917Y-58757553D01*
X88170122Y-58761898D01*
X88172820Y-58762960D01*
X88278534Y-58827734D01*
X88366384Y-58924291D01*
X88398674Y-58976846D01*
X88440846Y-59055000D01*
X88450615Y-61693559D01*
X88452020Y-62068282D01*
X88453341Y-62405906D01*
X88454611Y-62708408D01*
X88455863Y-62977766D01*
X88457132Y-63215956D01*
X88458449Y-63424957D01*
X88459850Y-63606745D01*
X88461368Y-63763298D01*
X88463035Y-63896594D01*
X88464887Y-64008610D01*
X88466955Y-64101323D01*
X88469273Y-64176710D01*
X88471876Y-64236750D01*
X88474796Y-64283419D01*
X88478067Y-64318694D01*
X88481722Y-64344555D01*
X88485795Y-64362976D01*
X88490320Y-64375937D01*
X88495330Y-64385414D01*
X88496232Y-64386820D01*
X88554399Y-64444325D01*
X88641272Y-64491233D01*
X88747371Y-64525257D01*
X88863220Y-64544110D01*
X88979339Y-64545503D01*
X89082343Y-64528272D01*
X89196473Y-64481955D01*
X89285140Y-64412019D01*
X89318869Y-64371711D01*
X89324453Y-64363867D01*
X89329499Y-64354751D01*
X89334039Y-64342428D01*
X89338106Y-64324968D01*
X89341730Y-64300437D01*
X89344942Y-64266903D01*
X89347776Y-64222433D01*
X89350260Y-64165095D01*
X89352429Y-64092957D01*
X89354312Y-64004085D01*
X89355941Y-63896547D01*
X89357347Y-63768412D01*
X89358563Y-63617746D01*
X89359620Y-63442616D01*
X89360549Y-63241091D01*
X89361381Y-63011238D01*
X89362149Y-62751124D01*
X89362882Y-62458817D01*
X89363614Y-62132384D01*
X89364376Y-61769893D01*
X89364828Y-61549610D01*
X89365593Y-61102425D01*
X89365982Y-60691255D01*
X89365996Y-60316387D01*
X89365637Y-59978105D01*
X89364906Y-59676693D01*
X89363805Y-59412436D01*
X89362335Y-59185618D01*
X89360497Y-58996525D01*
X89358292Y-58845440D01*
X89355723Y-58732649D01*
X89352791Y-58658436D01*
X89350365Y-58628346D01*
X89307339Y-58443512D01*
X89230302Y-58276641D01*
X89121192Y-58130372D01*
X88981946Y-58007342D01*
X88827873Y-57916464D01*
X88675307Y-57843616D01*
X85637077Y-57838373D01*
X85234051Y-57837686D01*
X84868215Y-57837097D01*
X84537683Y-57836624D01*
X84240568Y-57836288D01*
X83974983Y-57836110D01*
X83739042Y-57836108D01*
X83530859Y-57836303D01*
G36*
X81978435Y-61125160D02*
G01*
X81785464Y-61145890D01*
X81614784Y-61179262D01*
X81606410Y-61181431D01*
X81326984Y-61274671D01*
X81053987Y-61405177D01*
X80789822Y-61571344D01*
X80536887Y-61771570D01*
X80297585Y-62004251D01*
X80185070Y-62130758D01*
X80149415Y-62175938D01*
X80095128Y-62248918D01*
X80024800Y-62345943D01*
X79941024Y-62463257D01*
X79846394Y-62597106D01*
X79743501Y-62743733D01*
X79634940Y-62899384D01*
X79523302Y-63060303D01*
X79411180Y-63222736D01*
X79301167Y-63382927D01*
X79195856Y-63537121D01*
X79097840Y-63681562D01*
X79009711Y-63812496D01*
X78934063Y-63926167D01*
X78873487Y-64018819D01*
X78830577Y-64086699D01*
X78809265Y-64123390D01*
X78784572Y-64201008D01*
X78775143Y-64297530D01*
X78781297Y-64395753D01*
X78802687Y-64476923D01*
X78868439Y-64586668D01*
X78957244Y-64670368D01*
X79062493Y-64726682D01*
X79177577Y-64754268D01*
X79295888Y-64751785D01*
X79410815Y-64717893D01*
X79515750Y-64651249D01*
X79542026Y-64626953D01*
X79562512Y-64601403D01*
X79602592Y-64546791D01*
X79659961Y-64466418D01*
X79732309Y-64363581D01*
X79817329Y-64241583D01*
X79912715Y-64103722D01*
X80016158Y-63953298D01*
X80125350Y-63793611D01*
X80147462Y-63761166D01*
X80260336Y-63595906D01*
X80370216Y-63435883D01*
X80474436Y-63284926D01*
X80570326Y-63146861D01*
X80655219Y-63025518D01*
X80726445Y-62924723D01*
X80781337Y-62848304D01*
X80817226Y-62800088D01*
X80819349Y-62797370D01*
X81008124Y-62581098D01*
X81208216Y-62397566D01*
X81417427Y-62248350D01*
X81633556Y-62135026D01*
X81846615Y-62061177D01*
X81989691Y-62036275D01*
X82153554Y-62028080D01*
X82323769Y-62036378D01*
X82485900Y-62060952D01*
X82530461Y-62071377D01*
X82656625Y-62111695D01*
X82801769Y-62171080D01*
X82954519Y-62243993D01*
X83103499Y-62324894D01*
X83237335Y-62408242D01*
X83272923Y-62432961D01*
X83306108Y-62458861D01*
X83366901Y-62508649D01*
X83453346Y-62580662D01*
X83563486Y-62673234D01*
X83695366Y-62784702D01*
X83847030Y-62913401D01*
X84016522Y-63057665D01*
X84201885Y-63215831D01*
X84401165Y-63386234D01*
X84612404Y-63567208D01*
X84833647Y-63757090D01*
X85062939Y-63954215D01*
X85276839Y-64138403D01*
X85511155Y-64340240D01*
X85738760Y-64536131D01*
X85957738Y-64724433D01*
X86166171Y-64903505D01*
X86362142Y-65071706D01*
X86543734Y-65227393D01*
X86709029Y-65368925D01*
X86856109Y-65494660D01*
X86983059Y-65602956D01*
X87087959Y-65692172D01*
X87168894Y-65760665D01*
X87223945Y-65806794D01*
X87250224Y-65828177D01*
X87540316Y-66030606D01*
X87839487Y-66199561D01*
X88144318Y-66333413D01*
X88451389Y-66430528D01*
X88569754Y-66457833D01*
X88694268Y-66477473D01*
X88841872Y-66491331D01*
X88997561Y-66498722D01*
X89146330Y-66498960D01*
X89273172Y-66491358D01*
X89281863Y-66490398D01*
X89560465Y-66438819D01*
X89835070Y-66349334D01*
X90103863Y-66223050D01*
X90365028Y-66061077D01*
X90616752Y-65864524D01*
X90857218Y-65634500D01*
X91058295Y-65405000D01*
X91093651Y-65358783D01*
X91147350Y-65285255D01*
X91216771Y-65188220D01*
X91299297Y-65071485D01*
X91392307Y-64938854D01*
X91493183Y-64794135D01*
X91599305Y-64641131D01*
X91708054Y-64483650D01*
X91816811Y-64325495D01*
X91922956Y-64170473D01*
X92023871Y-64022390D01*
X92116936Y-63885050D01*
X92199532Y-63762260D01*
X92269039Y-63657824D01*
X92322838Y-63575549D01*
X92358311Y-63519241D01*
X92369444Y-63500000D01*
X92397155Y-63416064D01*
X92406495Y-63303083D01*
X92403865Y-63223889D01*
X92391793Y-63165079D01*
X92365475Y-63108238D01*
X92348022Y-63078908D01*
X92264281Y-62976618D01*
X92162813Y-62905448D01*
X92049791Y-62865603D01*
X91931390Y-62857290D01*
X91813784Y-62880713D01*
X91703147Y-62936078D01*
X91605653Y-63023591D01*
X91581904Y-63053405D01*
X91554891Y-63091239D01*
X91508592Y-63157601D01*
X91445636Y-63248665D01*
X91368649Y-63360607D01*
X91280260Y-63489598D01*
X91183096Y-63631814D01*
X91079784Y-63783428D01*
X91000162Y-63900539D01*
X90858501Y-64108717D01*
X90736170Y-64287446D01*
X90630853Y-64439811D01*
X90540235Y-64568896D01*
X90461999Y-64677787D01*
X90393830Y-64769567D01*
X90333413Y-64847322D01*
X90278431Y-64914137D01*
X90226568Y-64973096D01*
X90175509Y-65027284D01*
X90122939Y-65079786D01*
X90093831Y-65107830D01*
X89888868Y-65281259D01*
X89678114Y-65416078D01*
X89461814Y-65512283D01*
X89240212Y-65569873D01*
X89013553Y-65588844D01*
X88782084Y-65569194D01*
X88546048Y-65510921D01*
X88305691Y-65414021D01*
X88061257Y-65278493D01*
X87849024Y-65131835D01*
X87817617Y-65106603D01*
X87758580Y-65057529D01*
X87673876Y-64986287D01*
X87565469Y-64894554D01*
X87435323Y-64784005D01*
X87285401Y-64656316D01*
X87117668Y-64513161D01*
X86934086Y-64356218D01*
X86736620Y-64187161D01*
X86527233Y-64007666D01*
X86307890Y-63819409D01*
X86080553Y-63624065D01*
X85900846Y-63469491D01*
X85668745Y-63269844D01*
X85443183Y-63075979D01*
X85226119Y-62889573D01*
X85019512Y-62712300D01*
X84825321Y-62545837D01*
X84645504Y-62391858D01*
X84482021Y-62252041D01*
X84336830Y-62128059D01*
X84211890Y-62021588D01*
X84109160Y-61934305D01*
X84030598Y-61867884D01*
X83978164Y-61824002D01*
X83956769Y-61806579D01*
X83689310Y-61615744D01*
X83411093Y-61451825D01*
X83127584Y-61317398D01*
X82844247Y-61215033D01*
X82566551Y-61147305D01*
X82550000Y-61144367D01*
X82374813Y-61123844D01*
X82179588Y-61117627D01*
X81978435Y-61125160D01*
G37*
X81978435Y-61125160D02*
X81785464Y-61145890D01*
X81614784Y-61179262D01*
X81606410Y-61181431D01*
X81326984Y-61274671D01*
X81053987Y-61405177D01*
X80789822Y-61571344D01*
X80536887Y-61771570D01*
X80297585Y-62004251D01*
X80185070Y-62130758D01*
X80149415Y-62175938D01*
X80095128Y-62248918D01*
X80024800Y-62345943D01*
X79941024Y-62463257D01*
X79846394Y-62597106D01*
X79743501Y-62743733D01*
X79634940Y-62899384D01*
X79523302Y-63060303D01*
X79411180Y-63222736D01*
X79301167Y-63382927D01*
X79195856Y-63537121D01*
X79097840Y-63681562D01*
X79009711Y-63812496D01*
X78934063Y-63926167D01*
X78873487Y-64018819D01*
X78830577Y-64086699D01*
X78809265Y-64123390D01*
X78784572Y-64201008D01*
X78775143Y-64297530D01*
X78781297Y-64395753D01*
X78802687Y-64476923D01*
X78868439Y-64586668D01*
X78957244Y-64670368D01*
X79062493Y-64726682D01*
X79177577Y-64754268D01*
X79295888Y-64751785D01*
X79410815Y-64717893D01*
X79515750Y-64651249D01*
X79542026Y-64626953D01*
X79562512Y-64601403D01*
X79602592Y-64546791D01*
X79659961Y-64466418D01*
X79732309Y-64363581D01*
X79817329Y-64241583D01*
X79912715Y-64103722D01*
X80016158Y-63953298D01*
X80125350Y-63793611D01*
X80147462Y-63761166D01*
X80260336Y-63595906D01*
X80370216Y-63435883D01*
X80474436Y-63284926D01*
X80570326Y-63146861D01*
X80655219Y-63025518D01*
X80726445Y-62924723D01*
X80781337Y-62848304D01*
X80817226Y-62800088D01*
X80819349Y-62797370D01*
X81008124Y-62581098D01*
X81208216Y-62397566D01*
X81417427Y-62248350D01*
X81633556Y-62135026D01*
X81846615Y-62061177D01*
X81989691Y-62036275D01*
X82153554Y-62028080D01*
X82323769Y-62036378D01*
X82485900Y-62060952D01*
X82530461Y-62071377D01*
X82656625Y-62111695D01*
X82801769Y-62171080D01*
X82954519Y-62243993D01*
X83103499Y-62324894D01*
X83237335Y-62408242D01*
X83272923Y-62432961D01*
X83306108Y-62458861D01*
X83366901Y-62508649D01*
X83453346Y-62580662D01*
X83563486Y-62673234D01*
X83695366Y-62784702D01*
X83847030Y-62913401D01*
X84016522Y-63057665D01*
X84201885Y-63215831D01*
X84401165Y-63386234D01*
X84612404Y-63567208D01*
X84833647Y-63757090D01*
X85062939Y-63954215D01*
X85276839Y-64138403D01*
X85511155Y-64340240D01*
X85738760Y-64536131D01*
X85957738Y-64724433D01*
X86166171Y-64903505D01*
X86362142Y-65071706D01*
X86543734Y-65227393D01*
X86709029Y-65368925D01*
X86856109Y-65494660D01*
X86983059Y-65602956D01*
X87087959Y-65692172D01*
X87168894Y-65760665D01*
X87223945Y-65806794D01*
X87250224Y-65828177D01*
X87540316Y-66030606D01*
X87839487Y-66199561D01*
X88144318Y-66333413D01*
X88451389Y-66430528D01*
X88569754Y-66457833D01*
X88694268Y-66477473D01*
X88841872Y-66491331D01*
X88997561Y-66498722D01*
X89146330Y-66498960D01*
X89273172Y-66491358D01*
X89281863Y-66490398D01*
X89560465Y-66438819D01*
X89835070Y-66349334D01*
X90103863Y-66223050D01*
X90365028Y-66061077D01*
X90616752Y-65864524D01*
X90857218Y-65634500D01*
X91058295Y-65405000D01*
X91093651Y-65358783D01*
X91147350Y-65285255D01*
X91216771Y-65188220D01*
X91299297Y-65071485D01*
X91392307Y-64938854D01*
X91493183Y-64794135D01*
X91599305Y-64641131D01*
X91708054Y-64483650D01*
X91816811Y-64325495D01*
X91922956Y-64170473D01*
X92023871Y-64022390D01*
X92116936Y-63885050D01*
X92199532Y-63762260D01*
X92269039Y-63657824D01*
X92322838Y-63575549D01*
X92358311Y-63519241D01*
X92369444Y-63500000D01*
X92397155Y-63416064D01*
X92406495Y-63303083D01*
X92403865Y-63223889D01*
X92391793Y-63165079D01*
X92365475Y-63108238D01*
X92348022Y-63078908D01*
X92264281Y-62976618D01*
X92162813Y-62905448D01*
X92049791Y-62865603D01*
X91931390Y-62857290D01*
X91813784Y-62880713D01*
X91703147Y-62936078D01*
X91605653Y-63023591D01*
X91581904Y-63053405D01*
X91554891Y-63091239D01*
X91508592Y-63157601D01*
X91445636Y-63248665D01*
X91368649Y-63360607D01*
X91280260Y-63489598D01*
X91183096Y-63631814D01*
X91079784Y-63783428D01*
X91000162Y-63900539D01*
X90858501Y-64108717D01*
X90736170Y-64287446D01*
X90630853Y-64439811D01*
X90540235Y-64568896D01*
X90461999Y-64677787D01*
X90393830Y-64769567D01*
X90333413Y-64847322D01*
X90278431Y-64914137D01*
X90226568Y-64973096D01*
X90175509Y-65027284D01*
X90122939Y-65079786D01*
X90093831Y-65107830D01*
X89888868Y-65281259D01*
X89678114Y-65416078D01*
X89461814Y-65512283D01*
X89240212Y-65569873D01*
X89013553Y-65588844D01*
X88782084Y-65569194D01*
X88546048Y-65510921D01*
X88305691Y-65414021D01*
X88061257Y-65278493D01*
X87849024Y-65131835D01*
X87817617Y-65106603D01*
X87758580Y-65057529D01*
X87673876Y-64986287D01*
X87565469Y-64894554D01*
X87435323Y-64784005D01*
X87285401Y-64656316D01*
X87117668Y-64513161D01*
X86934086Y-64356218D01*
X86736620Y-64187161D01*
X86527233Y-64007666D01*
X86307890Y-63819409D01*
X86080553Y-63624065D01*
X85900846Y-63469491D01*
X85668745Y-63269844D01*
X85443183Y-63075979D01*
X85226119Y-62889573D01*
X85019512Y-62712300D01*
X84825321Y-62545837D01*
X84645504Y-62391858D01*
X84482021Y-62252041D01*
X84336830Y-62128059D01*
X84211890Y-62021588D01*
X84109160Y-61934305D01*
X84030598Y-61867884D01*
X83978164Y-61824002D01*
X83956769Y-61806579D01*
X83689310Y-61615744D01*
X83411093Y-61451825D01*
X83127584Y-61317398D01*
X82844247Y-61215033D01*
X82566551Y-61147305D01*
X82550000Y-61144367D01*
X82374813Y-61123844D01*
X82179588Y-61117627D01*
X81978435Y-61125160D01*
G36*
X82245494Y-62907162D02*
G01*
X82114982Y-62921647D01*
X81996836Y-62957315D01*
X81900875Y-63010652D01*
X81863191Y-63044001D01*
X81817307Y-63092844D01*
X81817307Y-69332231D01*
X81859305Y-69410641D01*
X81939681Y-69525229D01*
X82038686Y-69608340D01*
X82151653Y-69658297D01*
X82273914Y-69673424D01*
X82400803Y-69652045D01*
X82463461Y-69627638D01*
X82567585Y-69560778D01*
X82649478Y-69471004D01*
X82701283Y-69367196D01*
X82705007Y-69354578D01*
X82708150Y-69331251D01*
X82710974Y-69284659D01*
X82713484Y-69213648D01*
X82715687Y-69117062D01*
X82717589Y-68993747D01*
X82719195Y-68842549D01*
X82720511Y-68662313D01*
X82721545Y-68451884D01*
X82722301Y-68210108D01*
X82722786Y-67935831D01*
X82723006Y-67627897D01*
X82722967Y-67285153D01*
X82722674Y-66906443D01*
X82722135Y-66490613D01*
X82721618Y-66179418D01*
X82716077Y-63085221D01*
X82642337Y-63021480D01*
X82540367Y-62956629D01*
X82414428Y-62918719D01*
X82261729Y-62906946D01*
X82245494Y-62907162D01*
G37*
X82245494Y-62907162D02*
X82114982Y-62921647D01*
X81996836Y-62957315D01*
X81900875Y-63010652D01*
X81863191Y-63044001D01*
X81817307Y-63092844D01*
X81817307Y-69332231D01*
X81859305Y-69410641D01*
X81939681Y-69525229D01*
X82038686Y-69608340D01*
X82151653Y-69658297D01*
X82273914Y-69673424D01*
X82400803Y-69652045D01*
X82463461Y-69627638D01*
X82567585Y-69560778D01*
X82649478Y-69471004D01*
X82701283Y-69367196D01*
X82705007Y-69354578D01*
X82708150Y-69331251D01*
X82710974Y-69284659D01*
X82713484Y-69213648D01*
X82715687Y-69117062D01*
X82717589Y-68993747D01*
X82719195Y-68842549D01*
X82720511Y-68662313D01*
X82721545Y-68451884D01*
X82722301Y-68210108D01*
X82722786Y-67935831D01*
X82723006Y-67627897D01*
X82722967Y-67285153D01*
X82722674Y-66906443D01*
X82722135Y-66490613D01*
X82721618Y-66179418D01*
X82716077Y-63085221D01*
X82642337Y-63021480D01*
X82540367Y-62956629D01*
X82414428Y-62918719D01*
X82261729Y-62906946D01*
X82245494Y-62907162D01*
G36*
X88450724Y-68284662D02*
G01*
X88451118Y-68503566D01*
X88452215Y-68704646D01*
X88453960Y-68884804D01*
X88456296Y-69040942D01*
X88459171Y-69169961D01*
X88462528Y-69268762D01*
X88466312Y-69334248D01*
X88469861Y-69361539D01*
X88517837Y-69465231D01*
X88594929Y-69551474D01*
X88693732Y-69616730D01*
X88806844Y-69657459D01*
X88926862Y-69670121D01*
X89046383Y-69651176D01*
X89063639Y-69645450D01*
X89152550Y-69596984D01*
X89237614Y-69520651D01*
X89307526Y-69426943D01*
X89316904Y-69410385D01*
X89326253Y-69392239D01*
X89334133Y-69373043D01*
X89340693Y-69349431D01*
X89346079Y-69318039D01*
X89350439Y-69275500D01*
X89353920Y-69218449D01*
X89356669Y-69143522D01*
X89358833Y-69047352D01*
X89360561Y-68926576D01*
X89361999Y-68777827D01*
X89363294Y-68597740D01*
X89364594Y-68382950D01*
X89365006Y-68311346D01*
X89365890Y-68115732D01*
X89366259Y-67932420D01*
X89366137Y-67765028D01*
X89365550Y-67617176D01*
X89364521Y-67492481D01*
X89363075Y-67394563D01*
X89361238Y-67327040D01*
X89359033Y-67293531D01*
X89358057Y-67290462D01*
X89333842Y-67295186D01*
X89283413Y-67307501D01*
X89225205Y-67322742D01*
X89100824Y-67345232D01*
X88955421Y-67354401D01*
X88804639Y-67350441D01*
X88664123Y-67333545D01*
X88582500Y-67314791D01*
X88450615Y-67276171D01*
X88450724Y-68284662D01*
G37*
X88450724Y-68284662D02*
X88451118Y-68503566D01*
X88452215Y-68704646D01*
X88453960Y-68884804D01*
X88456296Y-69040942D01*
X88459171Y-69169961D01*
X88462528Y-69268762D01*
X88466312Y-69334248D01*
X88469861Y-69361539D01*
X88517837Y-69465231D01*
X88594929Y-69551474D01*
X88693732Y-69616730D01*
X88806844Y-69657459D01*
X88926862Y-69670121D01*
X89046383Y-69651176D01*
X89063639Y-69645450D01*
X89152550Y-69596984D01*
X89237614Y-69520651D01*
X89307526Y-69426943D01*
X89316904Y-69410385D01*
X89326253Y-69392239D01*
X89334133Y-69373043D01*
X89340693Y-69349431D01*
X89346079Y-69318039D01*
X89350439Y-69275500D01*
X89353920Y-69218449D01*
X89356669Y-69143522D01*
X89358833Y-69047352D01*
X89360561Y-68926576D01*
X89361999Y-68777827D01*
X89363294Y-68597740D01*
X89364594Y-68382950D01*
X89365006Y-68311346D01*
X89365890Y-68115732D01*
X89366259Y-67932420D01*
X89366137Y-67765028D01*
X89365550Y-67617176D01*
X89364521Y-67492481D01*
X89363075Y-67394563D01*
X89361238Y-67327040D01*
X89359033Y-67293531D01*
X89358057Y-67290462D01*
X89333842Y-67295186D01*
X89283413Y-67307501D01*
X89225205Y-67322742D01*
X89100824Y-67345232D01*
X88955421Y-67354401D01*
X88804639Y-67350441D01*
X88664123Y-67333545D01*
X88582500Y-67314791D01*
X88450615Y-67276171D01*
X88450724Y-68284662D01*
G36*
X85187628Y-54210387D02*
G01*
X84583687Y-54252235D01*
X83990418Y-54331509D01*
X83406907Y-54448410D01*
X82832240Y-54603139D01*
X82265504Y-54795896D01*
X81705787Y-55026883D01*
X81387461Y-55176749D01*
X80904767Y-55429941D01*
X80450204Y-55701433D01*
X80017799Y-55995510D01*
X79601577Y-56316461D01*
X79195567Y-56668573D01*
X78856141Y-56993457D01*
X78659988Y-57192322D01*
X78487500Y-57374484D01*
X78331878Y-57547716D01*
X78186319Y-57719785D01*
X78044025Y-57898463D01*
X77915383Y-58068308D01*
X77573541Y-58560755D01*
X77263123Y-59074046D01*
X76985288Y-59605477D01*
X76741194Y-60152342D01*
X76532001Y-60711938D01*
X76358869Y-61281559D01*
X76222956Y-61858502D01*
X76171202Y-62137689D01*
X76142361Y-62311846D01*
X76118598Y-62465609D01*
X76099431Y-62605589D01*
X76084381Y-62738394D01*
X76072966Y-62870633D01*
X76064705Y-63008915D01*
X76059117Y-63159849D01*
X76055722Y-63330042D01*
X76054039Y-63526106D01*
X76053586Y-63754000D01*
X76053917Y-63967097D01*
X76055026Y-64146296D01*
X76057085Y-64296773D01*
X76060269Y-64423701D01*
X76064750Y-64532256D01*
X76070701Y-64627612D01*
X76078296Y-64714943D01*
X76087708Y-64799426D01*
X76088900Y-64809077D01*
X76173505Y-65377144D01*
X76283061Y-65919222D01*
X76419127Y-66440624D01*
X76583263Y-66946665D01*
X76777029Y-67442658D01*
X77001985Y-67933916D01*
X77012260Y-67954770D01*
X77242309Y-68395345D01*
X77484814Y-68808998D01*
X77746429Y-69205974D01*
X78033805Y-69596517D01*
X78268349Y-69889077D01*
X78364551Y-70000302D01*
X78484409Y-70131155D01*
X78621984Y-70275748D01*
X78771336Y-70428193D01*
X78926527Y-70582600D01*
X79081617Y-70733080D01*
X79230667Y-70873746D01*
X79367739Y-70998707D01*
X79486894Y-71102075D01*
X79515907Y-71126078D01*
X80009719Y-71504730D01*
X80520550Y-71848460D01*
X81047554Y-72156930D01*
X81589885Y-72429800D01*
X82146696Y-72666731D01*
X82717139Y-72867387D01*
X83300369Y-73031428D01*
X83895538Y-73158515D01*
X84501800Y-73248310D01*
X84923923Y-73288187D01*
X85013916Y-73293197D01*
X85130814Y-73297382D01*
X85267341Y-73300698D01*
X85416219Y-73303101D01*
X85570171Y-73304548D01*
X85721920Y-73304995D01*
X85864189Y-73304399D01*
X85989700Y-73302716D01*
X86091176Y-73299902D01*
X86161341Y-73295914D01*
X86164615Y-73295616D01*
X86210672Y-73291474D01*
X86285296Y-73284975D01*
X86378113Y-73277016D01*
X86477230Y-73268621D01*
X87039020Y-73202300D01*
X87602026Y-73098429D01*
X88162696Y-72958242D01*
X88717481Y-72782975D01*
X89262831Y-72573864D01*
X89795197Y-72332142D01*
X90311027Y-72059046D01*
X90785461Y-71769750D01*
X91284259Y-71421708D01*
X91757659Y-71045245D01*
X92204621Y-70641907D01*
X92624110Y-70213243D01*
X93015088Y-69760801D01*
X93376516Y-69286128D01*
X93707358Y-68790774D01*
X94006575Y-68276285D01*
X94273131Y-67744210D01*
X94505986Y-67196096D01*
X94704105Y-66633492D01*
X94866449Y-66057946D01*
X94986209Y-65502693D01*
X95017846Y-65327942D01*
X95044220Y-65174011D01*
X95065803Y-65034844D01*
X95083070Y-64904388D01*
X95096493Y-64776589D01*
X95106544Y-64645392D01*
X95113696Y-64504744D01*
X95118423Y-64348590D01*
X95121196Y-64170875D01*
X95122489Y-63965547D01*
X95122661Y-63839529D01*
X94360777Y-63839529D01*
X94359228Y-64028756D01*
X94356038Y-64207832D01*
X94351208Y-64369728D01*
X94344738Y-64507418D01*
X94336628Y-64613873D01*
X94335627Y-64623462D01*
X94252527Y-65216409D01*
X94133274Y-65795723D01*
X93978318Y-66360451D01*
X93788111Y-66909639D01*
X93563107Y-67442333D01*
X93303756Y-67957580D01*
X93010511Y-68454427D01*
X92683825Y-68931919D01*
X92324148Y-69389103D01*
X91931934Y-69825025D01*
X91811264Y-69948238D01*
X91386690Y-70346720D01*
X90940061Y-70714312D01*
X90473153Y-71050325D01*
X89987746Y-71354071D01*
X89485618Y-71624861D01*
X88968547Y-71862009D01*
X88438312Y-72064825D01*
X87896690Y-72232622D01*
X87345460Y-72364711D01*
X86786400Y-72460404D01*
X86221290Y-72519013D01*
X85651906Y-72539850D01*
X85148615Y-72526389D01*
X84578458Y-72477876D01*
X84027696Y-72397487D01*
X83491801Y-72284245D01*
X82966242Y-72137172D01*
X82446489Y-71955288D01*
X82374154Y-71927079D01*
X81841292Y-71696163D01*
X81329414Y-71433212D01*
X80839522Y-71139699D01*
X80372620Y-70817097D01*
X79929710Y-70466877D01*
X79511795Y-70090512D01*
X79119879Y-69689474D01*
X78754965Y-69265235D01*
X78418054Y-68819268D01*
X78110152Y-68353044D01*
X77832259Y-67868036D01*
X77585381Y-67365715D01*
X77370518Y-66847555D01*
X77188675Y-66315027D01*
X77040855Y-65769604D01*
X76928060Y-65212757D01*
X76851293Y-64645959D01*
X76811558Y-64070682D01*
X76805851Y-63754000D01*
X76817210Y-63298781D01*
X76852167Y-62852529D01*
X76912040Y-62402217D01*
X76981793Y-62015077D01*
X77113908Y-61452691D01*
X77282168Y-60903441D01*
X77485419Y-60368818D01*
X77722506Y-59850313D01*
X77992273Y-59349416D01*
X78293565Y-58867619D01*
X78625227Y-58406412D01*
X78986103Y-57967286D01*
X79375038Y-57551732D01*
X79790877Y-57161240D01*
X80232465Y-56797302D01*
X80698646Y-56461407D01*
X81188265Y-56155047D01*
X81700166Y-55879713D01*
X81758692Y-55850943D01*
X82289431Y-55614020D01*
X82832494Y-55413753D01*
X83386062Y-55250371D01*
X83948317Y-55124104D01*
X84517440Y-55035180D01*
X85091612Y-54983828D01*
X85669014Y-54970277D01*
X86247828Y-54994755D01*
X86826234Y-55057492D01*
X87348682Y-55147614D01*
X87916663Y-55282878D01*
X88471190Y-55454590D01*
X89011006Y-55662070D01*
X89534849Y-55904641D01*
X90041460Y-56181624D01*
X90529580Y-56492341D01*
X90997948Y-56836112D01*
X91445305Y-57212261D01*
X91791950Y-57540761D01*
X92197344Y-57972777D01*
X92569639Y-58425375D01*
X92908477Y-58897799D01*
X93213501Y-59389297D01*
X93484350Y-59899115D01*
X93720666Y-60426498D01*
X93922091Y-60970695D01*
X94088265Y-61530950D01*
X94218831Y-62106510D01*
X94313428Y-62696622D01*
X94335627Y-62884539D01*
X94343919Y-62987092D01*
X94350571Y-63121661D01*
X94355583Y-63281217D01*
X94358954Y-63458732D01*
X94360686Y-63647178D01*
X94360777Y-63839529D01*
X95122661Y-63839529D01*
X95122779Y-63754000D01*
X95122412Y-63519249D01*
X95120996Y-63317509D01*
X95118059Y-63142718D01*
X95113127Y-62988814D01*
X95105728Y-62849735D01*
X95095388Y-62719420D01*
X95081635Y-62591807D01*
X95063997Y-62460833D01*
X95041999Y-62320437D01*
X95015170Y-62164557D01*
X94986372Y-62005308D01*
X94859710Y-61421119D01*
X94696923Y-60849749D01*
X94499242Y-60292551D01*
X94267897Y-59750878D01*
X94004121Y-59226082D01*
X93709144Y-58719517D01*
X93384198Y-58232535D01*
X93030514Y-57766489D01*
X92649324Y-57322733D01*
X92241858Y-56902618D01*
X91809348Y-56507498D01*
X91353025Y-56138727D01*
X90874120Y-55797655D01*
X90373865Y-55485638D01*
X89853491Y-55204026D01*
X89314229Y-54954174D01*
X88757311Y-54737434D01*
X88213576Y-54563597D01*
X87716448Y-54435194D01*
X87220598Y-54336222D01*
X86717587Y-54265429D01*
X86198977Y-54221562D01*
X85803154Y-54205764D01*
X85187628Y-54210387D01*
G37*
X85187628Y-54210387D02*
X84583687Y-54252235D01*
X83990418Y-54331509D01*
X83406907Y-54448410D01*
X82832240Y-54603139D01*
X82265504Y-54795896D01*
X81705787Y-55026883D01*
X81387461Y-55176749D01*
X80904767Y-55429941D01*
X80450204Y-55701433D01*
X80017799Y-55995510D01*
X79601577Y-56316461D01*
X79195567Y-56668573D01*
X78856141Y-56993457D01*
X78659988Y-57192322D01*
X78487500Y-57374484D01*
X78331878Y-57547716D01*
X78186319Y-57719785D01*
X78044025Y-57898463D01*
X77915383Y-58068308D01*
X77573541Y-58560755D01*
X77263123Y-59074046D01*
X76985288Y-59605477D01*
X76741194Y-60152342D01*
X76532001Y-60711938D01*
X76358869Y-61281559D01*
X76222956Y-61858502D01*
X76171202Y-62137689D01*
X76142361Y-62311846D01*
X76118598Y-62465609D01*
X76099431Y-62605589D01*
X76084381Y-62738394D01*
X76072966Y-62870633D01*
X76064705Y-63008915D01*
X76059117Y-63159849D01*
X76055722Y-63330042D01*
X76054039Y-63526106D01*
X76053586Y-63754000D01*
X76053917Y-63967097D01*
X76055026Y-64146296D01*
X76057085Y-64296773D01*
X76060269Y-64423701D01*
X76064750Y-64532256D01*
X76070701Y-64627612D01*
X76078296Y-64714943D01*
X76087708Y-64799426D01*
X76088900Y-64809077D01*
X76173505Y-65377144D01*
X76283061Y-65919222D01*
X76419127Y-66440624D01*
X76583263Y-66946665D01*
X76777029Y-67442658D01*
X77001985Y-67933916D01*
X77012260Y-67954770D01*
X77242309Y-68395345D01*
X77484814Y-68808998D01*
X77746429Y-69205974D01*
X78033805Y-69596517D01*
X78268349Y-69889077D01*
X78364551Y-70000302D01*
X78484409Y-70131155D01*
X78621984Y-70275748D01*
X78771336Y-70428193D01*
X78926527Y-70582600D01*
X79081617Y-70733080D01*
X79230667Y-70873746D01*
X79367739Y-70998707D01*
X79486894Y-71102075D01*
X79515907Y-71126078D01*
X80009719Y-71504730D01*
X80520550Y-71848460D01*
X81047554Y-72156930D01*
X81589885Y-72429800D01*
X82146696Y-72666731D01*
X82717139Y-72867387D01*
X83300369Y-73031428D01*
X83895538Y-73158515D01*
X84501800Y-73248310D01*
X84923923Y-73288187D01*
X85013916Y-73293197D01*
X85130814Y-73297382D01*
X85267341Y-73300698D01*
X85416219Y-73303101D01*
X85570171Y-73304548D01*
X85721920Y-73304995D01*
X85864189Y-73304399D01*
X85989700Y-73302716D01*
X86091176Y-73299902D01*
X86161341Y-73295914D01*
X86164615Y-73295616D01*
X86210672Y-73291474D01*
X86285296Y-73284975D01*
X86378113Y-73277016D01*
X86477230Y-73268621D01*
X87039020Y-73202300D01*
X87602026Y-73098429D01*
X88162696Y-72958242D01*
X88717481Y-72782975D01*
X89262831Y-72573864D01*
X89795197Y-72332142D01*
X90311027Y-72059046D01*
X90785461Y-71769750D01*
X91284259Y-71421708D01*
X91757659Y-71045245D01*
X92204621Y-70641907D01*
X92624110Y-70213243D01*
X93015088Y-69760801D01*
X93376516Y-69286128D01*
X93707358Y-68790774D01*
X94006575Y-68276285D01*
X94273131Y-67744210D01*
X94505986Y-67196096D01*
X94704105Y-66633492D01*
X94866449Y-66057946D01*
X94986209Y-65502693D01*
X95017846Y-65327942D01*
X95044220Y-65174011D01*
X95065803Y-65034844D01*
X95083070Y-64904388D01*
X95096493Y-64776589D01*
X95106544Y-64645392D01*
X95113696Y-64504744D01*
X95118423Y-64348590D01*
X95121196Y-64170875D01*
X95122489Y-63965547D01*
X95122661Y-63839529D01*
X94360777Y-63839529D01*
X94359228Y-64028756D01*
X94356038Y-64207832D01*
X94351208Y-64369728D01*
X94344738Y-64507418D01*
X94336628Y-64613873D01*
X94335627Y-64623462D01*
X94252527Y-65216409D01*
X94133274Y-65795723D01*
X93978318Y-66360451D01*
X93788111Y-66909639D01*
X93563107Y-67442333D01*
X93303756Y-67957580D01*
X93010511Y-68454427D01*
X92683825Y-68931919D01*
X92324148Y-69389103D01*
X91931934Y-69825025D01*
X91811264Y-69948238D01*
X91386690Y-70346720D01*
X90940061Y-70714312D01*
X90473153Y-71050325D01*
X89987746Y-71354071D01*
X89485618Y-71624861D01*
X88968547Y-71862009D01*
X88438312Y-72064825D01*
X87896690Y-72232622D01*
X87345460Y-72364711D01*
X86786400Y-72460404D01*
X86221290Y-72519013D01*
X85651906Y-72539850D01*
X85148615Y-72526389D01*
X84578458Y-72477876D01*
X84027696Y-72397487D01*
X83491801Y-72284245D01*
X82966242Y-72137172D01*
X82446489Y-71955288D01*
X82374154Y-71927079D01*
X81841292Y-71696163D01*
X81329414Y-71433212D01*
X80839522Y-71139699D01*
X80372620Y-70817097D01*
X79929710Y-70466877D01*
X79511795Y-70090512D01*
X79119879Y-69689474D01*
X78754965Y-69265235D01*
X78418054Y-68819268D01*
X78110152Y-68353044D01*
X77832259Y-67868036D01*
X77585381Y-67365715D01*
X77370518Y-66847555D01*
X77188675Y-66315027D01*
X77040855Y-65769604D01*
X76928060Y-65212757D01*
X76851293Y-64645959D01*
X76811558Y-64070682D01*
X76805851Y-63754000D01*
X76817210Y-63298781D01*
X76852167Y-62852529D01*
X76912040Y-62402217D01*
X76981793Y-62015077D01*
X77113908Y-61452691D01*
X77282168Y-60903441D01*
X77485419Y-60368818D01*
X77722506Y-59850313D01*
X77992273Y-59349416D01*
X78293565Y-58867619D01*
X78625227Y-58406412D01*
X78986103Y-57967286D01*
X79375038Y-57551732D01*
X79790877Y-57161240D01*
X80232465Y-56797302D01*
X80698646Y-56461407D01*
X81188265Y-56155047D01*
X81700166Y-55879713D01*
X81758692Y-55850943D01*
X82289431Y-55614020D01*
X82832494Y-55413753D01*
X83386062Y-55250371D01*
X83948317Y-55124104D01*
X84517440Y-55035180D01*
X85091612Y-54983828D01*
X85669014Y-54970277D01*
X86247828Y-54994755D01*
X86826234Y-55057492D01*
X87348682Y-55147614D01*
X87916663Y-55282878D01*
X88471190Y-55454590D01*
X89011006Y-55662070D01*
X89534849Y-55904641D01*
X90041460Y-56181624D01*
X90529580Y-56492341D01*
X90997948Y-56836112D01*
X91445305Y-57212261D01*
X91791950Y-57540761D01*
X92197344Y-57972777D01*
X92569639Y-58425375D01*
X92908477Y-58897799D01*
X93213501Y-59389297D01*
X93484350Y-59899115D01*
X93720666Y-60426498D01*
X93922091Y-60970695D01*
X94088265Y-61530950D01*
X94218831Y-62106510D01*
X94313428Y-62696622D01*
X94335627Y-62884539D01*
X94343919Y-62987092D01*
X94350571Y-63121661D01*
X94355583Y-63281217D01*
X94358954Y-63458732D01*
X94360686Y-63647178D01*
X94360777Y-63839529D01*
X95122661Y-63839529D01*
X95122779Y-63754000D01*
X95122412Y-63519249D01*
X95120996Y-63317509D01*
X95118059Y-63142718D01*
X95113127Y-62988814D01*
X95105728Y-62849735D01*
X95095388Y-62719420D01*
X95081635Y-62591807D01*
X95063997Y-62460833D01*
X95041999Y-62320437D01*
X95015170Y-62164557D01*
X94986372Y-62005308D01*
X94859710Y-61421119D01*
X94696923Y-60849749D01*
X94499242Y-60292551D01*
X94267897Y-59750878D01*
X94004121Y-59226082D01*
X93709144Y-58719517D01*
X93384198Y-58232535D01*
X93030514Y-57766489D01*
X92649324Y-57322733D01*
X92241858Y-56902618D01*
X91809348Y-56507498D01*
X91353025Y-56138727D01*
X90874120Y-55797655D01*
X90373865Y-55485638D01*
X89853491Y-55204026D01*
X89314229Y-54954174D01*
X88757311Y-54737434D01*
X88213576Y-54563597D01*
X87716448Y-54435194D01*
X87220598Y-54336222D01*
X86717587Y-54265429D01*
X86198977Y-54221562D01*
X85803154Y-54205764D01*
X85187628Y-54210387D01*
D12*
X80420000Y-89284500D02*
X80420000Y-91944500D01*
X80420000Y-89284500D02*
X93180000Y-89284500D01*
X93180000Y-89284500D02*
X93180000Y-91944500D01*
X80420000Y-91944500D02*
X93180000Y-91944500D01*
X77820000Y-91944500D02*
X79150000Y-91944500D01*
X77820000Y-90614500D02*
X77820000Y-91944500D01*
X93976500Y-129235000D02*
X91316500Y-129235000D01*
X93976500Y-129235000D02*
X93976500Y-152155000D01*
X93976500Y-152155000D02*
X91316500Y-152155000D01*
X91316500Y-129235000D02*
X91316500Y-152155000D01*
X91316500Y-126635000D02*
X91316500Y-127965000D01*
X92646500Y-126635000D02*
X91316500Y-126635000D01*
D10*
X76541380Y-90090666D02*
X77255666Y-90090666D01*
X77398523Y-90043047D01*
X77493761Y-89947809D01*
X77541380Y-89804952D01*
X77541380Y-89709714D01*
X76541380Y-91043047D02*
X76541380Y-90566857D01*
X77017571Y-90519238D01*
X76969952Y-90566857D01*
X76922333Y-90662095D01*
X76922333Y-90900190D01*
X76969952Y-90995428D01*
X77017571Y-91043047D01*
X77112809Y-91090666D01*
X77350904Y-91090666D01*
X77446142Y-91043047D01*
X77493761Y-90995428D01*
X77541380Y-90900190D01*
X77541380Y-90662095D01*
X77493761Y-90566857D01*
X77446142Y-90519238D01*
X92979833Y-124647380D02*
X92979833Y-125361666D01*
X93027452Y-125504523D01*
X93122690Y-125599761D01*
X93265547Y-125647380D01*
X93360785Y-125647380D01*
X92075071Y-124647380D02*
X92265547Y-124647380D01*
X92360785Y-124695000D01*
X92408404Y-124742619D01*
X92503642Y-124885476D01*
X92551261Y-125075952D01*
X92551261Y-125456904D01*
X92503642Y-125552142D01*
X92456023Y-125599761D01*
X92360785Y-125647380D01*
X92170309Y-125647380D01*
X92075071Y-125599761D01*
X92027452Y-125552142D01*
X91979833Y-125456904D01*
X91979833Y-125218809D01*
X92027452Y-125123571D01*
X92075071Y-125075952D01*
X92170309Y-125028333D01*
X92360785Y-125028333D01*
X92456023Y-125075952D01*
X92503642Y-125123571D01*
X92551261Y-125218809D01*
M02*
