G04 #@! TF.GenerationSoftware,KiCad,Pcbnew,(5.1.5-0-10_14)*
G04 #@! TF.CreationDate,2020-08-16T11:11:37-04:00*
G04 #@! TF.ProjectId,AYOMSM - VCA Control Board,41594f4d-534d-4202-9d20-56434120436f,rev?*
G04 #@! TF.SameCoordinates,Original*
G04 #@! TF.FileFunction,Copper,L1,Top*
G04 #@! TF.FilePolarity,Positive*
%FSLAX46Y46*%
G04 Gerber Fmt 4.6, Leading zero omitted, Abs format (unit mm)*
G04 Created by KiCad (PCBNEW (5.1.5-0-10_14)) date 2020-08-16 11:11:37*
%MOMM*%
%LPD*%
G04 APERTURE LIST*
%ADD10R,1.700000X1.700000*%
%ADD11O,1.700000X1.700000*%
%ADD12C,1.440000*%
%ADD13R,1.800000X1.800000*%
%ADD14C,1.800000*%
%ADD15O,2.720000X3.240000*%
%ADD16C,0.100000*%
%ADD17C,2.600000*%
%ADD18O,2.000000X3.000000*%
%ADD19R,2.500000X1.000000*%
%ADD20C,1.000000*%
%ADD21C,0.400000*%
%ADD22C,0.254000*%
G04 APERTURE END LIST*
D10*
X79150000Y-90614500D03*
D11*
X81690000Y-90614500D03*
X84230000Y-90614500D03*
X86770000Y-90614500D03*
X89310000Y-90614500D03*
X91850000Y-90614500D03*
D10*
X92646500Y-127965000D03*
D11*
X92646500Y-130505000D03*
X92646500Y-133045000D03*
X92646500Y-135585000D03*
X92646500Y-138125000D03*
X92646500Y-140665000D03*
X92646500Y-143205000D03*
X92646500Y-145745000D03*
X92646500Y-148285000D03*
X92646500Y-150825000D03*
D12*
X88030000Y-77470000D03*
X85490000Y-77470000D03*
X82950000Y-77470000D03*
X88050000Y-71437500D03*
X85510000Y-71437500D03*
X82970000Y-71437500D03*
D13*
X83000000Y-67056000D03*
D14*
X85500000Y-67056000D03*
X88000000Y-67056000D03*
D15*
X90300000Y-59556000D03*
X80700000Y-59556000D03*
G04 #@! TA.AperFunction,ComponentPad*
D16*
G36*
X79263211Y-101192130D02*
G01*
X79326309Y-101201490D01*
X79388185Y-101216989D01*
X79448244Y-101238478D01*
X79505908Y-101265751D01*
X79560621Y-101298545D01*
X79611856Y-101336543D01*
X79659119Y-101379381D01*
X79701957Y-101426644D01*
X79739955Y-101477879D01*
X79772749Y-101532592D01*
X79800022Y-101590256D01*
X79821511Y-101650315D01*
X79837010Y-101712191D01*
X79846370Y-101775289D01*
X79849500Y-101839000D01*
X79849500Y-103139000D01*
X79846370Y-103202711D01*
X79837010Y-103265809D01*
X79821511Y-103327685D01*
X79800022Y-103387744D01*
X79772749Y-103445408D01*
X79739955Y-103500121D01*
X79701957Y-103551356D01*
X79659119Y-103598619D01*
X79611856Y-103641457D01*
X79560621Y-103679455D01*
X79505908Y-103712249D01*
X79448244Y-103739522D01*
X79388185Y-103761011D01*
X79326309Y-103776510D01*
X79263211Y-103785870D01*
X79199500Y-103789000D01*
X77899500Y-103789000D01*
X77835789Y-103785870D01*
X77772691Y-103776510D01*
X77710815Y-103761011D01*
X77650756Y-103739522D01*
X77593092Y-103712249D01*
X77538379Y-103679455D01*
X77487144Y-103641457D01*
X77439881Y-103598619D01*
X77397043Y-103551356D01*
X77359045Y-103500121D01*
X77326251Y-103445408D01*
X77298978Y-103387744D01*
X77277489Y-103327685D01*
X77261990Y-103265809D01*
X77252630Y-103202711D01*
X77249500Y-103139000D01*
X77249500Y-101839000D01*
X77252630Y-101775289D01*
X77261990Y-101712191D01*
X77277489Y-101650315D01*
X77298978Y-101590256D01*
X77326251Y-101532592D01*
X77359045Y-101477879D01*
X77397043Y-101426644D01*
X77439881Y-101379381D01*
X77487144Y-101336543D01*
X77538379Y-101298545D01*
X77593092Y-101265751D01*
X77650756Y-101238478D01*
X77710815Y-101216989D01*
X77772691Y-101201490D01*
X77835789Y-101192130D01*
X77899500Y-101189000D01*
X79199500Y-101189000D01*
X79263211Y-101192130D01*
G37*
G04 #@! TD.AperFunction*
D17*
X78549500Y-97409000D03*
D18*
X80822800Y-85189800D03*
X85522800Y-85189800D03*
X90222800Y-85189800D03*
D19*
X85471000Y-94902000D03*
X85471000Y-103202000D03*
X85471000Y-106302000D03*
X85471000Y-109761000D03*
X85471000Y-118061000D03*
X85471000Y-121161000D03*
X85471000Y-124874000D03*
X85471000Y-133174000D03*
X85471000Y-136274000D03*
X85471000Y-139860000D03*
X85471000Y-148160000D03*
X85471000Y-151260000D03*
D20*
X80352400Y-115794500D03*
X81677600Y-118958100D03*
D21*
X92646500Y-150825000D02*
X92646500Y-148285000D01*
X85471000Y-106302000D02*
X85471000Y-103202000D01*
X85471000Y-121161000D02*
X85471000Y-118061000D01*
X85471000Y-136274000D02*
X85471000Y-133174000D01*
X85471000Y-151260000D02*
X85471000Y-148160000D01*
X91850000Y-90614500D02*
X91850000Y-91964800D01*
X85471000Y-139860000D02*
X85471000Y-138859700D01*
X85471000Y-138859700D02*
X90469000Y-133861700D01*
X90469000Y-133861700D02*
X90469000Y-93345800D01*
X90469000Y-93345800D02*
X91850000Y-91964800D01*
X86770000Y-90614500D02*
X86770000Y-91964800D01*
X85471000Y-124874000D02*
X85471000Y-123873700D01*
X85471000Y-123873700D02*
X89005300Y-120339400D01*
X89005300Y-120339400D02*
X89005300Y-94200100D01*
X89005300Y-94200100D02*
X86770000Y-91964800D01*
X89310000Y-90614500D02*
X89310000Y-89264200D01*
X89310000Y-89264200D02*
X88355200Y-88309400D01*
X88355200Y-88309400D02*
X88355200Y-82811000D01*
X88355200Y-82811000D02*
X86760000Y-81215800D01*
X86760000Y-81215800D02*
X86760000Y-72687500D01*
X86760000Y-72687500D02*
X85510000Y-71437500D01*
X79322500Y-85189800D02*
X77099200Y-87413100D01*
X77099200Y-87413100D02*
X77099200Y-93387700D01*
X77099200Y-93387700D02*
X80352400Y-96640900D01*
X80352400Y-96640900D02*
X80352400Y-115794500D01*
X80822800Y-85189800D02*
X79322500Y-85189800D01*
X92646500Y-133045000D02*
X91296100Y-131694600D01*
X91296100Y-131694600D02*
X91296100Y-103303100D01*
X91296100Y-103303100D02*
X93203500Y-101395700D01*
X93203500Y-101395700D02*
X93203500Y-86670200D01*
X93203500Y-86670200D02*
X91723100Y-85189800D01*
X90222800Y-85189800D02*
X91723100Y-85189800D01*
X82950000Y-77470000D02*
X82950000Y-85755000D01*
X82950000Y-85755000D02*
X80469100Y-88235900D01*
X80469100Y-88235900D02*
X79050900Y-88235900D01*
X79050900Y-88235900D02*
X77799600Y-89487200D01*
X77799600Y-89487200D02*
X77799600Y-91686400D01*
X77799600Y-91686400D02*
X81677600Y-95564400D01*
X81677600Y-95564400D02*
X81677600Y-118958100D01*
X82950000Y-77470000D02*
X85490000Y-77470000D01*
X92646500Y-138125000D02*
X92646500Y-135585000D01*
X88050000Y-71437500D02*
X93999500Y-77387000D01*
X93999500Y-77387000D02*
X93999500Y-141852000D01*
X93999500Y-141852000D02*
X92646500Y-143205000D01*
X88000000Y-67056000D02*
X88050000Y-67106000D01*
X88050000Y-67106000D02*
X88050000Y-71437500D01*
X82970000Y-67086000D02*
X83000000Y-67056000D01*
X82970000Y-71437500D02*
X82970000Y-67086000D01*
D22*
G36*
X76688861Y-97973419D02*
G01*
X76834725Y-98325566D01*
X77046487Y-98642491D01*
X77316009Y-98912013D01*
X77632934Y-99123775D01*
X77985081Y-99269639D01*
X78358919Y-99344000D01*
X78740081Y-99344000D01*
X79113919Y-99269639D01*
X79466066Y-99123775D01*
X79517400Y-99089475D01*
X79517400Y-100551934D01*
X78835250Y-100554000D01*
X78676500Y-100712750D01*
X78676500Y-102362000D01*
X78696500Y-102362000D01*
X78696500Y-102616000D01*
X78676500Y-102616000D01*
X78676500Y-104265250D01*
X78835250Y-104424000D01*
X79517400Y-104426066D01*
X79517401Y-115024367D01*
X79470788Y-115070980D01*
X79346576Y-115256876D01*
X79261017Y-115463433D01*
X79217400Y-115682712D01*
X79217400Y-115906288D01*
X79261017Y-116125567D01*
X79346576Y-116332124D01*
X79470788Y-116518020D01*
X79628880Y-116676112D01*
X79814776Y-116800324D01*
X80021333Y-116885883D01*
X80240612Y-116929500D01*
X80464188Y-116929500D01*
X80683467Y-116885883D01*
X80842601Y-116819967D01*
X80842601Y-118187967D01*
X80795988Y-118234580D01*
X80671776Y-118420476D01*
X80586217Y-118627033D01*
X80542600Y-118846312D01*
X80542600Y-119069888D01*
X80586217Y-119289167D01*
X80671776Y-119495724D01*
X80795988Y-119681620D01*
X80954080Y-119839712D01*
X81139976Y-119963924D01*
X81346533Y-120049483D01*
X81565812Y-120093100D01*
X81789388Y-120093100D01*
X82008667Y-120049483D01*
X82215224Y-119963924D01*
X82401120Y-119839712D01*
X82559212Y-119681620D01*
X82683424Y-119495724D01*
X82768983Y-119289167D01*
X82812600Y-119069888D01*
X82812600Y-118846312D01*
X82768983Y-118627033D01*
X82741632Y-118561000D01*
X83582928Y-118561000D01*
X83595188Y-118685482D01*
X83631498Y-118805180D01*
X83690463Y-118915494D01*
X83769815Y-119012185D01*
X83866506Y-119091537D01*
X83976820Y-119150502D01*
X84096518Y-119186812D01*
X84221000Y-119199072D01*
X85185250Y-119196000D01*
X85344000Y-119037250D01*
X85344000Y-118188000D01*
X85598000Y-118188000D01*
X85598000Y-119037250D01*
X85756750Y-119196000D01*
X86721000Y-119199072D01*
X86845482Y-119186812D01*
X86965180Y-119150502D01*
X87075494Y-119091537D01*
X87172185Y-119012185D01*
X87251537Y-118915494D01*
X87310502Y-118805180D01*
X87346812Y-118685482D01*
X87359072Y-118561000D01*
X87356000Y-118346750D01*
X87197250Y-118188000D01*
X85598000Y-118188000D01*
X85344000Y-118188000D01*
X83744750Y-118188000D01*
X83586000Y-118346750D01*
X83582928Y-118561000D01*
X82741632Y-118561000D01*
X82683424Y-118420476D01*
X82559212Y-118234580D01*
X82512600Y-118187968D01*
X82512600Y-116168889D01*
X82654493Y-116381247D01*
X83164753Y-116891507D01*
X83676178Y-117233231D01*
X83631498Y-117316820D01*
X83595188Y-117436518D01*
X83582928Y-117561000D01*
X83586000Y-117775250D01*
X83744750Y-117934000D01*
X85344000Y-117934000D01*
X85344000Y-117914000D01*
X85598000Y-117914000D01*
X85598000Y-117934000D01*
X87197250Y-117934000D01*
X87356000Y-117775250D01*
X87359072Y-117561000D01*
X87346812Y-117436518D01*
X87310502Y-117316820D01*
X87281085Y-117261786D01*
X87835247Y-116891507D01*
X88170300Y-116556454D01*
X88170300Y-119993532D01*
X87356981Y-120806852D01*
X87359072Y-120661000D01*
X87346812Y-120536518D01*
X87310502Y-120416820D01*
X87251537Y-120306506D01*
X87172185Y-120209815D01*
X87075494Y-120130463D01*
X86965180Y-120071498D01*
X86845482Y-120035188D01*
X86721000Y-120022928D01*
X85756750Y-120026000D01*
X85598000Y-120184750D01*
X85598000Y-121034000D01*
X85618000Y-121034000D01*
X85618000Y-121288000D01*
X85598000Y-121288000D01*
X85598000Y-122137250D01*
X85756750Y-122296000D01*
X85867480Y-122296353D01*
X84909574Y-123254259D01*
X84877710Y-123280409D01*
X84851562Y-123312271D01*
X84773364Y-123407555D01*
X84695828Y-123552614D01*
X84648082Y-123710012D01*
X84645529Y-123735928D01*
X84221000Y-123735928D01*
X84096518Y-123748188D01*
X83976820Y-123784498D01*
X83866506Y-123843463D01*
X83769815Y-123922815D01*
X83690463Y-124019506D01*
X83631498Y-124129820D01*
X83595188Y-124249518D01*
X83582928Y-124374000D01*
X83582928Y-125374000D01*
X83595188Y-125498482D01*
X83631498Y-125618180D01*
X83690463Y-125728494D01*
X83769815Y-125825185D01*
X83800891Y-125850688D01*
X83764755Y-125865656D01*
X83164753Y-126266565D01*
X82654493Y-126776825D01*
X82253584Y-127376827D01*
X81977434Y-128043513D01*
X81836653Y-128751264D01*
X81836653Y-129472880D01*
X81977434Y-130180631D01*
X82253584Y-130847317D01*
X82654493Y-131447319D01*
X83164753Y-131957579D01*
X83696112Y-132312622D01*
X83690463Y-132319506D01*
X83631498Y-132429820D01*
X83595188Y-132549518D01*
X83582928Y-132674000D01*
X83586000Y-132888250D01*
X83744750Y-133047000D01*
X85344000Y-133047000D01*
X85344000Y-133027000D01*
X85598000Y-133027000D01*
X85598000Y-133047000D01*
X87197250Y-133047000D01*
X87356000Y-132888250D01*
X87359072Y-132674000D01*
X87346812Y-132549518D01*
X87310502Y-132429820D01*
X87262603Y-132340208D01*
X87835247Y-131957579D01*
X88345507Y-131447319D01*
X88746416Y-130847317D01*
X89022566Y-130180631D01*
X89163347Y-129472880D01*
X89163347Y-128751264D01*
X89022566Y-128043513D01*
X88746416Y-127376827D01*
X88345507Y-126776825D01*
X87835247Y-126266565D01*
X87235245Y-125865656D01*
X87160564Y-125834722D01*
X87172185Y-125825185D01*
X87251537Y-125728494D01*
X87310502Y-125618180D01*
X87346812Y-125498482D01*
X87359072Y-125374000D01*
X87359072Y-124374000D01*
X87346812Y-124249518D01*
X87310502Y-124129820D01*
X87251537Y-124019506D01*
X87172185Y-123922815D01*
X87075494Y-123843463D01*
X86965180Y-123784498D01*
X86845482Y-123748188D01*
X86783485Y-123742082D01*
X89566728Y-120958840D01*
X89598591Y-120932691D01*
X89634000Y-120889545D01*
X89634000Y-133515832D01*
X87358828Y-135791004D01*
X87359072Y-135774000D01*
X87346812Y-135649518D01*
X87310502Y-135529820D01*
X87251537Y-135419506D01*
X87172185Y-135322815D01*
X87075494Y-135243463D01*
X86965180Y-135184498D01*
X86845482Y-135148188D01*
X86721000Y-135135928D01*
X85756750Y-135139000D01*
X85598000Y-135297750D01*
X85598000Y-136147000D01*
X85618000Y-136147000D01*
X85618000Y-136401000D01*
X85598000Y-136401000D01*
X85598000Y-137250250D01*
X85748791Y-137401041D01*
X84909574Y-138240259D01*
X84877710Y-138266409D01*
X84851562Y-138298271D01*
X84773364Y-138393555D01*
X84695828Y-138538614D01*
X84648082Y-138696012D01*
X84645529Y-138721928D01*
X84221000Y-138721928D01*
X84096518Y-138734188D01*
X83976820Y-138770498D01*
X83866506Y-138829463D01*
X83769815Y-138908815D01*
X83690463Y-139005506D01*
X83631498Y-139115820D01*
X83595188Y-139235518D01*
X83582928Y-139360000D01*
X83582928Y-140360000D01*
X83595188Y-140484482D01*
X83631498Y-140604180D01*
X83690463Y-140714494D01*
X83769815Y-140811185D01*
X83800891Y-140836688D01*
X83764755Y-140851656D01*
X83164753Y-141252565D01*
X82654493Y-141762825D01*
X82253584Y-142362827D01*
X81977434Y-143029513D01*
X81836653Y-143737264D01*
X81836653Y-144458880D01*
X81977434Y-145166631D01*
X82253584Y-145833317D01*
X82654493Y-146433319D01*
X83164753Y-146943579D01*
X83696112Y-147298622D01*
X83690463Y-147305506D01*
X83631498Y-147415820D01*
X83595188Y-147535518D01*
X83582928Y-147660000D01*
X83586000Y-147874250D01*
X83744750Y-148033000D01*
X85344000Y-148033000D01*
X85344000Y-148013000D01*
X85598000Y-148013000D01*
X85598000Y-148033000D01*
X87197250Y-148033000D01*
X87356000Y-147874250D01*
X87359072Y-147660000D01*
X87346812Y-147535518D01*
X87310502Y-147415820D01*
X87262603Y-147326208D01*
X87835247Y-146943579D01*
X88345507Y-146433319D01*
X88746416Y-145833317D01*
X89022566Y-145166631D01*
X89163347Y-144458880D01*
X89163347Y-143737264D01*
X89022566Y-143029513D01*
X88746416Y-142362827D01*
X88345507Y-141762825D01*
X87835247Y-141252565D01*
X87235245Y-140851656D01*
X87160564Y-140820722D01*
X87172185Y-140811185D01*
X87251537Y-140714494D01*
X87310502Y-140604180D01*
X87346812Y-140484482D01*
X87359072Y-140360000D01*
X87359072Y-139360000D01*
X87346812Y-139235518D01*
X87310502Y-139115820D01*
X87251537Y-139005506D01*
X87172185Y-138908815D01*
X87075494Y-138829463D01*
X86965180Y-138770498D01*
X86845482Y-138734188D01*
X86783485Y-138728082D01*
X91030428Y-134481140D01*
X91062291Y-134454991D01*
X91166636Y-134327846D01*
X91244172Y-134182787D01*
X91291918Y-134025389D01*
X91304000Y-133902719D01*
X91304000Y-133902709D01*
X91308039Y-133861701D01*
X91304000Y-133820693D01*
X91304000Y-133684410D01*
X91330510Y-133748411D01*
X91493025Y-133991632D01*
X91699868Y-134198475D01*
X91874260Y-134315000D01*
X91699868Y-134431525D01*
X91493025Y-134638368D01*
X91330510Y-134881589D01*
X91218568Y-135151842D01*
X91161500Y-135438740D01*
X91161500Y-135731260D01*
X91218568Y-136018158D01*
X91330510Y-136288411D01*
X91493025Y-136531632D01*
X91699868Y-136738475D01*
X91811501Y-136813065D01*
X91811500Y-136896935D01*
X91699868Y-136971525D01*
X91493025Y-137178368D01*
X91330510Y-137421589D01*
X91218568Y-137691842D01*
X91161500Y-137978740D01*
X91161500Y-138271260D01*
X91218568Y-138558158D01*
X91330510Y-138828411D01*
X91493025Y-139071632D01*
X91699868Y-139278475D01*
X91874260Y-139395000D01*
X91699868Y-139511525D01*
X91493025Y-139718368D01*
X91330510Y-139961589D01*
X91218568Y-140231842D01*
X91161500Y-140518740D01*
X91161500Y-140811260D01*
X91218568Y-141098158D01*
X91330510Y-141368411D01*
X91493025Y-141611632D01*
X91699868Y-141818475D01*
X91874260Y-141935000D01*
X91699868Y-142051525D01*
X91493025Y-142258368D01*
X91330510Y-142501589D01*
X91218568Y-142771842D01*
X91161500Y-143058740D01*
X91161500Y-143351260D01*
X91218568Y-143638158D01*
X91330510Y-143908411D01*
X91493025Y-144151632D01*
X91699868Y-144358475D01*
X91874260Y-144475000D01*
X91699868Y-144591525D01*
X91493025Y-144798368D01*
X91330510Y-145041589D01*
X91218568Y-145311842D01*
X91161500Y-145598740D01*
X91161500Y-145891260D01*
X91218568Y-146178158D01*
X91330510Y-146448411D01*
X91493025Y-146691632D01*
X91699868Y-146898475D01*
X91882034Y-147020195D01*
X91765145Y-147089822D01*
X91548912Y-147284731D01*
X91374859Y-147518080D01*
X91249675Y-147780901D01*
X91205024Y-147928110D01*
X91326345Y-148158000D01*
X92519500Y-148158000D01*
X92519500Y-148138000D01*
X92773500Y-148138000D01*
X92773500Y-148158000D01*
X93966655Y-148158000D01*
X94087976Y-147928110D01*
X94043325Y-147780901D01*
X93918141Y-147518080D01*
X93744088Y-147284731D01*
X93527855Y-147089822D01*
X93410966Y-147020195D01*
X93593132Y-146898475D01*
X93799975Y-146691632D01*
X93962490Y-146448411D01*
X94074432Y-146178158D01*
X94131500Y-145891260D01*
X94131500Y-145598740D01*
X94074432Y-145311842D01*
X93962490Y-145041589D01*
X93799975Y-144798368D01*
X93593132Y-144591525D01*
X93418740Y-144475000D01*
X93593132Y-144358475D01*
X93799975Y-144151632D01*
X93962490Y-143908411D01*
X94074432Y-143638158D01*
X94131500Y-143351260D01*
X94131500Y-143058740D01*
X94105307Y-142927061D01*
X94340001Y-142692368D01*
X94340001Y-152340000D01*
X86982957Y-152340000D01*
X87075494Y-152290537D01*
X87172185Y-152211185D01*
X87251537Y-152114494D01*
X87310502Y-152004180D01*
X87346812Y-151884482D01*
X87359072Y-151760000D01*
X87356000Y-151545750D01*
X87197250Y-151387000D01*
X85598000Y-151387000D01*
X85598000Y-151407000D01*
X85344000Y-151407000D01*
X85344000Y-151387000D01*
X83744750Y-151387000D01*
X83586000Y-151545750D01*
X83582928Y-151760000D01*
X83595188Y-151884482D01*
X83631498Y-152004180D01*
X83690463Y-152114494D01*
X83769815Y-152211185D01*
X83866506Y-152290537D01*
X83959043Y-152340000D01*
X76660000Y-152340000D01*
X76660000Y-151181890D01*
X91205024Y-151181890D01*
X91249675Y-151329099D01*
X91374859Y-151591920D01*
X91548912Y-151825269D01*
X91765145Y-152020178D01*
X92015248Y-152169157D01*
X92289609Y-152266481D01*
X92519500Y-152145814D01*
X92519500Y-150952000D01*
X92773500Y-150952000D01*
X92773500Y-152145814D01*
X93003391Y-152266481D01*
X93277752Y-152169157D01*
X93527855Y-152020178D01*
X93744088Y-151825269D01*
X93918141Y-151591920D01*
X94043325Y-151329099D01*
X94087976Y-151181890D01*
X93966655Y-150952000D01*
X92773500Y-150952000D01*
X92519500Y-150952000D01*
X91326345Y-150952000D01*
X91205024Y-151181890D01*
X76660000Y-151181890D01*
X76660000Y-150760000D01*
X83582928Y-150760000D01*
X83586000Y-150974250D01*
X83744750Y-151133000D01*
X85344000Y-151133000D01*
X85344000Y-150283750D01*
X85598000Y-150283750D01*
X85598000Y-151133000D01*
X87197250Y-151133000D01*
X87356000Y-150974250D01*
X87359072Y-150760000D01*
X87346812Y-150635518D01*
X87310502Y-150515820D01*
X87251537Y-150405506D01*
X87172185Y-150308815D01*
X87075494Y-150229463D01*
X86965180Y-150170498D01*
X86845482Y-150134188D01*
X86721000Y-150121928D01*
X85756750Y-150125000D01*
X85598000Y-150283750D01*
X85344000Y-150283750D01*
X85185250Y-150125000D01*
X84221000Y-150121928D01*
X84096518Y-150134188D01*
X83976820Y-150170498D01*
X83866506Y-150229463D01*
X83769815Y-150308815D01*
X83690463Y-150405506D01*
X83631498Y-150515820D01*
X83595188Y-150635518D01*
X83582928Y-150760000D01*
X76660000Y-150760000D01*
X76660000Y-148660000D01*
X83582928Y-148660000D01*
X83595188Y-148784482D01*
X83631498Y-148904180D01*
X83690463Y-149014494D01*
X83769815Y-149111185D01*
X83866506Y-149190537D01*
X83976820Y-149249502D01*
X84096518Y-149285812D01*
X84221000Y-149298072D01*
X85185250Y-149295000D01*
X85344000Y-149136250D01*
X85344000Y-148287000D01*
X85598000Y-148287000D01*
X85598000Y-149136250D01*
X85756750Y-149295000D01*
X86721000Y-149298072D01*
X86845482Y-149285812D01*
X86965180Y-149249502D01*
X87075494Y-149190537D01*
X87172185Y-149111185D01*
X87251537Y-149014494D01*
X87310502Y-148904180D01*
X87346812Y-148784482D01*
X87359072Y-148660000D01*
X87358813Y-148641890D01*
X91205024Y-148641890D01*
X91249675Y-148789099D01*
X91374859Y-149051920D01*
X91548912Y-149285269D01*
X91765145Y-149480178D01*
X91890755Y-149555000D01*
X91765145Y-149629822D01*
X91548912Y-149824731D01*
X91374859Y-150058080D01*
X91249675Y-150320901D01*
X91205024Y-150468110D01*
X91326345Y-150698000D01*
X92519500Y-150698000D01*
X92519500Y-148412000D01*
X92773500Y-148412000D01*
X92773500Y-150698000D01*
X93966655Y-150698000D01*
X94087976Y-150468110D01*
X94043325Y-150320901D01*
X93918141Y-150058080D01*
X93744088Y-149824731D01*
X93527855Y-149629822D01*
X93402245Y-149555000D01*
X93527855Y-149480178D01*
X93744088Y-149285269D01*
X93918141Y-149051920D01*
X94043325Y-148789099D01*
X94087976Y-148641890D01*
X93966655Y-148412000D01*
X92773500Y-148412000D01*
X92519500Y-148412000D01*
X91326345Y-148412000D01*
X91205024Y-148641890D01*
X87358813Y-148641890D01*
X87356000Y-148445750D01*
X87197250Y-148287000D01*
X85598000Y-148287000D01*
X85344000Y-148287000D01*
X83744750Y-148287000D01*
X83586000Y-148445750D01*
X83582928Y-148660000D01*
X76660000Y-148660000D01*
X76660000Y-136774000D01*
X83582928Y-136774000D01*
X83595188Y-136898482D01*
X83631498Y-137018180D01*
X83690463Y-137128494D01*
X83769815Y-137225185D01*
X83866506Y-137304537D01*
X83976820Y-137363502D01*
X84096518Y-137399812D01*
X84221000Y-137412072D01*
X85185250Y-137409000D01*
X85344000Y-137250250D01*
X85344000Y-136401000D01*
X83744750Y-136401000D01*
X83586000Y-136559750D01*
X83582928Y-136774000D01*
X76660000Y-136774000D01*
X76660000Y-135774000D01*
X83582928Y-135774000D01*
X83586000Y-135988250D01*
X83744750Y-136147000D01*
X85344000Y-136147000D01*
X85344000Y-135297750D01*
X85185250Y-135139000D01*
X84221000Y-135135928D01*
X84096518Y-135148188D01*
X83976820Y-135184498D01*
X83866506Y-135243463D01*
X83769815Y-135322815D01*
X83690463Y-135419506D01*
X83631498Y-135529820D01*
X83595188Y-135649518D01*
X83582928Y-135774000D01*
X76660000Y-135774000D01*
X76660000Y-133674000D01*
X83582928Y-133674000D01*
X83595188Y-133798482D01*
X83631498Y-133918180D01*
X83690463Y-134028494D01*
X83769815Y-134125185D01*
X83866506Y-134204537D01*
X83976820Y-134263502D01*
X84096518Y-134299812D01*
X84221000Y-134312072D01*
X85185250Y-134309000D01*
X85344000Y-134150250D01*
X85344000Y-133301000D01*
X85598000Y-133301000D01*
X85598000Y-134150250D01*
X85756750Y-134309000D01*
X86721000Y-134312072D01*
X86845482Y-134299812D01*
X86965180Y-134263502D01*
X87075494Y-134204537D01*
X87172185Y-134125185D01*
X87251537Y-134028494D01*
X87310502Y-133918180D01*
X87346812Y-133798482D01*
X87359072Y-133674000D01*
X87356000Y-133459750D01*
X87197250Y-133301000D01*
X85598000Y-133301000D01*
X85344000Y-133301000D01*
X83744750Y-133301000D01*
X83586000Y-133459750D01*
X83582928Y-133674000D01*
X76660000Y-133674000D01*
X76660000Y-121661000D01*
X83582928Y-121661000D01*
X83595188Y-121785482D01*
X83631498Y-121905180D01*
X83690463Y-122015494D01*
X83769815Y-122112185D01*
X83866506Y-122191537D01*
X83976820Y-122250502D01*
X84096518Y-122286812D01*
X84221000Y-122299072D01*
X85185250Y-122296000D01*
X85344000Y-122137250D01*
X85344000Y-121288000D01*
X83744750Y-121288000D01*
X83586000Y-121446750D01*
X83582928Y-121661000D01*
X76660000Y-121661000D01*
X76660000Y-120661000D01*
X83582928Y-120661000D01*
X83586000Y-120875250D01*
X83744750Y-121034000D01*
X85344000Y-121034000D01*
X85344000Y-120184750D01*
X85185250Y-120026000D01*
X84221000Y-120022928D01*
X84096518Y-120035188D01*
X83976820Y-120071498D01*
X83866506Y-120130463D01*
X83769815Y-120209815D01*
X83690463Y-120306506D01*
X83631498Y-120416820D01*
X83595188Y-120536518D01*
X83582928Y-120661000D01*
X76660000Y-120661000D01*
X76660000Y-104033184D01*
X76718963Y-104143494D01*
X76798315Y-104240185D01*
X76895006Y-104319537D01*
X77005320Y-104378502D01*
X77125018Y-104414812D01*
X77249500Y-104427072D01*
X78263750Y-104424000D01*
X78422500Y-104265250D01*
X78422500Y-102616000D01*
X78402500Y-102616000D01*
X78402500Y-102362000D01*
X78422500Y-102362000D01*
X78422500Y-100712750D01*
X78263750Y-100554000D01*
X77249500Y-100550928D01*
X77125018Y-100563188D01*
X77005320Y-100599498D01*
X76895006Y-100658463D01*
X76798315Y-100737815D01*
X76718963Y-100834506D01*
X76660000Y-100944816D01*
X76660000Y-97828325D01*
X76688861Y-97973419D01*
G37*
X76688861Y-97973419D02*
X76834725Y-98325566D01*
X77046487Y-98642491D01*
X77316009Y-98912013D01*
X77632934Y-99123775D01*
X77985081Y-99269639D01*
X78358919Y-99344000D01*
X78740081Y-99344000D01*
X79113919Y-99269639D01*
X79466066Y-99123775D01*
X79517400Y-99089475D01*
X79517400Y-100551934D01*
X78835250Y-100554000D01*
X78676500Y-100712750D01*
X78676500Y-102362000D01*
X78696500Y-102362000D01*
X78696500Y-102616000D01*
X78676500Y-102616000D01*
X78676500Y-104265250D01*
X78835250Y-104424000D01*
X79517400Y-104426066D01*
X79517401Y-115024367D01*
X79470788Y-115070980D01*
X79346576Y-115256876D01*
X79261017Y-115463433D01*
X79217400Y-115682712D01*
X79217400Y-115906288D01*
X79261017Y-116125567D01*
X79346576Y-116332124D01*
X79470788Y-116518020D01*
X79628880Y-116676112D01*
X79814776Y-116800324D01*
X80021333Y-116885883D01*
X80240612Y-116929500D01*
X80464188Y-116929500D01*
X80683467Y-116885883D01*
X80842601Y-116819967D01*
X80842601Y-118187967D01*
X80795988Y-118234580D01*
X80671776Y-118420476D01*
X80586217Y-118627033D01*
X80542600Y-118846312D01*
X80542600Y-119069888D01*
X80586217Y-119289167D01*
X80671776Y-119495724D01*
X80795988Y-119681620D01*
X80954080Y-119839712D01*
X81139976Y-119963924D01*
X81346533Y-120049483D01*
X81565812Y-120093100D01*
X81789388Y-120093100D01*
X82008667Y-120049483D01*
X82215224Y-119963924D01*
X82401120Y-119839712D01*
X82559212Y-119681620D01*
X82683424Y-119495724D01*
X82768983Y-119289167D01*
X82812600Y-119069888D01*
X82812600Y-118846312D01*
X82768983Y-118627033D01*
X82741632Y-118561000D01*
X83582928Y-118561000D01*
X83595188Y-118685482D01*
X83631498Y-118805180D01*
X83690463Y-118915494D01*
X83769815Y-119012185D01*
X83866506Y-119091537D01*
X83976820Y-119150502D01*
X84096518Y-119186812D01*
X84221000Y-119199072D01*
X85185250Y-119196000D01*
X85344000Y-119037250D01*
X85344000Y-118188000D01*
X85598000Y-118188000D01*
X85598000Y-119037250D01*
X85756750Y-119196000D01*
X86721000Y-119199072D01*
X86845482Y-119186812D01*
X86965180Y-119150502D01*
X87075494Y-119091537D01*
X87172185Y-119012185D01*
X87251537Y-118915494D01*
X87310502Y-118805180D01*
X87346812Y-118685482D01*
X87359072Y-118561000D01*
X87356000Y-118346750D01*
X87197250Y-118188000D01*
X85598000Y-118188000D01*
X85344000Y-118188000D01*
X83744750Y-118188000D01*
X83586000Y-118346750D01*
X83582928Y-118561000D01*
X82741632Y-118561000D01*
X82683424Y-118420476D01*
X82559212Y-118234580D01*
X82512600Y-118187968D01*
X82512600Y-116168889D01*
X82654493Y-116381247D01*
X83164753Y-116891507D01*
X83676178Y-117233231D01*
X83631498Y-117316820D01*
X83595188Y-117436518D01*
X83582928Y-117561000D01*
X83586000Y-117775250D01*
X83744750Y-117934000D01*
X85344000Y-117934000D01*
X85344000Y-117914000D01*
X85598000Y-117914000D01*
X85598000Y-117934000D01*
X87197250Y-117934000D01*
X87356000Y-117775250D01*
X87359072Y-117561000D01*
X87346812Y-117436518D01*
X87310502Y-117316820D01*
X87281085Y-117261786D01*
X87835247Y-116891507D01*
X88170300Y-116556454D01*
X88170300Y-119993532D01*
X87356981Y-120806852D01*
X87359072Y-120661000D01*
X87346812Y-120536518D01*
X87310502Y-120416820D01*
X87251537Y-120306506D01*
X87172185Y-120209815D01*
X87075494Y-120130463D01*
X86965180Y-120071498D01*
X86845482Y-120035188D01*
X86721000Y-120022928D01*
X85756750Y-120026000D01*
X85598000Y-120184750D01*
X85598000Y-121034000D01*
X85618000Y-121034000D01*
X85618000Y-121288000D01*
X85598000Y-121288000D01*
X85598000Y-122137250D01*
X85756750Y-122296000D01*
X85867480Y-122296353D01*
X84909574Y-123254259D01*
X84877710Y-123280409D01*
X84851562Y-123312271D01*
X84773364Y-123407555D01*
X84695828Y-123552614D01*
X84648082Y-123710012D01*
X84645529Y-123735928D01*
X84221000Y-123735928D01*
X84096518Y-123748188D01*
X83976820Y-123784498D01*
X83866506Y-123843463D01*
X83769815Y-123922815D01*
X83690463Y-124019506D01*
X83631498Y-124129820D01*
X83595188Y-124249518D01*
X83582928Y-124374000D01*
X83582928Y-125374000D01*
X83595188Y-125498482D01*
X83631498Y-125618180D01*
X83690463Y-125728494D01*
X83769815Y-125825185D01*
X83800891Y-125850688D01*
X83764755Y-125865656D01*
X83164753Y-126266565D01*
X82654493Y-126776825D01*
X82253584Y-127376827D01*
X81977434Y-128043513D01*
X81836653Y-128751264D01*
X81836653Y-129472880D01*
X81977434Y-130180631D01*
X82253584Y-130847317D01*
X82654493Y-131447319D01*
X83164753Y-131957579D01*
X83696112Y-132312622D01*
X83690463Y-132319506D01*
X83631498Y-132429820D01*
X83595188Y-132549518D01*
X83582928Y-132674000D01*
X83586000Y-132888250D01*
X83744750Y-133047000D01*
X85344000Y-133047000D01*
X85344000Y-133027000D01*
X85598000Y-133027000D01*
X85598000Y-133047000D01*
X87197250Y-133047000D01*
X87356000Y-132888250D01*
X87359072Y-132674000D01*
X87346812Y-132549518D01*
X87310502Y-132429820D01*
X87262603Y-132340208D01*
X87835247Y-131957579D01*
X88345507Y-131447319D01*
X88746416Y-130847317D01*
X89022566Y-130180631D01*
X89163347Y-129472880D01*
X89163347Y-128751264D01*
X89022566Y-128043513D01*
X88746416Y-127376827D01*
X88345507Y-126776825D01*
X87835247Y-126266565D01*
X87235245Y-125865656D01*
X87160564Y-125834722D01*
X87172185Y-125825185D01*
X87251537Y-125728494D01*
X87310502Y-125618180D01*
X87346812Y-125498482D01*
X87359072Y-125374000D01*
X87359072Y-124374000D01*
X87346812Y-124249518D01*
X87310502Y-124129820D01*
X87251537Y-124019506D01*
X87172185Y-123922815D01*
X87075494Y-123843463D01*
X86965180Y-123784498D01*
X86845482Y-123748188D01*
X86783485Y-123742082D01*
X89566728Y-120958840D01*
X89598591Y-120932691D01*
X89634000Y-120889545D01*
X89634000Y-133515832D01*
X87358828Y-135791004D01*
X87359072Y-135774000D01*
X87346812Y-135649518D01*
X87310502Y-135529820D01*
X87251537Y-135419506D01*
X87172185Y-135322815D01*
X87075494Y-135243463D01*
X86965180Y-135184498D01*
X86845482Y-135148188D01*
X86721000Y-135135928D01*
X85756750Y-135139000D01*
X85598000Y-135297750D01*
X85598000Y-136147000D01*
X85618000Y-136147000D01*
X85618000Y-136401000D01*
X85598000Y-136401000D01*
X85598000Y-137250250D01*
X85748791Y-137401041D01*
X84909574Y-138240259D01*
X84877710Y-138266409D01*
X84851562Y-138298271D01*
X84773364Y-138393555D01*
X84695828Y-138538614D01*
X84648082Y-138696012D01*
X84645529Y-138721928D01*
X84221000Y-138721928D01*
X84096518Y-138734188D01*
X83976820Y-138770498D01*
X83866506Y-138829463D01*
X83769815Y-138908815D01*
X83690463Y-139005506D01*
X83631498Y-139115820D01*
X83595188Y-139235518D01*
X83582928Y-139360000D01*
X83582928Y-140360000D01*
X83595188Y-140484482D01*
X83631498Y-140604180D01*
X83690463Y-140714494D01*
X83769815Y-140811185D01*
X83800891Y-140836688D01*
X83764755Y-140851656D01*
X83164753Y-141252565D01*
X82654493Y-141762825D01*
X82253584Y-142362827D01*
X81977434Y-143029513D01*
X81836653Y-143737264D01*
X81836653Y-144458880D01*
X81977434Y-145166631D01*
X82253584Y-145833317D01*
X82654493Y-146433319D01*
X83164753Y-146943579D01*
X83696112Y-147298622D01*
X83690463Y-147305506D01*
X83631498Y-147415820D01*
X83595188Y-147535518D01*
X83582928Y-147660000D01*
X83586000Y-147874250D01*
X83744750Y-148033000D01*
X85344000Y-148033000D01*
X85344000Y-148013000D01*
X85598000Y-148013000D01*
X85598000Y-148033000D01*
X87197250Y-148033000D01*
X87356000Y-147874250D01*
X87359072Y-147660000D01*
X87346812Y-147535518D01*
X87310502Y-147415820D01*
X87262603Y-147326208D01*
X87835247Y-146943579D01*
X88345507Y-146433319D01*
X88746416Y-145833317D01*
X89022566Y-145166631D01*
X89163347Y-144458880D01*
X89163347Y-143737264D01*
X89022566Y-143029513D01*
X88746416Y-142362827D01*
X88345507Y-141762825D01*
X87835247Y-141252565D01*
X87235245Y-140851656D01*
X87160564Y-140820722D01*
X87172185Y-140811185D01*
X87251537Y-140714494D01*
X87310502Y-140604180D01*
X87346812Y-140484482D01*
X87359072Y-140360000D01*
X87359072Y-139360000D01*
X87346812Y-139235518D01*
X87310502Y-139115820D01*
X87251537Y-139005506D01*
X87172185Y-138908815D01*
X87075494Y-138829463D01*
X86965180Y-138770498D01*
X86845482Y-138734188D01*
X86783485Y-138728082D01*
X91030428Y-134481140D01*
X91062291Y-134454991D01*
X91166636Y-134327846D01*
X91244172Y-134182787D01*
X91291918Y-134025389D01*
X91304000Y-133902719D01*
X91304000Y-133902709D01*
X91308039Y-133861701D01*
X91304000Y-133820693D01*
X91304000Y-133684410D01*
X91330510Y-133748411D01*
X91493025Y-133991632D01*
X91699868Y-134198475D01*
X91874260Y-134315000D01*
X91699868Y-134431525D01*
X91493025Y-134638368D01*
X91330510Y-134881589D01*
X91218568Y-135151842D01*
X91161500Y-135438740D01*
X91161500Y-135731260D01*
X91218568Y-136018158D01*
X91330510Y-136288411D01*
X91493025Y-136531632D01*
X91699868Y-136738475D01*
X91811501Y-136813065D01*
X91811500Y-136896935D01*
X91699868Y-136971525D01*
X91493025Y-137178368D01*
X91330510Y-137421589D01*
X91218568Y-137691842D01*
X91161500Y-137978740D01*
X91161500Y-138271260D01*
X91218568Y-138558158D01*
X91330510Y-138828411D01*
X91493025Y-139071632D01*
X91699868Y-139278475D01*
X91874260Y-139395000D01*
X91699868Y-139511525D01*
X91493025Y-139718368D01*
X91330510Y-139961589D01*
X91218568Y-140231842D01*
X91161500Y-140518740D01*
X91161500Y-140811260D01*
X91218568Y-141098158D01*
X91330510Y-141368411D01*
X91493025Y-141611632D01*
X91699868Y-141818475D01*
X91874260Y-141935000D01*
X91699868Y-142051525D01*
X91493025Y-142258368D01*
X91330510Y-142501589D01*
X91218568Y-142771842D01*
X91161500Y-143058740D01*
X91161500Y-143351260D01*
X91218568Y-143638158D01*
X91330510Y-143908411D01*
X91493025Y-144151632D01*
X91699868Y-144358475D01*
X91874260Y-144475000D01*
X91699868Y-144591525D01*
X91493025Y-144798368D01*
X91330510Y-145041589D01*
X91218568Y-145311842D01*
X91161500Y-145598740D01*
X91161500Y-145891260D01*
X91218568Y-146178158D01*
X91330510Y-146448411D01*
X91493025Y-146691632D01*
X91699868Y-146898475D01*
X91882034Y-147020195D01*
X91765145Y-147089822D01*
X91548912Y-147284731D01*
X91374859Y-147518080D01*
X91249675Y-147780901D01*
X91205024Y-147928110D01*
X91326345Y-148158000D01*
X92519500Y-148158000D01*
X92519500Y-148138000D01*
X92773500Y-148138000D01*
X92773500Y-148158000D01*
X93966655Y-148158000D01*
X94087976Y-147928110D01*
X94043325Y-147780901D01*
X93918141Y-147518080D01*
X93744088Y-147284731D01*
X93527855Y-147089822D01*
X93410966Y-147020195D01*
X93593132Y-146898475D01*
X93799975Y-146691632D01*
X93962490Y-146448411D01*
X94074432Y-146178158D01*
X94131500Y-145891260D01*
X94131500Y-145598740D01*
X94074432Y-145311842D01*
X93962490Y-145041589D01*
X93799975Y-144798368D01*
X93593132Y-144591525D01*
X93418740Y-144475000D01*
X93593132Y-144358475D01*
X93799975Y-144151632D01*
X93962490Y-143908411D01*
X94074432Y-143638158D01*
X94131500Y-143351260D01*
X94131500Y-143058740D01*
X94105307Y-142927061D01*
X94340001Y-142692368D01*
X94340001Y-152340000D01*
X86982957Y-152340000D01*
X87075494Y-152290537D01*
X87172185Y-152211185D01*
X87251537Y-152114494D01*
X87310502Y-152004180D01*
X87346812Y-151884482D01*
X87359072Y-151760000D01*
X87356000Y-151545750D01*
X87197250Y-151387000D01*
X85598000Y-151387000D01*
X85598000Y-151407000D01*
X85344000Y-151407000D01*
X85344000Y-151387000D01*
X83744750Y-151387000D01*
X83586000Y-151545750D01*
X83582928Y-151760000D01*
X83595188Y-151884482D01*
X83631498Y-152004180D01*
X83690463Y-152114494D01*
X83769815Y-152211185D01*
X83866506Y-152290537D01*
X83959043Y-152340000D01*
X76660000Y-152340000D01*
X76660000Y-151181890D01*
X91205024Y-151181890D01*
X91249675Y-151329099D01*
X91374859Y-151591920D01*
X91548912Y-151825269D01*
X91765145Y-152020178D01*
X92015248Y-152169157D01*
X92289609Y-152266481D01*
X92519500Y-152145814D01*
X92519500Y-150952000D01*
X92773500Y-150952000D01*
X92773500Y-152145814D01*
X93003391Y-152266481D01*
X93277752Y-152169157D01*
X93527855Y-152020178D01*
X93744088Y-151825269D01*
X93918141Y-151591920D01*
X94043325Y-151329099D01*
X94087976Y-151181890D01*
X93966655Y-150952000D01*
X92773500Y-150952000D01*
X92519500Y-150952000D01*
X91326345Y-150952000D01*
X91205024Y-151181890D01*
X76660000Y-151181890D01*
X76660000Y-150760000D01*
X83582928Y-150760000D01*
X83586000Y-150974250D01*
X83744750Y-151133000D01*
X85344000Y-151133000D01*
X85344000Y-150283750D01*
X85598000Y-150283750D01*
X85598000Y-151133000D01*
X87197250Y-151133000D01*
X87356000Y-150974250D01*
X87359072Y-150760000D01*
X87346812Y-150635518D01*
X87310502Y-150515820D01*
X87251537Y-150405506D01*
X87172185Y-150308815D01*
X87075494Y-150229463D01*
X86965180Y-150170498D01*
X86845482Y-150134188D01*
X86721000Y-150121928D01*
X85756750Y-150125000D01*
X85598000Y-150283750D01*
X85344000Y-150283750D01*
X85185250Y-150125000D01*
X84221000Y-150121928D01*
X84096518Y-150134188D01*
X83976820Y-150170498D01*
X83866506Y-150229463D01*
X83769815Y-150308815D01*
X83690463Y-150405506D01*
X83631498Y-150515820D01*
X83595188Y-150635518D01*
X83582928Y-150760000D01*
X76660000Y-150760000D01*
X76660000Y-148660000D01*
X83582928Y-148660000D01*
X83595188Y-148784482D01*
X83631498Y-148904180D01*
X83690463Y-149014494D01*
X83769815Y-149111185D01*
X83866506Y-149190537D01*
X83976820Y-149249502D01*
X84096518Y-149285812D01*
X84221000Y-149298072D01*
X85185250Y-149295000D01*
X85344000Y-149136250D01*
X85344000Y-148287000D01*
X85598000Y-148287000D01*
X85598000Y-149136250D01*
X85756750Y-149295000D01*
X86721000Y-149298072D01*
X86845482Y-149285812D01*
X86965180Y-149249502D01*
X87075494Y-149190537D01*
X87172185Y-149111185D01*
X87251537Y-149014494D01*
X87310502Y-148904180D01*
X87346812Y-148784482D01*
X87359072Y-148660000D01*
X87358813Y-148641890D01*
X91205024Y-148641890D01*
X91249675Y-148789099D01*
X91374859Y-149051920D01*
X91548912Y-149285269D01*
X91765145Y-149480178D01*
X91890755Y-149555000D01*
X91765145Y-149629822D01*
X91548912Y-149824731D01*
X91374859Y-150058080D01*
X91249675Y-150320901D01*
X91205024Y-150468110D01*
X91326345Y-150698000D01*
X92519500Y-150698000D01*
X92519500Y-148412000D01*
X92773500Y-148412000D01*
X92773500Y-150698000D01*
X93966655Y-150698000D01*
X94087976Y-150468110D01*
X94043325Y-150320901D01*
X93918141Y-150058080D01*
X93744088Y-149824731D01*
X93527855Y-149629822D01*
X93402245Y-149555000D01*
X93527855Y-149480178D01*
X93744088Y-149285269D01*
X93918141Y-149051920D01*
X94043325Y-148789099D01*
X94087976Y-148641890D01*
X93966655Y-148412000D01*
X92773500Y-148412000D01*
X92519500Y-148412000D01*
X91326345Y-148412000D01*
X91205024Y-148641890D01*
X87358813Y-148641890D01*
X87356000Y-148445750D01*
X87197250Y-148287000D01*
X85598000Y-148287000D01*
X85344000Y-148287000D01*
X83744750Y-148287000D01*
X83586000Y-148445750D01*
X83582928Y-148660000D01*
X76660000Y-148660000D01*
X76660000Y-136774000D01*
X83582928Y-136774000D01*
X83595188Y-136898482D01*
X83631498Y-137018180D01*
X83690463Y-137128494D01*
X83769815Y-137225185D01*
X83866506Y-137304537D01*
X83976820Y-137363502D01*
X84096518Y-137399812D01*
X84221000Y-137412072D01*
X85185250Y-137409000D01*
X85344000Y-137250250D01*
X85344000Y-136401000D01*
X83744750Y-136401000D01*
X83586000Y-136559750D01*
X83582928Y-136774000D01*
X76660000Y-136774000D01*
X76660000Y-135774000D01*
X83582928Y-135774000D01*
X83586000Y-135988250D01*
X83744750Y-136147000D01*
X85344000Y-136147000D01*
X85344000Y-135297750D01*
X85185250Y-135139000D01*
X84221000Y-135135928D01*
X84096518Y-135148188D01*
X83976820Y-135184498D01*
X83866506Y-135243463D01*
X83769815Y-135322815D01*
X83690463Y-135419506D01*
X83631498Y-135529820D01*
X83595188Y-135649518D01*
X83582928Y-135774000D01*
X76660000Y-135774000D01*
X76660000Y-133674000D01*
X83582928Y-133674000D01*
X83595188Y-133798482D01*
X83631498Y-133918180D01*
X83690463Y-134028494D01*
X83769815Y-134125185D01*
X83866506Y-134204537D01*
X83976820Y-134263502D01*
X84096518Y-134299812D01*
X84221000Y-134312072D01*
X85185250Y-134309000D01*
X85344000Y-134150250D01*
X85344000Y-133301000D01*
X85598000Y-133301000D01*
X85598000Y-134150250D01*
X85756750Y-134309000D01*
X86721000Y-134312072D01*
X86845482Y-134299812D01*
X86965180Y-134263502D01*
X87075494Y-134204537D01*
X87172185Y-134125185D01*
X87251537Y-134028494D01*
X87310502Y-133918180D01*
X87346812Y-133798482D01*
X87359072Y-133674000D01*
X87356000Y-133459750D01*
X87197250Y-133301000D01*
X85598000Y-133301000D01*
X85344000Y-133301000D01*
X83744750Y-133301000D01*
X83586000Y-133459750D01*
X83582928Y-133674000D01*
X76660000Y-133674000D01*
X76660000Y-121661000D01*
X83582928Y-121661000D01*
X83595188Y-121785482D01*
X83631498Y-121905180D01*
X83690463Y-122015494D01*
X83769815Y-122112185D01*
X83866506Y-122191537D01*
X83976820Y-122250502D01*
X84096518Y-122286812D01*
X84221000Y-122299072D01*
X85185250Y-122296000D01*
X85344000Y-122137250D01*
X85344000Y-121288000D01*
X83744750Y-121288000D01*
X83586000Y-121446750D01*
X83582928Y-121661000D01*
X76660000Y-121661000D01*
X76660000Y-120661000D01*
X83582928Y-120661000D01*
X83586000Y-120875250D01*
X83744750Y-121034000D01*
X85344000Y-121034000D01*
X85344000Y-120184750D01*
X85185250Y-120026000D01*
X84221000Y-120022928D01*
X84096518Y-120035188D01*
X83976820Y-120071498D01*
X83866506Y-120130463D01*
X83769815Y-120209815D01*
X83690463Y-120306506D01*
X83631498Y-120416820D01*
X83595188Y-120536518D01*
X83582928Y-120661000D01*
X76660000Y-120661000D01*
X76660000Y-104033184D01*
X76718963Y-104143494D01*
X76798315Y-104240185D01*
X76895006Y-104319537D01*
X77005320Y-104378502D01*
X77125018Y-104414812D01*
X77249500Y-104427072D01*
X78263750Y-104424000D01*
X78422500Y-104265250D01*
X78422500Y-102616000D01*
X78402500Y-102616000D01*
X78402500Y-102362000D01*
X78422500Y-102362000D01*
X78422500Y-100712750D01*
X78263750Y-100554000D01*
X77249500Y-100550928D01*
X77125018Y-100563188D01*
X77005320Y-100599498D01*
X76895006Y-100658463D01*
X76798315Y-100737815D01*
X76718963Y-100834506D01*
X76660000Y-100944816D01*
X76660000Y-97828325D01*
X76688861Y-97973419D01*
G36*
X82654493Y-101475319D02*
G01*
X83164753Y-101985579D01*
X83696112Y-102340622D01*
X83690463Y-102347506D01*
X83631498Y-102457820D01*
X83595188Y-102577518D01*
X83582928Y-102702000D01*
X83586000Y-102916250D01*
X83744750Y-103075000D01*
X85344000Y-103075000D01*
X85344000Y-103055000D01*
X85598000Y-103055000D01*
X85598000Y-103075000D01*
X87197250Y-103075000D01*
X87356000Y-102916250D01*
X87359072Y-102702000D01*
X87346812Y-102577518D01*
X87310502Y-102457820D01*
X87262603Y-102368208D01*
X87835247Y-101985579D01*
X88170301Y-101650525D01*
X88170300Y-111535546D01*
X87835247Y-111200493D01*
X87235245Y-110799584D01*
X87122562Y-110752909D01*
X87172185Y-110712185D01*
X87251537Y-110615494D01*
X87310502Y-110505180D01*
X87346812Y-110385482D01*
X87359072Y-110261000D01*
X87359072Y-109261000D01*
X87346812Y-109136518D01*
X87310502Y-109016820D01*
X87251537Y-108906506D01*
X87172185Y-108809815D01*
X87075494Y-108730463D01*
X86965180Y-108671498D01*
X86845482Y-108635188D01*
X86721000Y-108622928D01*
X84221000Y-108622928D01*
X84096518Y-108635188D01*
X83976820Y-108671498D01*
X83866506Y-108730463D01*
X83769815Y-108809815D01*
X83690463Y-108906506D01*
X83631498Y-109016820D01*
X83595188Y-109136518D01*
X83582928Y-109261000D01*
X83582928Y-110261000D01*
X83595188Y-110385482D01*
X83631498Y-110505180D01*
X83690463Y-110615494D01*
X83769815Y-110712185D01*
X83838893Y-110768875D01*
X83764755Y-110799584D01*
X83164753Y-111200493D01*
X82654493Y-111710753D01*
X82512600Y-111923111D01*
X82512600Y-106802000D01*
X83582928Y-106802000D01*
X83595188Y-106926482D01*
X83631498Y-107046180D01*
X83690463Y-107156494D01*
X83769815Y-107253185D01*
X83866506Y-107332537D01*
X83976820Y-107391502D01*
X84096518Y-107427812D01*
X84221000Y-107440072D01*
X85185250Y-107437000D01*
X85344000Y-107278250D01*
X85344000Y-106429000D01*
X85598000Y-106429000D01*
X85598000Y-107278250D01*
X85756750Y-107437000D01*
X86721000Y-107440072D01*
X86845482Y-107427812D01*
X86965180Y-107391502D01*
X87075494Y-107332537D01*
X87172185Y-107253185D01*
X87251537Y-107156494D01*
X87310502Y-107046180D01*
X87346812Y-106926482D01*
X87359072Y-106802000D01*
X87356000Y-106587750D01*
X87197250Y-106429000D01*
X85598000Y-106429000D01*
X85344000Y-106429000D01*
X83744750Y-106429000D01*
X83586000Y-106587750D01*
X83582928Y-106802000D01*
X82512600Y-106802000D01*
X82512600Y-105802000D01*
X83582928Y-105802000D01*
X83586000Y-106016250D01*
X83744750Y-106175000D01*
X85344000Y-106175000D01*
X85344000Y-105325750D01*
X85598000Y-105325750D01*
X85598000Y-106175000D01*
X87197250Y-106175000D01*
X87356000Y-106016250D01*
X87359072Y-105802000D01*
X87346812Y-105677518D01*
X87310502Y-105557820D01*
X87251537Y-105447506D01*
X87172185Y-105350815D01*
X87075494Y-105271463D01*
X86965180Y-105212498D01*
X86845482Y-105176188D01*
X86721000Y-105163928D01*
X85756750Y-105167000D01*
X85598000Y-105325750D01*
X85344000Y-105325750D01*
X85185250Y-105167000D01*
X84221000Y-105163928D01*
X84096518Y-105176188D01*
X83976820Y-105212498D01*
X83866506Y-105271463D01*
X83769815Y-105350815D01*
X83690463Y-105447506D01*
X83631498Y-105557820D01*
X83595188Y-105677518D01*
X83582928Y-105802000D01*
X82512600Y-105802000D01*
X82512600Y-103702000D01*
X83582928Y-103702000D01*
X83595188Y-103826482D01*
X83631498Y-103946180D01*
X83690463Y-104056494D01*
X83769815Y-104153185D01*
X83866506Y-104232537D01*
X83976820Y-104291502D01*
X84096518Y-104327812D01*
X84221000Y-104340072D01*
X85185250Y-104337000D01*
X85344000Y-104178250D01*
X85344000Y-103329000D01*
X85598000Y-103329000D01*
X85598000Y-104178250D01*
X85756750Y-104337000D01*
X86721000Y-104340072D01*
X86845482Y-104327812D01*
X86965180Y-104291502D01*
X87075494Y-104232537D01*
X87172185Y-104153185D01*
X87251537Y-104056494D01*
X87310502Y-103946180D01*
X87346812Y-103826482D01*
X87359072Y-103702000D01*
X87356000Y-103487750D01*
X87197250Y-103329000D01*
X85598000Y-103329000D01*
X85344000Y-103329000D01*
X83744750Y-103329000D01*
X83586000Y-103487750D01*
X83582928Y-103702000D01*
X82512600Y-103702000D01*
X82512600Y-101262961D01*
X82654493Y-101475319D01*
G37*
X82654493Y-101475319D02*
X83164753Y-101985579D01*
X83696112Y-102340622D01*
X83690463Y-102347506D01*
X83631498Y-102457820D01*
X83595188Y-102577518D01*
X83582928Y-102702000D01*
X83586000Y-102916250D01*
X83744750Y-103075000D01*
X85344000Y-103075000D01*
X85344000Y-103055000D01*
X85598000Y-103055000D01*
X85598000Y-103075000D01*
X87197250Y-103075000D01*
X87356000Y-102916250D01*
X87359072Y-102702000D01*
X87346812Y-102577518D01*
X87310502Y-102457820D01*
X87262603Y-102368208D01*
X87835247Y-101985579D01*
X88170301Y-101650525D01*
X88170300Y-111535546D01*
X87835247Y-111200493D01*
X87235245Y-110799584D01*
X87122562Y-110752909D01*
X87172185Y-110712185D01*
X87251537Y-110615494D01*
X87310502Y-110505180D01*
X87346812Y-110385482D01*
X87359072Y-110261000D01*
X87359072Y-109261000D01*
X87346812Y-109136518D01*
X87310502Y-109016820D01*
X87251537Y-108906506D01*
X87172185Y-108809815D01*
X87075494Y-108730463D01*
X86965180Y-108671498D01*
X86845482Y-108635188D01*
X86721000Y-108622928D01*
X84221000Y-108622928D01*
X84096518Y-108635188D01*
X83976820Y-108671498D01*
X83866506Y-108730463D01*
X83769815Y-108809815D01*
X83690463Y-108906506D01*
X83631498Y-109016820D01*
X83595188Y-109136518D01*
X83582928Y-109261000D01*
X83582928Y-110261000D01*
X83595188Y-110385482D01*
X83631498Y-110505180D01*
X83690463Y-110615494D01*
X83769815Y-110712185D01*
X83838893Y-110768875D01*
X83764755Y-110799584D01*
X83164753Y-111200493D01*
X82654493Y-111710753D01*
X82512600Y-111923111D01*
X82512600Y-106802000D01*
X83582928Y-106802000D01*
X83595188Y-106926482D01*
X83631498Y-107046180D01*
X83690463Y-107156494D01*
X83769815Y-107253185D01*
X83866506Y-107332537D01*
X83976820Y-107391502D01*
X84096518Y-107427812D01*
X84221000Y-107440072D01*
X85185250Y-107437000D01*
X85344000Y-107278250D01*
X85344000Y-106429000D01*
X85598000Y-106429000D01*
X85598000Y-107278250D01*
X85756750Y-107437000D01*
X86721000Y-107440072D01*
X86845482Y-107427812D01*
X86965180Y-107391502D01*
X87075494Y-107332537D01*
X87172185Y-107253185D01*
X87251537Y-107156494D01*
X87310502Y-107046180D01*
X87346812Y-106926482D01*
X87359072Y-106802000D01*
X87356000Y-106587750D01*
X87197250Y-106429000D01*
X85598000Y-106429000D01*
X85344000Y-106429000D01*
X83744750Y-106429000D01*
X83586000Y-106587750D01*
X83582928Y-106802000D01*
X82512600Y-106802000D01*
X82512600Y-105802000D01*
X83582928Y-105802000D01*
X83586000Y-106016250D01*
X83744750Y-106175000D01*
X85344000Y-106175000D01*
X85344000Y-105325750D01*
X85598000Y-105325750D01*
X85598000Y-106175000D01*
X87197250Y-106175000D01*
X87356000Y-106016250D01*
X87359072Y-105802000D01*
X87346812Y-105677518D01*
X87310502Y-105557820D01*
X87251537Y-105447506D01*
X87172185Y-105350815D01*
X87075494Y-105271463D01*
X86965180Y-105212498D01*
X86845482Y-105176188D01*
X86721000Y-105163928D01*
X85756750Y-105167000D01*
X85598000Y-105325750D01*
X85344000Y-105325750D01*
X85185250Y-105167000D01*
X84221000Y-105163928D01*
X84096518Y-105176188D01*
X83976820Y-105212498D01*
X83866506Y-105271463D01*
X83769815Y-105350815D01*
X83690463Y-105447506D01*
X83631498Y-105557820D01*
X83595188Y-105677518D01*
X83582928Y-105802000D01*
X82512600Y-105802000D01*
X82512600Y-103702000D01*
X83582928Y-103702000D01*
X83595188Y-103826482D01*
X83631498Y-103946180D01*
X83690463Y-104056494D01*
X83769815Y-104153185D01*
X83866506Y-104232537D01*
X83976820Y-104291502D01*
X84096518Y-104327812D01*
X84221000Y-104340072D01*
X85185250Y-104337000D01*
X85344000Y-104178250D01*
X85344000Y-103329000D01*
X85598000Y-103329000D01*
X85598000Y-104178250D01*
X85756750Y-104337000D01*
X86721000Y-104340072D01*
X86845482Y-104327812D01*
X86965180Y-104291502D01*
X87075494Y-104232537D01*
X87172185Y-104153185D01*
X87251537Y-104056494D01*
X87310502Y-103946180D01*
X87346812Y-103826482D01*
X87359072Y-103702000D01*
X87356000Y-103487750D01*
X87197250Y-103329000D01*
X85598000Y-103329000D01*
X85344000Y-103329000D01*
X83744750Y-103329000D01*
X83586000Y-103487750D01*
X83582928Y-103702000D01*
X82512600Y-103702000D01*
X82512600Y-101262961D01*
X82654493Y-101475319D01*
M02*
