G04 #@! TF.GenerationSoftware,KiCad,Pcbnew,(5.1.5-0-10_14)*
G04 #@! TF.CreationDate,2020-09-23T15:18:55-04:00*
G04 #@! TF.ProjectId,AYOMSM - VCA Control Board,41594f4d-534d-4202-9d20-56434120436f,1.1*
G04 #@! TF.SameCoordinates,Original*
G04 #@! TF.FileFunction,Copper,L1,Top*
G04 #@! TF.FilePolarity,Positive*
%FSLAX46Y46*%
G04 Gerber Fmt 4.6, Leading zero omitted, Abs format (unit mm)*
G04 Created by KiCad (PCBNEW (5.1.5-0-10_14)) date 2020-09-23 15:18:55*
%MOMM*%
%LPD*%
G04 APERTURE LIST*
%ADD10R,1.700000X1.700000*%
%ADD11O,1.700000X1.700000*%
%ADD12C,1.440000*%
%ADD13R,1.800000X1.800000*%
%ADD14C,1.800000*%
%ADD15O,2.720000X3.240000*%
%ADD16C,0.100000*%
%ADD17C,2.600000*%
%ADD18O,2.000000X3.000000*%
%ADD19R,2.500000X1.000000*%
%ADD20C,0.300000*%
%ADD21C,0.254000*%
G04 APERTURE END LIST*
D10*
X79150000Y-90614500D03*
D11*
X81690000Y-90614500D03*
X84230000Y-90614500D03*
X86770000Y-90614500D03*
X89310000Y-90614500D03*
X91850000Y-90614500D03*
D10*
X92646500Y-127965000D03*
D11*
X92646500Y-130505000D03*
X92646500Y-133045000D03*
X92646500Y-135585000D03*
X92646500Y-138125000D03*
X92646500Y-140665000D03*
X92646500Y-143205000D03*
X92646500Y-145745000D03*
X92646500Y-148285000D03*
X92646500Y-150825000D03*
D12*
X88030000Y-77851000D03*
X85490000Y-77851000D03*
X82950000Y-77851000D03*
X88050000Y-57404000D03*
X85510000Y-57404000D03*
X82970000Y-57404000D03*
D13*
X83000000Y-73556000D03*
D14*
X85500000Y-73556000D03*
X88000000Y-73556000D03*
D15*
X90300000Y-66056000D03*
X80700000Y-66056000D03*
G04 #@! TA.AperFunction,ComponentPad*
D16*
G36*
X93423711Y-100811130D02*
G01*
X93486809Y-100820490D01*
X93548685Y-100835989D01*
X93608744Y-100857478D01*
X93666408Y-100884751D01*
X93721121Y-100917545D01*
X93772356Y-100955543D01*
X93819619Y-100998381D01*
X93862457Y-101045644D01*
X93900455Y-101096879D01*
X93933249Y-101151592D01*
X93960522Y-101209256D01*
X93982011Y-101269315D01*
X93997510Y-101331191D01*
X94006870Y-101394289D01*
X94010000Y-101458000D01*
X94010000Y-102758000D01*
X94006870Y-102821711D01*
X93997510Y-102884809D01*
X93982011Y-102946685D01*
X93960522Y-103006744D01*
X93933249Y-103064408D01*
X93900455Y-103119121D01*
X93862457Y-103170356D01*
X93819619Y-103217619D01*
X93772356Y-103260457D01*
X93721121Y-103298455D01*
X93666408Y-103331249D01*
X93608744Y-103358522D01*
X93548685Y-103380011D01*
X93486809Y-103395510D01*
X93423711Y-103404870D01*
X93360000Y-103408000D01*
X92060000Y-103408000D01*
X91996289Y-103404870D01*
X91933191Y-103395510D01*
X91871315Y-103380011D01*
X91811256Y-103358522D01*
X91753592Y-103331249D01*
X91698879Y-103298455D01*
X91647644Y-103260457D01*
X91600381Y-103217619D01*
X91557543Y-103170356D01*
X91519545Y-103119121D01*
X91486751Y-103064408D01*
X91459478Y-103006744D01*
X91437989Y-102946685D01*
X91422490Y-102884809D01*
X91413130Y-102821711D01*
X91410000Y-102758000D01*
X91410000Y-101458000D01*
X91413130Y-101394289D01*
X91422490Y-101331191D01*
X91437989Y-101269315D01*
X91459478Y-101209256D01*
X91486751Y-101151592D01*
X91519545Y-101096879D01*
X91557543Y-101045644D01*
X91600381Y-100998381D01*
X91647644Y-100955543D01*
X91698879Y-100917545D01*
X91753592Y-100884751D01*
X91811256Y-100857478D01*
X91871315Y-100835989D01*
X91933191Y-100820490D01*
X91996289Y-100811130D01*
X92060000Y-100808000D01*
X93360000Y-100808000D01*
X93423711Y-100811130D01*
G37*
G04 #@! TD.AperFunction*
D17*
X92710000Y-97028000D03*
D18*
X80822800Y-85189800D03*
X85522800Y-85189800D03*
X90222800Y-85189800D03*
D19*
X85471000Y-94902000D03*
X85471000Y-103202000D03*
X85471000Y-106302000D03*
X85471000Y-109761000D03*
X85471000Y-118061000D03*
X85471000Y-121161000D03*
X85471000Y-124874000D03*
X85471000Y-133174000D03*
X85471000Y-136274000D03*
X85471000Y-139860000D03*
X85471000Y-148160000D03*
X85471000Y-151260000D03*
D20*
X85471000Y-103202000D02*
X91616000Y-103202000D01*
X91616000Y-103202000D02*
X92710000Y-102108000D01*
X85471000Y-106302000D02*
X85471000Y-103202000D01*
X85471000Y-121161000D02*
X85471000Y-118061000D01*
X85471000Y-151260000D02*
X85471000Y-148160000D01*
X85471000Y-118061000D02*
X83820700Y-118061000D01*
X83820700Y-118061000D02*
X82088700Y-116329000D01*
X82088700Y-116329000D02*
X82088700Y-110584600D01*
X82088700Y-110584600D02*
X85471000Y-107202300D01*
X85471000Y-106302000D02*
X85471000Y-107202300D01*
X85471000Y-136274000D02*
X85471000Y-137174300D01*
X92646500Y-150825000D02*
X92646500Y-148285000D01*
X85471000Y-136274000D02*
X85471000Y-133174000D01*
X92521500Y-148160000D02*
X92646500Y-148285000D01*
X88929673Y-140618673D02*
X88900000Y-140589000D01*
X88929673Y-148052327D02*
X88929673Y-140618673D01*
X88822000Y-148160000D02*
X88929673Y-148052327D01*
X88900000Y-140589000D02*
X85471000Y-137174300D01*
X88901400Y-140604700D02*
X88900000Y-140589000D01*
X85471000Y-148160000D02*
X88822000Y-148160000D01*
X88822000Y-148160000D02*
X92521500Y-148160000D01*
X79150000Y-91764500D02*
X79150000Y-90614500D01*
X82287500Y-94902000D02*
X79150000Y-91764500D01*
X85471000Y-94902000D02*
X82287500Y-94902000D01*
X85500000Y-73556000D02*
X86760000Y-74816000D01*
X86760000Y-74816000D02*
X86760000Y-80605800D01*
X86760000Y-80605800D02*
X86950700Y-80796500D01*
X86950700Y-80796500D02*
X86950700Y-87081600D01*
X86950700Y-87081600D02*
X85480300Y-88552000D01*
X85480300Y-88552000D02*
X85480300Y-90614500D01*
X84230000Y-90614500D02*
X85480300Y-90614500D01*
X92710000Y-97028000D02*
X91375700Y-97028000D01*
X91375700Y-97028000D02*
X85480300Y-91132600D01*
X85480300Y-91132600D02*
X85480300Y-90614500D01*
X89310000Y-90614500D02*
X89310000Y-89364200D01*
X85510000Y-57404000D02*
X85510000Y-67965200D01*
X85510000Y-67965200D02*
X89340500Y-71795700D01*
X89340500Y-71795700D02*
X89340500Y-78453300D01*
X89340500Y-78453300D02*
X88816300Y-78977500D01*
X88816300Y-78977500D02*
X88816300Y-88870500D01*
X88816300Y-88870500D02*
X89310000Y-89364200D01*
X88379600Y-124614400D02*
X88379600Y-126118102D01*
X88379600Y-126118102D02*
X92646500Y-130385002D01*
X86317400Y-122552200D02*
X88379600Y-124614400D01*
X84503200Y-122552200D02*
X86317400Y-122552200D01*
X77894800Y-115943800D02*
X84503200Y-122552200D01*
X77894800Y-86717500D02*
X77894800Y-115943800D01*
X92646500Y-130385002D02*
X92646500Y-130505000D01*
X79422500Y-85189800D02*
X77894800Y-86717500D01*
X80822800Y-85189800D02*
X79422500Y-85189800D01*
X94437900Y-88004600D02*
X94437900Y-131253600D01*
X91623100Y-85189800D02*
X94437900Y-88004600D01*
X94437900Y-131253600D02*
X92646500Y-133045000D01*
X90222800Y-85189800D02*
X91623100Y-85189800D01*
X82950000Y-77851000D02*
X77344300Y-83456700D01*
X77344300Y-83456700D02*
X77344300Y-116171600D01*
X77344300Y-116171600D02*
X84910300Y-123737600D01*
X84910300Y-123737600D02*
X86696900Y-123737600D01*
X86696900Y-123737600D02*
X87280600Y-124321300D01*
X87280600Y-124321300D02*
X87280600Y-125869400D01*
X87280600Y-125869400D02*
X91356900Y-129945700D01*
X92646500Y-138125000D02*
X92646500Y-135585000D01*
X91356900Y-134295400D02*
X92646500Y-135585000D01*
X91356900Y-129945700D02*
X91356900Y-134295400D01*
D21*
G36*
X76688439Y-116609833D02*
G01*
X76728990Y-116659244D01*
X76761955Y-116699412D01*
X76761959Y-116699416D01*
X76786537Y-116729364D01*
X76816485Y-116753942D01*
X83892247Y-123829704D01*
X83866506Y-123843463D01*
X83769815Y-123922815D01*
X83690463Y-124019506D01*
X83631498Y-124129820D01*
X83595188Y-124249518D01*
X83582928Y-124374000D01*
X83582928Y-125374000D01*
X83595188Y-125498482D01*
X83631498Y-125618180D01*
X83690463Y-125728494D01*
X83769815Y-125825185D01*
X83800891Y-125850688D01*
X83764755Y-125865656D01*
X83164753Y-126266565D01*
X82654493Y-126776825D01*
X82253584Y-127376827D01*
X81977434Y-128043513D01*
X81836653Y-128751264D01*
X81836653Y-129472880D01*
X81977434Y-130180631D01*
X82253584Y-130847317D01*
X82654493Y-131447319D01*
X83164753Y-131957579D01*
X83696112Y-132312622D01*
X83690463Y-132319506D01*
X83631498Y-132429820D01*
X83595188Y-132549518D01*
X83582928Y-132674000D01*
X83586000Y-132888250D01*
X83744750Y-133047000D01*
X85344000Y-133047000D01*
X85344000Y-133027000D01*
X85598000Y-133027000D01*
X85598000Y-133047000D01*
X87197250Y-133047000D01*
X87356000Y-132888250D01*
X87359072Y-132674000D01*
X87346812Y-132549518D01*
X87310502Y-132429820D01*
X87262603Y-132340208D01*
X87835247Y-131957579D01*
X88345507Y-131447319D01*
X88746416Y-130847317D01*
X89022566Y-130180631D01*
X89163347Y-129472880D01*
X89163347Y-128862304D01*
X90571900Y-130270857D01*
X90571901Y-134256837D01*
X90568103Y-134295400D01*
X90583259Y-134449286D01*
X90628146Y-134597259D01*
X90628147Y-134597260D01*
X90701039Y-134733633D01*
X90741590Y-134783044D01*
X90774555Y-134823212D01*
X90774559Y-134823216D01*
X90799137Y-134853164D01*
X90829085Y-134877742D01*
X91199425Y-135248082D01*
X91161500Y-135438740D01*
X91161500Y-135731260D01*
X91218568Y-136018158D01*
X91330510Y-136288411D01*
X91493025Y-136531632D01*
X91699868Y-136738475D01*
X91861501Y-136846474D01*
X91861500Y-136863526D01*
X91699868Y-136971525D01*
X91493025Y-137178368D01*
X91330510Y-137421589D01*
X91218568Y-137691842D01*
X91161500Y-137978740D01*
X91161500Y-138271260D01*
X91218568Y-138558158D01*
X91330510Y-138828411D01*
X91493025Y-139071632D01*
X91699868Y-139278475D01*
X91874260Y-139395000D01*
X91699868Y-139511525D01*
X91493025Y-139718368D01*
X91330510Y-139961589D01*
X91218568Y-140231842D01*
X91161500Y-140518740D01*
X91161500Y-140811260D01*
X91218568Y-141098158D01*
X91330510Y-141368411D01*
X91493025Y-141611632D01*
X91699868Y-141818475D01*
X91874260Y-141935000D01*
X91699868Y-142051525D01*
X91493025Y-142258368D01*
X91330510Y-142501589D01*
X91218568Y-142771842D01*
X91161500Y-143058740D01*
X91161500Y-143351260D01*
X91218568Y-143638158D01*
X91330510Y-143908411D01*
X91493025Y-144151632D01*
X91699868Y-144358475D01*
X91874260Y-144475000D01*
X91699868Y-144591525D01*
X91493025Y-144798368D01*
X91330510Y-145041589D01*
X91218568Y-145311842D01*
X91161500Y-145598740D01*
X91161500Y-145891260D01*
X91218568Y-146178158D01*
X91330510Y-146448411D01*
X91493025Y-146691632D01*
X91699868Y-146898475D01*
X91882034Y-147020195D01*
X91765145Y-147089822D01*
X91548912Y-147284731D01*
X91374859Y-147518080D01*
X91249675Y-147780901D01*
X91205024Y-147928110D01*
X91326345Y-148158000D01*
X92519500Y-148158000D01*
X92519500Y-148138000D01*
X92773500Y-148138000D01*
X92773500Y-148158000D01*
X93966655Y-148158000D01*
X94087976Y-147928110D01*
X94043325Y-147780901D01*
X93918141Y-147518080D01*
X93744088Y-147284731D01*
X93527855Y-147089822D01*
X93410966Y-147020195D01*
X93593132Y-146898475D01*
X93799975Y-146691632D01*
X93962490Y-146448411D01*
X94074432Y-146178158D01*
X94131500Y-145891260D01*
X94131500Y-145598740D01*
X94074432Y-145311842D01*
X93962490Y-145041589D01*
X93799975Y-144798368D01*
X93593132Y-144591525D01*
X93418740Y-144475000D01*
X93593132Y-144358475D01*
X93799975Y-144151632D01*
X93962490Y-143908411D01*
X94074432Y-143638158D01*
X94131500Y-143351260D01*
X94131500Y-143058740D01*
X94074432Y-142771842D01*
X93962490Y-142501589D01*
X93799975Y-142258368D01*
X93593132Y-142051525D01*
X93418740Y-141935000D01*
X93593132Y-141818475D01*
X93799975Y-141611632D01*
X93962490Y-141368411D01*
X94074432Y-141098158D01*
X94131500Y-140811260D01*
X94131500Y-140518740D01*
X94074432Y-140231842D01*
X93962490Y-139961589D01*
X93799975Y-139718368D01*
X93593132Y-139511525D01*
X93418740Y-139395000D01*
X93593132Y-139278475D01*
X93799975Y-139071632D01*
X93962490Y-138828411D01*
X94074432Y-138558158D01*
X94131500Y-138271260D01*
X94131500Y-137978740D01*
X94074432Y-137691842D01*
X93962490Y-137421589D01*
X93799975Y-137178368D01*
X93593132Y-136971525D01*
X93431500Y-136863526D01*
X93431500Y-136846474D01*
X93593132Y-136738475D01*
X93799975Y-136531632D01*
X93962490Y-136288411D01*
X94074432Y-136018158D01*
X94131500Y-135731260D01*
X94131500Y-135438740D01*
X94074432Y-135151842D01*
X93962490Y-134881589D01*
X93799975Y-134638368D01*
X93593132Y-134431525D01*
X93418740Y-134315000D01*
X93593132Y-134198475D01*
X93799975Y-133991632D01*
X93962490Y-133748411D01*
X94074432Y-133478158D01*
X94131500Y-133191260D01*
X94131500Y-132898740D01*
X94093575Y-132708082D01*
X94340001Y-132461657D01*
X94340001Y-152340000D01*
X86982957Y-152340000D01*
X87075494Y-152290537D01*
X87172185Y-152211185D01*
X87251537Y-152114494D01*
X87310502Y-152004180D01*
X87346812Y-151884482D01*
X87359072Y-151760000D01*
X87356000Y-151545750D01*
X87197250Y-151387000D01*
X85598000Y-151387000D01*
X85598000Y-151407000D01*
X85344000Y-151407000D01*
X85344000Y-151387000D01*
X83744750Y-151387000D01*
X83586000Y-151545750D01*
X83582928Y-151760000D01*
X83595188Y-151884482D01*
X83631498Y-152004180D01*
X83690463Y-152114494D01*
X83769815Y-152211185D01*
X83866506Y-152290537D01*
X83959043Y-152340000D01*
X76660000Y-152340000D01*
X76660000Y-151181890D01*
X91205024Y-151181890D01*
X91249675Y-151329099D01*
X91374859Y-151591920D01*
X91548912Y-151825269D01*
X91765145Y-152020178D01*
X92015248Y-152169157D01*
X92289609Y-152266481D01*
X92519500Y-152145814D01*
X92519500Y-150952000D01*
X92773500Y-150952000D01*
X92773500Y-152145814D01*
X93003391Y-152266481D01*
X93277752Y-152169157D01*
X93527855Y-152020178D01*
X93744088Y-151825269D01*
X93918141Y-151591920D01*
X94043325Y-151329099D01*
X94087976Y-151181890D01*
X93966655Y-150952000D01*
X92773500Y-150952000D01*
X92519500Y-150952000D01*
X91326345Y-150952000D01*
X91205024Y-151181890D01*
X76660000Y-151181890D01*
X76660000Y-150760000D01*
X83582928Y-150760000D01*
X83586000Y-150974250D01*
X83744750Y-151133000D01*
X85344000Y-151133000D01*
X85344000Y-150283750D01*
X85598000Y-150283750D01*
X85598000Y-151133000D01*
X87197250Y-151133000D01*
X87356000Y-150974250D01*
X87359072Y-150760000D01*
X87346812Y-150635518D01*
X87310502Y-150515820D01*
X87251537Y-150405506D01*
X87172185Y-150308815D01*
X87075494Y-150229463D01*
X86965180Y-150170498D01*
X86845482Y-150134188D01*
X86721000Y-150121928D01*
X85756750Y-150125000D01*
X85598000Y-150283750D01*
X85344000Y-150283750D01*
X85185250Y-150125000D01*
X84221000Y-150121928D01*
X84096518Y-150134188D01*
X83976820Y-150170498D01*
X83866506Y-150229463D01*
X83769815Y-150308815D01*
X83690463Y-150405506D01*
X83631498Y-150515820D01*
X83595188Y-150635518D01*
X83582928Y-150760000D01*
X76660000Y-150760000D01*
X76660000Y-148660000D01*
X83582928Y-148660000D01*
X83595188Y-148784482D01*
X83631498Y-148904180D01*
X83690463Y-149014494D01*
X83769815Y-149111185D01*
X83866506Y-149190537D01*
X83976820Y-149249502D01*
X84096518Y-149285812D01*
X84221000Y-149298072D01*
X85185250Y-149295000D01*
X85344000Y-149136250D01*
X85344000Y-148287000D01*
X85598000Y-148287000D01*
X85598000Y-149136250D01*
X85756750Y-149295000D01*
X86721000Y-149298072D01*
X86845482Y-149285812D01*
X86965180Y-149249502D01*
X87075494Y-149190537D01*
X87172185Y-149111185D01*
X87251537Y-149014494D01*
X87310502Y-148904180D01*
X87346812Y-148784482D01*
X87359072Y-148660000D01*
X87358813Y-148641890D01*
X91205024Y-148641890D01*
X91249675Y-148789099D01*
X91374859Y-149051920D01*
X91548912Y-149285269D01*
X91765145Y-149480178D01*
X91890755Y-149555000D01*
X91765145Y-149629822D01*
X91548912Y-149824731D01*
X91374859Y-150058080D01*
X91249675Y-150320901D01*
X91205024Y-150468110D01*
X91326345Y-150698000D01*
X92519500Y-150698000D01*
X92519500Y-148412000D01*
X92773500Y-148412000D01*
X92773500Y-150698000D01*
X93966655Y-150698000D01*
X94087976Y-150468110D01*
X94043325Y-150320901D01*
X93918141Y-150058080D01*
X93744088Y-149824731D01*
X93527855Y-149629822D01*
X93402245Y-149555000D01*
X93527855Y-149480178D01*
X93744088Y-149285269D01*
X93918141Y-149051920D01*
X94043325Y-148789099D01*
X94087976Y-148641890D01*
X93966655Y-148412000D01*
X92773500Y-148412000D01*
X92519500Y-148412000D01*
X91326345Y-148412000D01*
X91205024Y-148641890D01*
X87358813Y-148641890D01*
X87356000Y-148445750D01*
X87197250Y-148287000D01*
X85598000Y-148287000D01*
X85344000Y-148287000D01*
X83744750Y-148287000D01*
X83586000Y-148445750D01*
X83582928Y-148660000D01*
X76660000Y-148660000D01*
X76660000Y-143737264D01*
X81836653Y-143737264D01*
X81836653Y-144458880D01*
X81977434Y-145166631D01*
X82253584Y-145833317D01*
X82654493Y-146433319D01*
X83164753Y-146943579D01*
X83696112Y-147298622D01*
X83690463Y-147305506D01*
X83631498Y-147415820D01*
X83595188Y-147535518D01*
X83582928Y-147660000D01*
X83586000Y-147874250D01*
X83744750Y-148033000D01*
X85344000Y-148033000D01*
X85344000Y-148013000D01*
X85598000Y-148013000D01*
X85598000Y-148033000D01*
X87197250Y-148033000D01*
X87356000Y-147874250D01*
X87359072Y-147660000D01*
X87346812Y-147535518D01*
X87310502Y-147415820D01*
X87262603Y-147326208D01*
X87835247Y-146943579D01*
X88345507Y-146433319D01*
X88746416Y-145833317D01*
X89022566Y-145166631D01*
X89163347Y-144458880D01*
X89163347Y-143737264D01*
X89022566Y-143029513D01*
X88746416Y-142362827D01*
X88345507Y-141762825D01*
X87835247Y-141252565D01*
X87235245Y-140851656D01*
X87160564Y-140820722D01*
X87172185Y-140811185D01*
X87251537Y-140714494D01*
X87310502Y-140604180D01*
X87346812Y-140484482D01*
X87359072Y-140360000D01*
X87359072Y-139360000D01*
X87346812Y-139235518D01*
X87310502Y-139115820D01*
X87251537Y-139005506D01*
X87172185Y-138908815D01*
X87075494Y-138829463D01*
X86965180Y-138770498D01*
X86845482Y-138734188D01*
X86721000Y-138721928D01*
X84221000Y-138721928D01*
X84096518Y-138734188D01*
X83976820Y-138770498D01*
X83866506Y-138829463D01*
X83769815Y-138908815D01*
X83690463Y-139005506D01*
X83631498Y-139115820D01*
X83595188Y-139235518D01*
X83582928Y-139360000D01*
X83582928Y-140360000D01*
X83595188Y-140484482D01*
X83631498Y-140604180D01*
X83690463Y-140714494D01*
X83769815Y-140811185D01*
X83800891Y-140836688D01*
X83764755Y-140851656D01*
X83164753Y-141252565D01*
X82654493Y-141762825D01*
X82253584Y-142362827D01*
X81977434Y-143029513D01*
X81836653Y-143737264D01*
X76660000Y-143737264D01*
X76660000Y-136774000D01*
X83582928Y-136774000D01*
X83595188Y-136898482D01*
X83631498Y-137018180D01*
X83690463Y-137128494D01*
X83769815Y-137225185D01*
X83866506Y-137304537D01*
X83976820Y-137363502D01*
X84096518Y-137399812D01*
X84221000Y-137412072D01*
X85185250Y-137409000D01*
X85344000Y-137250250D01*
X85344000Y-136401000D01*
X85598000Y-136401000D01*
X85598000Y-137250250D01*
X85756750Y-137409000D01*
X86721000Y-137412072D01*
X86845482Y-137399812D01*
X86965180Y-137363502D01*
X87075494Y-137304537D01*
X87172185Y-137225185D01*
X87251537Y-137128494D01*
X87310502Y-137018180D01*
X87346812Y-136898482D01*
X87359072Y-136774000D01*
X87356000Y-136559750D01*
X87197250Y-136401000D01*
X85598000Y-136401000D01*
X85344000Y-136401000D01*
X83744750Y-136401000D01*
X83586000Y-136559750D01*
X83582928Y-136774000D01*
X76660000Y-136774000D01*
X76660000Y-135774000D01*
X83582928Y-135774000D01*
X83586000Y-135988250D01*
X83744750Y-136147000D01*
X85344000Y-136147000D01*
X85344000Y-135297750D01*
X85598000Y-135297750D01*
X85598000Y-136147000D01*
X87197250Y-136147000D01*
X87356000Y-135988250D01*
X87359072Y-135774000D01*
X87346812Y-135649518D01*
X87310502Y-135529820D01*
X87251537Y-135419506D01*
X87172185Y-135322815D01*
X87075494Y-135243463D01*
X86965180Y-135184498D01*
X86845482Y-135148188D01*
X86721000Y-135135928D01*
X85756750Y-135139000D01*
X85598000Y-135297750D01*
X85344000Y-135297750D01*
X85185250Y-135139000D01*
X84221000Y-135135928D01*
X84096518Y-135148188D01*
X83976820Y-135184498D01*
X83866506Y-135243463D01*
X83769815Y-135322815D01*
X83690463Y-135419506D01*
X83631498Y-135529820D01*
X83595188Y-135649518D01*
X83582928Y-135774000D01*
X76660000Y-135774000D01*
X76660000Y-133674000D01*
X83582928Y-133674000D01*
X83595188Y-133798482D01*
X83631498Y-133918180D01*
X83690463Y-134028494D01*
X83769815Y-134125185D01*
X83866506Y-134204537D01*
X83976820Y-134263502D01*
X84096518Y-134299812D01*
X84221000Y-134312072D01*
X85185250Y-134309000D01*
X85344000Y-134150250D01*
X85344000Y-133301000D01*
X85598000Y-133301000D01*
X85598000Y-134150250D01*
X85756750Y-134309000D01*
X86721000Y-134312072D01*
X86845482Y-134299812D01*
X86965180Y-134263502D01*
X87075494Y-134204537D01*
X87172185Y-134125185D01*
X87251537Y-134028494D01*
X87310502Y-133918180D01*
X87346812Y-133798482D01*
X87359072Y-133674000D01*
X87356000Y-133459750D01*
X87197250Y-133301000D01*
X85598000Y-133301000D01*
X85344000Y-133301000D01*
X83744750Y-133301000D01*
X83586000Y-133459750D01*
X83582928Y-133674000D01*
X76660000Y-133674000D01*
X76660000Y-116556627D01*
X76688439Y-116609833D01*
G37*
X76688439Y-116609833D02*
X76728990Y-116659244D01*
X76761955Y-116699412D01*
X76761959Y-116699416D01*
X76786537Y-116729364D01*
X76816485Y-116753942D01*
X83892247Y-123829704D01*
X83866506Y-123843463D01*
X83769815Y-123922815D01*
X83690463Y-124019506D01*
X83631498Y-124129820D01*
X83595188Y-124249518D01*
X83582928Y-124374000D01*
X83582928Y-125374000D01*
X83595188Y-125498482D01*
X83631498Y-125618180D01*
X83690463Y-125728494D01*
X83769815Y-125825185D01*
X83800891Y-125850688D01*
X83764755Y-125865656D01*
X83164753Y-126266565D01*
X82654493Y-126776825D01*
X82253584Y-127376827D01*
X81977434Y-128043513D01*
X81836653Y-128751264D01*
X81836653Y-129472880D01*
X81977434Y-130180631D01*
X82253584Y-130847317D01*
X82654493Y-131447319D01*
X83164753Y-131957579D01*
X83696112Y-132312622D01*
X83690463Y-132319506D01*
X83631498Y-132429820D01*
X83595188Y-132549518D01*
X83582928Y-132674000D01*
X83586000Y-132888250D01*
X83744750Y-133047000D01*
X85344000Y-133047000D01*
X85344000Y-133027000D01*
X85598000Y-133027000D01*
X85598000Y-133047000D01*
X87197250Y-133047000D01*
X87356000Y-132888250D01*
X87359072Y-132674000D01*
X87346812Y-132549518D01*
X87310502Y-132429820D01*
X87262603Y-132340208D01*
X87835247Y-131957579D01*
X88345507Y-131447319D01*
X88746416Y-130847317D01*
X89022566Y-130180631D01*
X89163347Y-129472880D01*
X89163347Y-128862304D01*
X90571900Y-130270857D01*
X90571901Y-134256837D01*
X90568103Y-134295400D01*
X90583259Y-134449286D01*
X90628146Y-134597259D01*
X90628147Y-134597260D01*
X90701039Y-134733633D01*
X90741590Y-134783044D01*
X90774555Y-134823212D01*
X90774559Y-134823216D01*
X90799137Y-134853164D01*
X90829085Y-134877742D01*
X91199425Y-135248082D01*
X91161500Y-135438740D01*
X91161500Y-135731260D01*
X91218568Y-136018158D01*
X91330510Y-136288411D01*
X91493025Y-136531632D01*
X91699868Y-136738475D01*
X91861501Y-136846474D01*
X91861500Y-136863526D01*
X91699868Y-136971525D01*
X91493025Y-137178368D01*
X91330510Y-137421589D01*
X91218568Y-137691842D01*
X91161500Y-137978740D01*
X91161500Y-138271260D01*
X91218568Y-138558158D01*
X91330510Y-138828411D01*
X91493025Y-139071632D01*
X91699868Y-139278475D01*
X91874260Y-139395000D01*
X91699868Y-139511525D01*
X91493025Y-139718368D01*
X91330510Y-139961589D01*
X91218568Y-140231842D01*
X91161500Y-140518740D01*
X91161500Y-140811260D01*
X91218568Y-141098158D01*
X91330510Y-141368411D01*
X91493025Y-141611632D01*
X91699868Y-141818475D01*
X91874260Y-141935000D01*
X91699868Y-142051525D01*
X91493025Y-142258368D01*
X91330510Y-142501589D01*
X91218568Y-142771842D01*
X91161500Y-143058740D01*
X91161500Y-143351260D01*
X91218568Y-143638158D01*
X91330510Y-143908411D01*
X91493025Y-144151632D01*
X91699868Y-144358475D01*
X91874260Y-144475000D01*
X91699868Y-144591525D01*
X91493025Y-144798368D01*
X91330510Y-145041589D01*
X91218568Y-145311842D01*
X91161500Y-145598740D01*
X91161500Y-145891260D01*
X91218568Y-146178158D01*
X91330510Y-146448411D01*
X91493025Y-146691632D01*
X91699868Y-146898475D01*
X91882034Y-147020195D01*
X91765145Y-147089822D01*
X91548912Y-147284731D01*
X91374859Y-147518080D01*
X91249675Y-147780901D01*
X91205024Y-147928110D01*
X91326345Y-148158000D01*
X92519500Y-148158000D01*
X92519500Y-148138000D01*
X92773500Y-148138000D01*
X92773500Y-148158000D01*
X93966655Y-148158000D01*
X94087976Y-147928110D01*
X94043325Y-147780901D01*
X93918141Y-147518080D01*
X93744088Y-147284731D01*
X93527855Y-147089822D01*
X93410966Y-147020195D01*
X93593132Y-146898475D01*
X93799975Y-146691632D01*
X93962490Y-146448411D01*
X94074432Y-146178158D01*
X94131500Y-145891260D01*
X94131500Y-145598740D01*
X94074432Y-145311842D01*
X93962490Y-145041589D01*
X93799975Y-144798368D01*
X93593132Y-144591525D01*
X93418740Y-144475000D01*
X93593132Y-144358475D01*
X93799975Y-144151632D01*
X93962490Y-143908411D01*
X94074432Y-143638158D01*
X94131500Y-143351260D01*
X94131500Y-143058740D01*
X94074432Y-142771842D01*
X93962490Y-142501589D01*
X93799975Y-142258368D01*
X93593132Y-142051525D01*
X93418740Y-141935000D01*
X93593132Y-141818475D01*
X93799975Y-141611632D01*
X93962490Y-141368411D01*
X94074432Y-141098158D01*
X94131500Y-140811260D01*
X94131500Y-140518740D01*
X94074432Y-140231842D01*
X93962490Y-139961589D01*
X93799975Y-139718368D01*
X93593132Y-139511525D01*
X93418740Y-139395000D01*
X93593132Y-139278475D01*
X93799975Y-139071632D01*
X93962490Y-138828411D01*
X94074432Y-138558158D01*
X94131500Y-138271260D01*
X94131500Y-137978740D01*
X94074432Y-137691842D01*
X93962490Y-137421589D01*
X93799975Y-137178368D01*
X93593132Y-136971525D01*
X93431500Y-136863526D01*
X93431500Y-136846474D01*
X93593132Y-136738475D01*
X93799975Y-136531632D01*
X93962490Y-136288411D01*
X94074432Y-136018158D01*
X94131500Y-135731260D01*
X94131500Y-135438740D01*
X94074432Y-135151842D01*
X93962490Y-134881589D01*
X93799975Y-134638368D01*
X93593132Y-134431525D01*
X93418740Y-134315000D01*
X93593132Y-134198475D01*
X93799975Y-133991632D01*
X93962490Y-133748411D01*
X94074432Y-133478158D01*
X94131500Y-133191260D01*
X94131500Y-132898740D01*
X94093575Y-132708082D01*
X94340001Y-132461657D01*
X94340001Y-152340000D01*
X86982957Y-152340000D01*
X87075494Y-152290537D01*
X87172185Y-152211185D01*
X87251537Y-152114494D01*
X87310502Y-152004180D01*
X87346812Y-151884482D01*
X87359072Y-151760000D01*
X87356000Y-151545750D01*
X87197250Y-151387000D01*
X85598000Y-151387000D01*
X85598000Y-151407000D01*
X85344000Y-151407000D01*
X85344000Y-151387000D01*
X83744750Y-151387000D01*
X83586000Y-151545750D01*
X83582928Y-151760000D01*
X83595188Y-151884482D01*
X83631498Y-152004180D01*
X83690463Y-152114494D01*
X83769815Y-152211185D01*
X83866506Y-152290537D01*
X83959043Y-152340000D01*
X76660000Y-152340000D01*
X76660000Y-151181890D01*
X91205024Y-151181890D01*
X91249675Y-151329099D01*
X91374859Y-151591920D01*
X91548912Y-151825269D01*
X91765145Y-152020178D01*
X92015248Y-152169157D01*
X92289609Y-152266481D01*
X92519500Y-152145814D01*
X92519500Y-150952000D01*
X92773500Y-150952000D01*
X92773500Y-152145814D01*
X93003391Y-152266481D01*
X93277752Y-152169157D01*
X93527855Y-152020178D01*
X93744088Y-151825269D01*
X93918141Y-151591920D01*
X94043325Y-151329099D01*
X94087976Y-151181890D01*
X93966655Y-150952000D01*
X92773500Y-150952000D01*
X92519500Y-150952000D01*
X91326345Y-150952000D01*
X91205024Y-151181890D01*
X76660000Y-151181890D01*
X76660000Y-150760000D01*
X83582928Y-150760000D01*
X83586000Y-150974250D01*
X83744750Y-151133000D01*
X85344000Y-151133000D01*
X85344000Y-150283750D01*
X85598000Y-150283750D01*
X85598000Y-151133000D01*
X87197250Y-151133000D01*
X87356000Y-150974250D01*
X87359072Y-150760000D01*
X87346812Y-150635518D01*
X87310502Y-150515820D01*
X87251537Y-150405506D01*
X87172185Y-150308815D01*
X87075494Y-150229463D01*
X86965180Y-150170498D01*
X86845482Y-150134188D01*
X86721000Y-150121928D01*
X85756750Y-150125000D01*
X85598000Y-150283750D01*
X85344000Y-150283750D01*
X85185250Y-150125000D01*
X84221000Y-150121928D01*
X84096518Y-150134188D01*
X83976820Y-150170498D01*
X83866506Y-150229463D01*
X83769815Y-150308815D01*
X83690463Y-150405506D01*
X83631498Y-150515820D01*
X83595188Y-150635518D01*
X83582928Y-150760000D01*
X76660000Y-150760000D01*
X76660000Y-148660000D01*
X83582928Y-148660000D01*
X83595188Y-148784482D01*
X83631498Y-148904180D01*
X83690463Y-149014494D01*
X83769815Y-149111185D01*
X83866506Y-149190537D01*
X83976820Y-149249502D01*
X84096518Y-149285812D01*
X84221000Y-149298072D01*
X85185250Y-149295000D01*
X85344000Y-149136250D01*
X85344000Y-148287000D01*
X85598000Y-148287000D01*
X85598000Y-149136250D01*
X85756750Y-149295000D01*
X86721000Y-149298072D01*
X86845482Y-149285812D01*
X86965180Y-149249502D01*
X87075494Y-149190537D01*
X87172185Y-149111185D01*
X87251537Y-149014494D01*
X87310502Y-148904180D01*
X87346812Y-148784482D01*
X87359072Y-148660000D01*
X87358813Y-148641890D01*
X91205024Y-148641890D01*
X91249675Y-148789099D01*
X91374859Y-149051920D01*
X91548912Y-149285269D01*
X91765145Y-149480178D01*
X91890755Y-149555000D01*
X91765145Y-149629822D01*
X91548912Y-149824731D01*
X91374859Y-150058080D01*
X91249675Y-150320901D01*
X91205024Y-150468110D01*
X91326345Y-150698000D01*
X92519500Y-150698000D01*
X92519500Y-148412000D01*
X92773500Y-148412000D01*
X92773500Y-150698000D01*
X93966655Y-150698000D01*
X94087976Y-150468110D01*
X94043325Y-150320901D01*
X93918141Y-150058080D01*
X93744088Y-149824731D01*
X93527855Y-149629822D01*
X93402245Y-149555000D01*
X93527855Y-149480178D01*
X93744088Y-149285269D01*
X93918141Y-149051920D01*
X94043325Y-148789099D01*
X94087976Y-148641890D01*
X93966655Y-148412000D01*
X92773500Y-148412000D01*
X92519500Y-148412000D01*
X91326345Y-148412000D01*
X91205024Y-148641890D01*
X87358813Y-148641890D01*
X87356000Y-148445750D01*
X87197250Y-148287000D01*
X85598000Y-148287000D01*
X85344000Y-148287000D01*
X83744750Y-148287000D01*
X83586000Y-148445750D01*
X83582928Y-148660000D01*
X76660000Y-148660000D01*
X76660000Y-143737264D01*
X81836653Y-143737264D01*
X81836653Y-144458880D01*
X81977434Y-145166631D01*
X82253584Y-145833317D01*
X82654493Y-146433319D01*
X83164753Y-146943579D01*
X83696112Y-147298622D01*
X83690463Y-147305506D01*
X83631498Y-147415820D01*
X83595188Y-147535518D01*
X83582928Y-147660000D01*
X83586000Y-147874250D01*
X83744750Y-148033000D01*
X85344000Y-148033000D01*
X85344000Y-148013000D01*
X85598000Y-148013000D01*
X85598000Y-148033000D01*
X87197250Y-148033000D01*
X87356000Y-147874250D01*
X87359072Y-147660000D01*
X87346812Y-147535518D01*
X87310502Y-147415820D01*
X87262603Y-147326208D01*
X87835247Y-146943579D01*
X88345507Y-146433319D01*
X88746416Y-145833317D01*
X89022566Y-145166631D01*
X89163347Y-144458880D01*
X89163347Y-143737264D01*
X89022566Y-143029513D01*
X88746416Y-142362827D01*
X88345507Y-141762825D01*
X87835247Y-141252565D01*
X87235245Y-140851656D01*
X87160564Y-140820722D01*
X87172185Y-140811185D01*
X87251537Y-140714494D01*
X87310502Y-140604180D01*
X87346812Y-140484482D01*
X87359072Y-140360000D01*
X87359072Y-139360000D01*
X87346812Y-139235518D01*
X87310502Y-139115820D01*
X87251537Y-139005506D01*
X87172185Y-138908815D01*
X87075494Y-138829463D01*
X86965180Y-138770498D01*
X86845482Y-138734188D01*
X86721000Y-138721928D01*
X84221000Y-138721928D01*
X84096518Y-138734188D01*
X83976820Y-138770498D01*
X83866506Y-138829463D01*
X83769815Y-138908815D01*
X83690463Y-139005506D01*
X83631498Y-139115820D01*
X83595188Y-139235518D01*
X83582928Y-139360000D01*
X83582928Y-140360000D01*
X83595188Y-140484482D01*
X83631498Y-140604180D01*
X83690463Y-140714494D01*
X83769815Y-140811185D01*
X83800891Y-140836688D01*
X83764755Y-140851656D01*
X83164753Y-141252565D01*
X82654493Y-141762825D01*
X82253584Y-142362827D01*
X81977434Y-143029513D01*
X81836653Y-143737264D01*
X76660000Y-143737264D01*
X76660000Y-136774000D01*
X83582928Y-136774000D01*
X83595188Y-136898482D01*
X83631498Y-137018180D01*
X83690463Y-137128494D01*
X83769815Y-137225185D01*
X83866506Y-137304537D01*
X83976820Y-137363502D01*
X84096518Y-137399812D01*
X84221000Y-137412072D01*
X85185250Y-137409000D01*
X85344000Y-137250250D01*
X85344000Y-136401000D01*
X85598000Y-136401000D01*
X85598000Y-137250250D01*
X85756750Y-137409000D01*
X86721000Y-137412072D01*
X86845482Y-137399812D01*
X86965180Y-137363502D01*
X87075494Y-137304537D01*
X87172185Y-137225185D01*
X87251537Y-137128494D01*
X87310502Y-137018180D01*
X87346812Y-136898482D01*
X87359072Y-136774000D01*
X87356000Y-136559750D01*
X87197250Y-136401000D01*
X85598000Y-136401000D01*
X85344000Y-136401000D01*
X83744750Y-136401000D01*
X83586000Y-136559750D01*
X83582928Y-136774000D01*
X76660000Y-136774000D01*
X76660000Y-135774000D01*
X83582928Y-135774000D01*
X83586000Y-135988250D01*
X83744750Y-136147000D01*
X85344000Y-136147000D01*
X85344000Y-135297750D01*
X85598000Y-135297750D01*
X85598000Y-136147000D01*
X87197250Y-136147000D01*
X87356000Y-135988250D01*
X87359072Y-135774000D01*
X87346812Y-135649518D01*
X87310502Y-135529820D01*
X87251537Y-135419506D01*
X87172185Y-135322815D01*
X87075494Y-135243463D01*
X86965180Y-135184498D01*
X86845482Y-135148188D01*
X86721000Y-135135928D01*
X85756750Y-135139000D01*
X85598000Y-135297750D01*
X85344000Y-135297750D01*
X85185250Y-135139000D01*
X84221000Y-135135928D01*
X84096518Y-135148188D01*
X83976820Y-135184498D01*
X83866506Y-135243463D01*
X83769815Y-135322815D01*
X83690463Y-135419506D01*
X83631498Y-135529820D01*
X83595188Y-135649518D01*
X83582928Y-135774000D01*
X76660000Y-135774000D01*
X76660000Y-133674000D01*
X83582928Y-133674000D01*
X83595188Y-133798482D01*
X83631498Y-133918180D01*
X83690463Y-134028494D01*
X83769815Y-134125185D01*
X83866506Y-134204537D01*
X83976820Y-134263502D01*
X84096518Y-134299812D01*
X84221000Y-134312072D01*
X85185250Y-134309000D01*
X85344000Y-134150250D01*
X85344000Y-133301000D01*
X85598000Y-133301000D01*
X85598000Y-134150250D01*
X85756750Y-134309000D01*
X86721000Y-134312072D01*
X86845482Y-134299812D01*
X86965180Y-134263502D01*
X87075494Y-134204537D01*
X87172185Y-134125185D01*
X87251537Y-134028494D01*
X87310502Y-133918180D01*
X87346812Y-133798482D01*
X87359072Y-133674000D01*
X87356000Y-133459750D01*
X87197250Y-133301000D01*
X85598000Y-133301000D01*
X85344000Y-133301000D01*
X83744750Y-133301000D01*
X83586000Y-133459750D01*
X83582928Y-133674000D01*
X76660000Y-133674000D01*
X76660000Y-116556627D01*
X76688439Y-116609833D01*
G36*
X83076525Y-91561132D02*
G01*
X83283368Y-91767975D01*
X83526589Y-91930490D01*
X83796842Y-92042432D01*
X84083740Y-92099500D01*
X84376260Y-92099500D01*
X84663158Y-92042432D01*
X84933411Y-91930490D01*
X85074057Y-91836514D01*
X90793353Y-97555810D01*
X90817936Y-97585764D01*
X90861369Y-97621409D01*
X90995225Y-97944566D01*
X91206987Y-98261491D01*
X91476509Y-98531013D01*
X91793434Y-98742775D01*
X92145581Y-98888639D01*
X92519419Y-98963000D01*
X92900581Y-98963000D01*
X93274419Y-98888639D01*
X93626566Y-98742775D01*
X93652900Y-98725179D01*
X93652900Y-100171010D01*
X92995750Y-100173000D01*
X92837000Y-100331750D01*
X92837000Y-101981000D01*
X92857000Y-101981000D01*
X92857000Y-102235000D01*
X92837000Y-102235000D01*
X92837000Y-103884250D01*
X92995750Y-104043000D01*
X93652900Y-104044990D01*
X93652901Y-126498870D01*
X93620982Y-126489188D01*
X93496500Y-126476928D01*
X91796500Y-126476928D01*
X91672018Y-126489188D01*
X91552320Y-126525498D01*
X91442006Y-126584463D01*
X91345315Y-126663815D01*
X91265963Y-126760506D01*
X91206998Y-126870820D01*
X91170688Y-126990518D01*
X91158428Y-127115000D01*
X91158428Y-127786773D01*
X89164600Y-125792945D01*
X89164600Y-124652952D01*
X89168397Y-124614399D01*
X89164600Y-124575846D01*
X89164600Y-124575839D01*
X89153241Y-124460513D01*
X89132902Y-124393462D01*
X89108354Y-124312540D01*
X89074668Y-124249518D01*
X89035462Y-124176167D01*
X88937364Y-124056636D01*
X88907417Y-124032059D01*
X87069890Y-122194533D01*
X87075494Y-122191537D01*
X87172185Y-122112185D01*
X87251537Y-122015494D01*
X87310502Y-121905180D01*
X87346812Y-121785482D01*
X87359072Y-121661000D01*
X87356000Y-121446750D01*
X87197250Y-121288000D01*
X85598000Y-121288000D01*
X85598000Y-121308000D01*
X85344000Y-121308000D01*
X85344000Y-121288000D01*
X85324000Y-121288000D01*
X85324000Y-121034000D01*
X85344000Y-121034000D01*
X85344000Y-120184750D01*
X85598000Y-120184750D01*
X85598000Y-121034000D01*
X87197250Y-121034000D01*
X87356000Y-120875250D01*
X87359072Y-120661000D01*
X87346812Y-120536518D01*
X87310502Y-120416820D01*
X87251537Y-120306506D01*
X87172185Y-120209815D01*
X87075494Y-120130463D01*
X86965180Y-120071498D01*
X86845482Y-120035188D01*
X86721000Y-120022928D01*
X85756750Y-120026000D01*
X85598000Y-120184750D01*
X85344000Y-120184750D01*
X85185250Y-120026000D01*
X84221000Y-120022928D01*
X84096518Y-120035188D01*
X83976820Y-120071498D01*
X83866506Y-120130463D01*
X83769815Y-120209815D01*
X83690463Y-120306506D01*
X83631498Y-120416820D01*
X83595767Y-120534609D01*
X81622158Y-118561000D01*
X83582928Y-118561000D01*
X83595188Y-118685482D01*
X83631498Y-118805180D01*
X83690463Y-118915494D01*
X83769815Y-119012185D01*
X83866506Y-119091537D01*
X83976820Y-119150502D01*
X84096518Y-119186812D01*
X84221000Y-119199072D01*
X85185250Y-119196000D01*
X85344000Y-119037250D01*
X85344000Y-118188000D01*
X85598000Y-118188000D01*
X85598000Y-119037250D01*
X85756750Y-119196000D01*
X86721000Y-119199072D01*
X86845482Y-119186812D01*
X86965180Y-119150502D01*
X87075494Y-119091537D01*
X87172185Y-119012185D01*
X87251537Y-118915494D01*
X87310502Y-118805180D01*
X87346812Y-118685482D01*
X87359072Y-118561000D01*
X87356000Y-118346750D01*
X87197250Y-118188000D01*
X85598000Y-118188000D01*
X85344000Y-118188000D01*
X83744750Y-118188000D01*
X83586000Y-118346750D01*
X83582928Y-118561000D01*
X81622158Y-118561000D01*
X78679800Y-115618643D01*
X78679800Y-113685192D01*
X81836653Y-113685192D01*
X81836653Y-114406808D01*
X81977434Y-115114559D01*
X82253584Y-115781245D01*
X82654493Y-116381247D01*
X83164753Y-116891507D01*
X83676178Y-117233231D01*
X83631498Y-117316820D01*
X83595188Y-117436518D01*
X83582928Y-117561000D01*
X83586000Y-117775250D01*
X83744750Y-117934000D01*
X85344000Y-117934000D01*
X85344000Y-117914000D01*
X85598000Y-117914000D01*
X85598000Y-117934000D01*
X87197250Y-117934000D01*
X87356000Y-117775250D01*
X87359072Y-117561000D01*
X87346812Y-117436518D01*
X87310502Y-117316820D01*
X87281085Y-117261786D01*
X87835247Y-116891507D01*
X88345507Y-116381247D01*
X88746416Y-115781245D01*
X89022566Y-115114559D01*
X89163347Y-114406808D01*
X89163347Y-113685192D01*
X89022566Y-112977441D01*
X88746416Y-112310755D01*
X88345507Y-111710753D01*
X87835247Y-111200493D01*
X87235245Y-110799584D01*
X87122562Y-110752909D01*
X87172185Y-110712185D01*
X87251537Y-110615494D01*
X87310502Y-110505180D01*
X87346812Y-110385482D01*
X87359072Y-110261000D01*
X87359072Y-109261000D01*
X87346812Y-109136518D01*
X87310502Y-109016820D01*
X87251537Y-108906506D01*
X87172185Y-108809815D01*
X87075494Y-108730463D01*
X86965180Y-108671498D01*
X86845482Y-108635188D01*
X86721000Y-108622928D01*
X84221000Y-108622928D01*
X84096518Y-108635188D01*
X83976820Y-108671498D01*
X83866506Y-108730463D01*
X83769815Y-108809815D01*
X83690463Y-108906506D01*
X83631498Y-109016820D01*
X83595188Y-109136518D01*
X83582928Y-109261000D01*
X83582928Y-110261000D01*
X83595188Y-110385482D01*
X83631498Y-110505180D01*
X83690463Y-110615494D01*
X83769815Y-110712185D01*
X83838893Y-110768875D01*
X83764755Y-110799584D01*
X83164753Y-111200493D01*
X82654493Y-111710753D01*
X82253584Y-112310755D01*
X81977434Y-112977441D01*
X81836653Y-113685192D01*
X78679800Y-113685192D01*
X78679800Y-106802000D01*
X83582928Y-106802000D01*
X83595188Y-106926482D01*
X83631498Y-107046180D01*
X83690463Y-107156494D01*
X83769815Y-107253185D01*
X83866506Y-107332537D01*
X83976820Y-107391502D01*
X84096518Y-107427812D01*
X84221000Y-107440072D01*
X85185250Y-107437000D01*
X85344000Y-107278250D01*
X85344000Y-106429000D01*
X85598000Y-106429000D01*
X85598000Y-107278250D01*
X85756750Y-107437000D01*
X86721000Y-107440072D01*
X86845482Y-107427812D01*
X86965180Y-107391502D01*
X87075494Y-107332537D01*
X87172185Y-107253185D01*
X87251537Y-107156494D01*
X87310502Y-107046180D01*
X87346812Y-106926482D01*
X87359072Y-106802000D01*
X87356000Y-106587750D01*
X87197250Y-106429000D01*
X85598000Y-106429000D01*
X85344000Y-106429000D01*
X83744750Y-106429000D01*
X83586000Y-106587750D01*
X83582928Y-106802000D01*
X78679800Y-106802000D01*
X78679800Y-105802000D01*
X83582928Y-105802000D01*
X83586000Y-106016250D01*
X83744750Y-106175000D01*
X85344000Y-106175000D01*
X85344000Y-105325750D01*
X85598000Y-105325750D01*
X85598000Y-106175000D01*
X87197250Y-106175000D01*
X87356000Y-106016250D01*
X87359072Y-105802000D01*
X87346812Y-105677518D01*
X87310502Y-105557820D01*
X87251537Y-105447506D01*
X87172185Y-105350815D01*
X87075494Y-105271463D01*
X86965180Y-105212498D01*
X86845482Y-105176188D01*
X86721000Y-105163928D01*
X85756750Y-105167000D01*
X85598000Y-105325750D01*
X85344000Y-105325750D01*
X85185250Y-105167000D01*
X84221000Y-105163928D01*
X84096518Y-105176188D01*
X83976820Y-105212498D01*
X83866506Y-105271463D01*
X83769815Y-105350815D01*
X83690463Y-105447506D01*
X83631498Y-105557820D01*
X83595188Y-105677518D01*
X83582928Y-105802000D01*
X78679800Y-105802000D01*
X78679800Y-103702000D01*
X83582928Y-103702000D01*
X83595188Y-103826482D01*
X83631498Y-103946180D01*
X83690463Y-104056494D01*
X83769815Y-104153185D01*
X83866506Y-104232537D01*
X83976820Y-104291502D01*
X84096518Y-104327812D01*
X84221000Y-104340072D01*
X85185250Y-104337000D01*
X85344000Y-104178250D01*
X85344000Y-103329000D01*
X85598000Y-103329000D01*
X85598000Y-104178250D01*
X85756750Y-104337000D01*
X86721000Y-104340072D01*
X86845482Y-104327812D01*
X86965180Y-104291502D01*
X87075494Y-104232537D01*
X87172185Y-104153185D01*
X87251537Y-104056494D01*
X87310502Y-103946180D01*
X87346812Y-103826482D01*
X87359072Y-103702000D01*
X87356000Y-103487750D01*
X87276250Y-103408000D01*
X90771928Y-103408000D01*
X90784188Y-103532482D01*
X90820498Y-103652180D01*
X90879463Y-103762494D01*
X90958815Y-103859185D01*
X91055506Y-103938537D01*
X91165820Y-103997502D01*
X91285518Y-104033812D01*
X91410000Y-104046072D01*
X92424250Y-104043000D01*
X92583000Y-103884250D01*
X92583000Y-102235000D01*
X90933750Y-102235000D01*
X90775000Y-102393750D01*
X90771928Y-103408000D01*
X87276250Y-103408000D01*
X87197250Y-103329000D01*
X85598000Y-103329000D01*
X85344000Y-103329000D01*
X83744750Y-103329000D01*
X83586000Y-103487750D01*
X83582928Y-103702000D01*
X78679800Y-103702000D01*
X78679800Y-92404457D01*
X81705158Y-95429816D01*
X81729736Y-95459764D01*
X81759684Y-95484342D01*
X81759687Y-95484345D01*
X81789059Y-95508450D01*
X81849267Y-95557862D01*
X81985640Y-95630754D01*
X82133613Y-95675641D01*
X82248939Y-95687000D01*
X82248946Y-95687000D01*
X82287499Y-95690797D01*
X82326052Y-95687000D01*
X83653317Y-95687000D01*
X83690463Y-95756494D01*
X83769815Y-95853185D01*
X83800891Y-95878688D01*
X83764755Y-95893656D01*
X83164753Y-96294565D01*
X82654493Y-96804825D01*
X82253584Y-97404827D01*
X81977434Y-98071513D01*
X81836653Y-98779264D01*
X81836653Y-99500880D01*
X81977434Y-100208631D01*
X82253584Y-100875317D01*
X82654493Y-101475319D01*
X83164753Y-101985579D01*
X83696112Y-102340622D01*
X83690463Y-102347506D01*
X83631498Y-102457820D01*
X83595188Y-102577518D01*
X83582928Y-102702000D01*
X83586000Y-102916250D01*
X83744750Y-103075000D01*
X85344000Y-103075000D01*
X85344000Y-103055000D01*
X85598000Y-103055000D01*
X85598000Y-103075000D01*
X87197250Y-103075000D01*
X87356000Y-102916250D01*
X87359072Y-102702000D01*
X87346812Y-102577518D01*
X87310502Y-102457820D01*
X87262603Y-102368208D01*
X87835247Y-101985579D01*
X88345507Y-101475319D01*
X88746416Y-100875317D01*
X88774299Y-100808000D01*
X90771928Y-100808000D01*
X90775000Y-101822250D01*
X90933750Y-101981000D01*
X92583000Y-101981000D01*
X92583000Y-100331750D01*
X92424250Y-100173000D01*
X91410000Y-100169928D01*
X91285518Y-100182188D01*
X91165820Y-100218498D01*
X91055506Y-100277463D01*
X90958815Y-100356815D01*
X90879463Y-100453506D01*
X90820498Y-100563820D01*
X90784188Y-100683518D01*
X90771928Y-100808000D01*
X88774299Y-100808000D01*
X89022566Y-100208631D01*
X89163347Y-99500880D01*
X89163347Y-98779264D01*
X89022566Y-98071513D01*
X88746416Y-97404827D01*
X88345507Y-96804825D01*
X87835247Y-96294565D01*
X87235245Y-95893656D01*
X87160564Y-95862722D01*
X87172185Y-95853185D01*
X87251537Y-95756494D01*
X87310502Y-95646180D01*
X87346812Y-95526482D01*
X87359072Y-95402000D01*
X87359072Y-94402000D01*
X87346812Y-94277518D01*
X87310502Y-94157820D01*
X87251537Y-94047506D01*
X87172185Y-93950815D01*
X87075494Y-93871463D01*
X86965180Y-93812498D01*
X86845482Y-93776188D01*
X86721000Y-93763928D01*
X84221000Y-93763928D01*
X84096518Y-93776188D01*
X83976820Y-93812498D01*
X83866506Y-93871463D01*
X83769815Y-93950815D01*
X83690463Y-94047506D01*
X83653317Y-94117000D01*
X82612658Y-94117000D01*
X80429302Y-91933644D01*
X80451185Y-91915685D01*
X80530537Y-91818994D01*
X80589502Y-91708680D01*
X80611513Y-91636120D01*
X80743368Y-91767975D01*
X80986589Y-91930490D01*
X81256842Y-92042432D01*
X81543740Y-92099500D01*
X81836260Y-92099500D01*
X82123158Y-92042432D01*
X82393411Y-91930490D01*
X82636632Y-91767975D01*
X82843475Y-91561132D01*
X82960000Y-91386740D01*
X83076525Y-91561132D01*
G37*
X83076525Y-91561132D02*
X83283368Y-91767975D01*
X83526589Y-91930490D01*
X83796842Y-92042432D01*
X84083740Y-92099500D01*
X84376260Y-92099500D01*
X84663158Y-92042432D01*
X84933411Y-91930490D01*
X85074057Y-91836514D01*
X90793353Y-97555810D01*
X90817936Y-97585764D01*
X90861369Y-97621409D01*
X90995225Y-97944566D01*
X91206987Y-98261491D01*
X91476509Y-98531013D01*
X91793434Y-98742775D01*
X92145581Y-98888639D01*
X92519419Y-98963000D01*
X92900581Y-98963000D01*
X93274419Y-98888639D01*
X93626566Y-98742775D01*
X93652900Y-98725179D01*
X93652900Y-100171010D01*
X92995750Y-100173000D01*
X92837000Y-100331750D01*
X92837000Y-101981000D01*
X92857000Y-101981000D01*
X92857000Y-102235000D01*
X92837000Y-102235000D01*
X92837000Y-103884250D01*
X92995750Y-104043000D01*
X93652900Y-104044990D01*
X93652901Y-126498870D01*
X93620982Y-126489188D01*
X93496500Y-126476928D01*
X91796500Y-126476928D01*
X91672018Y-126489188D01*
X91552320Y-126525498D01*
X91442006Y-126584463D01*
X91345315Y-126663815D01*
X91265963Y-126760506D01*
X91206998Y-126870820D01*
X91170688Y-126990518D01*
X91158428Y-127115000D01*
X91158428Y-127786773D01*
X89164600Y-125792945D01*
X89164600Y-124652952D01*
X89168397Y-124614399D01*
X89164600Y-124575846D01*
X89164600Y-124575839D01*
X89153241Y-124460513D01*
X89132902Y-124393462D01*
X89108354Y-124312540D01*
X89074668Y-124249518D01*
X89035462Y-124176167D01*
X88937364Y-124056636D01*
X88907417Y-124032059D01*
X87069890Y-122194533D01*
X87075494Y-122191537D01*
X87172185Y-122112185D01*
X87251537Y-122015494D01*
X87310502Y-121905180D01*
X87346812Y-121785482D01*
X87359072Y-121661000D01*
X87356000Y-121446750D01*
X87197250Y-121288000D01*
X85598000Y-121288000D01*
X85598000Y-121308000D01*
X85344000Y-121308000D01*
X85344000Y-121288000D01*
X85324000Y-121288000D01*
X85324000Y-121034000D01*
X85344000Y-121034000D01*
X85344000Y-120184750D01*
X85598000Y-120184750D01*
X85598000Y-121034000D01*
X87197250Y-121034000D01*
X87356000Y-120875250D01*
X87359072Y-120661000D01*
X87346812Y-120536518D01*
X87310502Y-120416820D01*
X87251537Y-120306506D01*
X87172185Y-120209815D01*
X87075494Y-120130463D01*
X86965180Y-120071498D01*
X86845482Y-120035188D01*
X86721000Y-120022928D01*
X85756750Y-120026000D01*
X85598000Y-120184750D01*
X85344000Y-120184750D01*
X85185250Y-120026000D01*
X84221000Y-120022928D01*
X84096518Y-120035188D01*
X83976820Y-120071498D01*
X83866506Y-120130463D01*
X83769815Y-120209815D01*
X83690463Y-120306506D01*
X83631498Y-120416820D01*
X83595767Y-120534609D01*
X81622158Y-118561000D01*
X83582928Y-118561000D01*
X83595188Y-118685482D01*
X83631498Y-118805180D01*
X83690463Y-118915494D01*
X83769815Y-119012185D01*
X83866506Y-119091537D01*
X83976820Y-119150502D01*
X84096518Y-119186812D01*
X84221000Y-119199072D01*
X85185250Y-119196000D01*
X85344000Y-119037250D01*
X85344000Y-118188000D01*
X85598000Y-118188000D01*
X85598000Y-119037250D01*
X85756750Y-119196000D01*
X86721000Y-119199072D01*
X86845482Y-119186812D01*
X86965180Y-119150502D01*
X87075494Y-119091537D01*
X87172185Y-119012185D01*
X87251537Y-118915494D01*
X87310502Y-118805180D01*
X87346812Y-118685482D01*
X87359072Y-118561000D01*
X87356000Y-118346750D01*
X87197250Y-118188000D01*
X85598000Y-118188000D01*
X85344000Y-118188000D01*
X83744750Y-118188000D01*
X83586000Y-118346750D01*
X83582928Y-118561000D01*
X81622158Y-118561000D01*
X78679800Y-115618643D01*
X78679800Y-113685192D01*
X81836653Y-113685192D01*
X81836653Y-114406808D01*
X81977434Y-115114559D01*
X82253584Y-115781245D01*
X82654493Y-116381247D01*
X83164753Y-116891507D01*
X83676178Y-117233231D01*
X83631498Y-117316820D01*
X83595188Y-117436518D01*
X83582928Y-117561000D01*
X83586000Y-117775250D01*
X83744750Y-117934000D01*
X85344000Y-117934000D01*
X85344000Y-117914000D01*
X85598000Y-117914000D01*
X85598000Y-117934000D01*
X87197250Y-117934000D01*
X87356000Y-117775250D01*
X87359072Y-117561000D01*
X87346812Y-117436518D01*
X87310502Y-117316820D01*
X87281085Y-117261786D01*
X87835247Y-116891507D01*
X88345507Y-116381247D01*
X88746416Y-115781245D01*
X89022566Y-115114559D01*
X89163347Y-114406808D01*
X89163347Y-113685192D01*
X89022566Y-112977441D01*
X88746416Y-112310755D01*
X88345507Y-111710753D01*
X87835247Y-111200493D01*
X87235245Y-110799584D01*
X87122562Y-110752909D01*
X87172185Y-110712185D01*
X87251537Y-110615494D01*
X87310502Y-110505180D01*
X87346812Y-110385482D01*
X87359072Y-110261000D01*
X87359072Y-109261000D01*
X87346812Y-109136518D01*
X87310502Y-109016820D01*
X87251537Y-108906506D01*
X87172185Y-108809815D01*
X87075494Y-108730463D01*
X86965180Y-108671498D01*
X86845482Y-108635188D01*
X86721000Y-108622928D01*
X84221000Y-108622928D01*
X84096518Y-108635188D01*
X83976820Y-108671498D01*
X83866506Y-108730463D01*
X83769815Y-108809815D01*
X83690463Y-108906506D01*
X83631498Y-109016820D01*
X83595188Y-109136518D01*
X83582928Y-109261000D01*
X83582928Y-110261000D01*
X83595188Y-110385482D01*
X83631498Y-110505180D01*
X83690463Y-110615494D01*
X83769815Y-110712185D01*
X83838893Y-110768875D01*
X83764755Y-110799584D01*
X83164753Y-111200493D01*
X82654493Y-111710753D01*
X82253584Y-112310755D01*
X81977434Y-112977441D01*
X81836653Y-113685192D01*
X78679800Y-113685192D01*
X78679800Y-106802000D01*
X83582928Y-106802000D01*
X83595188Y-106926482D01*
X83631498Y-107046180D01*
X83690463Y-107156494D01*
X83769815Y-107253185D01*
X83866506Y-107332537D01*
X83976820Y-107391502D01*
X84096518Y-107427812D01*
X84221000Y-107440072D01*
X85185250Y-107437000D01*
X85344000Y-107278250D01*
X85344000Y-106429000D01*
X85598000Y-106429000D01*
X85598000Y-107278250D01*
X85756750Y-107437000D01*
X86721000Y-107440072D01*
X86845482Y-107427812D01*
X86965180Y-107391502D01*
X87075494Y-107332537D01*
X87172185Y-107253185D01*
X87251537Y-107156494D01*
X87310502Y-107046180D01*
X87346812Y-106926482D01*
X87359072Y-106802000D01*
X87356000Y-106587750D01*
X87197250Y-106429000D01*
X85598000Y-106429000D01*
X85344000Y-106429000D01*
X83744750Y-106429000D01*
X83586000Y-106587750D01*
X83582928Y-106802000D01*
X78679800Y-106802000D01*
X78679800Y-105802000D01*
X83582928Y-105802000D01*
X83586000Y-106016250D01*
X83744750Y-106175000D01*
X85344000Y-106175000D01*
X85344000Y-105325750D01*
X85598000Y-105325750D01*
X85598000Y-106175000D01*
X87197250Y-106175000D01*
X87356000Y-106016250D01*
X87359072Y-105802000D01*
X87346812Y-105677518D01*
X87310502Y-105557820D01*
X87251537Y-105447506D01*
X87172185Y-105350815D01*
X87075494Y-105271463D01*
X86965180Y-105212498D01*
X86845482Y-105176188D01*
X86721000Y-105163928D01*
X85756750Y-105167000D01*
X85598000Y-105325750D01*
X85344000Y-105325750D01*
X85185250Y-105167000D01*
X84221000Y-105163928D01*
X84096518Y-105176188D01*
X83976820Y-105212498D01*
X83866506Y-105271463D01*
X83769815Y-105350815D01*
X83690463Y-105447506D01*
X83631498Y-105557820D01*
X83595188Y-105677518D01*
X83582928Y-105802000D01*
X78679800Y-105802000D01*
X78679800Y-103702000D01*
X83582928Y-103702000D01*
X83595188Y-103826482D01*
X83631498Y-103946180D01*
X83690463Y-104056494D01*
X83769815Y-104153185D01*
X83866506Y-104232537D01*
X83976820Y-104291502D01*
X84096518Y-104327812D01*
X84221000Y-104340072D01*
X85185250Y-104337000D01*
X85344000Y-104178250D01*
X85344000Y-103329000D01*
X85598000Y-103329000D01*
X85598000Y-104178250D01*
X85756750Y-104337000D01*
X86721000Y-104340072D01*
X86845482Y-104327812D01*
X86965180Y-104291502D01*
X87075494Y-104232537D01*
X87172185Y-104153185D01*
X87251537Y-104056494D01*
X87310502Y-103946180D01*
X87346812Y-103826482D01*
X87359072Y-103702000D01*
X87356000Y-103487750D01*
X87276250Y-103408000D01*
X90771928Y-103408000D01*
X90784188Y-103532482D01*
X90820498Y-103652180D01*
X90879463Y-103762494D01*
X90958815Y-103859185D01*
X91055506Y-103938537D01*
X91165820Y-103997502D01*
X91285518Y-104033812D01*
X91410000Y-104046072D01*
X92424250Y-104043000D01*
X92583000Y-103884250D01*
X92583000Y-102235000D01*
X90933750Y-102235000D01*
X90775000Y-102393750D01*
X90771928Y-103408000D01*
X87276250Y-103408000D01*
X87197250Y-103329000D01*
X85598000Y-103329000D01*
X85344000Y-103329000D01*
X83744750Y-103329000D01*
X83586000Y-103487750D01*
X83582928Y-103702000D01*
X78679800Y-103702000D01*
X78679800Y-92404457D01*
X81705158Y-95429816D01*
X81729736Y-95459764D01*
X81759684Y-95484342D01*
X81759687Y-95484345D01*
X81789059Y-95508450D01*
X81849267Y-95557862D01*
X81985640Y-95630754D01*
X82133613Y-95675641D01*
X82248939Y-95687000D01*
X82248946Y-95687000D01*
X82287499Y-95690797D01*
X82326052Y-95687000D01*
X83653317Y-95687000D01*
X83690463Y-95756494D01*
X83769815Y-95853185D01*
X83800891Y-95878688D01*
X83764755Y-95893656D01*
X83164753Y-96294565D01*
X82654493Y-96804825D01*
X82253584Y-97404827D01*
X81977434Y-98071513D01*
X81836653Y-98779264D01*
X81836653Y-99500880D01*
X81977434Y-100208631D01*
X82253584Y-100875317D01*
X82654493Y-101475319D01*
X83164753Y-101985579D01*
X83696112Y-102340622D01*
X83690463Y-102347506D01*
X83631498Y-102457820D01*
X83595188Y-102577518D01*
X83582928Y-102702000D01*
X83586000Y-102916250D01*
X83744750Y-103075000D01*
X85344000Y-103075000D01*
X85344000Y-103055000D01*
X85598000Y-103055000D01*
X85598000Y-103075000D01*
X87197250Y-103075000D01*
X87356000Y-102916250D01*
X87359072Y-102702000D01*
X87346812Y-102577518D01*
X87310502Y-102457820D01*
X87262603Y-102368208D01*
X87835247Y-101985579D01*
X88345507Y-101475319D01*
X88746416Y-100875317D01*
X88774299Y-100808000D01*
X90771928Y-100808000D01*
X90775000Y-101822250D01*
X90933750Y-101981000D01*
X92583000Y-101981000D01*
X92583000Y-100331750D01*
X92424250Y-100173000D01*
X91410000Y-100169928D01*
X91285518Y-100182188D01*
X91165820Y-100218498D01*
X91055506Y-100277463D01*
X90958815Y-100356815D01*
X90879463Y-100453506D01*
X90820498Y-100563820D01*
X90784188Y-100683518D01*
X90771928Y-100808000D01*
X88774299Y-100808000D01*
X89022566Y-100208631D01*
X89163347Y-99500880D01*
X89163347Y-98779264D01*
X89022566Y-98071513D01*
X88746416Y-97404827D01*
X88345507Y-96804825D01*
X87835247Y-96294565D01*
X87235245Y-95893656D01*
X87160564Y-95862722D01*
X87172185Y-95853185D01*
X87251537Y-95756494D01*
X87310502Y-95646180D01*
X87346812Y-95526482D01*
X87359072Y-95402000D01*
X87359072Y-94402000D01*
X87346812Y-94277518D01*
X87310502Y-94157820D01*
X87251537Y-94047506D01*
X87172185Y-93950815D01*
X87075494Y-93871463D01*
X86965180Y-93812498D01*
X86845482Y-93776188D01*
X86721000Y-93763928D01*
X84221000Y-93763928D01*
X84096518Y-93776188D01*
X83976820Y-93812498D01*
X83866506Y-93871463D01*
X83769815Y-93950815D01*
X83690463Y-94047506D01*
X83653317Y-94117000D01*
X82612658Y-94117000D01*
X80429302Y-91933644D01*
X80451185Y-91915685D01*
X80530537Y-91818994D01*
X80589502Y-91708680D01*
X80611513Y-91636120D01*
X80743368Y-91767975D01*
X80986589Y-91930490D01*
X81256842Y-92042432D01*
X81543740Y-92099500D01*
X81836260Y-92099500D01*
X82123158Y-92042432D01*
X82393411Y-91930490D01*
X82636632Y-91767975D01*
X82843475Y-91561132D01*
X82960000Y-91386740D01*
X83076525Y-91561132D01*
M02*
