G04 #@! TF.GenerationSoftware,KiCad,Pcbnew,(5.1.5-0-10_14)*
G04 #@! TF.CreationDate,2020-09-10T18:34:02-04:00*
G04 #@! TF.ProjectId,AYOMSM - VCA Control Board,41594f4d-534d-4202-9d20-56434120436f,1.1*
G04 #@! TF.SameCoordinates,Original*
G04 #@! TF.FileFunction,Other,Fab,Bot*
%FSLAX46Y46*%
G04 Gerber Fmt 4.6, Leading zero omitted, Abs format (unit mm)*
G04 Created by KiCad (PCBNEW (5.1.5-0-10_14)) date 2020-09-10 18:34:02*
%MOMM*%
%LPD*%
G04 APERTURE LIST*
%ADD10C,0.100000*%
%ADD11C,0.150000*%
G04 APERTURE END LIST*
D10*
X77880000Y-89344500D02*
X77880000Y-91249500D01*
X77880000Y-91249500D02*
X78515000Y-91884500D01*
X78515000Y-91884500D02*
X93120000Y-91884500D01*
X93120000Y-91884500D02*
X93120000Y-89344500D01*
X93120000Y-89344500D02*
X77880000Y-89344500D01*
X93916500Y-126695000D02*
X92011500Y-126695000D01*
X92011500Y-126695000D02*
X91376500Y-127330000D01*
X91376500Y-127330000D02*
X91376500Y-152095000D01*
X91376500Y-152095000D02*
X93916500Y-152095000D01*
X93916500Y-152095000D02*
X93916500Y-126695000D01*
D11*
X94273642Y-88495452D02*
X94321261Y-88447833D01*
X94368880Y-88304976D01*
X94368880Y-88209738D01*
X94321261Y-88066880D01*
X94226023Y-87971642D01*
X94130785Y-87924023D01*
X93940309Y-87876404D01*
X93797452Y-87876404D01*
X93606976Y-87924023D01*
X93511738Y-87971642D01*
X93416500Y-88066880D01*
X93368880Y-88209738D01*
X93368880Y-88304976D01*
X93416500Y-88447833D01*
X93464119Y-88495452D01*
X93368880Y-89114500D02*
X93368880Y-89304976D01*
X93416500Y-89400214D01*
X93511738Y-89495452D01*
X93702214Y-89543071D01*
X94035547Y-89543071D01*
X94226023Y-89495452D01*
X94321261Y-89400214D01*
X94368880Y-89304976D01*
X94368880Y-89114500D01*
X94321261Y-89019261D01*
X94226023Y-88924023D01*
X94035547Y-88876404D01*
X93702214Y-88876404D01*
X93511738Y-88924023D01*
X93416500Y-89019261D01*
X93368880Y-89114500D01*
X94368880Y-89971642D02*
X93368880Y-89971642D01*
X94368880Y-90543071D01*
X93368880Y-90543071D01*
X94368880Y-91019261D02*
X93368880Y-91019261D01*
X94368880Y-91590690D01*
X93368880Y-91590690D01*
X94464119Y-91828785D02*
X94464119Y-92590690D01*
X94368880Y-93352595D02*
X94368880Y-92781166D01*
X94368880Y-93066880D02*
X93368880Y-93066880D01*
X93511738Y-92971642D01*
X93606976Y-92876404D01*
X93654595Y-92781166D01*
X85833333Y-90066880D02*
X85833333Y-90781166D01*
X85880952Y-90924023D01*
X85976190Y-91019261D01*
X86119047Y-91066880D01*
X86214285Y-91066880D01*
X84880952Y-90066880D02*
X85357142Y-90066880D01*
X85404761Y-90543071D01*
X85357142Y-90495452D01*
X85261904Y-90447833D01*
X85023809Y-90447833D01*
X84928571Y-90495452D01*
X84880952Y-90543071D01*
X84833333Y-90638309D01*
X84833333Y-90876404D01*
X84880952Y-90971642D01*
X84928571Y-91019261D01*
X85023809Y-91066880D01*
X85261904Y-91066880D01*
X85357142Y-91019261D01*
X85404761Y-90971642D01*
X90336642Y-147296452D02*
X90384261Y-147248833D01*
X90431880Y-147105976D01*
X90431880Y-147010738D01*
X90384261Y-146867880D01*
X90289023Y-146772642D01*
X90193785Y-146725023D01*
X90003309Y-146677404D01*
X89860452Y-146677404D01*
X89669976Y-146725023D01*
X89574738Y-146772642D01*
X89479500Y-146867880D01*
X89431880Y-147010738D01*
X89431880Y-147105976D01*
X89479500Y-147248833D01*
X89527119Y-147296452D01*
X89431880Y-147915500D02*
X89431880Y-148105976D01*
X89479500Y-148201214D01*
X89574738Y-148296452D01*
X89765214Y-148344071D01*
X90098547Y-148344071D01*
X90289023Y-148296452D01*
X90384261Y-148201214D01*
X90431880Y-148105976D01*
X90431880Y-147915500D01*
X90384261Y-147820261D01*
X90289023Y-147725023D01*
X90098547Y-147677404D01*
X89765214Y-147677404D01*
X89574738Y-147725023D01*
X89479500Y-147820261D01*
X89431880Y-147915500D01*
X90431880Y-148772642D02*
X89431880Y-148772642D01*
X90431880Y-149344071D01*
X89431880Y-149344071D01*
X90431880Y-149820261D02*
X89431880Y-149820261D01*
X90431880Y-150391690D01*
X89431880Y-150391690D01*
X90527119Y-150629785D02*
X90527119Y-151391690D01*
X89527119Y-151582166D02*
X89479500Y-151629785D01*
X89431880Y-151725023D01*
X89431880Y-151963119D01*
X89479500Y-152058357D01*
X89527119Y-152105976D01*
X89622357Y-152153595D01*
X89717595Y-152153595D01*
X89860452Y-152105976D01*
X90431880Y-151534547D01*
X90431880Y-152153595D01*
X92098880Y-139061666D02*
X92813166Y-139061666D01*
X92956023Y-139014047D01*
X93051261Y-138918809D01*
X93098880Y-138775952D01*
X93098880Y-138680714D01*
X92098880Y-139966428D02*
X92098880Y-139775952D01*
X92146500Y-139680714D01*
X92194119Y-139633095D01*
X92336976Y-139537857D01*
X92527452Y-139490238D01*
X92908404Y-139490238D01*
X93003642Y-139537857D01*
X93051261Y-139585476D01*
X93098880Y-139680714D01*
X93098880Y-139871190D01*
X93051261Y-139966428D01*
X93003642Y-140014047D01*
X92908404Y-140061666D01*
X92670309Y-140061666D01*
X92575071Y-140014047D01*
X92527452Y-139966428D01*
X92479833Y-139871190D01*
X92479833Y-139680714D01*
X92527452Y-139585476D01*
X92575071Y-139537857D01*
X92670309Y-139490238D01*
M02*
