G04 #@! TF.GenerationSoftware,KiCad,Pcbnew,(5.1.5-0-10_14)*
G04 #@! TF.CreationDate,2020-10-09T22:17:27-04:00*
G04 #@! TF.ProjectId,AYOM - VCA Control Board,41594f4d-202d-4205-9643-4120436f6e74,1.1*
G04 #@! TF.SameCoordinates,Original*
G04 #@! TF.FileFunction,Legend,Top*
G04 #@! TF.FilePolarity,Positive*
%FSLAX46Y46*%
G04 Gerber Fmt 4.6, Leading zero omitted, Abs format (unit mm)*
G04 Created by KiCad (PCBNEW (5.1.5-0-10_14)) date 2020-10-09 22:17:27*
%MOMM*%
%LPD*%
G04 APERTURE LIST*
%ADD10C,0.150000*%
%ADD11C,0.120000*%
G04 APERTURE END LIST*
D10*
X92329047Y-94686428D02*
X93090952Y-94686428D01*
X92710000Y-95067380D02*
X92710000Y-94305476D01*
X92329047Y-104338428D02*
X93090952Y-104338428D01*
X83216714Y-80081380D02*
X82645285Y-80081380D01*
X82931000Y-80081380D02*
X82931000Y-79081380D01*
X82835761Y-79224238D01*
X82740523Y-79319476D01*
X82645285Y-79367095D01*
X88423714Y-59253380D02*
X87852285Y-59253380D01*
X88138000Y-59253380D02*
X88138000Y-58253380D01*
X88042761Y-58396238D01*
X87947523Y-58491476D01*
X87852285Y-58539095D01*
D11*
X80605000Y-80381000D02*
X80605000Y-75311000D01*
X90375000Y-80381000D02*
X90375000Y-75311000D01*
X90375000Y-75311000D02*
X80605000Y-75311000D01*
X90375000Y-80381000D02*
X80605000Y-80381000D01*
X80625000Y-54874000D02*
X90395000Y-54874000D01*
X80625000Y-59944000D02*
X90395000Y-59944000D01*
X80625000Y-54874000D02*
X80625000Y-59944000D01*
X90395000Y-54874000D02*
X90395000Y-59944000D01*
X90370000Y-61086000D02*
X80630000Y-61086000D01*
X90370000Y-72676000D02*
X88880000Y-72676000D01*
X90370000Y-64146000D02*
X90370000Y-61086000D01*
X80620000Y-72676000D02*
X80620000Y-67956000D01*
X80630000Y-64146000D02*
X80630000Y-61086000D01*
X90370000Y-72676000D02*
X90370000Y-67956000D01*
X81810000Y-72676000D02*
X80630000Y-72676000D01*
X84710000Y-72676000D02*
X84180000Y-72676000D01*
X87160000Y-72676000D02*
X86330000Y-72676000D01*
X91210000Y-103608000D02*
X94210000Y-103608000D01*
X94210000Y-95508000D02*
X91210000Y-95508000D01*
X91210000Y-103608000D02*
X91210000Y-95508000D01*
X94210000Y-95508000D02*
X94210000Y-103608000D01*
X91869000Y-81762600D02*
X91869000Y-88620600D01*
X91869000Y-88620600D02*
X79169000Y-88620600D01*
X79169000Y-88620600D02*
X79169000Y-81762600D01*
X79169000Y-81762600D02*
X91869000Y-81762600D01*
D10*
X81026000Y-103632000D02*
X83566000Y-103632000D01*
X83566000Y-103632000D02*
X83566000Y-104267000D01*
X83566000Y-104267000D02*
X87376000Y-104267000D01*
X87376000Y-104267000D02*
X87376000Y-103632000D01*
X87376000Y-103632000D02*
X89916000Y-103632000D01*
X89971000Y-93822000D02*
X89971000Y-104322000D01*
X80971000Y-93822000D02*
X80971000Y-104322000D01*
X80971000Y-104322000D02*
X89971000Y-104322000D01*
X80971000Y-93822000D02*
X89971000Y-93822000D01*
X81026000Y-118491000D02*
X83566000Y-118491000D01*
X83566000Y-118491000D02*
X83566000Y-119126000D01*
X83566000Y-119126000D02*
X87376000Y-119126000D01*
X87376000Y-119126000D02*
X87376000Y-118491000D01*
X87376000Y-118491000D02*
X89916000Y-118491000D01*
X89971000Y-108681000D02*
X89971000Y-119181000D01*
X80971000Y-108681000D02*
X80971000Y-119181000D01*
X80971000Y-119181000D02*
X89971000Y-119181000D01*
X80971000Y-108681000D02*
X89971000Y-108681000D01*
X81026000Y-133604000D02*
X83566000Y-133604000D01*
X83566000Y-133604000D02*
X83566000Y-134239000D01*
X83566000Y-134239000D02*
X87376000Y-134239000D01*
X87376000Y-134239000D02*
X87376000Y-133604000D01*
X87376000Y-133604000D02*
X89916000Y-133604000D01*
X89971000Y-123794000D02*
X89971000Y-134294000D01*
X80971000Y-123794000D02*
X80971000Y-134294000D01*
X80971000Y-134294000D02*
X89971000Y-134294000D01*
X80971000Y-123794000D02*
X89971000Y-123794000D01*
X81026000Y-148590000D02*
X83566000Y-148590000D01*
X83566000Y-148590000D02*
X83566000Y-149225000D01*
X83566000Y-149225000D02*
X87376000Y-149225000D01*
X87376000Y-149225000D02*
X87376000Y-148590000D01*
X87376000Y-148590000D02*
X89916000Y-148590000D01*
X89971000Y-138780000D02*
X89971000Y-149280000D01*
X80971000Y-138780000D02*
X80971000Y-149280000D01*
X80971000Y-149280000D02*
X89971000Y-149280000D01*
X80971000Y-138780000D02*
X89971000Y-138780000D01*
D11*
X76871665Y-151711608D02*
G75*
G03X80104000Y-151868516I1672335J1078608D01*
G01*
X76871665Y-149554392D02*
G75*
G02X80104000Y-149397484I1672335J-1078608D01*
G01*
X77502870Y-151712837D02*
G75*
G03X79584961Y-151713000I1041130J1079837D01*
G01*
X77502870Y-149553163D02*
G75*
G02X79584961Y-149553000I1041130J-1079837D01*
G01*
X80104000Y-151869000D02*
X80104000Y-151713000D01*
X80104000Y-149553000D02*
X80104000Y-149397000D01*
X78074000Y-146643000D02*
X77744000Y-146643000D01*
X77744000Y-146643000D02*
X77744000Y-140103000D01*
X77744000Y-140103000D02*
X78074000Y-140103000D01*
X80154000Y-146643000D02*
X80484000Y-146643000D01*
X80484000Y-146643000D02*
X80484000Y-140103000D01*
X80484000Y-140103000D02*
X80154000Y-140103000D01*
D10*
X80163880Y-78446238D02*
X79687690Y-78779571D01*
X80163880Y-79017666D02*
X79163880Y-79017666D01*
X79163880Y-78636714D01*
X79211500Y-78541476D01*
X79259119Y-78493857D01*
X79354357Y-78446238D01*
X79497214Y-78446238D01*
X79592452Y-78493857D01*
X79640071Y-78541476D01*
X79687690Y-78636714D01*
X79687690Y-79017666D01*
X79163880Y-78160523D02*
X80163880Y-77827190D01*
X79163880Y-77493857D01*
X79259119Y-77208142D02*
X79211500Y-77160523D01*
X79163880Y-77065285D01*
X79163880Y-76827190D01*
X79211500Y-76731952D01*
X79259119Y-76684333D01*
X79354357Y-76636714D01*
X79449595Y-76636714D01*
X79592452Y-76684333D01*
X80163880Y-77255761D01*
X80163880Y-76636714D01*
X91146380Y-79446238D02*
X91146380Y-78874809D01*
X92146380Y-79160523D02*
X91146380Y-79160523D01*
X92146380Y-77970047D02*
X91670190Y-78303380D01*
X92146380Y-78541476D02*
X91146380Y-78541476D01*
X91146380Y-78160523D01*
X91194000Y-78065285D01*
X91241619Y-78017666D01*
X91336857Y-77970047D01*
X91479714Y-77970047D01*
X91574952Y-78017666D01*
X91622571Y-78065285D01*
X91670190Y-78160523D01*
X91670190Y-78541476D01*
X92146380Y-77541476D02*
X91146380Y-77541476D01*
X92146380Y-77065285D02*
X91146380Y-77065285D01*
X91860666Y-76731952D01*
X91146380Y-76398619D01*
X92146380Y-76398619D01*
X88241285Y-79049619D02*
X88288904Y-79002000D01*
X88384142Y-78954380D01*
X88622238Y-78954380D01*
X88717476Y-79002000D01*
X88765095Y-79049619D01*
X88812714Y-79144857D01*
X88812714Y-79240095D01*
X88765095Y-79382952D01*
X88193666Y-79954380D01*
X88812714Y-79954380D01*
X89241285Y-79954380D02*
X89241285Y-78954380D01*
X89812714Y-79954380D02*
X89384142Y-79382952D01*
X89812714Y-78954380D02*
X89241285Y-79525809D01*
X80106780Y-57999238D02*
X79630590Y-58332571D01*
X80106780Y-58570666D02*
X79106780Y-58570666D01*
X79106780Y-58189714D01*
X79154400Y-58094476D01*
X79202019Y-58046857D01*
X79297257Y-57999238D01*
X79440114Y-57999238D01*
X79535352Y-58046857D01*
X79582971Y-58094476D01*
X79630590Y-58189714D01*
X79630590Y-58570666D01*
X79106780Y-57713523D02*
X80106780Y-57380190D01*
X79106780Y-57046857D01*
X79106780Y-56808761D02*
X79106780Y-56189714D01*
X79487733Y-56523047D01*
X79487733Y-56380190D01*
X79535352Y-56284952D01*
X79582971Y-56237333D01*
X79678209Y-56189714D01*
X79916304Y-56189714D01*
X80011542Y-56237333D01*
X80059161Y-56284952D01*
X80106780Y-56380190D01*
X80106780Y-56665904D01*
X80059161Y-56761142D01*
X80011542Y-56808761D01*
X91622571Y-58475428D02*
X91670190Y-58332571D01*
X91717809Y-58284952D01*
X91813047Y-58237333D01*
X91955904Y-58237333D01*
X92051142Y-58284952D01*
X92098761Y-58332571D01*
X92146380Y-58427809D01*
X92146380Y-58808761D01*
X91146380Y-58808761D01*
X91146380Y-58475428D01*
X91194000Y-58380190D01*
X91241619Y-58332571D01*
X91336857Y-58284952D01*
X91432095Y-58284952D01*
X91527333Y-58332571D01*
X91574952Y-58380190D01*
X91622571Y-58475428D01*
X91622571Y-58808761D01*
X92146380Y-57808761D02*
X91146380Y-57808761D01*
X91860666Y-57380190D02*
X91860666Y-56904000D01*
X92146380Y-57475428D02*
X91146380Y-57142095D01*
X92146380Y-56808761D01*
X92098761Y-56523047D02*
X92146380Y-56380190D01*
X92146380Y-56142095D01*
X92098761Y-56046857D01*
X92051142Y-55999238D01*
X91955904Y-55951619D01*
X91860666Y-55951619D01*
X91765428Y-55999238D01*
X91717809Y-56046857D01*
X91670190Y-56142095D01*
X91622571Y-56332571D01*
X91574952Y-56427809D01*
X91527333Y-56475428D01*
X91432095Y-56523047D01*
X91336857Y-56523047D01*
X91241619Y-56475428D01*
X91194000Y-56427809D01*
X91146380Y-56332571D01*
X91146380Y-56094476D01*
X91194000Y-55951619D01*
X81586533Y-59558180D02*
X81015104Y-59558180D01*
X81300819Y-59558180D02*
X81300819Y-58558180D01*
X81205580Y-58701038D01*
X81110342Y-58796276D01*
X81015104Y-58843895D01*
X82205580Y-58558180D02*
X82300819Y-58558180D01*
X82396057Y-58605800D01*
X82443676Y-58653419D01*
X82491295Y-58748657D01*
X82538914Y-58939133D01*
X82538914Y-59177228D01*
X82491295Y-59367704D01*
X82443676Y-59462942D01*
X82396057Y-59510561D01*
X82300819Y-59558180D01*
X82205580Y-59558180D01*
X82110342Y-59510561D01*
X82062723Y-59462942D01*
X82015104Y-59367704D01*
X81967485Y-59177228D01*
X81967485Y-58939133D01*
X82015104Y-58748657D01*
X82062723Y-58653419D01*
X82110342Y-58605800D01*
X82205580Y-58558180D01*
X83157961Y-58558180D02*
X83253200Y-58558180D01*
X83348438Y-58605800D01*
X83396057Y-58653419D01*
X83443676Y-58748657D01*
X83491295Y-58939133D01*
X83491295Y-59177228D01*
X83443676Y-59367704D01*
X83396057Y-59462942D01*
X83348438Y-59510561D01*
X83253200Y-59558180D01*
X83157961Y-59558180D01*
X83062723Y-59510561D01*
X83015104Y-59462942D01*
X82967485Y-59367704D01*
X82919866Y-59177228D01*
X82919866Y-58939133D01*
X82967485Y-58748657D01*
X83015104Y-58653419D01*
X83062723Y-58605800D01*
X83157961Y-58558180D01*
X83919866Y-59558180D02*
X83919866Y-58558180D01*
X84491295Y-59558180D02*
X84062723Y-58986752D01*
X84491295Y-58558180D02*
X83919866Y-59129609D01*
X78812380Y-67441238D02*
X78336190Y-67774571D01*
X78812380Y-68012666D02*
X77812380Y-68012666D01*
X77812380Y-67631714D01*
X77860000Y-67536476D01*
X77907619Y-67488857D01*
X78002857Y-67441238D01*
X78145714Y-67441238D01*
X78240952Y-67488857D01*
X78288571Y-67536476D01*
X78336190Y-67631714D01*
X78336190Y-68012666D01*
X77812380Y-67155523D02*
X78812380Y-66822190D01*
X77812380Y-66488857D01*
X78812380Y-65631714D02*
X78812380Y-66203142D01*
X78812380Y-65917428D02*
X77812380Y-65917428D01*
X77955238Y-66012666D01*
X78050476Y-66107904D01*
X78098095Y-66203142D01*
X92416380Y-71783381D02*
X92416380Y-71592905D01*
X92464000Y-71497667D01*
X92559238Y-71402429D01*
X92749714Y-71354810D01*
X93083047Y-71354810D01*
X93273523Y-71402429D01*
X93368761Y-71497667D01*
X93416380Y-71592905D01*
X93416380Y-71783381D01*
X93368761Y-71878620D01*
X93273523Y-71973858D01*
X93083047Y-72021477D01*
X92749714Y-72021477D01*
X92559238Y-71973858D01*
X92464000Y-71878620D01*
X92416380Y-71783381D01*
X92892571Y-70592905D02*
X92892571Y-70926239D01*
X93416380Y-70926239D02*
X92416380Y-70926239D01*
X92416380Y-70450048D01*
X92892571Y-69735762D02*
X92892571Y-70069096D01*
X93416380Y-70069096D02*
X92416380Y-70069096D01*
X92416380Y-69592905D01*
X93368761Y-69259572D02*
X93416380Y-69116715D01*
X93416380Y-68878620D01*
X93368761Y-68783381D01*
X93321142Y-68735762D01*
X93225904Y-68688143D01*
X93130666Y-68688143D01*
X93035428Y-68735762D01*
X92987809Y-68783381D01*
X92940190Y-68878620D01*
X92892571Y-69069096D01*
X92844952Y-69164334D01*
X92797333Y-69211953D01*
X92702095Y-69259572D01*
X92606857Y-69259572D01*
X92511619Y-69211953D01*
X92464000Y-69164334D01*
X92416380Y-69069096D01*
X92416380Y-68831001D01*
X92464000Y-68688143D01*
X92892571Y-68259572D02*
X92892571Y-67926239D01*
X93416380Y-67783381D02*
X93416380Y-68259572D01*
X92416380Y-68259572D01*
X92416380Y-67783381D01*
X92416380Y-67497667D02*
X92416380Y-66926239D01*
X93416380Y-67211953D02*
X92416380Y-67211953D01*
X93511619Y-66831001D02*
X93511619Y-66069096D01*
X93130666Y-65878620D02*
X93130666Y-65402429D01*
X93416380Y-65973858D02*
X92416380Y-65640524D01*
X93416380Y-65307191D01*
X93416380Y-64973858D02*
X92416380Y-64973858D01*
X92416380Y-64735762D01*
X92464000Y-64592905D01*
X92559238Y-64497667D01*
X92654476Y-64450048D01*
X92844952Y-64402429D01*
X92987809Y-64402429D01*
X93178285Y-64450048D01*
X93273523Y-64497667D01*
X93368761Y-64592905D01*
X93416380Y-64735762D01*
X93416380Y-64973858D01*
X92416380Y-63688143D02*
X93130666Y-63688143D01*
X93273523Y-63735762D01*
X93368761Y-63831001D01*
X93416380Y-63973858D01*
X93416380Y-64069096D01*
X83642857Y-67692071D02*
X83785714Y-67739690D01*
X83833333Y-67787309D01*
X83880952Y-67882547D01*
X83880952Y-68025404D01*
X83833333Y-68120642D01*
X83785714Y-68168261D01*
X83690476Y-68215880D01*
X83309523Y-68215880D01*
X83309523Y-67215880D01*
X83642857Y-67215880D01*
X83738095Y-67263500D01*
X83785714Y-67311119D01*
X83833333Y-67406357D01*
X83833333Y-67501595D01*
X83785714Y-67596833D01*
X83738095Y-67644452D01*
X83642857Y-67692071D01*
X83309523Y-67692071D01*
X84833333Y-68215880D02*
X84261904Y-68215880D01*
X84547619Y-68215880D02*
X84547619Y-67215880D01*
X84452380Y-67358738D01*
X84357142Y-67453976D01*
X84261904Y-67501595D01*
X85452380Y-67215880D02*
X85547619Y-67215880D01*
X85642857Y-67263500D01*
X85690476Y-67311119D01*
X85738095Y-67406357D01*
X85785714Y-67596833D01*
X85785714Y-67834928D01*
X85738095Y-68025404D01*
X85690476Y-68120642D01*
X85642857Y-68168261D01*
X85547619Y-68215880D01*
X85452380Y-68215880D01*
X85357142Y-68168261D01*
X85309523Y-68120642D01*
X85261904Y-68025404D01*
X85214285Y-67834928D01*
X85214285Y-67596833D01*
X85261904Y-67406357D01*
X85309523Y-67311119D01*
X85357142Y-67263500D01*
X85452380Y-67215880D01*
X86404761Y-67215880D02*
X86500000Y-67215880D01*
X86595238Y-67263500D01*
X86642857Y-67311119D01*
X86690476Y-67406357D01*
X86738095Y-67596833D01*
X86738095Y-67834928D01*
X86690476Y-68025404D01*
X86642857Y-68120642D01*
X86595238Y-68168261D01*
X86500000Y-68215880D01*
X86404761Y-68215880D01*
X86309523Y-68168261D01*
X86261904Y-68120642D01*
X86214285Y-68025404D01*
X86166666Y-67834928D01*
X86166666Y-67596833D01*
X86214285Y-67406357D01*
X86261904Y-67311119D01*
X86309523Y-67263500D01*
X86404761Y-67215880D01*
X87166666Y-68215880D02*
X87166666Y-67215880D01*
X87738095Y-68215880D02*
X87309523Y-67644452D01*
X87738095Y-67215880D02*
X87166666Y-67787309D01*
X91574285Y-99011642D02*
X92088571Y-99011642D01*
X91831428Y-99911642D02*
X91831428Y-99011642D01*
X92388571Y-99911642D02*
X92388571Y-99011642D01*
X92731428Y-99011642D01*
X92817142Y-99054500D01*
X92860000Y-99097357D01*
X92902857Y-99183071D01*
X92902857Y-99311642D01*
X92860000Y-99397357D01*
X92817142Y-99440214D01*
X92731428Y-99483071D01*
X92388571Y-99483071D01*
X93760000Y-99911642D02*
X93245714Y-99911642D01*
X93502857Y-99911642D02*
X93502857Y-99011642D01*
X93417142Y-99140214D01*
X93331428Y-99225928D01*
X93245714Y-99268785D01*
X93264361Y-86829733D02*
X93311980Y-86686876D01*
X93311980Y-86448780D01*
X93264361Y-86353542D01*
X93216742Y-86305923D01*
X93121504Y-86258304D01*
X93026266Y-86258304D01*
X92931028Y-86305923D01*
X92883409Y-86353542D01*
X92835790Y-86448780D01*
X92788171Y-86639257D01*
X92740552Y-86734495D01*
X92692933Y-86782114D01*
X92597695Y-86829733D01*
X92502457Y-86829733D01*
X92407219Y-86782114D01*
X92359600Y-86734495D01*
X92311980Y-86639257D01*
X92311980Y-86401161D01*
X92359600Y-86258304D01*
X92311980Y-85924971D02*
X93311980Y-85686876D01*
X92597695Y-85496400D01*
X93311980Y-85305923D01*
X92311980Y-85067828D01*
X93311980Y-84163066D02*
X93311980Y-84734495D01*
X93311980Y-84448780D02*
X92311980Y-84448780D01*
X92454838Y-84544019D01*
X92550076Y-84639257D01*
X92597695Y-84734495D01*
X78491080Y-88043715D02*
X78491080Y-88519905D01*
X77491080Y-88519905D01*
X78491080Y-87710381D02*
X77491080Y-87710381D01*
X78491080Y-87234191D02*
X77491080Y-87234191D01*
X78491080Y-86662762D01*
X77491080Y-86662762D01*
X78586319Y-86424667D02*
X78586319Y-85662762D01*
X78491080Y-84948477D02*
X78491080Y-85424667D01*
X77491080Y-85424667D01*
X77491080Y-84424667D02*
X77491080Y-84234191D01*
X77538700Y-84138953D01*
X77633938Y-84043715D01*
X77824414Y-83996096D01*
X78157747Y-83996096D01*
X78348223Y-84043715D01*
X78443461Y-84138953D01*
X78491080Y-84234191D01*
X78491080Y-84424667D01*
X78443461Y-84519905D01*
X78348223Y-84615143D01*
X78157747Y-84662762D01*
X77824414Y-84662762D01*
X77633938Y-84615143D01*
X77538700Y-84519905D01*
X77491080Y-84424667D01*
X77538700Y-83043715D02*
X77491080Y-83138953D01*
X77491080Y-83281810D01*
X77538700Y-83424667D01*
X77633938Y-83519905D01*
X77729176Y-83567524D01*
X77919652Y-83615143D01*
X78062509Y-83615143D01*
X78252985Y-83567524D01*
X78348223Y-83519905D01*
X78443461Y-83424667D01*
X78491080Y-83281810D01*
X78491080Y-83186572D01*
X78443461Y-83043715D01*
X78395842Y-82996096D01*
X78062509Y-82996096D01*
X78062509Y-83186572D01*
X78586319Y-82805619D02*
X78586319Y-82043715D01*
X78443461Y-81853239D02*
X78491080Y-81710381D01*
X78491080Y-81472286D01*
X78443461Y-81377048D01*
X78395842Y-81329429D01*
X78300604Y-81281810D01*
X78205366Y-81281810D01*
X78110128Y-81329429D01*
X78062509Y-81377048D01*
X78014890Y-81472286D01*
X77967271Y-81662762D01*
X77919652Y-81758000D01*
X77872033Y-81805619D01*
X77776795Y-81853239D01*
X77681557Y-81853239D01*
X77586319Y-81805619D01*
X77538700Y-81758000D01*
X77491080Y-81662762D01*
X77491080Y-81424667D01*
X77538700Y-81281810D01*
X77491080Y-80948477D02*
X78491080Y-80710381D01*
X77776795Y-80519905D01*
X78491080Y-80329429D01*
X77491080Y-80091334D01*
X80367142Y-100869737D02*
X80414761Y-100917356D01*
X80462380Y-101060213D01*
X80462380Y-101155451D01*
X80414761Y-101298308D01*
X80319523Y-101393546D01*
X80224285Y-101441165D01*
X80033809Y-101488784D01*
X79890952Y-101488784D01*
X79700476Y-101441165D01*
X79605238Y-101393546D01*
X79510000Y-101298308D01*
X79462380Y-101155451D01*
X79462380Y-101060213D01*
X79510000Y-100917356D01*
X79557619Y-100869737D01*
X79462380Y-100584022D02*
X80462380Y-100250689D01*
X79462380Y-99917356D01*
X80462380Y-99060213D02*
X80462380Y-99631641D01*
X80462380Y-99345927D02*
X79462380Y-99345927D01*
X79605238Y-99441165D01*
X79700476Y-99536403D01*
X79748095Y-99631641D01*
X91543142Y-114514238D02*
X91590761Y-114561857D01*
X91638380Y-114704714D01*
X91638380Y-114799952D01*
X91590761Y-114942809D01*
X91495523Y-115038047D01*
X91400285Y-115085666D01*
X91209809Y-115133285D01*
X91066952Y-115133285D01*
X90876476Y-115085666D01*
X90781238Y-115038047D01*
X90686000Y-114942809D01*
X90638380Y-114799952D01*
X90638380Y-114704714D01*
X90686000Y-114561857D01*
X90733619Y-114514238D01*
X90638380Y-114228523D02*
X91638380Y-113895190D01*
X90638380Y-113561857D01*
X90733619Y-113276142D02*
X90686000Y-113228523D01*
X90638380Y-113133285D01*
X90638380Y-112895190D01*
X90686000Y-112799952D01*
X90733619Y-112752333D01*
X90828857Y-112704714D01*
X90924095Y-112704714D01*
X91066952Y-112752333D01*
X91638380Y-113323761D01*
X91638380Y-112704714D01*
X80160761Y-132301809D02*
X80208380Y-132158952D01*
X80208380Y-131920857D01*
X80160761Y-131825619D01*
X80113142Y-131778000D01*
X80017904Y-131730380D01*
X79922666Y-131730380D01*
X79827428Y-131778000D01*
X79779809Y-131825619D01*
X79732190Y-131920857D01*
X79684571Y-132111333D01*
X79636952Y-132206571D01*
X79589333Y-132254190D01*
X79494095Y-132301809D01*
X79398857Y-132301809D01*
X79303619Y-132254190D01*
X79256000Y-132206571D01*
X79208380Y-132111333D01*
X79208380Y-131873238D01*
X79256000Y-131730380D01*
X80208380Y-131301809D02*
X79208380Y-131301809D01*
X79256000Y-130301809D02*
X79208380Y-130397047D01*
X79208380Y-130539904D01*
X79256000Y-130682761D01*
X79351238Y-130778000D01*
X79446476Y-130825619D01*
X79636952Y-130873238D01*
X79779809Y-130873238D01*
X79970285Y-130825619D01*
X80065523Y-130778000D01*
X80160761Y-130682761D01*
X80208380Y-130539904D01*
X80208380Y-130444666D01*
X80160761Y-130301809D01*
X80113142Y-130254190D01*
X79779809Y-130254190D01*
X79779809Y-130444666D01*
X80208380Y-129825619D02*
X79208380Y-129825619D01*
X80208380Y-129254190D01*
X79208380Y-129254190D01*
X79922666Y-128825619D02*
X79922666Y-128349428D01*
X80208380Y-128920857D02*
X79208380Y-128587523D01*
X80208380Y-128254190D01*
X80208380Y-127444666D02*
X80208380Y-127920857D01*
X79208380Y-127920857D01*
X80303619Y-127349428D02*
X80303619Y-126587523D01*
X80208380Y-126349428D02*
X79208380Y-126349428D01*
X80208380Y-125873238D02*
X79208380Y-125873238D01*
X80208380Y-125301809D01*
X79208380Y-125301809D01*
X81280523Y-138387761D02*
X81423380Y-138435380D01*
X81661476Y-138435380D01*
X81756714Y-138387761D01*
X81804333Y-138340142D01*
X81851952Y-138244904D01*
X81851952Y-138149666D01*
X81804333Y-138054428D01*
X81756714Y-138006809D01*
X81661476Y-137959190D01*
X81471000Y-137911571D01*
X81375761Y-137863952D01*
X81328142Y-137816333D01*
X81280523Y-137721095D01*
X81280523Y-137625857D01*
X81328142Y-137530619D01*
X81375761Y-137483000D01*
X81471000Y-137435380D01*
X81709095Y-137435380D01*
X81851952Y-137483000D01*
X82280523Y-138435380D02*
X82280523Y-137435380D01*
X83280523Y-137483000D02*
X83185285Y-137435380D01*
X83042428Y-137435380D01*
X82899571Y-137483000D01*
X82804333Y-137578238D01*
X82756714Y-137673476D01*
X82709095Y-137863952D01*
X82709095Y-138006809D01*
X82756714Y-138197285D01*
X82804333Y-138292523D01*
X82899571Y-138387761D01*
X83042428Y-138435380D01*
X83137666Y-138435380D01*
X83280523Y-138387761D01*
X83328142Y-138340142D01*
X83328142Y-138006809D01*
X83137666Y-138006809D01*
X83756714Y-138435380D02*
X83756714Y-137435380D01*
X84328142Y-138435380D01*
X84328142Y-137435380D01*
X84756714Y-138149666D02*
X85232904Y-138149666D01*
X84661476Y-138435380D02*
X84994809Y-137435380D01*
X85328142Y-138435380D01*
X86137666Y-138435380D02*
X85661476Y-138435380D01*
X85661476Y-137435380D01*
X86232904Y-138530619D02*
X86994809Y-138530619D01*
X87423380Y-137435380D02*
X87613857Y-137435380D01*
X87709095Y-137483000D01*
X87804333Y-137578238D01*
X87851952Y-137768714D01*
X87851952Y-138102047D01*
X87804333Y-138292523D01*
X87709095Y-138387761D01*
X87613857Y-138435380D01*
X87423380Y-138435380D01*
X87328142Y-138387761D01*
X87232904Y-138292523D01*
X87185285Y-138102047D01*
X87185285Y-137768714D01*
X87232904Y-137578238D01*
X87328142Y-137483000D01*
X87423380Y-137435380D01*
X88280523Y-137435380D02*
X88280523Y-138244904D01*
X88328142Y-138340142D01*
X88375761Y-138387761D01*
X88471000Y-138435380D01*
X88661476Y-138435380D01*
X88756714Y-138387761D01*
X88804333Y-138340142D01*
X88851952Y-138244904D01*
X88851952Y-137435380D01*
X89185285Y-137435380D02*
X89756714Y-137435380D01*
X89471000Y-138435380D02*
X89471000Y-137435380D01*
X81475904Y-151485380D02*
X81475904Y-150485380D01*
X81714000Y-150485380D01*
X81856857Y-150533000D01*
X81952095Y-150628238D01*
X81999714Y-150723476D01*
X82047333Y-150913952D01*
X82047333Y-151056809D01*
X81999714Y-151247285D01*
X81952095Y-151342523D01*
X81856857Y-151437761D01*
X81714000Y-151485380D01*
X81475904Y-151485380D01*
X82999714Y-151485380D02*
X82428285Y-151485380D01*
X82714000Y-151485380D02*
X82714000Y-150485380D01*
X82618761Y-150628238D01*
X82523523Y-150723476D01*
X82428285Y-150771095D01*
X77316380Y-148104428D02*
X76316380Y-148104428D01*
X76316380Y-147723476D01*
X76364000Y-147628238D01*
X76411619Y-147580619D01*
X76506857Y-147533000D01*
X76649714Y-147533000D01*
X76744952Y-147580619D01*
X76792571Y-147628238D01*
X76840190Y-147723476D01*
X76840190Y-148104428D01*
X76316380Y-147199666D02*
X77316380Y-146961571D01*
X76602095Y-146771095D01*
X77316380Y-146580619D01*
X76316380Y-146342523D01*
X77316380Y-145390142D02*
X76840190Y-145723476D01*
X77316380Y-145961571D02*
X76316380Y-145961571D01*
X76316380Y-145580619D01*
X76364000Y-145485380D01*
X76411619Y-145437761D01*
X76506857Y-145390142D01*
X76649714Y-145390142D01*
X76744952Y-145437761D01*
X76792571Y-145485380D01*
X76840190Y-145580619D01*
X76840190Y-145961571D01*
X77411619Y-145199666D02*
X77411619Y-144437761D01*
X77316380Y-143723476D02*
X77316380Y-144199666D01*
X76316380Y-144199666D01*
X76792571Y-143390142D02*
X76792571Y-143056809D01*
X77316380Y-142913952D02*
X77316380Y-143390142D01*
X76316380Y-143390142D01*
X76316380Y-142913952D01*
X77316380Y-142485380D02*
X76316380Y-142485380D01*
X76316380Y-142247285D01*
X76364000Y-142104428D01*
X76459238Y-142009190D01*
X76554476Y-141961571D01*
X76744952Y-141913952D01*
X76887809Y-141913952D01*
X77078285Y-141961571D01*
X77173523Y-142009190D01*
X77268761Y-142104428D01*
X77316380Y-142247285D01*
X77316380Y-142485380D01*
X78947333Y-138235380D02*
X78614000Y-137759190D01*
X78375904Y-138235380D02*
X78375904Y-137235380D01*
X78756857Y-137235380D01*
X78852095Y-137283000D01*
X78899714Y-137330619D01*
X78947333Y-137425857D01*
X78947333Y-137568714D01*
X78899714Y-137663952D01*
X78852095Y-137711571D01*
X78756857Y-137759190D01*
X78375904Y-137759190D01*
X79899714Y-138235380D02*
X79328285Y-138235380D01*
X79614000Y-138235380D02*
X79614000Y-137235380D01*
X79518761Y-137378238D01*
X79423523Y-137473476D01*
X79328285Y-137521095D01*
X79566380Y-144211571D02*
X79566380Y-144783000D01*
X79566380Y-144497285D02*
X78566380Y-144497285D01*
X78709238Y-144592523D01*
X78804476Y-144687761D01*
X78852095Y-144783000D01*
X79471142Y-143783000D02*
X79518761Y-143735380D01*
X79566380Y-143783000D01*
X79518761Y-143830619D01*
X79471142Y-143783000D01*
X79566380Y-143783000D01*
X78994952Y-143163952D02*
X78947333Y-143259190D01*
X78899714Y-143306809D01*
X78804476Y-143354428D01*
X78756857Y-143354428D01*
X78661619Y-143306809D01*
X78614000Y-143259190D01*
X78566380Y-143163952D01*
X78566380Y-142973476D01*
X78614000Y-142878238D01*
X78661619Y-142830619D01*
X78756857Y-142783000D01*
X78804476Y-142783000D01*
X78899714Y-142830619D01*
X78947333Y-142878238D01*
X78994952Y-142973476D01*
X78994952Y-143163952D01*
X79042571Y-143259190D01*
X79090190Y-143306809D01*
X79185428Y-143354428D01*
X79375904Y-143354428D01*
X79471142Y-143306809D01*
X79518761Y-143259190D01*
X79566380Y-143163952D01*
X79566380Y-142973476D01*
X79518761Y-142878238D01*
X79471142Y-142830619D01*
X79375904Y-142783000D01*
X79185428Y-142783000D01*
X79090190Y-142830619D01*
X79042571Y-142878238D01*
X78994952Y-142973476D01*
X79566380Y-142354428D02*
X78566380Y-142354428D01*
X79566380Y-141783000D02*
X78994952Y-142211571D01*
X78566380Y-141783000D02*
X79137809Y-142354428D01*
M02*
